<svg width="201" height="215" viewBox="0 0 201 215" fill="none" xmlns="http://www.w3.org/2000/svg">
<path opacity="0.2" d="M126.935 25.3725L63.9877 14.2611C57.6495 13.1423 51.196 15.4905 47.0589 20.4209L12.6729 61.4005C8.53585 66.3309 7.34394 73.0942 9.54636 79.1418L31.4195 139.203L94.3667 150.314C100.705 151.433 107.158 149.085 111.295 144.155L145.681 103.175C149.819 98.2447 151.01 91.4814 148.808 85.4338L126.935 25.3725Z" fill="#ABE1FA"/>
<path d="M146.876 11.6457L86.5579 0.998508C80.4828 -0.0738617 74.2971 2.17688 70.3317 6.90264L37.3839 46.1683C33.4185 50.8941 32.2761 57.3766 34.3871 63.1732L55.3466 120.726L115.664 131.373C121.739 132.445 127.925 130.195 131.89 125.469L164.838 86.2031C168.804 81.4773 169.946 74.9948 167.835 69.1982L146.876 11.6457Z" fill="url(#paint0_linear_1057_2761)"/>
<g style="mix-blend-mode:color-dodge" opacity="0.4" filter="url(#filter0_f_1057_2761)">
<ellipse cx="100.344" cy="123.224" rx="55.6484" ry="46.6841" fill="#70FF00"/>
</g>
<g opacity="0.2" filter="url(#filter1_f_1057_2761)">
<ellipse cx="100.344" cy="123.224" rx="55.6484" ry="46.6841" fill="#61DC00"/>
</g>
<path fill-rule="evenodd" clip-rule="evenodd" d="M115.137 61.3549L114.499 58.912C112.384 59.2401 112.676 59.2037 112.311 61.5007C112.093 62.9044 111.91 63.9618 111.582 65.2925C110.962 67.7901 110.342 69.8684 109.413 72.2019C105.985 80.7519 99.7871 86.7132 91.6018 90.6328C88.1746 92.2917 82.3956 94.771 78.4761 95.7008C79.8069 90.7603 88.0287 88.992 91.3284 86.7314C92.8232 85.7106 96.1959 80.7337 98.347 78.8013C100.735 76.6865 99.696 77.1058 100.681 73.8791C101.391 71.5456 102.449 71.2175 102.376 68.4464C102.121 58.5656 102.084 61.4642 91.1278 61.4642C86.9349 61.4642 81.9763 61.1908 80.0439 57.8728C91.5654 58.4198 101.446 56.1227 108.793 56.6514C119.804 57.4718 124.781 58.3103 135.263 57.8911C134.534 59.5318 135.427 58.5109 133.896 59.5683C129.812 62.4122 119.622 61.3002 115.137 61.3549ZM92.0394 78.2179C94.0811 76.7959 96.7246 72.9676 96.8521 69.522C88.9038 65.2925 85.5311 75.9027 92.0394 78.2179ZM110.288 47.5909C108.355 51.6198 102.412 49.4322 103.998 45.1116C105.457 41.0645 112.275 43.4527 110.288 47.5909ZM105.056 41.0463C98.6569 43.4162 101.72 54.6097 109.23 51.6563C115.757 49.0858 112.639 38.257 105.056 41.0463ZM116.395 99.5109C117.872 98.0707 122.429 86.5309 123.851 83.4682C126.877 76.9053 123.012 78.5825 125.182 74.8817L128.5 66.3499C126.349 66.6235 126.385 66.1129 125.619 68.0635C124.835 70.0324 124.361 72.5847 122.393 74.663C119.968 74.0796 117.161 72.3842 114.353 72.4389L113.879 73.8608C114.28 74.4078 113.879 74.0431 114.554 74.4806L117.197 75.4287C125.054 77.835 123.705 77.9809 118.327 90.1769L116.121 95.2085C115.502 96.2842 115.72 95.9195 115.064 96.5029C110.689 90.4686 117.252 87.0414 117.124 81.8275C116.213 81.0983 114.535 80.7337 112.968 80.4784C110.525 80.0773 110.689 80.0773 109.723 82.2103L113.04 82.8666C112.949 82.9396 112.822 83.0489 112.749 83.1036C112.694 83.14 112.548 83.2677 112.475 83.3224L108.556 84.9266C106.532 85.6194 106.004 86.4033 104.873 88.0622C108.483 87.6612 110.251 86.8591 113.205 85.8017C112.567 88.6274 110.634 90.5051 111.218 94.0783C111.692 97.0498 113.934 99.128 116.395 99.5109ZM86.2604 83.7417L88.1016 82.3196C74.7936 76.8142 66.9181 50.7083 84.9296 37.7648C88.7944 34.9756 96.8339 31.603 103.123 33.3713C95.5031 34.4104 90.1616 41.8302 91.292 50.2526C91.6018 52.5678 91.4195 52.5496 93.4066 52.5496C94.7738 50.8542 91.1461 44.9293 96.7427 39.1685C98.9486 36.8897 105.475 34.0823 110.361 35.2126C115.301 36.3611 121.554 42.8876 124.125 48.1196C126.567 53.0783 124.653 52.9142 128.208 52.9872C124.562 35.3584 101.1 22.8889 83.2524 36.0876C72.0408 44.3824 68.1942 61.3002 76.7442 74.663C78.7131 77.7622 82.8878 82.5932 86.2604 83.7417ZM114.189 63.7248C121.554 63.2325 130.706 65.2925 135.956 60.7168C136.63 60.1152 138.399 58.2739 138.563 56.9067C138.964 53.7163 134.953 56.5238 123.177 55.4482C101.373 53.4246 105.949 54.7919 88.4298 55.6852C85.6223 55.831 78.6219 54.9014 76.9265 55.594C75.6869 59.3313 81.2471 62.5398 84.9843 63.2691C89.7788 64.1987 94.7921 63.4331 99.6596 63.5425C99.9148 65.6937 100.407 68.4829 99.769 70.2694C96.7792 78.7284 97.0161 76.6318 91.0914 83.7964C89.5965 85.6012 83.8722 87.6065 81.4476 89.0831C79.2417 90.4322 73.9732 94.3334 76.6348 98.5082C78.8225 98.7635 87.8646 94.7893 90.2346 93.7866C102.066 88.7914 112.33 78.546 114.189 63.7248Z" fill="#FEFEFE"/>
<defs>
<filter id="filter0_f_1057_2761" x="0.540112" y="32.3848" width="199.607" height="181.679" filterUnits="userSpaceOnUse" color-interpolation-filters="sRGB">
<feFlood flood-opacity="0" result="BackgroundImageFix"/>
<feBlend mode="normal" in="SourceGraphic" in2="BackgroundImageFix" result="shape"/>
<feGaussianBlur stdDeviation="22.0776" result="effect1_foregroundBlur_1057_2761"/>
</filter>
<filter id="filter1_f_1057_2761" x="0.540112" y="32.3848" width="199.607" height="181.679" filterUnits="userSpaceOnUse" color-interpolation-filters="sRGB">
<feFlood flood-opacity="0" result="BackgroundImageFix"/>
<feBlend mode="normal" in="SourceGraphic" in2="BackgroundImageFix" result="shape"/>
<feGaussianBlur stdDeviation="22.0776" result="effect1_foregroundBlur_1057_2761"/>
</filter>
<linearGradient id="paint0_linear_1057_2761" x1="146.861" y1="11.6834" x2="55.3862" y2="120.748" gradientUnits="userSpaceOnUse">
<stop offset="0.195426" stop-color="#209B85"/>
<stop offset="1" stop-color="#85BC5C"/>
</linearGradient>
</defs>
</svg>
