<svg width="201" height="215" viewBox="0 0 201 215" fill="none" xmlns="http://www.w3.org/2000/svg">
<path opacity="0.2" d="M126.935 25.3725L63.9877 14.2611C57.6495 13.1423 51.196 15.4905 47.0589 20.4209L12.6729 61.4005C8.53585 66.3309 7.34394 73.0942 9.54636 79.1418L31.4195 139.203L94.3667 150.314C100.705 151.433 107.158 149.085 111.295 144.155L145.681 103.175C149.819 98.2447 151.01 91.4814 148.808 85.4338L126.935 25.3725Z" fill="#ABE1FA"/>
<path d="M146.876 11.6457L86.5579 0.998508C80.4828 -0.0738617 74.2971 2.17688 70.3317 6.90264L37.3839 46.1683C33.4185 50.8941 32.2761 57.3766 34.3871 63.1732L55.3466 120.726L115.664 131.373C121.739 132.445 127.925 130.195 131.89 125.469L164.838 86.2031C168.804 81.4773 169.946 74.9948 167.835 69.1982L146.876 11.6457Z" fill="url(#paint0_linear_1057_2750)"/>
<g style="mix-blend-mode:color-dodge" opacity="0.4" filter="url(#filter0_f_1057_2750)">
<ellipse cx="100.344" cy="123.224" rx="55.6484" ry="46.6841" fill="#70FF00"/>
</g>
<g opacity="0.2" filter="url(#filter1_f_1057_2750)">
<ellipse cx="100.344" cy="123.224" rx="55.6484" ry="46.6841" fill="#61DC00"/>
</g>
<path d="M98.2655 35.9685C96.758 35.9685 95.5569 37.1933 95.5569 38.689C95.5569 39.1336 95.673 39.9853 95.8474 40.7345C95.9366 41.1169 96.0534 41.532 96.2046 41.888C96.2749 42.0536 96.3675 42.2382 96.4865 42.4126V43.1354H96.1106C94.3892 43.1354 93.0073 44.5385 93.0073 46.2523C93.0073 47.9662 94.3892 49.3676 96.1106 49.3676H96.4865V56.6199L88.1849 62.6009C86.4957 63.8181 85.6139 65.659 85.1466 67.5497C84.6797 69.4388 84.5929 71.5087 84.5929 73.3529C84.5929 74.2267 84.6603 77.7311 84.7877 81.2085C84.8516 82.9489 84.931 84.6945 85.0253 86.1078C85.0723 86.8136 85.1229 87.4475 85.1791 87.9602C85.2315 88.4383 85.2979 88.9082 85.3961 89.2281C85.5587 89.7578 85.9937 89.9919 86.107 90.0518C86.288 90.1475 86.4809 90.2105 86.6418 90.2551C86.9735 90.3471 87.3951 90.4207 87.8603 90.4824C88.8033 90.6074 90.0986 90.7076 91.6078 90.7866C94.6351 90.9451 98.6234 91.0242 102.597 91.031C106.572 91.0376 110.552 90.9708 113.567 90.8396C115.07 90.7741 116.354 90.6928 117.282 90.5918C117.74 90.5419 118.146 90.4836 118.461 90.4124C118.612 90.3781 118.794 90.3287 118.963 90.2551C119.047 90.2187 119.173 90.1583 119.3 90.0603C119.416 89.971 119.637 89.7713 119.746 89.4298C119.851 89.101 119.922 88.6201 119.978 88.1328C120.038 87.6117 120.094 86.9702 120.144 86.2564C120.244 84.8273 120.329 83.0657 120.397 81.3093C120.532 77.7989 120.603 74.263 120.605 73.3564V73.353C120.605 71.5093 120.52 69.4375 120.053 67.548C119.586 65.6568 118.705 63.8145 117.013 62.5992L108.625 56.5755V49.3676H109.004C110.725 49.3676 112.109 47.9662 112.109 46.2524C112.109 44.5385 110.725 43.1354 109.004 43.1354H108.625V42.4194C108.744 42.2456 108.836 42.06 108.906 41.8948C109.059 41.5386 109.177 41.1241 109.267 40.7413C109.443 39.9915 109.561 39.138 109.561 38.6907C109.561 37.1972 108.362 35.9685 106.852 35.9685L98.2655 35.9685ZM74.6628 36.9853C73.7588 36.9853 73.0479 37.718 73.0479 38.6018V42.768H72.9454C70.8542 42.768 69.1723 44.4723 69.1723 46.5582V46.6471C69.1723 48.733 70.8542 50.4356 72.9454 50.4356H73.0479V56.4952C72.925 56.5376 72.8018 56.5781 72.6788 56.6216C70.4936 57.5323 68.5079 58.8664 66.8363 60.5486C65.1645 62.2307 63.8393 64.2284 62.935 66.4253C62.0306 68.6221 61.5645 70.9753 61.5645 73.3529V73.3564C61.5733 77.1162 62.7459 80.7798 64.9189 83.8401C67.0921 86.9006 70.158 89.2066 73.6939 90.4346C73.8201 90.4784 73.9532 90.5012 74.0869 90.5012H82.826C82.7705 90.3621 82.7143 90.2271 82.6653 90.0672C82.406 89.2216 82.3072 88.6484 82.2621 88.1071H74.292C71.3068 87.0276 68.7163 85.058 66.8687 82.456C64.9829 79.8001 63.9648 76.6171 63.9568 73.3512C63.9571 71.2865 64.3627 69.2434 65.1479 67.3361C65.9332 65.4283 67.083 63.6945 68.5331 62.2352C69.9834 60.7759 71.7045 59.6186 73.5982 58.8295C75.4919 58.0402 77.5214 57.6349 79.5706 57.635C82.3095 57.635 84.9733 58.3633 87.3117 59.7078L89.417 58.1921C88.3414 57.4854 87.1946 56.899 85.9993 56.4388V50.4356H86.1053C88.1964 50.4356 89.8784 48.733 89.8784 46.6471V46.5582C89.8784 44.4723 88.1964 42.768 86.1053 42.768H85.9993V38.6018C85.9993 37.7184 85.2887 36.9853 84.3845 36.9853H74.6628ZM98.2655 38.3609H106.852C107.019 38.3609 107.169 38.4975 107.169 38.6907C107.169 38.8814 107.093 39.5368 106.938 40.1945C106.862 40.5154 106.782 40.7789 106.707 40.9532C106.7 40.9707 106.693 40.9847 106.687 40.9976C106.404 41.2209 106.23 41.5654 106.23 41.9375V43.1354H98.8789V41.9341C98.8789 41.5642 98.7079 41.2228 98.4278 40.9994C98.4216 40.9861 98.4149 40.9695 98.4073 40.9515C98.333 40.7766 98.2531 40.5138 98.1783 40.1928C98.0251 39.5351 97.9493 38.8795 97.9493 38.689C97.9493 38.4979 98.0966 38.3609 98.2655 38.3609ZM75.4403 39.3777H83.6069V42.768H75.4403V39.3777ZM73.4888 44.752H85.6593C86.6965 44.752 87.5322 45.586 87.5322 46.6232C87.5322 47.6604 86.6965 48.4961 85.6593 48.4961H73.4888C72.4516 48.4961 71.6176 47.6604 71.6176 46.6232C71.6176 45.586 72.4516 44.752 73.4888 44.752ZM96.1106 45.5278H109.004C109.389 45.5278 109.716 45.8458 109.716 46.2523C109.716 46.6589 109.389 46.9752 109.004 46.9752H96.1106C95.725 46.9752 95.3997 46.6589 95.3997 46.2523C95.3997 45.8458 95.725 45.5278 96.1106 45.5278ZM98.8789 49.3676H106.23V57.0933C106.2 57.4954 106.369 57.902 106.721 58.1545L115.617 64.5438C116.67 65.3 117.335 66.5266 117.729 68.1222C118.123 69.719 118.211 71.5506 118.211 73.3512C118.209 74.2203 118.139 77.7252 118.004 81.2188C117.937 82.9653 117.855 84.6966 117.757 86.089C117.708 86.786 117.656 87.3886 117.601 87.8593C117.589 87.9648 117.577 88.0582 117.565 88.143C117.415 88.1653 117.234 88.1883 117.022 88.2114C116.172 88.304 114.949 88.3842 113.462 88.4489C110.495 88.5781 106.553 88.6435 102.601 88.6369C98.6479 88.6301 94.7057 88.5516 91.7342 88.3959C90.244 88.3179 89.0226 88.2229 88.1747 88.1105C87.9428 88.0798 87.7513 88.0488 87.5971 88.02C87.5848 87.9267 87.5711 87.8198 87.5578 87.6987C87.507 87.2341 87.4585 86.639 87.4125 85.9489C87.3207 84.5703 87.2436 82.8524 87.1801 81.1214C87.053 77.656 86.9853 74.1842 86.9853 73.3529C86.9853 71.5523 87.0759 69.7206 87.4706 68.1239C87.8649 66.5287 88.53 65.3008 89.5828 64.5421L97.9972 58.4791H100.554C101.214 58.4791 101.75 57.9438 101.75 57.283C101.75 56.6221 101.214 56.0868 100.554 56.0868H98.8789V49.3676ZM75.4403 50.4356H83.6069V55.7057C82.2933 55.4011 80.9405 55.2409 79.5706 55.2409C78.2032 55.2001 76.838 55.4121 75.4728 55.7587L75.4403 50.4356ZM104.103 56.0868C103.442 56.0868 102.907 56.6221 102.907 57.2829C102.907 57.9438 103.442 58.4791 104.103 58.4791H104.154C104.815 58.4791 105.35 57.9438 105.35 57.2829C105.35 56.6221 104.815 56.0868 104.154 56.0868H104.103ZM137.825 62.8914C131.229 63.304 126.216 64.183 122.394 65.4359C122.565 65.9154 122.713 66.3932 122.828 66.861C122.901 67.1554 122.966 67.4495 123.023 67.7411C125.963 66.7739 129.778 66.0025 134.789 65.5367C134.014 66.4679 133.319 67.4503 132.644 68.44C132.416 68.7741 132.191 69.1085 131.966 69.4431C130.899 71.0271 129.829 72.6155 128.478 74.1817C127.137 75.7366 125.503 77.2734 123.341 78.6828C123.313 79.5992 123.293 80.442 123.256 81.4238C123.255 81.4539 123.253 81.4827 123.252 81.5127C126.262 79.7756 128.46 77.7887 130.235 75.7317C131.693 74.0404 132.862 72.3059 133.931 70.7179C134.15 70.3929 134.365 70.0739 134.577 69.7627C135.847 67.9004 137.039 66.2979 138.582 65.0172C138.986 64.6825 139.142 64.1294 138.97 63.6467C138.798 63.1639 138.337 62.8594 137.825 62.8914ZM72.1286 65.9741C71.7742 65.9741 71.4382 66.1312 71.2109 66.4031C69.5583 68.3791 68.6506 70.8769 68.6459 73.4572V73.4623C68.6519 75.4756 69.2082 77.4486 70.254 79.1665C71.2997 80.8844 72.7947 82.2811 74.5774 83.2028C74.7473 83.2905 74.9346 83.3361 75.1259 83.3361H82.0211C81.9922 82.6705 81.9651 81.9994 81.9408 81.3162C81.9359 81.1825 81.9335 81.0768 81.9288 80.9437H75.4284C74.1462 80.2261 73.0669 79.186 72.2977 77.9224C71.48 76.579 71.0436 75.034 71.0383 73.4572C71.0423 71.6188 71.6312 69.8363 72.7096 68.3666H82.0775C82.1588 67.8697 82.2549 67.3685 82.38 66.8628C82.4524 66.57 82.5363 66.2729 82.6295 65.9742L72.1286 65.9741ZM93.3286 65.9741C92.6677 65.9741 92.1324 66.5095 92.1324 67.1703V83.9803C92.1324 84.6411 92.6677 85.1765 93.3286 85.1765H111.9C112.561 85.1765 113.097 84.6411 113.097 83.9803V67.1703C113.097 66.5095 112.561 65.9741 111.9 65.9741H103.158C102.497 65.9741 101.962 66.5095 101.962 67.1703C101.962 67.8311 102.497 68.3682 103.158 68.3682H110.704V82.7841H94.5248V68.3682H96.2798C96.9405 68.3682 97.476 67.8311 97.476 67.1703C97.476 66.5095 96.9405 65.9741 96.2798 65.9741H93.3286ZM125.599 69.8703C125.445 69.8621 125.286 69.8837 125.13 69.9404C124.514 70.1648 123.938 70.3978 123.382 70.6359C123.441 71.5247 123.464 72.3824 123.466 73.1923C124.196 72.852 124.982 72.5227 125.851 72.2063C126.475 71.9795 126.82 71.289 126.62 70.6632C126.471 70.1938 126.059 69.895 125.599 69.8703ZM133.61 75.4719C133.183 76.0185 132.73 76.5764 132.243 77.1432C132.18 77.2161 132.11 77.289 132.046 77.3619C132.064 77.3695 132.083 77.3765 132.101 77.3841C133.885 78.1809 135.607 79.1336 137.253 80.214C138.999 81.3757 140.609 82.7068 142.224 84.1016C140.98 84.1943 139.771 84.3981 138.623 84.5903C138.347 84.6365 138.073 84.6819 137.805 84.7253L137.793 84.7271C137.58 84.7641 137.367 84.8012 137.155 84.8381C135.574 85.1151 134.048 85.3835 132.492 85.5166L132.477 85.5183C129.629 85.8018 126.695 85.671 123.744 85.3201H123.734C123.513 85.2955 123.292 85.2622 123.071 85.2346C123.047 85.649 123.024 86.0833 122.998 86.4616C122.964 86.938 122.953 87.2707 122.938 87.6356C123.133 87.6594 123.327 87.6873 123.522 87.709C126.574 88.0718 129.68 88.2145 132.74 87.9107C134.401 87.7682 136.029 87.4834 137.598 87.2084C137.807 87.1717 138.015 87.1349 138.222 87.099C138.512 87.0521 138.798 87.0043 139.081 86.9571C140.662 86.6936 142.137 86.4478 143.659 86.4548C144.244 86.496 144.844 86.5183 145.45 86.4992C145.934 86.484 146.352 86.1655 146.505 85.6977C146.657 85.2301 146.512 84.7084 146.139 84.3853C145.765 84.0615 145.389 83.7333 145.011 83.4027C142.965 81.6149 140.844 79.7626 138.5 78.2044L138.494 78.1992C136.934 77.1755 135.301 76.2643 133.61 75.4719ZM129.91 79.5441C129.162 80.2333 128.349 80.912 127.458 81.5708C129.021 81.7361 130.598 82.109 132.137 82.6439C132.303 82.7108 132.47 82.7781 132.637 82.8456C132.933 82.9646 133.23 83.0843 133.526 83.2027C134.133 83.4459 134.808 83.1422 135.033 82.5243C135.258 81.9065 134.948 81.2091 134.341 80.9659C134.047 80.8481 133.755 80.7304 133.461 80.6121C133.284 80.541 133.108 80.4701 132.93 80.3985C132.913 80.3917 132.895 80.384 132.878 80.378C131.911 80.0406 130.918 79.7612 129.91 79.5441Z" fill="white"/>
<defs>
<filter id="filter0_f_1057_2750" x="0.540112" y="32.3848" width="199.607" height="181.679" filterUnits="userSpaceOnUse" color-interpolation-filters="sRGB">
<feFlood flood-opacity="0" result="BackgroundImageFix"/>
<feBlend mode="normal" in="SourceGraphic" in2="BackgroundImageFix" result="shape"/>
<feGaussianBlur stdDeviation="22.0776" result="effect1_foregroundBlur_1057_2750"/>
</filter>
<filter id="filter1_f_1057_2750" x="0.540112" y="32.3848" width="199.607" height="181.679" filterUnits="userSpaceOnUse" color-interpolation-filters="sRGB">
<feFlood flood-opacity="0" result="BackgroundImageFix"/>
<feBlend mode="normal" in="SourceGraphic" in2="BackgroundImageFix" result="shape"/>
<feGaussianBlur stdDeviation="22.0776" result="effect1_foregroundBlur_1057_2750"/>
</filter>
<linearGradient id="paint0_linear_1057_2750" x1="146.861" y1="11.6834" x2="55.3862" y2="120.748" gradientUnits="userSpaceOnUse">
<stop offset="0.195426" stop-color="#209B85"/>
<stop offset="1" stop-color="#85BC5C"/>
</linearGradient>
</defs>
</svg>
