<svg width="201" height="215" viewBox="0 0 201 215" fill="none" xmlns="http://www.w3.org/2000/svg">
<path opacity="0.2" d="M126.935 25.3725L63.9877 14.2611C57.6495 13.1423 51.196 15.4905 47.0589 20.4209L12.6729 61.4005C8.53585 66.3309 7.34394 73.0942 9.54636 79.1418L31.4195 139.203L94.3667 150.314C100.705 151.433 107.158 149.085 111.295 144.155L145.681 103.175C149.819 98.2447 151.01 91.4814 148.808 85.4338L126.935 25.3725Z" fill="#ABE1FA"/>
<path d="M146.876 11.6457L86.5579 0.998508C80.4828 -0.0738617 74.2971 2.17688 70.3317 6.90264L37.3839 46.1683C33.4185 50.8941 32.2761 57.3766 34.3871 63.1732L55.3466 120.726L115.664 131.373C121.739 132.445 127.925 130.195 131.89 125.469L164.838 86.2031C168.804 81.4773 169.946 74.9948 167.835 69.1982L146.876 11.6457Z" fill="url(#paint0_linear_1057_2772)"/>
<g style="mix-blend-mode:color-dodge" opacity="0.4" filter="url(#filter0_f_1057_2772)">
<ellipse cx="100.344" cy="123.224" rx="55.6484" ry="46.6841" fill="#70FF00"/>
</g>
<g opacity="0.2" filter="url(#filter1_f_1057_2772)">
<ellipse cx="100.344" cy="123.224" rx="55.6484" ry="46.6841" fill="#61DC00"/>
</g>
<path d="M89.5329 30.7679C103.527 24.008 120.351 29.8719 127.111 43.8652C129.944 49.7292 130.56 56.0904 129.29 61.9996C129.961 62.162 130.605 62.4116 131.203 62.7365C132.655 56.3138 132.024 49.3733 128.937 42.9833C121.69 27.9818 103.653 21.6955 88.6511 28.9424C75.7245 35.1868 69.2687 49.4416 72.3663 62.8632C72.9573 62.5171 73.5957 62.2459 74.2647 62.0616C71.5651 49.6442 77.5866 36.5388 89.5329 30.7679Z" fill="white"/>
<path fill-rule="evenodd" clip-rule="evenodd" d="M101.914 48.63C100.543 48.63 99.4323 49.7407 99.4323 51.1087C99.4323 52.4768 100.543 53.5875 101.914 53.5875C103.286 53.5875 104.396 52.4768 104.396 51.1087C104.396 49.7407 103.286 48.63 101.914 48.63ZM97.2197 51.1087C97.2197 48.517 99.3223 46.4175 101.914 46.4175C104.506 46.4175 106.608 48.517 106.608 51.1087C106.608 53.7005 104.506 55.8 101.914 55.8C99.3223 55.8 97.2197 53.7005 97.2197 51.1087Z" fill="white"/>
<path fill-rule="evenodd" clip-rule="evenodd" d="M84.9324 44.957C85.3482 44.7603 85.8423 44.8414 86.1735 45.1607L97.6741 56.2509L97.6837 56.2603C98.5076 57.0744 99.1588 57.4193 99.738 57.5859C100.353 57.7627 100.967 57.7677 101.855 57.7677C102.743 57.7677 103.357 57.7627 103.972 57.5858C104.551 57.4192 105.202 57.0743 106.026 56.2603L106.036 56.2509L117.536 45.1607C117.868 44.8414 118.362 44.7603 118.778 44.957C119.805 45.4431 120.436 46.6129 120.619 47.778C120.813 49.0128 120.555 50.4695 119.56 51.7653C119.551 51.7767 119.543 51.7878 119.533 51.7988L109.786 63.5181C109.602 63.7839 109.466 63.9919 109.348 64.2644C109.227 64.545 109.109 64.9343 109.035 65.541L106.477 92.0395C106.418 92.6476 105.878 93.093 105.27 93.0344C104.662 92.9756 104.216 92.435 104.275 91.827L106.834 65.3149C106.835 65.3062 106.836 65.2975 106.837 65.2888C106.932 64.5004 107.097 63.8958 107.317 63.3868C107.536 62.881 107.792 62.5101 107.997 62.2163C108.015 62.1902 108.034 62.1648 108.054 62.1404L117.818 50.4017C118.41 49.622 118.539 48.7918 118.433 48.1207C118.397 47.8865 118.336 47.6906 118.267 47.5302L107.576 57.8389C106.544 58.8576 105.582 59.4247 104.583 59.7121C103.649 59.9808 102.747 59.9805 101.935 59.9802C101.908 59.9802 101.881 59.9802 101.855 59.9802C101.828 59.9802 101.802 59.9802 101.775 59.9802C100.963 59.9805 100.061 59.9808 99.1265 59.7121C98.1274 59.4248 97.1656 58.8577 96.1335 57.8389L85.4432 47.5302C85.3737 47.6906 85.3134 47.8865 85.2766 48.1207C85.1714 48.7918 85.3004 49.622 85.8923 50.4017L95.6556 62.1404C95.6759 62.1648 95.6952 62.1902 95.7133 62.2163C95.9177 62.5101 96.1744 62.881 96.3929 63.3868C96.6129 63.8958 96.7782 64.5004 96.8732 65.2888C96.8742 65.2975 96.8751 65.3062 96.876 65.3149L99.4351 91.827C99.4938 92.435 99.0484 92.9756 98.4402 93.0344C97.8321 93.093 97.2915 92.6476 97.2327 92.0395L94.675 65.541C94.6009 64.9343 94.4832 64.545 94.3619 64.2644C94.2441 63.9919 94.108 63.7839 93.9237 63.5181L84.1765 51.7988C84.1674 51.7878 84.1585 51.7767 84.1497 51.7653C83.1546 50.4695 82.8972 49.0128 83.0907 47.778C83.2734 46.6129 83.9051 45.4431 84.9324 44.957Z" fill="white"/>
<path fill-rule="evenodd" clip-rule="evenodd" d="M90.5648 95.51C90.5664 93.1963 92.4327 91.3302 94.7482 91.3302H98.1566C98.7676 91.3302 99.2628 91.8255 99.2628 92.4365C99.2628 93.0474 98.7676 93.5427 98.1566 93.5427H94.7482C93.6543 93.5427 92.7781 94.4189 92.7774 95.5116L92.7748 99.4623C92.7744 100.073 92.2792 100.568 91.6685 100.568H72.8553C72.2443 100.568 71.749 100.072 71.749 99.4616C71.749 98.8506 72.2443 98.3553 72.8553 98.3553H90.563L90.5648 95.51ZM104.298 92.4365C104.298 91.8255 104.793 91.3302 105.404 91.3302H108.782C111.095 91.3302 112.97 93.1942 112.966 95.513L112.96 98.3553H130.839C131.45 98.3553 131.945 98.8506 131.945 99.4616C131.945 100.072 131.45 100.568 130.839 100.568H111.851C111.558 100.568 111.276 100.451 111.068 100.243C110.861 100.035 110.744 99.753 110.745 99.4593L110.753 95.5086C110.755 94.421 109.879 93.5427 108.782 93.5427H105.404C104.793 93.5427 104.298 93.0474 104.298 92.4365Z" fill="white"/>
<path fill-rule="evenodd" clip-rule="evenodd" d="M76.3158 68.4418C74.7581 68.4418 73.5362 69.6886 73.6128 71.0789L74.2128 81.9603C74.2465 82.5704 73.7792 83.0922 73.1691 83.1258C72.5591 83.1594 72.0373 82.6922 72.0036 82.0821L71.4036 71.2007C71.2482 68.3823 73.6547 66.2293 76.3158 66.2293H87.4515C90.1127 66.2293 92.5191 68.3823 92.3637 71.2007L91.7637 82.0821C91.7301 82.6922 91.2082 83.1594 90.5982 83.1258C89.9881 83.0922 89.5208 82.5704 89.5545 81.9603L90.1545 71.0789C90.2311 69.6886 89.0092 68.4418 87.4515 68.4418H76.3158ZM76.4526 71.8613C77.0617 71.8129 77.5946 72.2673 77.643 72.8764L79.4552 95.693C79.5035 96.302 79.049 96.835 78.44 96.8833C77.8309 96.9317 77.298 96.4772 77.2496 95.8681L75.4374 73.0516C75.389 72.4425 75.8436 71.9096 76.4526 71.8613ZM87.3451 71.8613C87.9542 71.9096 88.4087 72.4425 88.3603 73.0516L86.5481 95.8681C86.4998 96.4772 85.9668 96.9317 85.3577 96.8833C84.7487 96.835 84.2941 96.302 84.3425 95.693L86.1547 72.8764C86.2031 72.2673 86.736 71.8129 87.3451 71.8613Z" fill="white"/>
<path fill-rule="evenodd" clip-rule="evenodd" d="M81.5418 57.6337C80.1703 57.6337 79.06 58.7444 79.06 60.1125C79.06 61.4806 80.1703 62.5913 81.5418 62.5913C82.9134 62.5913 84.0236 61.4806 84.0236 60.1125C84.0236 58.7444 82.9134 57.6337 81.5418 57.6337ZM76.8475 60.1125C76.8475 57.5207 78.9501 55.4213 81.5418 55.4213C84.1336 55.4213 86.2362 57.5207 86.2362 60.1125C86.2362 62.7043 84.1336 64.8037 81.5418 64.8037C78.9501 64.8037 76.8475 62.7043 76.8475 60.1125Z" fill="white"/>
<path fill-rule="evenodd" clip-rule="evenodd" d="M127.477 68.442C129.035 68.442 130.257 69.6887 130.18 71.079L129.58 81.9604C129.547 82.5705 130.014 83.0923 130.624 83.1259C131.234 83.1596 131.756 82.6923 131.789 82.0822L132.389 71.2008C132.545 68.3824 130.138 66.2295 127.477 66.2295H116.341C113.68 66.2295 111.274 68.3824 111.429 71.2008L112.029 82.0822C112.063 82.6923 112.585 83.1596 113.195 83.1259C113.805 83.0923 114.272 82.5705 114.238 81.9604L113.639 71.079C113.562 69.6888 114.784 68.442 116.341 68.442H127.477ZM127.34 71.8613C126.731 71.813 126.198 72.2675 126.15 72.8765L124.338 95.6931C124.289 96.3022 124.744 96.8351 125.353 96.8835C125.962 96.9318 126.495 96.4773 126.543 95.8682L128.356 73.0517C128.404 72.4427 127.949 71.9097 127.34 71.8613ZM116.448 71.8613C115.839 71.9097 115.384 72.4427 115.433 73.0517L117.245 95.8682C117.293 96.4773 117.826 96.9318 118.435 96.8835C119.044 96.8351 119.499 96.3022 119.45 95.6931L117.638 72.8765C117.59 72.2675 117.057 71.813 116.448 71.8613Z" fill="white"/>
<path fill-rule="evenodd" clip-rule="evenodd" d="M122.253 57.6338C123.624 57.6338 124.735 58.7445 124.735 60.1126C124.735 61.4807 123.624 62.5913 122.253 62.5913C120.881 62.5913 119.771 61.4807 119.771 60.1126C119.771 58.7445 120.881 57.6338 122.253 57.6338ZM126.947 60.1126C126.947 57.5208 124.845 55.4213 122.253 55.4213C119.661 55.4213 117.559 57.5208 117.559 60.1126C117.559 62.7043 119.661 64.8038 122.253 64.8038C124.845 64.8038 126.947 62.7043 126.947 60.1126Z" fill="white"/>
<path fill-rule="evenodd" clip-rule="evenodd" d="M102.333 62.0866C102.892 62.0866 103.346 62.5404 103.346 63.1003V70.0108H103.451C104.01 70.0108 104.464 70.4647 104.464 71.0245C104.464 71.5844 104.01 72.0382 103.451 72.0382H101.106C100.547 72.0382 100.093 71.5844 100.093 71.0245C100.093 70.4647 100.547 70.0108 101.106 70.0108H101.319V66.3071C100.91 66.659 100.293 66.6302 99.9197 66.2338C99.5359 65.8263 99.555 65.1848 99.9624 64.8009L101.319 63.5231V63.1003C101.319 62.5404 101.773 62.0866 102.333 62.0866Z" fill="white"/>
<defs>
<filter id="filter0_f_1057_2772" x="0.540112" y="32.3848" width="199.607" height="181.679" filterUnits="userSpaceOnUse" color-interpolation-filters="sRGB">
<feFlood flood-opacity="0" result="BackgroundImageFix"/>
<feBlend mode="normal" in="SourceGraphic" in2="BackgroundImageFix" result="shape"/>
<feGaussianBlur stdDeviation="22.0776" result="effect1_foregroundBlur_1057_2772"/>
</filter>
<filter id="filter1_f_1057_2772" x="0.540112" y="32.3848" width="199.607" height="181.679" filterUnits="userSpaceOnUse" color-interpolation-filters="sRGB">
<feFlood flood-opacity="0" result="BackgroundImageFix"/>
<feBlend mode="normal" in="SourceGraphic" in2="BackgroundImageFix" result="shape"/>
<feGaussianBlur stdDeviation="22.0776" result="effect1_foregroundBlur_1057_2772"/>
</filter>
<linearGradient id="paint0_linear_1057_2772" x1="146.861" y1="11.6834" x2="55.3862" y2="120.748" gradientUnits="userSpaceOnUse">
<stop offset="0.195426" stop-color="#209B85"/>
<stop offset="1" stop-color="#85BC5C"/>
</linearGradient>
</defs>
</svg>
