<svg width="201" height="215" viewBox="0 0 201 215" fill="none" xmlns="http://www.w3.org/2000/svg">
<path opacity="0.2" d="M126.935 25.3725L63.9877 14.2611C57.6495 13.1423 51.196 15.4905 47.0589 20.4209L12.6729 61.4005C8.53585 66.3309 7.34394 73.0942 9.54636 79.1418L31.4195 139.203L94.3667 150.314C100.705 151.433 107.158 149.085 111.295 144.155L145.681 103.175C149.819 98.2447 151.01 91.4814 148.808 85.4338L126.935 25.3725Z" fill="#ABE1FA"/>
<path d="M146.876 11.6457L86.5579 0.998508C80.4828 -0.0738617 74.2971 2.17688 70.3317 6.90264L37.3839 46.1683C33.4185 50.8941 32.2761 57.3766 34.3871 63.1732L55.3466 120.726L115.664 131.373C121.739 132.445 127.925 130.195 131.89 125.469L164.838 86.2031C168.804 81.4773 169.946 74.9948 167.835 69.1982L146.876 11.6457Z" fill="url(#paint0_linear_1057_2739)"/>
<g style="mix-blend-mode:color-dodge" opacity="0.4" filter="url(#filter0_f_1057_2739)">
<ellipse cx="100.344" cy="123.224" rx="55.6484" ry="46.6841" fill="#70FF00"/>
</g>
<g opacity="0.2" filter="url(#filter1_f_1057_2739)">
<ellipse cx="100.344" cy="123.224" rx="55.6484" ry="46.6841" fill="#61DC00"/>
</g>
<path fill-rule="evenodd" clip-rule="evenodd" d="M97.0643 62.5113C99.548 69.283 109.385 75.5892 118.719 77.0444C117.884 79.1011 110.88 89.3267 109.56 90.6461C100.149 99.9403 82.6864 90.3745 87.6925 76.5011C88.6238 73.9398 90.5836 71.5145 92.0777 69.3218C92.912 68.1189 93.6687 67.0322 94.4255 65.8875C94.9688 65.0919 95.1046 64.8009 95.5702 64.1605L97.0643 62.5113ZM109.366 53.1783C111.753 54.2649 111.326 50.9857 115.478 50.3842C116.177 50.2872 117.748 50.326 118.971 50.7528C120.581 51.335 121.92 50.714 121.299 49.4723C119.824 46.4648 110.433 47.3767 109.017 51.6066C108.842 52.1111 109.056 52.6738 109.366 53.1783ZM93.1255 81.2161C94.018 81.1191 94.1538 81.4489 94.4061 81.9146C95.9971 85.6012 90.1761 85.3684 91.7478 81.7982C92.0389 81.4877 92.1359 81.2937 93.1255 81.2161ZM91.709 78.8877C86.2179 81.0415 89.497 88.57 94.6001 86.7849C99.3539 85.1161 97.239 76.7145 91.709 78.8877ZM103.06 85.0967C104.185 84.9416 104.108 85.155 104.476 85.4848C105.796 89.5984 100.732 88.9386 102.09 85.7953C102.303 85.4848 102.284 85.1744 103.06 85.0967ZM101.818 82.7295C96.4628 84.9416 99.6837 92.3924 104.69 90.6073C109.871 88.764 107.367 80.4399 101.818 82.7295ZM102.478 77.2772C102.148 77.607 101.411 78.5384 100.343 77.5876C97.4136 75.0458 103.875 72.8921 102.478 77.2772ZM99.3151 72.601C94.309 75.4339 98.1315 82.652 103.332 80.0907C107.891 77.8593 104.535 69.6324 99.3151 72.601ZM82.6864 51.1991C80.455 49.8215 80.6685 47.5901 78.2431 48.7544C76.652 52.0141 82.7835 50.7528 79.7372 58.7276C78.2431 57.5053 78.0684 55.759 75.9729 57.0784C74.2654 60.377 80.0476 58.1843 78.4565 69.1667C77.4863 67.9636 76.7684 67.6338 75.7012 66.0621C69.8414 57.5829 72.422 50.0544 79.1356 42.8751C81.367 40.4885 83.0745 37.4228 85.888 35.9288C88.8373 39.4019 91.709 49.3946 90.9328 55.1963C90.0985 61.3665 84.9954 67.8472 81.3476 69.5741C80.6297 64.0248 81.5417 62.8799 85.1507 61.4053C87.1104 60.5904 87.7507 61.3277 87.1686 59.2709C86.3925 57.5635 84.7238 58.7664 82.4342 59.5037C83.9476 51.8395 89.3418 55.3902 89.497 51.7812C88.6238 50.0738 87.4597 51.3932 85.1313 51.4514C85.8491 48.8707 87.2656 44.0394 85.5387 43.0304C84.7432 42.8557 84.0058 43.0304 83.7342 44.1945L82.6864 51.1991ZM86.7029 32.0093C83.6566 32.4362 73.6057 44.9513 71.5489 49.2782C66.9309 59.0575 72.9071 68.3711 77.8938 72.5816C80.9207 75.1235 83.8119 71.1069 87.285 67.886C100.285 55.8365 89.4583 34.2407 86.7029 32.0093ZM120.62 74.619C111.733 73.901 103.545 68.3128 100.285 63.1711C98.8688 60.9202 98.3837 59.7948 99.9943 57.4664C103.138 52.9649 106.494 46.7946 110.394 44.7184C119.184 40.0034 128.11 45.6886 129.837 53.353C131.796 62.065 123.608 69.0696 120.62 74.619ZM132.204 60.7068C136.919 44.1752 116.196 33.775 105.466 45.1066C102.478 48.2499 85.8686 72.9308 84.8596 76.5399C80.2416 93.1491 100.809 103.608 111.578 92.1984C113.538 90.1222 124.869 72.8727 127.469 69.0308C129.177 66.5472 131.214 64.1605 132.204 60.7068Z" fill="#FEFEFE"/>
<defs>
<filter id="filter0_f_1057_2739" x="0.540112" y="32.3848" width="199.607" height="181.679" filterUnits="userSpaceOnUse" color-interpolation-filters="sRGB">
<feFlood flood-opacity="0" result="BackgroundImageFix"/>
<feBlend mode="normal" in="SourceGraphic" in2="BackgroundImageFix" result="shape"/>
<feGaussianBlur stdDeviation="22.0776" result="effect1_foregroundBlur_1057_2739"/>
</filter>
<filter id="filter1_f_1057_2739" x="0.540112" y="32.3848" width="199.607" height="181.679" filterUnits="userSpaceOnUse" color-interpolation-filters="sRGB">
<feFlood flood-opacity="0" result="BackgroundImageFix"/>
<feBlend mode="normal" in="SourceGraphic" in2="BackgroundImageFix" result="shape"/>
<feGaussianBlur stdDeviation="22.0776" result="effect1_foregroundBlur_1057_2739"/>
</filter>
<linearGradient id="paint0_linear_1057_2739" x1="146.861" y1="11.6834" x2="55.3862" y2="120.748" gradientUnits="userSpaceOnUse">
<stop offset="0.195426" stop-color="#209B85"/>
<stop offset="1" stop-color="#85BC5C"/>
</linearGradient>
</defs>
</svg>
