<svg width="367" height="345" viewBox="0 0 367 345" fill="none" xmlns="http://www.w3.org/2000/svg">
<path fill-rule="evenodd" clip-rule="evenodd" d="M319.384 262.136V274.324H334.175V313.07H350.008V274.324H364.799V262.136H319.384ZM313.758 300.053C311.363 301.093 308.446 301.716 304.697 301.716C296.989 301.716 290.738 296.72 290.738 287.449C290.634 279.116 296.053 273.178 304.382 273.178C308.55 273.178 311.363 273.905 313.238 274.737L315.736 262.968C312.403 261.717 307.82 260.989 303.655 260.989C284.696 260.989 274.489 273.178 274.489 288.069C274.489 304.01 285.011 314.113 301.468 314.113C307.508 314.113 312.822 313.07 315.632 311.716L313.758 300.053ZM234.489 281.822C234.908 277.657 237.615 271.508 244.281 271.508C251.574 271.508 253.24 277.969 253.24 281.822H234.489ZM267.404 292.653C267.615 291.509 267.927 289.115 267.927 286.406C267.927 273.801 261.677 260.989 245.219 260.989C227.511 260.989 219.491 275.26 219.491 288.176C219.491 304.114 229.386 314.113 246.675 314.113C253.552 314.113 259.906 313.07 265.114 310.884L263.031 300.157C258.759 301.613 254.387 302.34 248.968 302.34C241.574 302.34 235.012 299.218 234.593 292.653H267.404ZM175.742 282.03H181.158C189.074 282.03 195.429 284.843 195.429 291.821C195.429 299.218 189.074 302.031 181.885 302.031C179.179 302.031 177.302 302.031 175.742 301.82V282.03ZM175.742 254.323C176.99 254.115 178.968 253.904 182.512 253.904C189.698 253.904 193.762 256.72 193.762 262.032C193.762 267.239 189.386 270.676 180.95 270.676H175.742V254.323ZM160.013 312.758C163.554 313.281 169.388 313.801 177.201 313.801C191.157 313.801 199.697 311.508 204.804 307.447C209.177 303.906 212.094 298.906 212.094 292.448C212.094 283.489 206.156 277.342 198.138 275.26V275.052C206.055 272.031 209.699 266.301 209.699 260.157C209.699 253.696 206.259 248.908 201.364 246.302C196.156 243.281 190.221 242.345 180.534 242.345C172.513 242.345 164.177 243.073 160.013 243.804V312.758ZM76.1606 262.136V313.07H95.4311C98.9721 305.154 102.828 296.301 106.054 289.219C108.139 284.427 109.39 281.094 111.369 275.572H111.784C111.262 286.302 110.846 289.635 110.846 297.552V313.07H125.847V262.136H106.473L96.5777 284.009C94.4923 288.803 93.1377 292.76 90.7434 298.591L90.3275 298.487C90.7434 291.613 91.1593 285.886 91.1593 277.761V262.136H76.1606ZM15.6398 242.865V273.591C15.6398 284.219 14.5971 293.28 10.3283 297.656C8.55782 299.53 5.74464 300.989 2.30762 301.405L4.28606 314.217C9.91244 314.217 14.7041 312.758 18.2451 310.78C28.8681 304.53 31.1614 290.571 31.1614 272.554V255.886H47.0989V313.07H62.9293V242.865H15.6398Z" fill="white"/>
<path d="M10.0713 329.588V331.512H7.24859V339.84H4.80421V331.512H1.97949V329.588H10.0713Z" fill="white"/>
<path d="M12.4395 339.84V329.588H15.9878C17.334 329.588 18.3652 329.877 19.0798 330.456C19.8057 331.034 20.1673 331.901 20.1673 333.058C20.1673 333.689 20.0469 334.246 19.8055 334.73C19.5641 335.203 19.2394 335.582 18.829 335.866C18.4192 336.139 17.9768 336.344 17.503 336.481C17.0426 336.618 16.5585 336.686 16.0516 336.686H14.6947V339.84L12.4395 339.84ZM15.5623 331.418H14.6947V334.919H15.5623C16.9713 334.919 17.6757 334.33 17.6757 333.153C17.6757 331.996 16.9713 331.418 15.5623 331.418Z" fill="white"/>
<path d="M24.724 329.588H27.9723L31.7118 339.84H29.2345L28.443 337.743H24.169L23.4289 339.84H20.9824L24.724 329.588ZM26.3338 331.307L24.7405 336.134H27.9106L26.3338 331.307Z" fill="white"/>
<path d="M35.6228 329.588H42.8778V337.916H44.2038L43.9674 342.27H42.1377L42.0452 339.84H35.4522L35.3432 342.27H33.6533L33.4189 337.916H34.4592C34.8578 337.064 35.1529 336.018 35.3432 334.777C35.5341 333.536 35.6228 331.807 35.6228 329.588ZM40.4972 331.512H37.7197C37.6355 334.373 37.2955 336.507 36.6959 337.916H40.4972V331.512Z" fill="white"/>
<path d="M56.3802 329.588V339.841H54.0776V334.131L54.1619 333.121L49.4952 339.557L49.3677 339.84H47.1289V329.588H49.4314V335.392L49.3472 336.307H49.4314L54.1167 329.872L54.2421 329.588L56.3802 329.588Z" fill="white"/>
<path d="M62.4015 329.588V337.916H66.4391V329.588H68.8691V337.916H70.1931L69.9587 342.269H68.1434L68.0509 339.84H59.9756V329.588H62.4015Z" fill="white"/>
<path d="M82.391 329.588V339.841H80.0885V334.131L80.1728 333.121L75.504 339.557L75.3786 339.84H73.1377V329.588H75.4402V335.392L75.3559 336.307H75.4402L80.1255 329.872L80.2509 329.588L82.391 329.588Z" fill="white"/>
<path d="M94.6478 330.803C95.6157 331.781 96.0993 333.09 96.0993 334.73C96.0993 336.37 95.6157 337.685 94.6478 338.673C93.6912 339.651 92.3512 340.14 90.6266 340.14C88.9021 340.14 87.5663 339.651 86.6198 338.673C85.6733 337.685 85.1992 336.37 85.1992 334.73C85.1992 333.09 85.6733 331.781 86.6198 330.803C87.5663 329.814 88.9021 329.32 90.6266 329.32C92.3512 329.32 93.6912 329.814 94.6478 330.803ZM92.8346 337.191C93.3623 336.57 93.6261 335.75 93.6261 334.73C93.6261 333.71 93.3623 332.89 92.8346 332.269C92.3069 331.649 91.5709 331.339 90.6266 331.339C89.6908 331.339 88.9648 331.649 88.4495 332.269C87.933 332.89 87.6744 333.71 87.6744 334.73C87.6744 335.75 87.9278 336.57 88.433 337.191C88.9383 337.8 89.668 338.105 90.6246 338.105C91.5812 338.105 92.3192 337.8 92.8346 337.191Z" fill="white"/>
<path d="M108.085 329.588V339.84H105.655V335.629H101.333V339.84H98.9053V329.588H101.333V333.784H105.655V329.588H108.085Z" fill="white"/>
<path d="M120.857 329.588V339.84H118.429V335.629H114.106V339.84H111.678V329.588H114.106V333.784H118.429V329.588H120.857Z" fill="white"/>
<path d="M127.091 329.588H130.342L134.079 339.84H131.602L130.81 337.743H126.536L125.796 339.84H123.35L127.091 329.588ZM128.701 331.307L127.108 336.134H130.278L128.701 331.307Z" fill="white"/>
<path d="M144.09 329.588V339.84H141.835V336.181H140.242L138.176 339.84H135.795L138.128 335.944C137.497 335.724 136.988 335.371 136.599 334.888C136.223 334.404 136.033 333.799 136.033 333.074C136.033 332.022 136.386 331.181 137.09 330.55C137.805 329.909 138.716 329.588 139.82 329.588H144.09ZM138.334 332.948C138.334 333.41 138.485 333.778 138.788 334.052C139.103 334.325 139.508 334.462 140.003 334.462H141.833V331.433H139.972C139.501 331.433 139.105 331.575 138.788 331.859C138.485 332.133 138.334 332.495 138.334 332.948Z" fill="white"/>
<path d="M153.167 339.841V329.588H155.595V334.131L156.495 333.531L159.776 329.588H162.488L158.387 334.462L162.852 339.84H160.013L156.606 335.803L155.595 336.37V339.84L153.167 339.841Z" fill="white"/>
<path d="M174.396 329.588V339.841H172.091V334.131L172.176 333.121L167.507 339.557L167.381 339.84H165.141V329.588H167.443V335.392L167.359 336.307H167.443L172.128 329.872L172.254 329.588L174.396 329.588Z" fill="white"/>
<path d="M184.851 329.588V331.512H182.029V339.84H179.584V331.512H176.762V329.588H184.851Z" fill="white"/>
<path d="M188.905 329.588H192.153L195.892 339.84H193.415L192.624 337.743H188.35L187.609 339.84H185.165L188.905 329.588ZM190.514 331.307L188.921 336.134H192.091L190.514 331.307Z" fill="white"/>
<path d="M207.674 329.588V339.841H205.374V334.131L205.456 333.121L200.789 339.557L200.662 339.841H198.423V329.588H200.725V335.392L200.641 336.307H200.725L205.411 329.872L205.536 329.588L207.674 329.588ZM203.227 327.412C203.598 327.412 203.907 327.327 204.157 327.159C204.42 326.991 204.589 326.822 204.662 326.655L204.79 326.418L204.899 326.452L206.286 326.735C206.286 326.786 206.258 326.86 206.202 326.956C206.202 327.04 206.123 327.198 205.966 327.429C205.842 327.661 205.681 327.865 205.478 328.044C205.276 328.212 204.975 328.37 204.578 328.517C204.179 328.654 203.717 328.722 203.19 328.722C202.674 328.722 202.217 328.654 201.819 328.517C201.421 328.38 201.122 328.217 200.921 328.028C200.719 327.828 200.555 327.634 200.431 327.444C200.302 327.245 200.223 327.076 200.195 326.94L200.111 326.735L201.515 326.452L201.607 326.418C201.607 326.452 201.635 326.488 201.692 326.528C201.692 326.568 201.74 326.646 201.836 326.765C201.92 326.881 202.015 326.98 202.121 327.065C202.228 327.149 202.374 327.228 202.559 327.301C202.75 327.375 202.96 327.412 203.19 327.412H203.227Z" fill="white"/>
<path d="M219.837 330.929L218.922 332.475C217.586 331.717 216.65 331.339 216.114 331.339C215.052 331.339 214.259 331.644 213.733 332.254C213.217 332.864 212.958 333.7 212.958 334.762C212.958 335.782 213.23 336.597 213.774 337.206C214.319 337.806 215.07 338.105 216.029 338.105C216.417 338.105 216.796 338.058 217.166 337.963C217.542 337.858 217.858 337.737 218.112 337.6C218.376 337.453 218.606 337.306 218.803 337.159C219.01 337.012 219.162 336.886 219.257 336.78L219.401 336.638L220.363 337.884C220.307 337.947 220.258 338.031 220.219 338.136C220.157 338.231 220.001 338.41 219.748 338.673C219.507 338.925 219.228 339.151 218.914 339.351C218.611 339.551 218.19 339.729 217.651 339.887C217.112 340.056 216.536 340.14 215.918 340.14C214.141 340.14 212.789 339.656 211.864 338.689C210.939 337.721 210.477 336.412 210.477 334.761C210.477 333.121 210.949 331.806 211.895 330.818C212.852 329.819 214.204 329.319 215.949 329.319C216.488 329.319 216.988 329.377 217.448 329.493C217.919 329.598 218.293 329.729 218.568 329.887C218.849 330.045 219.09 330.202 219.292 330.36C219.494 330.518 219.63 330.649 219.703 330.754L219.837 330.929Z" fill="white"/>
<path d="M222.662 339.841V329.588H225.09V334.131L225.991 333.531L229.272 329.588H231.983L227.884 334.462L232.345 339.84H229.508L226.099 335.803L225.09 336.37V339.84L222.662 339.841Z" fill="white"/>
<path d="M237.219 329.588H240.467L244.207 339.84H241.73L240.938 337.742H236.664L235.924 339.84H233.479L237.219 329.588ZM238.829 331.307L237.236 336.134H240.406L238.829 331.307Z" fill="white"/>
<path d="M254.223 329.588V339.84H251.968V336.181H250.375L248.308 339.84H245.926L248.261 335.944C247.63 335.724 247.121 335.371 246.732 334.888C246.356 334.404 246.168 333.799 246.168 333.074C246.168 332.022 246.521 331.181 247.225 330.55C247.94 329.909 248.849 329.588 249.953 329.588H254.223ZM248.467 332.948C248.467 333.41 248.618 333.778 248.921 334.052C249.236 334.325 249.64 334.462 250.136 334.462H251.966V331.433H250.103C249.632 331.433 249.238 331.575 248.921 331.859C248.618 332.133 248.467 332.495 248.467 332.948Z" fill="white"/>
<path d="M276.414 329.588V339.84H274.081V332.821H273.997L270.999 339.84H268.649L265.652 332.821H265.568V339.84H263.234V329.588H266.388L269.747 337.553H269.832L273.191 329.588H276.414Z" fill="white"/>
<path d="M287.419 337.916V339.84H280.006V329.588H287.15V331.512H282.436V333.752H286.613V335.597H282.436V337.916H287.419Z" fill="white"/>
<path d="M291.773 329.588H299.028V337.916H300.354L300.118 342.269H298.288L298.196 339.84H291.602L291.493 342.269H289.806L289.571 337.916H290.612C291.01 337.064 291.306 336.018 291.496 334.777C291.686 333.536 291.773 331.807 291.773 329.588ZM296.647 331.512H293.87C293.786 334.372 293.446 336.507 292.846 337.916H296.647V331.512Z" fill="white"/>
<path d="M312.532 329.588V339.841H310.227V334.131L310.311 333.121L305.643 339.557L305.517 339.84H303.278V329.588H305.581V335.392L305.497 336.307H305.581L310.264 329.872L310.392 329.588L312.532 329.588Z" fill="white"/>
<path d="M318.559 329.588V337.916H322.598V329.588H325.026V337.916H326.352L326.116 342.269H324.303L324.208 339.84H316.133V329.588H318.559Z" fill="white"/>
<path d="M338.541 329.588V339.841H336.237V334.131L336.321 333.121L331.652 339.557L331.527 339.84H329.286V329.588H331.589V335.392L331.504 336.307H331.589L336.274 329.872L336.399 329.588L338.541 329.588Z" fill="white"/>
<path d="M351.314 329.588V339.84H348.886V335.629H344.563V339.84H342.135V329.588H344.563V333.783H348.886V329.588H351.314Z" fill="white"/>
<path d="M357.545 329.588H360.795L364.533 339.84H362.056L361.264 337.742H356.99L356.25 339.84H353.806L357.545 329.588ZM359.155 331.307L357.562 336.134H360.732L359.155 331.307Z" fill="white"/>
<path d="M17.1367 229.031V205.573H22.6936V215.967L24.7495 214.595L32.2574 205.573H38.4639L29.0811 216.725L39.2945 229.031H32.7981L25.0023 219.792L22.6936 221.091V229.031H17.1367Z" fill="white"/>
<path d="M72.534 208.352C74.7475 210.589 75.8562 213.585 75.8562 217.338C75.8562 221.091 74.7475 224.099 72.534 226.36C70.3446 228.598 67.2775 229.717 63.3321 229.717C59.3861 229.717 56.3303 228.598 54.1651 226.36C51.9999 224.099 50.9189 221.091 50.9189 217.338C50.9189 213.585 51.9999 210.589 54.1651 208.352C56.3303 206.09 59.3861 204.96 63.3321 204.96C67.2775 204.96 70.3446 206.09 72.534 208.352ZM68.3853 222.968C69.5884 221.548 70.1903 219.672 70.1903 217.338C70.1903 215.004 69.5884 213.128 68.3853 211.708C67.1823 210.289 65.4973 209.579 63.3321 209.579C61.191 209.579 59.5317 210.289 58.3528 211.708C57.1739 213.128 56.5848 215.004 56.5848 217.338C56.5848 219.672 57.1611 221.548 58.3158 222.968C59.4706 224.363 61.1427 225.061 63.3321 225.061C65.5215 225.061 67.2064 224.363 68.3853 222.968Z" fill="white"/>
<path d="M91.2988 229.031V205.573H99.4194C102.499 205.573 104.857 206.235 106.493 207.558C108.153 208.881 108.983 210.866 108.983 213.513C108.983 214.956 108.704 216.231 108.148 217.338C107.593 218.421 106.848 219.287 105.912 219.937C104.974 220.562 103.964 221.031 102.881 221.344C101.823 221.657 100.716 221.813 99.5612 221.813H96.4569V229.031L91.2988 229.031ZM98.4449 209.759H96.459V217.771H98.4449C101.668 217.771 103.28 216.424 103.28 213.729C103.28 211.083 101.668 209.759 98.4449 209.759Z" fill="white"/>
<path d="M144.205 205.573V229.031H138.648V209.976H129.41V229.031H123.851V205.573H144.205Z" fill="white"/>
<path d="M181.267 208.352C183.48 210.589 184.587 213.585 184.587 217.338C184.587 221.091 183.48 224.099 181.267 226.36C179.077 228.598 176.009 229.717 172.063 229.717C168.117 229.717 165.063 228.598 162.898 226.36C160.732 224.099 159.647 221.091 159.647 217.338C159.647 213.585 160.732 210.589 162.898 208.352C165.063 206.09 168.117 204.96 172.063 204.96C176.009 204.96 179.077 206.09 181.267 208.352ZM177.116 222.968C178.319 221.548 178.921 219.672 178.921 217.338C178.921 215.004 178.319 213.128 177.116 211.708C175.913 210.289 174.228 209.579 172.063 209.579C169.922 209.579 168.262 210.289 167.083 211.708C165.905 213.128 165.315 215.004 165.315 217.338C165.315 219.672 165.892 221.548 167.046 222.968C168.201 224.363 169.873 225.061 172.063 225.061C174.252 225.061 175.937 224.363 177.116 222.968Z" fill="white"/>
<path d="M200.038 229.031V205.573H208.159C211.238 205.573 213.597 206.235 215.233 207.558C216.893 208.881 217.722 210.866 217.722 213.513C217.722 214.956 217.443 216.231 216.888 217.338C216.332 218.421 215.587 219.287 214.651 219.937C213.713 220.562 212.702 221.031 211.619 221.344C210.56 221.657 209.453 221.813 208.298 221.813H205.196V229.031L200.038 229.031ZM207.184 209.759H205.2V217.771H207.184C210.408 217.771 212.019 216.424 212.019 213.729C212.019 211.083 210.408 209.759 207.184 209.759Z" fill="white"/>
<path d="M237.168 205.573H244.601L253.156 229.031H247.488L245.685 224.231H235.905L234.207 229.031H228.615L237.168 205.573ZM240.847 209.507L237.168 220.55H244.42L240.847 209.507Z" fill="white"/>
<path d="M273.4 205.573V224.628H282.637V205.573H288.196V224.628H291.228L290.689 234.589H286.539L286.319 229.031H267.841V205.573H273.4Z" fill="white"/>
<path d="M328.152 205.573V229.031H322.885V215.967L323.027 213.657H322.943L312.261 228.381L311.975 229.031H306.85V205.574H312.119V218.854L311.942 220.947H312.051L322.77 206.223L323.056 205.574L328.152 205.573Z" fill="white"/>
<path d="M362.652 205.573V229.031H357.492V220.658H353.847L349.119 229.031H343.671L349.012 220.117C347.569 219.612 346.401 218.806 345.511 217.699C344.645 216.592 344.212 215.209 344.212 213.549C344.212 211.143 345.017 209.218 346.629 207.775C348.265 206.307 350.347 205.573 352.873 205.573H362.652ZM349.481 213.26C349.481 214.319 349.83 215.161 350.527 215.786C351.249 216.412 352.176 216.725 353.307 216.725H357.492V209.796H353.235C352.152 209.796 351.249 210.12 350.527 210.77C349.83 211.395 349.481 212.226 349.481 213.26Z" fill="white"/>
<path fill-rule="evenodd" clip-rule="evenodd" d="M104.294 81.7406C104.294 38.2101 139.857 2.64746 183.387 2.64746C226.954 2.64746 262.48 38.2101 262.48 81.7406C262.48 125.308 226.954 160.834 183.387 160.834C139.857 160.834 104.294 125.308 104.294 81.7406ZM117.379 81.4117C117.379 117.778 147.02 147.457 183.387 147.457C219.79 147.457 249.432 117.778 249.432 81.4117C249.432 45.0449 219.79 15.3667 183.387 15.3667C147.02 15.3667 117.379 45.0449 117.379 81.4117ZM191.154 14.5333L191.225 14.2727C191.244 14.2031 191.295 14.1137 191.376 13.997L191.414 13.9435L191.451 13.8918C191.509 13.811 191.574 13.7218 191.622 13.6426C191.69 13.5323 191.776 13.3673 191.75 13.1921C191.718 12.9802 191.548 12.8616 191.354 12.7993C187.553 11.5719 183.468 11.8614 179.408 12.7683C179.249 12.8037 179.144 12.9193 179.084 13.0272C179.024 13.1373 178.992 13.2673 178.991 13.3903C178.99 13.5102 179.017 13.6534 179.109 13.7665C179.212 13.8936 179.369 13.9489 179.544 13.921C183.831 13.2078 187.615 12.8502 190.91 14.4173L191.154 14.5333ZM179.556 6.67025C184.361 7.76086 187.598 7.46669 191.07 6.43248C191.219 6.38884 191.44 6.29108 191.467 6.05159C191.479 5.94313 191.443 5.84423 191.397 5.76386C191.351 5.68243 191.283 5.60121 191.203 5.51983L191.111 5.42639L190.984 5.46032C187.113 6.4957 183.794 6.18462 179.952 5.03455C179.73 4.96779 179.534 5.07901 179.41 5.20001C179.281 5.32499 179.181 5.49919 179.123 5.67637C179.066 5.85184 179.041 6.05872 179.097 6.24652C179.157 6.44965 179.309 6.61461 179.556 6.67025ZM183.993 9.07528C183.731 9.11955 183.467 9.16411 183.203 9.2074L183.072 9.85067L184.304 9.94203L184.439 10.9837C184.463 11.1575 184.68 11.1575 184.899 11.1575C185.012 11.1575 185.126 11.1575 185.214 11.1811L185.564 10.2417L187.429 9.93107C187.695 9.8874 187.808 9.60215 187.92 9.31586C187.977 9.17087 188.035 9.02562 188.112 8.91134L185.835 9.23297L185.842 8.16208L185.108 8.11456L184.665 8.9625C184.442 8.99949 184.217 9.03746 183.993 9.07528Z" fill="white"/>
<path fill-rule="evenodd" clip-rule="evenodd" d="M123.582 63.4209L136.089 64.2543L141.469 57.2477L141.546 64.3347L149.371 64.6453L141.447 68.5342L141.568 78.3989L137.252 70.8405L128.845 74.7769L133.542 68.07L123.582 63.4209Z" fill="white"/>
<path fill-rule="evenodd" clip-rule="evenodd" d="M190.922 118.739C193.28 118.201 195.541 117.355 197.498 116.161C196.059 114.086 193.028 112.702 189.548 111.932C187.311 111.438 184.878 111.204 182.523 111.21C180.193 111.214 177.967 111.459 176.12 111.911C173.562 112.543 171.801 113.499 171.767 114.673C171.725 116.195 173.541 117.507 176.279 118.394C178.205 119.019 180.566 119.395 183.096 119.475C185.651 119.554 188.347 119.33 190.922 118.739ZM188.047 104.9C192.693 104.61 197.346 103.612 201.303 101.648C199.362 100.057 196.477 98.7658 193.166 97.7854C189.303 96.6428 184.867 95.942 180.635 95.6762C176.42 95.4139 172.44 95.583 169.461 96.1802C166.654 96.7429 164.845 97.5783 164.915 98.6277C164.99 99.8808 166.834 101.224 169.727 102.387C171.984 103.295 174.825 104.03 177.967 104.486C181.118 104.942 184.57 105.118 188.047 104.9ZM200.757 88.6202C203.463 87.9367 205.99 87.0875 208.217 86.0692C207.803 85.7205 207.344 85.3788 206.843 85.0508C204.544 83.5285 201.447 82.2305 197.923 81.188C194.36 80.1317 190.366 79.3412 186.317 78.851C174.166 77.3838 161.652 78.5161 159.305 83.2143C159.799 86.3833 164.718 88.6237 171.456 89.8078C175.744 90.5603 180.732 90.8503 185.827 90.6604C190.922 90.4705 196.1 89.7939 200.757 88.6202ZM152.014 66.6618C151.434 66.7446 150.858 66.824 150.696 65.6676C150.537 64.5146 151.117 64.4352 151.693 64.3524C169.081 61.898 184.626 62.1431 196.37 63.9727C210.236 66.1371 218.97 70.6662 219.557 75.7441C219.557 75.751 219.564 75.8995 219.564 75.9064C219.446 80.4424 216.512 84.029 211.973 86.7251C213.191 88.565 213.55 90.619 212.77 92.8594L212.749 92.9146C211.12 96.9707 208.369 100.022 204.972 102.245C205.925 103.695 206.363 105.325 206.128 107.144C205.58 111.438 203.443 114.652 200.46 116.968C200.588 117.41 200.674 117.876 200.716 118.36C200.857 120.03 200.66 121.57 200.191 122.975C199.3 125.623 197.426 127.694 194.937 129.168C192.521 130.594 189.531 131.457 186.321 131.722C182.651 132.033 178.65 131.567 174.863 130.293C174.311 130.107 173.752 129.921 174.125 128.816C174.494 127.711 175.046 127.898 175.602 128.084C179.061 129.247 182.741 129.672 186.127 129.385C189.01 129.147 191.658 128.395 193.749 127.155C195.769 125.961 197.284 124.314 197.982 122.236C198.344 121.149 198.493 119.92 198.379 118.549L198.358 118.373C196.266 119.585 193.898 120.452 191.443 121.014C188.654 121.653 185.755 121.898 183.038 121.815C180.3 121.729 177.711 121.308 175.564 120.61C171.826 119.402 169.357 117.314 169.43 114.618C169.495 112.215 171.977 110.53 175.564 109.647C177.601 109.146 180.021 108.88 182.523 108.873C185.012 108.866 187.619 109.122 190.049 109.66C194.06 110.544 197.581 112.218 199.407 114.801C201.741 112.854 203.384 110.244 203.819 106.854C203.978 105.611 203.657 104.472 202.959 103.43C198.575 105.753 193.373 106.913 188.195 107.237H188.188C184.577 107.462 180.96 107.279 177.639 106.799C174.311 106.312 171.287 105.525 168.86 104.551C165.122 103.05 162.716 101.003 162.574 98.7658C162.422 96.3114 164.984 94.6958 169.002 93.8881C172.188 93.2494 176.379 93.063 180.773 93.3392C185.147 93.6119 189.762 94.3472 193.825 95.5485C197.775 96.7187 201.202 98.3447 203.439 100.447C206.567 98.4586 209.09 95.7315 210.561 92.1034C211.086 90.5948 210.796 89.1691 209.881 87.847C207.347 89.0863 204.444 90.0977 201.323 90.8848C196.494 92.1034 191.147 92.8007 185.91 92.9974C180.666 93.1942 175.509 92.8904 171.056 92.1103C163.078 90.7087 157.286 87.6882 156.933 83.1246C156.93 83.0659 156.999 82.6586 157.023 82.5999C159.471 76.6002 173.31 74.926 186.593 76.5312C190.757 77.0352 194.878 77.8533 198.582 78.9511C202.321 80.0557 205.635 81.4538 208.131 83.1073C209.004 83.6838 209.784 84.2914 210.45 84.93C214.486 82.631 217.092 79.6346 217.223 75.9236C216.657 71.9538 208.686 68.2532 196.014 66.2752C184.477 64.4767 169.174 64.2419 152.014 66.6618Z" fill="white"/>
<path fill-rule="evenodd" clip-rule="evenodd" d="M179.657 37.6932L186.053 24.3779L190.923 38.337L188.545 98.628L194.734 50.8804L198.787 59.4573L185.62 137.387L171.419 59.2566L175.669 50.5793L182.142 98.711L179.657 37.6932Z" fill="white"/>
<path fill-rule="evenodd" clip-rule="evenodd" d="M212.168 86.6096C212.102 86.6476 212.04 86.6856 211.975 86.7235C213.197 88.5669 213.552 90.6174 212.775 92.8613L212.755 92.9165C211.122 96.9727 208.371 100.021 204.977 102.247C205.927 103.697 206.365 105.327 206.134 107.146C205.585 111.437 203.448 114.654 200.462 116.967C200.59 117.412 200.68 117.878 200.721 118.358C200.862 120.032 200.666 121.572 200.193 122.977C199.302 125.625 197.428 127.696 194.942 129.166C192.526 130.596 189.533 131.455 186.326 131.724C182.653 132.032 178.655 131.566 174.865 130.292C174.313 130.109 173.757 129.919 174.126 128.818C174.499 127.71 175.052 127.896 175.604 128.082C179.066 129.249 182.746 129.67 186.133 129.387C189.015 129.146 191.663 128.393 193.755 127.157C195.774 125.963 197.286 124.313 197.987 122.235C198.349 121.147 198.498 119.922 198.384 118.551L198.363 118.375C196.271 119.587 193.903 120.45 191.449 121.013C188.656 121.651 185.76 121.9 183.04 121.814C180.306 121.727 177.717 121.306 175.566 120.612C171.827 119.404 169.363 117.316 169.435 114.616C169.501 112.217 171.979 110.532 175.566 109.649C176.567 109.403 177.658 109.21 178.807 109.082V111.43C177.855 111.547 176.95 111.709 176.125 111.913C173.564 112.545 171.807 113.501 171.772 114.671C171.731 116.194 173.546 117.509 176.28 118.396C178.21 119.017 180.571 119.397 183.102 119.477C185.653 119.556 188.352 119.332 190.927 118.741C193.282 118.199 195.546 117.354 197.504 116.163C196.333 114.481 194.124 113.252 191.48 112.438V110.011C194.887 110.96 197.804 112.528 199.413 114.802C201.743 112.856 203.389 110.242 203.824 106.852C203.983 105.613 203.662 104.47 202.965 103.431C198.577 105.751 193.378 106.915 188.2 107.239H188.193C184.583 107.463 180.965 107.28 177.644 106.797C174.316 106.314 171.289 105.527 168.865 104.553C165.127 103.048 162.721 101.005 162.579 98.7677C162.427 96.3133 164.989 94.6978 169.007 93.89C172.11 93.2686 176.173 93.0753 180.447 93.3169H176.322V95.5573C173.754 95.5849 171.396 95.7955 169.466 96.1821C166.656 96.7448 164.851 97.5802 164.916 98.6296C164.996 99.8793 166.839 101.226 169.732 102.389C171.986 103.293 174.831 104.029 177.972 104.488C181.124 104.943 184.576 105.116 188.052 104.902H188.055C192.698 104.609 197.352 103.614 201.308 101.65C199.675 100.307 197.372 99.182 194.707 98.2741V95.8197C198.287 96.9658 201.373 98.5019 203.445 100.449C206.572 98.4605 209.092 95.7334 210.566 92.1018C211.091 90.5967 210.801 89.171 209.886 87.8489C207.349 89.0882 204.449 90.0996 201.325 90.8867C196.499 92.1053 191.152 92.7991 185.915 92.9994C180.671 93.1927 175.514 92.8923 171.061 92.1087C165.331 91.1042 160.726 89.2608 158.454 86.6096H161.927C164.102 88.0319 167.46 89.1054 171.461 89.8097C175.745 90.5622 180.737 90.8522 185.832 90.6589C190.927 90.469 196.106 89.7959 200.759 88.6222C202.975 88.0629 205.064 87.3932 206.973 86.6096H212.168Z" fill="white"/>
</svg>
