<svg width="280" height="281" viewBox="0 0 280 281" fill="none" xmlns="http://www.w3.org/2000/svg">
<path d="M269.231 137.099C269.231 208.405 211.426 266.21 140.119 266.21C68.813 266.21 11.0078 208.405 11.0078 137.099C11.0078 65.7925 68.813 7.9873 140.119 7.9873C211.426 7.9873 269.231 65.7925 269.231 137.099ZM76.1497 137.099C76.1497 172.428 104.79 201.069 140.119 201.069C175.449 201.069 204.089 172.428 204.089 137.099C204.089 101.769 175.449 73.1292 140.119 73.1292C104.79 73.1292 76.1497 101.769 76.1497 137.099Z" fill="url(#paint0_linear_1018_21109)"/>
<g clip-path="url(#clip0_1018_21109)">
<path d="M126.812 40.5648L139.212 35.6104L151.611 40.5648L139.212 45.5192L126.812 40.5648Z" stroke="white" stroke-width="2.2118" stroke-linejoin="round"/>
<path d="M151.611 40.6296V46.0695M132.449 43.1747V50.5131C132.449 50.5131 135.286 53.3047 139.212 53.3047C143.138 53.3047 145.975 50.5131 145.975 50.5131V43.1747" stroke="white" stroke-width="2.2118" stroke-linecap="round" stroke-linejoin="round"/>
</g>
<path d="M181.507 61.6677C180.346 61.0344 179.371 60.2486 178.583 59.3105C177.81 58.3802 177.251 57.3688 176.905 56.2762C176.567 55.1691 176.452 54.033 176.56 52.8678C176.668 51.7026 177.027 50.5612 177.637 49.4435C178.246 48.3258 179.012 47.406 179.933 46.6842C180.854 45.9623 181.867 45.4509 182.973 45.15C184.086 44.8345 185.244 44.7501 186.445 44.8965C187.645 45.0429 188.834 45.4367 190.009 46.0779C191.171 46.7112 192.131 47.4891 192.889 48.4114C193.671 49.3271 194.23 50.3386 194.568 51.4456C194.928 52.5461 195.047 53.675 194.925 54.8323C194.816 55.9975 194.454 57.1462 193.836 58.2784C193.219 59.4106 192.449 60.3377 191.528 61.0595C190.622 61.7893 189.605 62.3079 188.476 62.6154C187.371 62.9163 186.217 62.9936 185.016 62.8472C183.838 62.6942 182.668 62.301 181.507 61.6677ZM182.564 59.7299C183.406 60.189 184.262 60.4674 185.131 60.565C186.015 60.6705 186.861 60.6045 187.669 60.3669C188.499 60.1228 189.253 59.7242 189.931 59.1713C190.624 58.6263 191.2 57.9328 191.659 57.0909C192.118 56.249 192.389 55.3893 192.472 54.5118C192.57 53.6422 192.493 52.7996 192.24 51.9842C192.011 51.1621 191.612 50.408 191.045 49.7218C190.492 49.0436 189.794 48.4749 188.953 48.0158C188.096 47.5487 187.226 47.2624 186.342 47.1569C185.472 47.0593 184.622 47.1326 183.792 47.3767C182.97 47.6064 182.213 47.9937 181.52 48.5387C180.842 49.0916 180.273 49.7891 179.814 50.631C179.355 51.4729 179.077 52.3286 178.979 53.1982C178.896 54.0757 178.976 54.9295 179.221 55.7595C179.473 56.575 179.875 57.3218 180.428 58C180.995 58.6862 181.707 59.2628 182.564 59.7299ZM192.512 68.2619L201.116 58.3245L202.916 59.883L199.263 64.1017L204.925 69.0043L208.578 64.7856L210.378 66.3441L201.774 76.2815L199.974 74.723L203.578 70.5606L197.915 65.6579L194.312 69.8204L192.512 68.2619ZM203.633 77.9551L205.298 76.8211C205.357 76.922 205.411 77.0164 205.46 77.1043C205.508 77.1923 205.559 77.2686 205.61 77.3333C205.939 77.7474 206.339 77.9577 206.809 77.9642C207.289 77.9836 207.808 77.8663 208.367 77.6123C208.938 77.3479 209.542 77.0049 210.179 76.5832C210.815 76.1616 211.441 75.727 212.057 75.2794L216.001 72.4283L222.284 80.3284L211.996 88.5105L210.514 86.647L219.715 79.3295L219.526 80.2082L215.327 74.9285L216.23 74.9079L213.268 77.0414C212.332 77.723 211.427 78.3259 210.556 78.8502C209.684 79.3745 208.863 79.7633 208.093 80.0168C207.333 80.2832 206.636 80.3625 206.001 80.2549C205.376 80.1601 204.832 79.8216 204.369 79.2393C204.235 79.071 204.11 78.8745 203.995 78.6495C203.877 78.4477 203.756 78.2163 203.633 77.9551ZM218.372 99.4785L220.811 98.1481L221.208 97.7898L225.367 95.5209C226.252 95.0378 226.792 94.4043 226.986 93.6205C227.202 92.8432 227.029 91.9393 226.467 90.9088C226.094 90.2267 225.614 89.6224 225.025 89.096C224.451 88.5616 223.853 88.1724 223.23 87.9284L224.322 86.2023C225.126 86.536 225.877 87.0492 226.575 87.7419C227.296 88.4411 227.905 89.248 228.404 90.1623C229.268 91.7444 229.548 93.1734 229.246 94.4495C228.944 95.7255 228.002 96.7952 226.42 97.6584L219.453 101.46L218.372 99.4785ZM216.175 95.7617C215.707 94.9053 215.441 94.0714 215.375 93.2599C215.317 92.4629 215.446 91.7516 215.764 91.1261C216.097 90.4927 216.59 89.9977 217.243 89.6414C217.867 89.3008 218.512 89.1371 219.178 89.1502C219.853 89.1778 220.524 89.4423 221.194 89.9436C221.871 90.4595 222.522 91.2907 223.147 92.4373L225.143 96.0949L223.641 96.9145L221.693 93.3441C221.123 92.2991 220.564 91.6901 220.018 91.5174C219.472 91.3446 218.952 91.3928 218.458 91.6621C217.892 91.9709 217.558 92.4454 217.455 93.0854C217.367 93.7174 217.54 94.4326 217.976 95.2309C218.403 96.0147 218.95 96.6018 219.615 96.9923C220.288 97.3973 221.03 97.5483 221.84 97.4452L220.629 98.6429C219.796 98.7393 218.986 98.5501 218.2 98.0752C217.428 97.5923 216.753 96.8212 216.175 95.7617ZM221.253 105.384L233.732 101.254L234.48 103.514L225.392 106.522L237.013 111.166L237.691 113.215L225.212 117.345L224.464 115.085L233.552 112.077L221.939 107.457L221.253 105.384ZM237.289 106.555C236.91 105.409 236.886 104.416 237.217 103.575C237.569 102.744 238.268 102.147 239.315 101.783L239.821 103.314C239.23 103.527 238.824 103.879 238.603 104.37C238.388 104.876 238.387 105.452 238.6 106.095C238.813 106.739 239.157 107.2 239.632 107.478C240.107 107.756 240.646 107.804 241.247 107.622L241.77 109.2C240.713 109.532 239.793 109.462 239.009 108.99C238.242 108.513 237.668 107.701 237.289 106.555ZM226.226 121.878L239.264 120.214L239.566 122.576L234.03 123.282L234.979 130.712L240.514 130.006L240.815 132.367L227.776 134.031L227.475 131.67L232.937 130.973L231.988 123.543L226.527 124.24L226.226 121.878ZM227.219 156.354L237.039 157.928L237.942 152.295L235.463 151.773C234.652 151.609 233.87 151.425 233.115 151.221C232.375 151.035 231.699 150.81 231.089 150.544C230.476 150.295 229.989 149.991 229.628 149.632C229.266 149.273 229.076 148.84 229.057 148.335L229.846 146.075C229.748 146.579 229.846 147.013 230.139 147.378C230.449 147.746 230.901 148.061 231.495 148.324C232.087 148.603 232.768 148.846 233.538 149.053C234.325 149.263 235.139 149.46 235.98 149.645L240.332 150.543L238.719 160.608L226.842 158.705L227.219 156.354ZM224.859 144.749L229.928 145.561L227.48 160.842L222.41 160.029L222.764 157.825L225.776 158.308L227.514 147.46L224.502 146.977L224.859 144.749ZM224.529 163.522L236.88 168.02L236.065 170.257L227.07 166.981L233.307 177.831L232.569 179.858L220.218 175.36L221.033 173.123L230.028 176.399L223.782 165.572L224.529 163.522ZM214.072 186.466L216.47 187.868L216.982 188.024L221.071 190.415C221.942 190.924 222.763 191.06 223.535 190.821C224.312 190.605 224.997 189.991 225.589 188.977C225.982 188.306 226.251 187.583 226.398 186.807C226.56 186.04 226.584 185.326 226.472 184.667L228.514 184.712C228.643 185.572 228.591 186.48 228.358 187.436C228.131 188.414 227.754 189.353 227.229 190.252C226.319 191.808 225.24 192.785 223.991 193.185C222.742 193.585 221.34 193.33 219.784 192.421L212.933 188.415L214.072 186.466ZM216.121 182.666C216.614 181.824 217.191 181.165 217.852 180.69C218.504 180.229 219.18 179.973 219.88 179.922C220.594 179.88 221.273 180.047 221.915 180.422C222.529 180.781 223.002 181.249 223.335 181.827C223.659 182.419 223.779 183.131 223.695 183.962C223.602 184.809 223.227 185.795 222.567 186.923L220.464 190.52L218.987 189.656L221.04 186.145C221.641 185.117 221.874 184.325 221.74 183.768C221.606 183.211 221.297 182.79 220.811 182.506C220.255 182.181 219.676 182.139 219.075 182.381C218.488 182.632 217.965 183.15 217.506 183.935C217.055 184.706 216.834 185.477 216.843 186.248C216.843 187.033 217.097 187.746 217.603 188.387L215.952 187.968C215.44 187.304 215.184 186.513 215.185 185.595C215.2 184.684 215.512 183.708 216.121 182.666ZM210.389 191.889L220.609 200.154L214.527 207.675L212.907 206.365L217.851 200.252L217.916 201.038L208.891 193.74L210.389 191.889ZM202.624 201.198L211.359 211.02L209.58 212.602L205.872 208.432L200.275 213.41L203.984 217.58L202.204 219.162L193.469 209.34L195.248 207.758L198.907 211.872L204.504 206.894L200.845 202.78L202.624 201.198ZM184.784 214.844C185.918 214.162 187.073 213.805 188.25 213.772C189.426 213.74 190.53 214.002 191.56 214.56C192.598 215.131 193.45 215.969 194.115 217.075C194.788 218.194 195.13 219.339 195.14 220.51C195.149 221.681 194.86 222.772 194.272 223.782C193.691 224.806 192.835 225.659 191.701 226.341C190.582 227.015 189.434 227.368 188.257 227.4C187.075 227.455 185.976 227.2 184.96 226.634C183.939 226.091 183.087 225.253 182.405 224.119C181.732 223 181.39 221.855 181.38 220.684C181.356 219.521 181.641 218.424 182.235 217.391C182.815 216.366 183.665 215.518 184.784 214.844ZM185.858 216.629C185.136 217.064 184.589 217.615 184.219 218.282C183.834 218.957 183.657 219.69 183.689 220.481C183.73 221.286 183.989 222.086 184.466 222.879C184.952 223.687 185.533 224.283 186.208 224.668C186.892 225.067 187.622 225.254 188.399 225.231C189.162 225.216 189.905 224.991 190.627 224.556C191.35 224.121 191.896 223.571 192.267 222.904C192.638 222.237 192.814 221.504 192.796 220.704C192.787 219.919 192.539 219.122 192.053 218.315C191.576 217.521 190.984 216.922 190.277 216.518C189.579 216.127 188.849 215.939 188.086 215.955C187.324 215.97 186.581 216.195 185.858 216.629ZM170.433 221.807C171.681 221.319 172.902 221.152 174.099 221.306C175.28 221.465 176.331 221.906 177.253 222.629C178.174 223.351 178.873 224.321 179.349 225.537C179.824 226.754 179.969 227.94 179.782 229.096C179.595 230.252 179.118 231.282 178.353 232.185C177.578 233.109 176.567 233.815 175.32 234.303C174.211 234.736 173.138 234.899 172.102 234.789C171.055 234.701 170.125 234.32 169.31 233.644L170.572 231.899C171.207 232.343 171.871 232.589 172.565 232.637C173.249 232.707 173.922 232.613 174.584 232.354C175.385 232.041 176.032 231.583 176.525 230.982C177.018 230.381 177.322 229.685 177.439 228.894C177.562 228.118 177.451 227.291 177.108 226.414C176.765 225.536 176.282 224.846 175.66 224.344C175.037 223.841 174.341 223.537 173.571 223.429C172.801 223.322 172.016 223.425 171.215 223.738C170.553 223.997 169.991 224.377 169.53 224.877C169.059 225.398 168.741 226.037 168.576 226.794L166.474 226.391C166.62 225.358 167.042 224.438 167.739 223.633C168.426 222.849 169.325 222.241 170.433 221.807ZM160.124 225.149L162.726 236.537L162.008 236.065L167.279 234.86L167.743 236.891L156.041 239.566L155.577 237.535L160.823 236.336L160.405 237.067L157.803 225.68L160.124 225.149ZM150.684 227.123L151.45 240.246L149.073 240.384L148.515 230.827L141.026 240.854L138.872 240.98L138.106 227.857L140.483 227.719L141.041 237.276L148.505 227.25L150.684 227.123ZM124.021 226.44L128.293 233.407L126.204 234.352L121.239 226.101L124.021 226.44ZM133.475 227.593L131.883 240.641L129.519 240.353L131.111 227.305L133.475 227.593ZM131.152 232.907L130.906 234.925L126.598 234.4L126.844 232.381L131.152 232.907ZM126.163 233.047L128.318 233.61L122.528 239.5L119.992 239.19L126.163 233.047ZM111.311 223.172L110.526 225.837L110.498 226.372L109.16 230.916C108.875 231.883 108.941 232.713 109.358 233.404C109.754 234.107 110.515 234.624 111.641 234.956C112.387 235.175 113.154 235.263 113.942 235.22C114.726 235.192 115.424 235.044 116.038 234.777L116.485 236.77C115.68 237.102 114.786 237.269 113.803 237.273C112.799 237.287 111.797 237.148 110.798 236.853C109.069 236.344 107.861 235.532 107.173 234.415C106.484 233.299 106.395 231.877 106.904 230.148L109.146 222.535L111.311 223.172ZM115.492 224.249C116.428 224.524 117.206 224.926 117.826 225.453C118.431 225.976 118.842 226.571 119.059 227.238C119.271 227.921 119.273 228.619 119.062 229.333C118.862 230.015 118.521 230.587 118.04 231.049C117.544 231.506 116.882 231.793 116.054 231.912C115.21 232.025 114.162 231.897 112.909 231.529L108.912 230.352L109.396 228.71L113.297 229.859C114.439 230.195 115.265 230.231 115.773 229.967C116.282 229.704 116.615 229.302 116.774 228.763C116.956 228.144 116.858 227.572 116.478 227.047C116.094 226.537 115.466 226.154 114.593 225.897C113.737 225.645 112.935 225.616 112.189 225.809C111.426 225.999 110.795 226.416 110.295 227.062L110.305 225.358C110.826 224.701 111.532 224.263 112.424 224.043C113.312 223.839 114.334 223.908 115.492 224.249ZM97.3075 217.327L90.2863 228.439L88.2735 227.167L93.3871 219.074L81.4594 222.862L79.6353 221.709L86.6565 210.597L88.6693 211.869L83.5557 219.962L95.4625 216.161L97.3075 217.327ZM70.2982 194.81L68.9324 202.868L66.7377 202.205L68.4262 192.724L70.2982 194.81ZM76.6596 201.897L66.8775 210.677L65.2871 208.906L75.0692 200.125L76.6596 201.897ZM71.4153 204.372L69.9019 205.73L67.0028 202.5L68.5162 201.142L71.4153 204.372ZM67.5649 201.196L68.8179 203.037L60.5823 203.664L58.876 201.763L67.5649 201.196ZM64.4304 186.122C65.1334 187.242 65.5123 188.391 65.567 189.567C65.6216 190.742 65.38 191.851 64.842 192.891C64.29 193.94 63.4678 194.807 62.3754 195.493C61.269 196.187 60.1305 196.55 58.9598 196.582C57.7891 196.614 56.6932 196.345 55.6722 195.775C54.6372 195.214 53.7681 194.374 53.0651 193.253C52.3709 192.147 51.9964 191.006 51.9417 189.83C51.8643 188.649 52.0989 187.545 52.6457 186.519C53.1696 185.487 53.9918 184.62 55.1123 183.917C56.2187 183.223 57.3572 182.86 58.5279 182.828C59.6898 182.782 60.7927 183.047 61.8365 183.621C62.8715 184.182 63.7362 185.016 64.4304 186.122ZM62.6657 187.229C62.2176 186.515 61.6566 185.979 60.983 185.621C60.3006 185.249 59.5642 185.086 58.7739 185.133C57.9695 185.189 57.1752 185.463 56.3909 185.955C55.5926 186.456 55.0074 187.047 54.6353 187.73C54.2492 188.421 54.0752 189.155 54.1134 189.931C54.1428 190.694 54.3816 191.432 54.8298 192.146C55.2779 192.86 55.8388 193.397 56.5125 193.755C57.1861 194.113 57.9225 194.275 58.7216 194.242C59.5068 194.218 60.2985 193.956 61.0968 193.455C61.8811 192.963 62.4689 192.36 62.8602 191.646C63.2375 190.94 63.4115 190.207 63.3821 189.444C63.3527 188.682 63.1139 187.944 62.6657 187.229ZM59.1657 177.29L46.9349 182.105L46.0627 179.89L51.255 177.845L48.5111 170.876L43.3188 172.92L42.4466 170.705L54.6774 165.89L55.5496 168.105L50.4265 170.122L53.1704 177.091L58.2935 175.074L59.1657 177.29ZM52.4783 155.742C52.745 157.055 52.7002 158.287 52.3439 159.439C51.9843 160.575 51.3695 161.536 50.4997 162.32C49.6299 163.104 48.555 163.626 47.275 163.886C45.9949 164.146 44.8015 164.085 43.6945 163.703C42.5876 163.32 41.655 162.675 40.8966 161.766C40.1188 160.844 39.5965 159.727 39.3297 158.415C39.0926 157.248 39.1168 156.163 39.4023 155.161C39.6682 154.145 40.2038 153.294 41.0091 152.607L42.512 154.149C41.9657 154.699 41.6093 155.311 41.4428 155.986C41.2568 156.648 41.2346 157.327 41.3762 158.024C41.5474 158.867 41.8869 159.582 42.3946 160.171C42.9023 160.759 43.5359 161.179 44.2954 161.43C45.0388 161.683 45.8722 161.716 46.7958 161.529C47.7194 161.341 48.4819 160.984 49.0834 160.456C49.6849 159.929 50.1044 159.296 50.3421 158.556C50.5797 157.815 50.6129 157.024 50.4417 156.182C50.3001 155.485 50.0225 154.866 49.609 154.326C49.176 153.773 48.6008 153.35 47.8832 153.057L48.6407 151.056C49.6339 151.377 50.4674 151.95 51.1412 152.775C51.7955 153.587 52.2412 154.576 52.4783 155.742ZM55.9822 146.702C56.0106 147.33 55.9309 147.946 55.7431 148.55C55.5718 149.154 55.2977 149.679 54.9207 150.127L53.0908 149.192C53.3897 148.847 53.6128 148.473 53.76 148.069C53.9072 147.665 53.9707 147.24 53.9506 146.794C53.9244 146.216 53.7541 145.744 53.4396 145.377C53.1251 145.011 52.5804 144.68 51.8057 144.384L49.9601 143.648L49.6516 143.413L37.5012 138.8L37.3958 136.471L52.1283 142.184C53.0704 142.522 53.8166 142.919 54.3668 143.374C54.9163 143.812 55.3111 144.308 55.5513 144.86C55.8079 145.411 55.9515 146.025 55.9822 146.702ZM51.3069 143.786L38.026 150.395L37.9138 147.917L49.377 142.284L51.3069 143.786ZM50.4436 136.27L48.4673 135.88C48.4976 135.767 48.527 135.663 48.5554 135.566C48.5837 135.47 48.6029 135.38 48.6128 135.298C48.6766 134.773 48.5459 134.341 48.2206 134.002C47.8974 133.646 47.4493 133.358 46.8763 133.139C46.287 132.917 45.6187 132.728 44.8717 132.571C44.1246 132.413 43.3756 132.273 42.6245 132.148L37.8258 131.341L39.0422 121.32L52.091 122.904L51.8041 125.268L40.134 123.851L40.8921 123.369L40.0792 130.065L39.431 129.437L43.0293 130.049C44.1722 130.237 45.2364 130.458 46.2217 130.711C47.207 130.964 48.0602 131.276 48.7813 131.646C49.5045 132.001 50.0505 132.442 50.4195 132.969C50.7905 133.481 50.9311 134.106 50.8415 134.844C50.8156 135.058 50.7631 135.285 50.6839 135.525C50.6232 135.751 50.5431 135.999 50.4436 136.27ZM46.5082 110.127C46.9919 108.529 47.7137 107.413 48.6735 106.781C49.6333 106.148 50.7639 106.021 52.0654 106.401C53.4303 106.8 54.3515 107.568 54.8287 108.706C55.2901 109.84 55.2673 111.246 54.7604 112.924L53.1383 118.392L40.5202 114.709L41.1873 112.424L45.4489 113.668L46.5082 110.127ZM52.9668 112.607C53.2838 111.58 53.3045 110.742 53.0289 110.093C52.7578 109.428 52.2017 108.973 51.3605 108.728C50.5352 108.487 49.8556 108.573 49.3218 108.985C48.788 109.398 48.3603 110.125 48.0386 111.168L47.1154 114.154L52.0674 115.6L52.9668 112.607ZM58.193 103.664L47.5579 98.8325L48.3686 98.547L46.1321 103.469L44.2354 102.608L49.2008 91.679L51.0975 92.5408L48.8713 97.4406L48.5428 96.6648L59.1779 101.497L58.193 103.664ZM66.8177 88.2553L64.4913 86.7374L63.9874 86.5567L60.0202 83.9681C59.1755 83.417 58.362 83.2416 57.5798 83.4419C56.7928 83.6194 56.0785 84.1997 55.4371 85.1829C55.0124 85.8337 54.7076 86.5429 54.5226 87.3106C54.3237 88.0693 54.2643 88.7807 54.3442 89.4449L52.3066 89.2999C52.2201 88.434 52.3166 87.5296 52.5962 86.5868C52.871 85.621 53.293 84.7019 53.8622 83.8295C54.847 82.3202 55.9729 81.3965 57.2399 81.0583C58.5068 80.7202 59.895 81.0435 61.4043 82.0283L68.051 86.3652L66.8177 88.2553ZM64.5842 91.9507C64.0511 92.7677 63.4428 93.3974 62.7593 93.8398C62.0848 94.2684 61.3968 94.4907 60.6953 94.5068C59.98 94.5139 59.3108 94.3142 58.6876 93.9076C58.0922 93.5191 57.6425 93.0282 57.3386 92.4351C57.0437 91.828 56.9586 91.1112 57.0834 90.2845C57.2173 89.4439 57.6411 88.4767 58.3548 87.3828L60.6316 83.8933L62.0648 84.8284L59.8422 88.2348C59.1917 89.2318 58.9197 90.0118 59.0261 90.5748C59.1326 91.1378 59.4212 91.5729 59.892 91.8801C60.4321 92.2325 61.0083 92.3025 61.6207 92.0901C62.2193 91.8686 62.767 91.3771 63.2639 90.6155C63.7518 89.8677 64.0103 89.1085 64.0394 88.3377C64.0775 87.5532 63.8594 86.8285 63.385 86.1636L65.0134 86.6634C65.4925 87.3512 65.7091 88.1539 65.6632 89.0715C65.6034 89.9801 65.2437 90.9399 64.5842 91.9507ZM70.6581 82.9247L61.1067 73.894L62.7424 72.164L70.78 79.7633L75.7213 74.5371L67.6837 66.9378L69.3195 65.2077L78.8708 74.2383L70.6581 82.9247ZM80.9682 76.4603L78.6614 74.2793L79.1605 73.932L77.2351 75.9684L75.7213 74.5371L78.7883 71.2933L82.5187 74.8203L80.9682 76.4603ZM82.7457 70.7878L75.1143 60.0854L77.0528 58.7031L82.6108 66.4977L83.6156 54.0235L85.3725 52.7708L93.0039 63.4732L91.0653 64.8555L85.5073 57.0609L84.5227 69.5208L82.7457 70.7878ZM97.0303 61.1563L91.6118 49.1805L93.781 48.199L97.7273 56.921L101.125 44.8764L103.091 43.9869L108.509 55.9628L106.34 56.9442L102.394 48.2222L99.0187 60.2566L97.0303 61.1563Z" fill="white"/>
<defs>
<linearGradient id="paint0_linear_1018_21109" x1="5.68687" y1="163.514" x2="309.558" y2="295.397" gradientUnits="userSpaceOnUse">
<stop stop-color="#259C7D"/>
<stop offset="1" stop-color="#A6C851"/>
</linearGradient>
<clipPath id="clip0_1018_21109">
<rect width="28.311" height="28.311" fill="white" transform="translate(125.633 30.3018)"/>
</clipPath>
</defs>
</svg>
