<svg width="24" height="25" viewBox="0 0 24 25" fill="none" xmlns="http://www.w3.org/2000/svg">
<g opacity="0.8">
<path d="M2 12.1875C2 8.4165 2 6.5305 3.172 5.3595C4.343 4.1875 6.229 4.1875 10 4.1875H14C17.771 4.1875 19.657 4.1875 20.828 5.3595C22 6.5305 22 8.4165 22 12.1875V14.1875C22 17.9585 22 19.8445 20.828 21.0155C19.657 22.1875 17.771 22.1875 14 22.1875H10C6.229 22.1875 4.343 22.1875 3.172 21.0155C2 19.8445 2 17.9585 2 14.1875V12.1875Z" stroke="white" stroke-width="1.5"/>
<path d="M7 4.1875V2.6875M17 4.1875V2.6875M2.5 9.1875H21.5" stroke="white" stroke-width="1.5" stroke-linecap="round"/>
<path d="M18 17.1875C18 17.4527 17.8946 17.7071 17.7071 17.8946C17.5196 18.0821 17.2652 18.1875 17 18.1875C16.7348 18.1875 16.4804 18.0821 16.2929 17.8946C16.1054 17.7071 16 17.4527 16 17.1875C16 16.9223 16.1054 16.6679 16.2929 16.4804C16.4804 16.2929 16.7348 16.1875 17 16.1875C17.2652 16.1875 17.5196 16.2929 17.7071 16.4804C17.8946 16.6679 18 16.9223 18 17.1875ZM18 13.1875C18 13.4527 17.8946 13.7071 17.7071 13.8946C17.5196 14.0821 17.2652 14.1875 17 14.1875C16.7348 14.1875 16.4804 14.0821 16.2929 13.8946C16.1054 13.7071 16 13.4527 16 13.1875C16 12.9223 16.1054 12.6679 16.2929 12.4804C16.4804 12.2929 16.7348 12.1875 17 12.1875C17.2652 12.1875 17.5196 12.2929 17.7071 12.4804C17.8946 12.6679 18 12.9223 18 13.1875ZM13 17.1875C13 17.4527 12.8946 17.7071 12.7071 17.8946C12.5196 18.0821 12.2652 18.1875 12 18.1875C11.7348 18.1875 11.4804 18.0821 11.2929 17.8946C11.1054 17.7071 11 17.4527 11 17.1875C11 16.9223 11.1054 16.6679 11.2929 16.4804C11.4804 16.2929 11.7348 16.1875 12 16.1875C12.2652 16.1875 12.5196 16.2929 12.7071 16.4804C12.8946 16.6679 13 16.9223 13 17.1875ZM13 13.1875C13 13.4527 12.8946 13.7071 12.7071 13.8946C12.5196 14.0821 12.2652 14.1875 12 14.1875C11.7348 14.1875 11.4804 14.0821 11.2929 13.8946C11.1054 13.7071 11 13.4527 11 13.1875C11 12.9223 11.1054 12.6679 11.2929 12.4804C11.4804 12.2929 11.7348 12.1875 12 12.1875C12.2652 12.1875 12.5196 12.2929 12.7071 12.4804C12.8946 12.6679 13 12.9223 13 13.1875ZM8 17.1875C8 17.4527 7.89464 17.7071 7.70711 17.8946C7.51957 18.0821 7.26522 18.1875 7 18.1875C6.73478 18.1875 6.48043 18.0821 6.29289 17.8946C6.10536 17.7071 6 17.4527 6 17.1875C6 16.9223 6.10536 16.6679 6.29289 16.4804C6.48043 16.2929 6.73478 16.1875 7 16.1875C7.26522 16.1875 7.51957 16.2929 7.70711 16.4804C7.89464 16.6679 8 16.9223 8 17.1875ZM8 13.1875C8 13.4527 7.89464 13.7071 7.70711 13.8946C7.51957 14.0821 7.26522 14.1875 7 14.1875C6.73478 14.1875 6.48043 14.0821 6.29289 13.8946C6.10536 13.7071 6 13.4527 6 13.1875C6 12.9223 6.10536 12.6679 6.29289 12.4804C6.48043 12.2929 6.73478 12.1875 7 12.1875C7.26522 12.1875 7.51957 12.2929 7.70711 12.4804C7.89464 12.6679 8 12.9223 8 13.1875Z" fill="white"/>
</g>
</svg>
