<svg width="66" height="77" viewBox="0 0 66 77" fill="none" xmlns="http://www.w3.org/2000/svg">
<path fill-rule="evenodd" clip-rule="evenodd" d="M33.5771 69.266C33.5399 61.6838 33.5771 54.1203 33.5771 46.5382C33.5584 41.3162 32.7036 38.6216 35.2682 36.726C37.3867 35.165 40.3787 33.7526 43.6865 34.0686C46.3254 34.3288 50.4509 36.9305 51.1385 38.157C52.0677 39.8296 52.2536 45.5904 52.5137 47.8763C53.257 54.6964 54.2978 61.6095 54.8924 68.4297C50.7483 67.1846 48.9271 65.6607 43.7051 65.9581C39.2265 66.2183 36.885 67.6863 33.5771 69.266ZM36.5876 51.7974C38.8176 52.6336 39.5982 50.4965 42.776 50.1062C46.2882 49.6602 47.9422 51.5372 50.0979 50.6824C50.1351 46.1294 41.3078 47.5231 38.576 48.8054C36.9035 49.6231 35.9557 49.9204 36.5876 51.7974ZM36.5318 44.94C39.0035 45.6462 40.1742 43.0631 44.1697 43.156C45.1175 43.1745 53.0712 45.4232 49.7076 42.0224C47.6262 39.9225 35.4726 40.2012 36.5318 44.94ZM36.6433 58.6919C38.7061 59.4724 39.6353 57.3724 42.776 56.9822C46.2325 56.5547 47.9235 58.4131 50.0792 57.5769C50.1536 55.4584 49.7633 55.5326 47.7563 54.9566C43.8352 53.8415 35.0824 54.9008 36.6433 58.6919ZM14.5289 43.955C17.0562 44.5684 18.7474 42.4869 22.8358 43.3975C23.3004 43.4905 30.4736 47.2444 28.0577 43.3418C26.8312 41.3534 21.4234 40.0154 17.0934 41.1676C14.7704 41.7808 14.6032 41.6507 14.5289 43.955ZM14.5474 50.831C17.0748 51.4257 18.8775 49.3257 22.8543 50.2735C22.8543 50.2735 30.5294 54.1761 28.0577 50.2549C27.1843 48.8797 23.3375 47.6161 21.0703 47.5231C19.565 47.4674 18.5244 47.6532 17.0562 48.0434C14.7704 48.6381 14.5474 48.5267 14.5474 50.831ZM14.5846 57.7069C17.1677 58.3016 18.8588 56.1831 22.8729 57.168C22.9472 57.1866 30.2877 60.9219 28.0949 57.1494C26.441 54.3247 14.4731 52.3734 14.5846 57.7069ZM33.2426 10.4303C32.5363 6.56488 34.4319 5.43128 37.4053 4.46493C36.885 7.94007 37.2194 11.1365 33.2426 10.4303ZM31.57 12.8833C35.1195 13.3479 38.0371 12.9763 39.0407 9.55682C39.5238 7.95865 39.561 6.11887 40.1185 4.61361C40.676 3.07116 42.2927 1.52873 40.3972 0.93405C40.0256 0.803965 27.1658 2.69949 31.57 12.8833ZM39.2822 25.5573C38.4645 21.6547 41.9211 21.9149 45.2661 21.4689C44.3555 24.4238 42.9431 26.3378 39.2822 25.5573ZM36.8291 27.1555C46.3811 31.8386 49.1129 19.7035 48.8713 17.7894C46.79 17.362 46.9386 18.1425 45.0617 18.7929C43.6679 19.2761 41.9025 19.3504 40.4344 19.722C36.7549 20.6512 36.123 22.8069 36.8291 27.1555ZM22.9844 16.2283C25.6047 17.3062 27.9463 18.5699 26.9613 22.3981C24.9357 22.5282 24.3038 22.5282 23.7091 20.8557C23.3746 19.9265 23.0216 17.269 22.9844 16.2283ZM19.1748 12.7718C18.8031 15.0019 19.435 14.4072 20.1969 16.47C20.8101 18.1425 20.8287 19.8336 21.2748 21.4317C22.2596 24.8697 27.24 26.4122 29.0241 24.0149C33.5027 18.0124 21.8694 11.2294 19.1748 12.7718ZM17.9111 68.4668C19.7508 68.2067 22.0924 68.3182 24.3596 68.7642C27.0914 69.2845 29.693 70.288 31.1798 71.719C31.5886 72.1093 31.9417 72.5367 32.7408 72.6296C33.5399 72.5367 33.8744 72.1093 34.2832 71.719C35.7699 70.288 38.3902 69.2845 41.1034 68.7642C43.3706 68.3182 45.7121 68.2067 47.5519 68.4668C49.7076 68.7085 51.7518 69.4146 53.7588 70.3809C53.7588 70.4553 53.7588 70.5296 53.7588 70.604C48.9085 70.6411 44.0581 70.6783 39.1893 70.7154C38.2602 70.7154 37.7212 71.0685 37.3681 71.6447C36.6805 73.3915 34.8035 73.6703 32.8151 73.8375L32.8151 73.8561L32.7408 73.8375L32.6479 73.8561L32.6479 73.8375C30.6594 73.6703 28.7825 73.3915 28.0949 71.6447C27.7603 71.0685 27.2028 70.7154 26.2737 70.7154C21.4234 70.6783 16.5545 70.6411 11.7042 70.604C11.7042 70.5296 11.7042 70.4553 11.7042 70.3809C13.7112 69.4146 15.774 68.7085 17.9111 68.4668ZM9.75287 68.4668C9.62276 66.943 12.4661 39.6065 13.544 38.0455C16.3501 33.9385 23.3375 32.3589 29.3586 36.8933C30.994 38.1198 31.0311 38.3056 31.0125 40.9631L30.994 69.0244C28.4108 68.8756 21.0703 62.5201 9.75287 68.4668ZM54.0004 38.2871L57.9587 38.2871L62.7533 70.7154L57.7171 70.4739L54.0004 38.2871ZM3.06281 70.6783C4.14065 61.3122 6.09193 51.1283 7.35561 41.5578C7.8202 38.1756 7.44852 38.2499 10.552 38.2685L6.77952 70.6783L3.06281 70.6783ZM35.1566 24.6096C35.5098 22.8441 35.1938 21.1159 34.785 19.4619C34.246 17.1947 34.3204 16.1726 32.1647 16.1169C30.455 18.4027 34.0416 20.9114 32.2204 25.3901C30.6037 29.3484 30.232 29.3298 30.5851 34.4031C21.5906 29.5713 19.6579 30.9465 12.8377 35.0536C10.868 36.2429 8.60071 35.481 5.83175 35.9455C4.69816 39.5879 2.37521 57.6698 1.46462 63.8767C1.22303 65.512 0.981443 67.0916 0.739856 68.6898C-0.0220704 73.4101 0.572604 72.2764 1.00003 72.6853C2.24513 73.7817 20.9402 73.2056 24.3224 73.2056C25.8091 73.4286 28.9683 78.8179 36.6805 75.5286C39.4494 74.3579 38.4645 73.5215 40.007 73.2056C43.7051 73.2056 63.1807 73.8003 64.7789 72.8154C65.5594 71.9977 64.9461 73.1313 65.3178 71.8119C65.6337 70.6411 64.5002 64.7502 64.3143 63.4307C63.4037 57.5025 61.025 39.1048 60.0029 35.8712C49.5217 34.7748 57.1968 38.0827 49.0943 33.3067C42.9803 29.7014 38.0557 32.1359 33.2983 34.8119C32.2762 28.1962 34.2832 29.0138 35.1566 24.6096Z" fill="#FEFEFE"/>
</svg>
