<svg width="86" height="56" viewBox="0 0 86 56" fill="none" xmlns="http://www.w3.org/2000/svg">
<path d="M37.1326 0.727294C35.6252 0.727294 34.4241 1.9521 34.4241 3.44778C34.4241 3.89241 34.5402 4.7441 34.7146 5.49327C34.8038 5.87568 34.9206 6.2908 35.0718 6.64674C35.1421 6.81236 35.2347 6.99698 35.3537 7.17136L35.3537 7.8942L34.9778 7.8942C33.2564 7.8942 31.8745 9.29724 31.8745 11.0111C31.8745 12.725 33.2564 14.1264 34.9778 14.1264L35.3537 14.1264L35.3537 21.3787L27.0521 27.3597C25.3629 28.5769 24.4811 30.4178 24.0138 32.3085C23.5468 34.1975 23.4601 36.2675 23.4601 38.1117C23.4601 38.9855 23.5275 42.4899 23.6549 45.9673C23.7188 47.7077 23.7982 49.4533 23.8925 50.8666C23.9394 51.5724 23.9901 52.2062 24.0463 52.719C24.0987 53.1971 24.1651 53.667 24.2633 53.9869C24.4259 54.5166 24.8609 54.7506 24.9742 54.8106C25.1552 54.9063 25.3481 54.9693 25.509 55.0139C25.8407 55.1059 26.2623 55.1795 26.7274 55.2412C27.6705 55.3662 28.9658 55.4664 30.475 55.5454C33.5023 55.7039 37.4906 55.783 41.4646 55.7898C45.4394 55.7964 49.4195 55.7296 52.4337 55.5984C53.9372 55.5329 55.221 55.4516 56.1487 55.3506C56.6069 55.3007 57.0131 55.2424 57.3278 55.1711C57.4794 55.1369 57.6607 55.0875 57.8303 55.0139C57.9142 54.9774 58.0399 54.9171 58.1669 54.8191C58.2827 54.7298 58.504 54.5301 58.6129 54.1886C58.7178 53.8598 58.789 53.3789 58.8453 52.8915C58.9055 52.3704 58.9609 51.729 59.0111 51.0152C59.1116 49.586 59.1963 47.8245 59.264 46.0681C59.3993 42.5577 59.4704 39.0218 59.4725 38.1151L59.4725 38.1117C59.4725 36.2681 59.3869 34.1963 58.9205 32.3068C58.4536 30.4156 57.5727 28.5733 55.8805 27.358L47.4917 21.3343L47.4917 14.1264L47.8711 14.1264C49.5925 14.1264 50.976 12.725 50.976 11.0111C50.976 9.29724 49.5925 7.8942 47.8711 7.8942L47.4917 7.8942L47.4917 7.1782C47.6112 7.00435 47.7029 6.81877 47.7737 6.65358C47.9263 6.29738 48.0442 5.88293 48.1342 5.50011C48.3105 4.75031 48.4282 3.8968 48.4282 3.44949C48.4282 1.95599 47.2291 0.7273 45.7196 0.7273L37.1326 0.727294ZM13.53 1.74406C12.626 1.74406 11.9151 2.47675 11.9151 3.36063L11.9151 7.5268L11.8126 7.5268C9.72142 7.5268 8.03945 9.23111 8.03945 11.317L8.03945 11.4059C8.03945 13.4918 9.72142 15.1944 11.8126 15.1944L11.9151 15.1944L11.9151 21.254C11.7922 21.2964 11.669 21.3369 11.546 21.3804C9.36079 22.2911 7.37512 23.6252 5.70345 25.3073C4.03171 26.9895 2.7065 28.9872 1.80214 31.1841C0.897816 33.3809 0.431737 35.734 0.431641 38.1117L0.431641 38.1151C0.440505 41.875 1.61309 45.5386 3.78612 48.5989C5.95924 51.6594 9.02514 53.9654 12.5611 55.1934C12.6873 55.2372 12.8204 55.26 12.9541 55.26L21.6932 55.26C21.6377 55.1209 21.5815 54.9859 21.5325 54.826C21.2732 53.9804 21.1744 53.4072 21.1293 52.8659L13.1592 52.8659C10.174 51.7863 7.58348 49.8168 5.73592 47.2148C3.85012 44.5589 2.83203 41.3759 2.82403 38.11C2.8243 36.0453 3.22993 34.0022 4.0151 32.0949C4.80042 30.1871 5.95015 28.4533 7.40034 26.994C8.85057 25.5347 10.5717 24.3774 12.4654 23.5882C14.3591 22.799 16.3886 22.3937 18.4378 22.3938C21.1767 22.3938 23.8405 23.1221 26.1789 24.4666L28.2842 22.9508C27.2086 22.2442 26.0618 21.6578 24.8665 21.1976L24.8665 15.1944L24.9725 15.1944C27.0636 15.1944 28.7456 13.4918 28.7456 11.4059L28.7456 11.317C28.7456 9.23111 27.0636 7.5268 24.9725 7.5268L24.8665 7.5268L24.8665 3.36063C24.8665 2.47719 24.1559 1.74406 23.2516 1.74406L13.53 1.74406ZM37.1326 3.11968L45.7196 3.11968C45.8863 3.11968 46.0358 3.25628 46.0358 3.44949C46.0358 3.64018 45.9598 4.29556 45.8051 4.95327C45.7296 5.27419 45.6491 5.53771 45.5744 5.712C45.5669 5.72951 45.56 5.74345 45.5539 5.75643C45.2711 5.97969 45.0976 6.32417 45.0976 6.6963L45.0976 7.8942L37.7461 7.8942L37.7461 6.69288C37.7461 6.32295 37.575 5.98155 37.295 5.75814C37.2888 5.7449 37.2821 5.72824 37.2745 5.71029C37.2002 5.53541 37.1203 5.27255 37.0455 4.95156C36.8923 4.29392 36.8165 3.63826 36.8165 3.44778C36.8165 3.25673 36.9638 3.11968 37.1326 3.11968ZM14.3075 4.13644L22.4741 4.13644L22.4741 7.5268L14.3075 7.5268L14.3075 4.13644ZM12.356 9.51077L24.5264 9.51077C25.5637 9.51077 26.3993 10.3447 26.3993 11.382C26.3993 12.4192 25.5637 13.2548 24.5264 13.2548L12.356 13.2548C11.3188 13.2548 10.4848 12.4192 10.4848 11.382C10.4848 10.3447 11.3188 9.51077 12.356 9.51077ZM34.9778 10.2866L47.8711 10.2866C48.2566 10.2866 48.5837 10.6046 48.5837 11.0111C48.5837 11.4177 48.2566 11.734 47.8711 11.734L34.9778 11.734C34.5922 11.734 34.2669 11.4177 34.2669 11.0111C34.2669 10.6046 34.5922 10.2866 34.9778 10.2866ZM37.7461 14.1264L45.0976 14.1264L45.0976 21.8521C45.0675 22.2541 45.2365 22.6608 45.588 22.9133L54.4843 29.3026C55.5372 30.0588 56.2026 31.2854 56.5965 32.881C56.9906 34.4778 57.0784 36.3094 57.0784 38.11C57.0763 38.9791 57.0063 42.484 56.8716 45.9776C56.8042 47.7241 56.7217 49.4554 56.6238 50.8478C56.5748 51.5448 56.5227 52.1474 56.4683 52.6181C56.4561 52.7236 56.4439 52.817 56.4324 52.9018C56.2823 52.9241 56.1015 52.9471 55.889 52.9702C55.0389 53.0628 53.8167 53.1429 52.3295 53.2077C49.3625 53.3369 45.4201 53.4023 41.468 53.3957C37.5151 53.3889 33.5728 53.3104 30.6014 53.1547C29.1111 53.0767 27.8898 52.9817 27.0419 52.8693C26.81 52.8386 26.6185 52.8076 26.4643 52.7788C26.452 52.6855 26.4383 52.5786 26.425 52.4575C26.3741 51.9929 26.3257 51.3978 26.2797 50.7076C26.1879 49.3291 26.1108 47.6112 26.0473 45.8802C25.9202 42.4147 25.8525 38.943 25.8525 38.1117C25.8525 36.3111 25.9431 34.4794 26.3378 32.8827C26.7321 31.2875 27.3972 30.0596 28.45 29.3009L36.8644 23.2379L39.4208 23.2379C40.0816 23.2379 40.617 22.7026 40.617 22.0417C40.617 21.3809 40.0816 20.8455 39.4208 20.8455L37.7461 20.8455L37.7461 14.1264ZM14.3075 15.1944L22.4741 15.1944L22.4741 20.4645C21.1605 20.1599 19.8076 19.9997 18.4378 19.9997C17.0704 19.9589 15.7052 20.1709 14.34 20.5174L14.3075 15.1944ZM42.9701 20.8455C42.3092 20.8455 41.7739 21.3809 41.7739 22.0417C41.7739 22.7026 42.3092 23.2379 42.9701 23.2379L43.0213 23.2379C43.6821 23.2379 44.2175 22.7026 44.2175 22.0417C44.2175 21.3809 43.6821 20.8455 43.0213 20.8455L42.9701 20.8455ZM76.6926 27.6502C70.0964 28.0628 65.0827 28.9418 61.2616 30.1946C61.4323 30.6742 61.5801 31.1519 61.6957 31.6198C61.7683 31.9141 61.8332 32.2083 61.8905 32.4999C64.8297 31.5327 68.6455 30.7613 73.6559 30.2955C72.8816 31.2267 72.1864 32.2091 71.5113 33.1988C71.2836 33.5328 71.0583 33.8673 70.8329 34.2019C69.7658 35.7859 68.6959 37.3743 67.3451 38.9405C66.0041 40.4954 64.3702 42.0322 62.2083 43.4416C62.1806 44.358 62.1603 45.2008 62.1229 46.1826C62.1217 46.2127 62.1206 46.2414 62.1195 46.2715C65.1297 44.5344 67.3276 42.5475 69.1018 40.4904C70.5605 38.7992 71.7291 37.0647 72.7981 35.4767C73.017 35.1517 73.2318 34.8327 73.444 34.5214C74.7142 32.6592 75.9059 31.0567 77.4496 29.776C77.8529 29.4413 78.0096 28.8882 77.8375 28.4055C77.6653 27.9227 77.2039 27.6182 76.6926 27.6502ZM10.9958 30.7329C10.6414 30.7329 10.3054 30.89 10.0781 31.1619C8.42549 33.1379 7.51777 35.6357 7.51312 38.216L7.51312 38.2211C7.51911 40.2344 8.07542 42.2073 9.12115 43.9253C10.1669 45.6432 11.6619 47.0399 13.4445 47.9616C13.6145 48.0493 13.8018 48.0949 13.9931 48.0949L20.8883 48.0949C20.8594 47.4293 20.8323 46.7582 20.808 46.075C20.8031 45.9413 20.8007 45.8356 20.796 45.7025L14.2956 45.7025C13.0133 44.9848 11.9341 43.9448 11.1649 42.6812C10.3471 41.3378 9.91076 39.7928 9.90551 38.216C9.90945 36.3776 10.4984 34.5951 11.5768 33.1254L20.9447 33.1254C21.026 32.6285 21.1221 32.1273 21.2472 31.6216C21.3196 31.3288 21.4035 31.0317 21.4967 30.733L10.9958 30.7329ZM32.1958 30.7329C31.5349 30.7329 30.9996 31.2683 30.9996 31.9291L30.9996 48.7391C30.9996 49.3999 31.5349 49.9352 32.1958 49.9352L50.7676 49.9352C51.4284 49.9352 51.9638 49.3999 51.9638 48.739L51.9638 31.9291C51.9638 31.2683 51.4284 30.7329 50.7676 30.7329L42.0251 30.7329C41.3643 30.7329 40.8289 31.2683 40.8289 31.9291C40.8289 32.5899 41.3643 33.127 42.0251 33.127L49.5714 33.127L49.5714 47.5429L33.392 47.5429L33.392 33.127L35.147 33.127C35.8077 33.127 36.3432 32.5899 36.3432 31.9291C36.3432 31.2683 35.8077 30.7329 35.147 30.7329L32.1958 30.7329ZM64.4657 34.6291C64.3124 34.6209 64.1533 34.6425 63.9975 34.6992C63.3807 34.9236 62.8054 35.1566 62.2493 35.3947C62.3084 36.2835 62.3315 37.1412 62.3331 37.9511C63.0634 37.6108 63.849 37.2815 64.7186 36.9651C65.3419 36.7383 65.6869 36.0478 65.4876 35.422C65.3381 34.9526 64.9258 34.6538 64.4657 34.6291ZM72.4768 40.2307C72.0505 40.7773 71.597 41.3352 71.1097 41.902C71.047 41.9749 70.9772 42.0478 70.9132 42.1207C70.9314 42.1283 70.9497 42.1353 70.9679 42.1429C72.7525 42.9397 74.474 43.8924 76.1201 44.9728C77.8665 46.1345 79.4763 47.4656 81.0911 48.8604C79.8475 48.9531 78.6378 49.1569 77.4906 49.3491C77.2145 49.3953 76.9406 49.4407 76.672 49.4841L76.6601 49.4859C76.4467 49.5229 76.2339 49.56 76.0227 49.5969C74.4409 49.8739 72.9154 50.1423 71.3592 50.2753L71.3438 50.2771C68.4967 50.5606 65.5618 50.4298 62.6116 50.0789L62.6014 50.0789C62.3802 50.0543 62.1594 50.021 61.9383 49.9934C61.9145 50.4078 61.8914 50.8421 61.8649 51.2204C61.8314 51.6968 61.8203 52.0295 61.805 52.3944C61.9998 52.4182 62.1944 52.4461 62.3895 52.4678C65.441 52.8306 68.5476 52.9732 71.607 52.6695C73.2677 52.5269 74.8963 52.2422 76.4653 51.9671C76.6743 51.9305 76.8821 51.8937 77.089 51.8578C77.3795 51.8109 77.6656 51.7631 77.9486 51.7159C79.5288 51.4524 81.0045 51.2065 82.5266 51.2135C83.111 51.2547 83.7109 51.2771 84.3174 51.258C84.8011 51.2427 85.2195 50.9243 85.3718 50.4565C85.5242 49.9889 85.3794 49.4672 85.0061 49.1441C84.632 48.8203 84.2566 48.4921 83.8783 48.1615C81.832 46.3737 79.7107 44.5214 77.3676 42.9631L77.3607 42.958C75.8012 41.9343 74.1678 41.0231 72.4768 40.2307ZM68.7772 44.3029C68.0288 44.9921 67.2161 45.6708 66.325 46.3296C67.8886 46.4949 69.4652 46.8678 71.0038 47.4027C71.1701 47.4696 71.3369 47.5369 71.5045 47.6044C71.8002 47.7234 72.0973 47.8431 72.3931 47.9615C73.0005 48.2047 73.6752 47.901 73.9003 47.2831C74.1254 46.6652 73.8156 45.9679 73.2082 45.7246C72.914 45.6069 72.6219 45.4892 72.3281 45.3709C72.1516 45.2998 71.975 45.2289 71.7967 45.1573C71.7798 45.1505 71.7626 45.1427 71.7454 45.1368C70.7784 44.7994 69.7847 44.52 68.7772 44.3029Z" fill="white"/>
</svg>
