<svg width="68" height="70" viewBox="0 0 68 70" fill="none" xmlns="http://www.w3.org/2000/svg">
<path fill-rule="evenodd" clip-rule="evenodd" d="M44.0042 31.1137L43.3662 28.6708C41.2514 28.9989 41.5431 28.9625 41.1786 31.2595C40.9597 32.6632 40.7774 33.7205 40.4493 35.0513C39.8295 37.5489 39.2097 39.6272 38.2799 41.9607C34.8526 50.5107 28.6543 56.472 20.469 60.3915C17.0417 62.0505 11.2628 64.5298 7.34327 65.4596C8.67408 60.5191 16.8959 58.7508 20.1956 56.4902C21.6904 55.4694 25.0631 50.4925 27.2142 48.56C29.6023 46.4453 28.5632 46.8646 29.5477 43.6379C30.2587 41.3044 31.316 40.9763 31.2431 38.2052C30.9878 28.3244 30.9514 31.223 19.995 31.223C15.8021 31.223 10.8435 30.9495 8.91107 27.6316C20.4326 28.1785 30.3134 25.8815 37.66 26.4102C48.6712 27.2306 53.648 28.0691 64.1303 27.6499C63.4012 29.2906 64.2944 28.2697 62.7631 29.327C58.6795 32.171 48.4888 31.059 44.0042 31.1137ZM20.9066 47.9766C22.9483 46.5547 25.5917 42.7263 25.7193 39.2808C17.771 35.0513 14.3983 45.6615 20.9066 47.9766ZM39.155 17.3497C37.2226 21.3786 31.2795 19.191 32.8655 14.8704C34.3239 10.8233 41.142 13.2115 39.155 17.3497ZM33.9229 10.805C27.5241 13.175 30.5868 24.3684 38.0976 21.4151C44.624 18.8446 41.5067 8.01581 33.9229 10.805ZM45.2621 69.2697C46.7387 67.8294 51.2962 56.2896 52.7183 53.2269C55.7444 46.6641 51.8796 48.3413 54.0491 44.6405L57.3669 36.1087C55.2157 36.3822 55.2522 35.8717 54.4866 37.8223C53.7027 39.7912 53.2287 42.3435 51.2598 44.4218C48.8352 43.8384 46.0278 42.143 43.2203 42.1977L42.7463 43.6196C43.1473 44.1665 42.7463 43.8019 43.4209 44.2394L46.0642 45.1875C53.9214 47.5938 52.5724 47.7397 47.1944 59.9357L44.9887 64.9673C44.3688 66.043 44.5875 65.6783 43.9313 66.2617C39.5561 60.2274 46.1189 56.8002 45.9913 51.5863C45.0798 50.8571 43.4026 50.4925 41.8348 50.2372C39.3919 49.8361 39.5561 49.8361 38.5898 51.9691L41.9077 52.6254C41.8165 52.6984 41.689 52.8077 41.616 52.8624C41.5614 52.8988 41.4155 53.0265 41.3426 53.0812L37.4231 54.6854C35.3996 55.3782 34.8709 56.1621 33.7406 57.821C37.3502 57.42 39.1185 56.6179 42.0718 55.5605C41.4337 58.3862 39.5014 60.2639 40.0847 63.8371C40.5587 66.8086 42.801 68.8868 45.2621 69.2697ZM15.1276 53.5005L16.9688 52.0784C3.66077 46.573 -4.21467 20.4671 13.7968 7.52359C17.6616 4.73435 25.701 1.36175 31.9905 3.13008C24.3703 4.16921 19.0288 11.589 20.1592 20.0114C20.469 22.3266 20.2867 22.3084 22.2738 22.3084C23.641 20.6129 20.0133 14.6881 25.6099 8.92733C27.8158 6.64854 34.3422 3.84107 39.2279 4.97134C44.1683 6.11985 50.4212 12.6463 52.9917 17.8784C55.4346 22.8371 53.5204 22.673 57.0752 22.746C53.4292 5.11719 29.967 -7.35235 12.1196 5.84641C0.908011 14.1412 -2.93856 31.059 5.6114 44.4218C7.58026 47.5209 11.755 52.352 15.1276 53.5005ZM43.0562 33.4835C50.4212 32.9913 59.5728 35.0513 64.8231 30.4756C65.4976 29.874 67.2659 28.0327 67.43 26.6655C67.8311 23.4751 63.8204 26.2826 52.0437 25.207C30.2404 23.1834 34.8162 24.5507 17.297 25.444C14.4895 25.5898 7.48911 24.6601 5.79371 25.3528C4.55405 29.0901 10.1143 32.2986 13.8515 33.0278C18.646 33.9575 23.6593 33.1919 28.5268 33.3013C28.782 35.4524 29.2742 38.2417 28.6362 40.0282C25.6463 48.4872 25.8833 46.3906 19.9586 53.5552C18.4637 55.36 12.7394 57.3653 10.3148 58.8419C8.10894 60.191 2.84041 64.0922 5.50202 68.267C7.68964 68.5223 16.7318 64.548 19.1018 63.5454C30.9332 58.5502 41.1967 48.3048 43.0562 33.4835Z" fill="#FEFEFE"/>
</svg>
