<svg width="62" height="76" viewBox="0 0 62 76" fill="none" xmlns="http://www.w3.org/2000/svg">
<path d="M18.4001 5.52671C32.3939 -1.23318 49.2182 4.63064 55.9783 18.624C58.8112 24.488 59.4271 30.8492 58.1569 36.7584C58.8284 36.9208 59.4718 37.1704 60.0705 37.4953C61.5222 31.0725 60.8908 24.1321 57.8039 17.7421C50.5567 2.74059 32.5202 -3.54571 17.5183 3.70122C4.59165 9.94558 -1.86412 24.2004 1.23345 37.622C1.82449 37.2759 2.46293 37.0047 3.13192 36.8204C0.432243 24.403 6.45376 11.2976 18.4001 5.52671Z" fill="white"/>
<path fill-rule="evenodd" clip-rule="evenodd" d="M30.7813 23.3888C29.4097 23.3888 28.2995 24.4995 28.2995 25.8675C28.2995 27.2356 29.4097 28.3463 30.7813 28.3463C32.1528 28.3463 33.2631 27.2356 33.2631 25.8675C33.2631 24.4995 32.1528 23.3888 30.7813 23.3888ZM26.0869 25.8675C26.0869 23.2758 28.1895 21.1763 30.7813 21.1763C33.373 21.1763 35.4756 23.2758 35.4756 25.8675C35.4756 28.4593 33.373 30.5588 30.7813 30.5588C28.1895 30.5588 26.0869 28.4593 26.0869 25.8675Z" fill="white"/>
<path fill-rule="evenodd" clip-rule="evenodd" d="M13.7996 19.7158C14.2154 19.5191 14.7095 19.6002 15.0406 19.9195L26.5412 31.0096L26.5509 31.019C27.3748 31.8332 28.026 32.1781 28.6052 32.3447C29.2202 32.5215 29.8345 32.5264 30.7221 32.5264C31.6098 32.5264 32.2241 32.5215 32.839 32.3446C33.4183 32.178 34.0695 31.8331 34.8934 31.019L34.903 31.0096L46.4036 19.9195C46.7348 19.6002 47.2289 19.5191 47.6447 19.7158C48.672 20.2019 49.3036 21.3717 49.4863 22.5368C49.6799 23.7716 49.4225 25.2283 48.4274 26.524C48.4186 26.5354 48.4097 26.5466 48.4006 26.5576L38.6534 38.2769C38.4692 38.5427 38.333 38.7507 38.2152 39.0232C38.0939 39.3038 37.9762 39.6931 37.9021 40.2998L35.3443 66.7983C35.2856 67.4064 34.745 67.8518 34.1368 67.7932C33.5287 67.7344 33.0833 67.1938 33.142 66.5858L35.7011 40.0737C35.702 40.065 35.7029 40.0563 35.7039 40.0476C35.7989 39.2592 35.9642 38.6546 36.1842 38.1455C36.4027 37.6398 36.6594 37.2689 36.8638 36.975C36.8819 36.949 36.9012 36.9236 36.9215 36.8992L46.6848 25.1605C47.2767 24.3808 47.4057 23.5506 47.3005 22.8795C47.2637 22.6453 47.2034 22.4494 47.1339 22.289L36.4436 32.5977C35.4115 33.6164 34.4497 34.1835 33.4506 34.4709C32.5165 34.7396 31.614 34.7393 30.8021 34.7389C30.7753 34.7389 30.7487 34.7389 30.7221 34.7389C30.6955 34.7389 30.6687 34.7389 30.6419 34.7389C29.8301 34.7393 28.9277 34.7396 27.9936 34.4709C26.9946 34.1836 26.0328 33.6164 25.0007 32.5977L14.3104 22.289C14.2409 22.4494 14.1805 22.6453 14.1438 22.8795C14.0386 23.5506 14.1675 24.3808 14.7595 25.1605L24.5228 36.8992C24.5431 36.9236 24.5624 36.949 24.5805 36.975C24.7848 37.2689 25.0416 37.6398 25.2601 38.1455C25.4801 38.6546 25.6454 39.2592 25.7404 40.0476C25.7414 40.0563 25.7423 40.065 25.7432 40.0737L28.3023 66.5858C28.361 67.1938 27.9156 67.7344 27.3074 67.7932C26.6993 67.8518 26.1587 67.4064 26.0999 66.7983L23.5422 40.2998C23.4681 39.6931 23.3504 39.3038 23.2291 39.0232C23.1113 38.7507 22.9752 38.5427 22.7909 38.2769L13.0437 26.5576C13.0346 26.5466 13.0257 26.5354 13.0169 26.524C12.0217 25.2283 11.7644 23.7716 11.9579 22.5368C12.1406 21.3717 12.7723 20.2019 13.7996 19.7158Z" fill="white"/>
<path fill-rule="evenodd" clip-rule="evenodd" d="M19.432 70.2688C19.4336 67.955 21.2999 66.089 23.6154 66.089L27.0238 66.089C27.6347 66.089 28.13 66.5843 28.13 67.1953C28.13 67.8062 27.6347 68.3015 27.0238 68.3015L23.6154 68.3015C22.5215 68.3015 21.6453 69.1777 21.6446 70.2704L21.642 74.2211C21.6416 74.8317 21.1464 75.3266 20.5357 75.3266L1.72246 75.3266C1.11148 75.3266 0.616175 74.8312 0.616175 74.2203C0.616175 73.6094 1.11148 73.1141 1.72246 73.1141L19.4302 73.1141L19.432 70.2688ZM33.1649 67.1953C33.1649 66.5843 33.6602 66.089 34.2712 66.089L37.6496 66.089C39.9623 66.089 41.8374 67.953 41.8328 70.2718L41.827 73.1141L59.7062 73.1141C60.3171 73.1141 60.8124 73.6094 60.8124 74.2203C60.8124 74.8312 60.3171 75.3266 59.7062 75.3266L40.7186 75.3266C40.4247 75.3266 40.143 75.2097 39.9355 75.0018C39.728 74.7938 39.6117 74.5118 39.6123 74.2181L39.6202 70.2674C39.6224 69.1798 38.7461 68.3015 37.6496 68.3015L34.2712 68.3015C33.6602 68.3015 33.1649 67.8062 33.1649 67.1953Z" fill="white"/>
<path fill-rule="evenodd" clip-rule="evenodd" d="M5.18295 43.2006C3.62527 43.2006 2.40334 44.4474 2.48001 45.8377L3.08002 56.7191C3.11365 57.3291 2.64638 57.8509 2.03633 57.8846C1.42627 57.9182 0.904453 57.451 0.870817 56.8409L0.270809 45.9595C0.115398 43.1411 2.52187 40.9881 5.18295 40.9881L16.3187 40.9881C18.9798 40.9881 21.3863 43.1411 21.2309 45.9595L20.6309 56.8409C20.5972 57.451 20.0754 57.9182 19.4654 57.8846C18.8553 57.8509 18.388 57.3291 18.4217 56.7191L19.0217 45.8377C19.0983 44.4474 17.8764 43.2006 16.3187 43.2006L5.18295 43.2006ZM5.31981 46.62C5.92888 46.5717 6.46183 47.0261 6.5102 47.6352L8.32241 70.4518C8.37073 71.0608 7.91622 71.5938 7.30716 71.6421C6.6981 71.6905 6.16514 71.2359 6.11677 70.6269L4.30459 47.8104C4.25622 47.2013 4.71075 46.6684 5.31981 46.62ZM16.2123 46.62C16.8214 46.6684 17.2758 47.2013 17.2275 47.8104L15.4153 70.6269C15.367 71.2359 14.834 71.6905 14.2249 71.6421C13.6159 71.5938 13.1613 71.0608 13.2097 70.4518L15.0219 47.6352C15.0703 47.0261 15.6032 46.5717 16.2123 46.62Z" fill="white"/>
<path fill-rule="evenodd" clip-rule="evenodd" d="M10.409 32.3925C9.0375 32.3925 7.9272 33.5032 7.9272 34.8713C7.9272 36.2393 9.0375 37.3501 10.409 37.3501C11.7806 37.3501 12.8908 36.2393 12.8908 34.8713C12.8908 33.5032 11.7806 32.3925 10.409 32.3925ZM5.71465 34.8713C5.71465 32.2795 7.81725 30.1801 10.409 30.1801C13.0008 30.1801 15.1034 32.2795 15.1034 34.8713C15.1034 37.4631 13.0008 39.5625 10.409 39.5625C7.81725 39.5625 5.71465 37.4631 5.71465 34.8713Z" fill="white"/>
<path fill-rule="evenodd" clip-rule="evenodd" d="M56.3444 43.2007C57.9021 43.2007 59.1241 44.4475 59.0473 45.8378L58.4473 56.7192C58.4137 57.3293 58.881 57.8511 59.4911 57.8847C60.1011 57.9183 60.6229 57.4511 60.6565 56.841L61.2565 45.9596C61.412 43.1412 59.0055 40.9882 56.3444 40.9882L45.2086 40.9882C42.5476 40.9882 40.1411 43.1412 40.2965 45.9596L40.8965 56.841C40.9301 57.4511 41.4519 57.9183 42.062 57.8847C42.6721 57.8511 43.1393 57.3293 43.1057 56.7192L42.5057 45.8378C42.429 44.4476 43.6509 43.2007 45.2086 43.2007L56.3444 43.2007ZM56.2076 46.6201C55.5985 46.5718 55.0655 47.0263 55.0172 47.6353L53.205 70.4519C53.1566 71.061 53.6111 71.5938 54.2202 71.6422C54.8292 71.6906 55.3622 71.2361 55.4106 70.627L57.2228 47.8105C57.2712 47.2015 56.8166 46.6685 56.2076 46.6201ZM45.3151 46.6201C44.7061 46.6685 44.2515 47.2015 44.2999 47.8105L46.1121 70.627C46.1605 71.2361 46.6934 71.6906 47.3024 71.6422C47.9115 71.5938 48.3661 71.061 48.3177 70.4519L46.5055 47.6353C46.4571 47.0263 45.9242 46.5718 45.3151 46.6201Z" fill="white"/>
<path fill-rule="evenodd" clip-rule="evenodd" d="M51.1201 32.3926C52.4916 32.3926 53.6019 33.5033 53.6019 34.8714C53.6019 36.2395 52.4916 37.3501 51.1201 37.3501C49.7486 37.3501 48.6382 36.2395 48.6382 34.8714C48.6382 33.5033 49.7486 32.3926 51.1201 32.3926ZM55.8144 34.8714C55.8144 32.2796 53.7119 30.1801 51.1201 30.1801C48.5283 30.1801 46.4257 32.2796 46.4257 34.8714C46.4257 37.4631 48.5283 39.5626 51.1201 39.5626C53.7119 39.5626 55.8144 37.4631 55.8144 34.8714Z" fill="white"/>
<path fill-rule="evenodd" clip-rule="evenodd" d="M31.1997 36.8454C31.7596 36.8454 32.2134 37.2992 32.2134 37.8591L32.2134 44.7696L32.3179 44.7696C32.8776 44.7696 33.3315 45.2235 33.3315 45.7833C33.3315 46.3431 32.8776 46.797 32.3179 46.797L29.9737 46.797C29.4138 46.797 28.96 46.3431 28.96 45.7833C28.96 45.2235 29.4138 44.7696 29.9737 44.7696L30.186 44.7696L30.186 41.0658C29.7776 41.4178 29.1604 41.3889 28.7869 40.9926C28.4031 40.5851 28.4222 39.9436 28.8296 39.5597L30.186 38.2819L30.186 37.8591C30.186 37.2992 30.6399 36.8454 31.1997 36.8454Z" fill="white"/>
</svg>
