<svg width="69" height="69" viewBox="0 0 69 69" fill="none" xmlns="http://www.w3.org/2000/svg">
<path d="M38.9834 53.8143C39.5413 52.9795 39.839 51.9981 39.839 50.9942C39.839 49.6479 39.3041 48.3568 38.3521 47.4048C37.4 46.4529 36.1088 45.9181 34.7623 45.9181C33.7583 45.9181 32.7767 46.2158 31.9419 46.7736C31.107 47.3313 30.4564 48.1241 30.0721 49.0516C29.6879 49.9792 29.5873 50.9998 29.7832 51.9845C29.9791 52.9691 30.4626 53.8736 31.1726 54.5835C31.8826 55.2934 32.7872 55.7768 33.7719 55.9727C34.7567 56.1686 35.7774 56.068 36.7051 55.6838C37.6327 55.2996 38.4256 54.649 38.9834 53.8143Z" stroke="white" stroke-width="2.75"/>
<path d="M30.5412 15.6871C29.9834 16.5219 29.6857 17.5033 29.6857 18.5072C29.6857 19.8535 30.2205 21.1446 31.1726 22.0966C32.1246 23.0485 33.4159 23.5833 34.7623 23.5833C35.7664 23.5833 36.7479 23.2856 37.5828 22.7278C38.4176 22.1701 39.0683 21.3773 39.4526 20.4498C39.8368 19.5222 39.9373 18.5016 39.7415 17.5169C39.5456 16.5323 39.0621 15.6278 38.3521 14.9179C37.6421 14.208 36.7375 13.7246 35.7527 13.5287C34.768 13.3328 33.7472 13.4334 32.8196 13.8175C31.8919 14.2017 31.0991 14.8524 30.5412 15.6871Z" stroke="white" stroke-width="2.75"/>
<path d="M7.73895 16.7063C4.16781 22.0503 2.26172 28.3331 2.26172 34.7603C2.26172 43.3788 5.68582 51.6443 11.7807 57.7386C17.8757 63.8328 26.1422 67.2565 34.7617 67.2565C41.1896 67.2565 47.4732 65.3506 52.8178 61.7799C58.1624 58.2092 62.328 53.134 64.7878 47.196C67.2477 41.2581 67.8912 34.7242 66.6372 28.4206C65.3832 22.1169 62.2879 16.3267 57.7427 11.782C53.1975 7.2373 47.4065 4.14233 41.1021 2.88845C34.7978 1.63458 28.2631 2.27813 22.3245 4.73769C16.3859 7.19725 11.3101 11.3624 7.73895 16.7063Z" stroke="white" stroke-width="2.75"/>
<path d="M34.778 67.2587C30.4678 67.2587 26.3342 65.5467 23.2864 62.4993C20.2387 59.4519 18.5265 55.3188 18.5265 51.0091C18.5265 47.7953 19.4796 44.6536 21.2654 41.9813C23.0511 39.3091 25.5892 37.2263 28.5588 35.9965C30.536 35.1776 32.6454 34.7612 34.7649 34.7595" stroke="white" stroke-width="2.75"/>
<path d="M34.7221 34.758C39.0323 34.758 43.1659 33.046 46.2137 29.9986C49.2614 26.9512 50.9736 22.8181 50.9736 18.5084C50.9736 15.2945 50.0205 12.1528 48.2348 9.4806C46.449 6.80837 43.9109 4.72562 40.9413 3.49572C38.9641 2.67683 36.8548 2.26051 34.7352 2.25879" stroke="white" stroke-width="2.75"/>
</svg>
