<svg width="60" height="60" viewBox="0 0 60 60" fill="none" xmlns="http://www.w3.org/2000/svg">
<rect width="60" height="60" rx="30" fill="url(#paint0_linear_136_133765)"/>
<g clip-path="url(#clip0_136_133765)">
<path d="M36.1549 36.2084C35.9702 36.0885 35.7455 36.0467 35.5301 36.092C35.3146 36.1373 35.1258 36.266 35.0049 36.45C33.8299 38.25 31.6716 40.4584 29.7466 41.2C27.8216 41.9417 26.3132 41.675 25.7132 41.2C25.4549 40.975 24.7799 40.3667 25.3549 38.2917C25.7382 36.9084 28.1216 30.3917 28.6882 28.8083L26.8716 29.0417C26.2966 30.5917 24.1299 36.4084 23.7382 37.8584C23.1716 39.9334 23.4549 41.4417 24.6466 42.4917C25.4795 43.0753 26.4802 43.3708 27.4966 43.3334C28.4829 43.3197 29.458 43.1219 30.3716 42.75C32.6966 41.8417 35.1382 39.3167 36.4216 37.3583C36.4798 37.2654 36.519 37.1618 36.5371 37.0537C36.5552 36.9455 36.5518 36.8348 36.527 36.728C36.5022 36.6212 36.4566 36.5203 36.3927 36.4311C36.3289 36.3419 36.2481 36.2662 36.1549 36.2084Z" fill="white"/>
<path d="M31.082 24.1666C31.8237 24.1666 32.5487 23.9467 33.1654 23.5346C33.7821 23.1226 34.2628 22.5369 34.5466 21.8517C34.8304 21.1665 34.9047 20.4125 34.76 19.685C34.6153 18.9576 34.2581 18.2894 33.7337 17.765C33.2092 17.2405 32.541 16.8834 31.8136 16.7387C31.0862 16.594 30.3322 16.6683 29.647 16.9521C28.9617 17.2359 28.3761 17.7166 27.964 18.3332C27.552 18.9499 27.332 19.6749 27.332 20.4166C27.332 21.4112 27.7271 22.365 28.4304 23.0683C29.1336 23.7715 30.0875 24.1666 31.082 24.1666ZM31.082 18.3333C31.4941 18.3333 31.8969 18.4555 32.2395 18.6844C32.5821 18.9133 32.8491 19.2387 33.0068 19.6194C33.1645 20 33.2057 20.4189 33.1253 20.8231C33.0449 21.2272 32.8465 21.5984 32.5552 21.8898C32.2638 22.1811 31.8926 22.3795 31.4885 22.4599C31.0843 22.5403 30.6655 22.4991 30.2848 22.3414C29.9041 22.1837 29.5787 21.9167 29.3498 21.5741C29.1209 21.2315 28.9987 20.8287 28.9987 20.4166C28.9987 19.8641 29.2182 19.3342 29.6089 18.9435C29.9996 18.5528 30.5295 18.3333 31.082 18.3333Z" fill="white"/>
<path d="M24.8388 27.5C24.8888 27.5 30.0638 26.8167 31.2805 26.6667C31.8221 26.5834 32.2305 26.6667 32.3638 26.7917C32.4971 26.9167 32.5388 27.4584 32.3055 28.1917C31.7971 29.7417 29.2305 37.3584 28.4805 39.6167C28.847 39.5415 29.2066 39.4356 29.5555 39.3C29.8891 39.1621 30.2098 38.9948 30.5138 38.8C31.5388 35.8334 33.4555 30.0834 33.8888 28.7667C34.3221 27.45 34.2138 26.45 33.6388 25.7667C33.3108 25.4341 32.9002 25.1948 32.4491 25.0732C31.9981 24.9517 31.5228 24.9523 31.0721 25.075C29.8805 25.2 24.8471 25.8584 24.6305 25.9084C24.4094 25.9371 24.2089 26.0525 24.0729 26.2291C23.937 26.4057 23.8767 26.629 23.9055 26.85C23.9342 27.0711 24.0495 27.2716 24.2261 27.4076C24.4027 27.5435 24.6261 27.6038 24.8471 27.575L24.8388 27.5Z" fill="white"/>
</g>
<defs>
<linearGradient id="paint0_linear_136_133765" x1="-22.2819" y1="23.597" x2="69.6372" y2="65.6514" gradientUnits="userSpaceOnUse">
<stop stop-color="#259C7D"/>
<stop offset="1" stop-color="#A6C851"/>
</linearGradient>
<clipPath id="clip0_136_133765">
<rect width="30" height="30" fill="white" transform="translate(15 15)"/>
</clipPath>
</defs>
</svg>
