<svg width="64" height="64" viewBox="0 0 64 64" fill="none" xmlns="http://www.w3.org/2000/svg">
<path d="M31.9996 2C19.2996 2 8.49961 9.9 4.09961 21H59.8996C55.4996 9.9 44.6996 2 31.9996 2Z" fill="#42ADE2"/>
<path d="M31.9996 62C44.6996 62 55.4996 54.1 59.8996 43H4.09961C8.49961 54.1 19.2996 62 31.9996 62Z" fill="#83BF4F"/>
<path d="M62 32C62 28.9 61.5 25.8 60.6 23H3.4C2.5 25.8 2 28.9 2 32C2 35.1 2.5 38.2 3.4 41H60.6C61.5 38.2 62 35.1 62 32Z" fill="#F8F8F8"/>
<path d="M59.9004 21C60.0004 21.3 60.2004 21.7 60.3004 22C60.4004 22.3 60.5004 22.7 60.6004 23" fill="#C94747"/>
<path d="M60.3004 22C60.2004 21.7 60.0004 21.3 59.9004 21H4.10039C4.00039 21.3 3.80039 21.7 3.70039 22C3.60039 22.3 3.50039 22.7 3.40039 23H60.6004C60.5004 22.7 60.4004 22.3 60.3004 22ZM3.70039 42C3.80039 42.3 4.00039 42.7 4.10039 43H59.9004C60.0004 42.7 60.2004 42.3 60.3004 42C60.4004 41.7 60.5004 41.3 60.6004 41H3.40039C3.50039 41.3 3.60039 41.7 3.70039 42Z" fill="#C94747"/>
<path d="M20.4 17.3C18 17.3 16.1 15.4 16.1 13C16.1 10.6 18 8.7 20.4 8.7C21 8.7 21.5 8.8 22 9C21.2 8.4 20.1 8 19 8C16.2 8 14 10.2 14 13C14 15.8 16.2 18 19 18C20.1 18 21.2 17.6 22 17C21.5 17.2 21 17.3 20.4 17.3ZM24.7 15.2L25.1 16.3H26.2L25.3 16.9L25.6 18L24.7 17.3L23.8 18L24.2 16.9L23.3 16.3H24.4L24.7 15.2ZM29 15.2L29.3 16.3H30.5L29.6 16.9L29.9 18L29 17.3L28.1 18L28.4 16.9L27.5 16.3H28.6L29 15.2ZM33.3 15.2L33.6 16.3H34.7L33.8 16.9L34.2 18L33.3 17.3L32.3 18L32.7 16.9L31.8 16.3H32.9L33.3 15.2ZM37.5 15.2L37.9 16.3H39L38.1 16.9L38.4 18L37.5 17.3L36.6 18L36.9 16.9L36 16.3H37.2L37.5 15.2ZM41.8 15.2L42.1 16.3H43.3L42.3 16.9L42.7 18L41.8 17.3L40.9 18L41.2 16.9L40.3 16.3H41.4L41.8 15.2ZM29 11.6L29.3 12.7H30.5L29.6 13.3L29.9 14.4L29 13.7L28.1 14.4L28.4 13.3L27.5 12.7H28.6L29 11.6ZM33.3 11.6L33.6 12.7H34.7L33.8 13.3L34.2 14.4L33.3 13.7L32.3 14.4L32.7 13.3L31.8 12.7H32.9L33.3 11.6ZM37.5 11.6L37.9 12.7H39L38.1 13.3L38.4 14.4L37.5 13.7L36.6 14.4L36.9 13.3L36 12.7H37.2L37.5 11.6ZM41.8 11.6L42.1 12.7H43.3L42.3 13.3L42.7 14.4L41.8 13.7L40.9 14.4L41.2 13.3L40.3 12.7H41.4L41.8 11.6ZM33.3 8L33.6 9.1H34.7L33.8 9.7L34.2 10.8L33.3 10.1L32.3 10.8L32.7 9.7L31.8 9.1H32.9L33.3 8ZM37.5 8L37.9 9.1H39L38.1 9.7L38.4 10.8L37.5 10.1L36.6 10.8L36.9 9.7L36 9.1H37.2L37.5 8ZM41.8 8L42.1 9.1H43.3L42.3 9.7L42.7 10.8L41.8 10.1L40.9 10.8L41.2 9.7L40.3 9.1H41.4L41.8 8Z" fill="white"/>
</svg>
