<svg width="64" height="64" viewBox="0 0 64 64" fill="none" xmlns="http://www.w3.org/2000/svg">
<path d="M3.19961 26.6V27.6H3.79961V28.6H4.39961V27.6H4.99961V26.6H5.59961V25.6H6.19961V24.6H6.79961V23.6H7.39961V22.6H6.59961V21.6H6.09961V20.6H4.29961V21.6H5.49961V22.6H4.89961V23.6H4.29961V24.6H3.69961V23.6H3.19961C2.99961 24.4 2.79961 25.3 2.59961 26.1V26.5H3.19961V26.6ZM10.0996 11.5L9.79961 11.8H10.0996V11.5Z" fill="white"/>
<path d="M14.8 7.90001H14.2V8.90001H13.6V9.90001H13V10.9H12.4V11.9H11.8V10.9H11.2V10.4L10.6 11V11.9H11.2V12.9H11.8V13.9H11.2V14.9H10.6V15.9H10V14.9H9.5V13.9H9V12.9C8.8 13.1 8.6 13.4 8.4 13.6V13.9H8.2C8 14 7.9 14.1 7.8 14.3V14.8H7.4C7.3 14.9 7.3 15 7.2 15.1V15.7H6.8C6.6 16 6.4 16.4 6.2 16.7H6.7V17.7H7.3V18.7H7.9V19.7H8.5V20.7H9V19.7H9.6V18.7H10.2V17.7H10.8V16.7H11.4V15.7H12V14.7H12.6V15.7H13V16.7H13.6V17.7H14.2V18.7H14.8V19.7H15.4V17.7H14.8V16.7H15.4V13.8H14.8V14.8H14.2V15.8H13.6V14.8H13V13.8H12.4V12.8H13V11.8H13.6V10.8H14.2V11.8H14.8V12.8H15.4V9.80001H14.8V8.80001H15.4V7.10001C15.2 7.20001 15 7.40001 14.8 7.50001V7.90001ZM9 17.7H8.4V15.7H9V17.7ZM2.6 35.4V34.4H3.2V33.4H3.8V32.4H4.4V31.4H3.7V30.4H3.2V29.4H2.6V28.4H2.2C2.1 29.7 2 30.8 2 32C2 33.2 2.1 34.3 2.2 35.4H2.6ZM14.8 29.5H14.2V30.5H13.6V31.5H13V32.5H13.6V33.5H14.2V34.5H14.8V35.4H15.3V28.6H14.8V29.5Z" fill="white"/>
<path d="M9.50039 12.1C9.30039 12.3 9.10039 12.6 8.90039 12.8H9.50039V12.1ZM9.80039 52.2L10.1004 52.5V52.2H9.80039ZM9.00039 51.2C9.20039 51.4 9.40039 51.7 9.60039 51.9V51.2H9.00039Z" fill="white"/>
<path d="M14.7996 55.1V54.1H15.3996V51.1H14.7996V52.1H14.1996V53.1H13.5996V52.1H12.9996V51.1H12.3996V50.1H12.9996V49.1H13.5996V48.1H14.1996V49.1H14.7996V50.1H15.3996V47.1H14.7996V46.1H15.3996V44.1H14.7996V45.1H14.1996V46.1H13.5996V47.1H12.9996V48.1H12.3996V49.1H11.7996V48.1H11.1996V47.1H10.5996V46.1H9.99961V45.1H9.49961V44.1H8.99961V43.1H8.39961V44.1H7.79961V45.1H7.19961V46.1H6.59961V47.1H6.19961C6.39961 47.4 6.59961 47.8 6.79961 48.1H7.19961V48.7C7.29961 48.8 7.29961 48.9 7.39961 49H7.79961V49.5C7.89961 49.9 7.99961 50 8.19961 50.2H8.39961V50.5C8.59961 50.7 8.79961 51 8.99961 51.2V50.2H9.59961V49.2H10.1996V48.2H10.7996V49.2H11.3996V50.2H11.9996V51.2H11.3996V52.2H10.7996V53.1L11.3996 53.7V53.2H11.9996V52.2H12.5996V53.2H12.9996V54.2H13.5996V55.2H14.1996V56.2H14.7996V56.6C14.9996 56.7 15.1996 56.9 15.3996 57V55.2L14.7996 55.1ZM8.99961 48.2H8.39961V46.2H8.99961V48.2ZM14.7996 37.4H14.1996V36.4H13.5996V35.4H12.9996V36.4H12.3996V37.4H11.8996V38.4H11.2996V39.4H10.6996V40.4H10.0996V41.3H10.6996V42.3H11.2996V43.3H12.9996V42.3H11.8996V41.3H12.3996V40.4H12.9996V39.4H13.5996V40.4H14.1996V41.3H14.7996V42.3H15.2996V40.4H14.7996V39.4H15.2996V38.4H14.7996V37.4ZM14.7996 22.7H14.1996V23.6H13.5996V24.6H12.9996V23.6H12.3996V22.7H11.8996V21.7H12.9996V20.7H11.2996V21.7H10.6996V22.7H10.0996V23.6H10.6996V24.6H11.2996V25.6H11.8996V26.6H12.3996V27.6H12.9996V28.6H13.5996V27.6H14.1996V26.6H14.7996V25.6H15.2996V24.6H14.7996V23.6H15.2996V21.7H14.7996V22.7ZM3.69961 39.4H4.29961V40.4H4.89961V41.4H5.49961V42.4H4.29961V43.4H5.99961V42.4H6.59961V41.4H7.19961V40.4H6.59961V39.4H6.09961V38.4H5.49961V37.4H4.89961V36.4H4.29961V35.4H3.69961V36.4H3.19961V37.4H2.59961V37.8C2.79961 38.7 2.99961 39.5 3.19961 40.3H3.69961V39.4ZM10.0996 26.6H9.49961V25.6H8.99961V24.6H8.39961V25.6H7.79961V26.6H7.19961V27.6H6.59961V28.6H6.09961V29.6H5.49961V34.6H6.09961V35.6H6.69961V36.6H7.29961V37.6H7.89961V38.6H8.49961V39.6H8.99961V38.6H9.59961V37.6H10.1996V36.6H10.7996V35.6H11.3996V34.6H11.9996V29.6H11.3996V28.6H10.7996V27.6H10.1996L10.0996 26.6ZM6.59961 31.9V32.5H6.09961V31.5H6.69961V31.9H6.59961ZM10.6996 32.1V31.5H11.2996V32.5H10.6996V32.1ZM8.39961 26.6H8.99961V27.6H8.39961V26.6ZM8.99961 37.4H8.39961V36.4H8.99961V37.4ZM10.0996 30.5H9.49961V31.5H8.99961V32.5H9.59961V33.5H10.1996V35.5H9.49961V34.5H8.99961V33.5H8.39961V34.5H7.79961V35.5H7.19961V33.5H7.79961V32.5H8.39961V31.5H7.79961V30.5H7.19961V28.5H7.79961V29.5H8.39961V30.5H8.99961V29.5H9.59961V28.5H10.1996L10.0996 30.5Z" fill="white"/>
<path d="M7.20059 15.1C7.10059 15.3 6.90059 15.5 6.80059 15.7H7.20059V15.1ZM7.80059 14.8V14.3C7.70059 14.5 7.60059 14.6 7.40059 14.8H7.80059ZM8.40059 13.8V13.5C8.30059 13.6 8.30059 13.7 8.20059 13.8H8.40059ZM6.10059 31.9V32.5H6.60059V31.5H6.10059V31.9ZM14.8006 16.8H15.4006V17.8H14.8006V16.8ZM9.50059 13.8V14.8H10.1006V15.8H10.7006V14.8H11.3006V13.8H11.9006V12.8H11.3006V11.8H10.7006V10.9L10.1006 11.5V11.8H9.80059L9.50059 12.1V12.8H9.00059V13.8H9.50059ZM14.8006 8.9H15.4006V9.9H14.8006V8.9ZM14.8006 11.8H14.2006V10.9H13.6006V11.8H13.0006V12.8H12.4006V13.8H13.0006V14.8H13.6006V15.8H14.2006V14.8H14.8006V13.8H15.3006V12.8H14.8006V11.8ZM11.9006 10.9V11.9H12.5006V10.9H13.0006V9.9H13.6006V8.9H14.2006V7.9H14.8006V7.5C13.7006 8.3 12.6006 9.1 11.7006 10C11.6006 10.1 11.5006 10.2 11.3006 10.3V10.8H11.9006V10.9ZM8.60059 15.8H8.40059V17.7H9.00059V15.8H8.70059H8.60059ZM9.50059 29.5H9.00059V30.5H8.40059V29.5H7.80059V28.6H7.20059V30.5H7.80059V31.5H8.40059V32.5H7.80059V33.5H7.20059V35.4H7.80059V34.5H8.40059V33.5H9.00059V34.5H9.50059V35.4H10.1006V33.5H9.50059V32.5H9.00059V31.5H9.50059V30.5H10.1006V28.6H9.50059V29.5ZM14.8006 23.6H15.4006V24.6H14.8006V23.6Z" fill="#C8313E"/>
<path d="M14.8002 18.7H14.2002V17.7H13.6002V16.7H13.0002V15.7H12.4002V14.7H11.8002V15.7H11.2002V16.7H10.6002V17.7H10.0002V18.7H9.5002V19.7H9.0002V20.7H8.4002V19.7H7.8002V18.7H7.2002V17.7H6.60019V16.7H6.2002C5.60019 17.7 5.0002 18.8 4.5002 19.9C4.0002 21.1 3.6002 22.3 3.2002 23.5H3.7002V24.5H4.3002V23.5H4.9002V22.5H5.5002V21.5H4.3002V20.5H6.0002V21.5H6.60019V22.5H7.2002V23.5H6.60019V24.5H6.1002V25.5H5.5002V26.5H4.9002V27.5H4.3002V28.5H3.7002V27.5H3.2002V26.5H2.6002V26.1C2.4002 26.9 2.3002 27.7 2.2002 28.5H2.6002V29.5H3.2002V30.5H3.8002V31.5H4.4002V32.5H3.7002V33.5H3.2002V34.5H2.6002V35.5H2.2002C2.3002 36.3 2.4002 37.1 2.6002 37.9V37.5H3.2002V36.5H3.8002V35.5H4.4002V36.5H5.0002V37.5H5.6002V38.5H6.2002V39.5H6.8002V40.5H7.4002V41.5H6.60019V42.5H6.1002V43.5H4.3002V42.5H5.5002V41.5H4.9002V40.5H4.3002V39.5H3.7002V40.5H3.2002C3.6002 41.6 4.0002 42.8 4.5002 44C5.0002 45.1 5.60019 46.2 6.2002 47.2H6.7002V46.2H7.3002V45.2H7.9002V44.2H8.5002V43.2H9.0002V44.2H9.6002V45.2H10.2002V46.2H10.8002V47.2H11.4002V48.2H12.0002V49.2H12.6002V48.2H13.0002V47.2H13.6002V46.2H14.2002V45.2H14.8002V44.2H15.4002V42.2H14.8002V41.2H14.2002V40.2H13.6002V39.2H13.0002V40.2H12.4002V41.2H11.8002V42.2H13.0002V43.2H11.3002V42.2H10.7002V41.2H10.1002V40.2H10.7002V39.2H11.3002V38.2H11.9002V37.2H12.5002V36.2H13.0002V35.2H13.6002V36.2H14.2002V37.2H14.8002V38.2H15.4002V35.2H14.8002V34.2H14.2002V33.2H13.6002V32.2H13.0002V31.2H13.6002V30.2H14.2002V29.2H14.8002V28.2H15.4002V25.2H14.8002V26.2H14.2002V27.2H13.6002V28.2H13.0002V27.2H12.4002V26.2H11.8002V25.2H11.2002V24.2H10.6002V23.2H10.0002V22.2H10.6002V21.2H11.2002V20.2H13.0002V21.2H11.8002V22.2H12.4002V23.2H13.0002V24.2H13.6002V23.2H14.2002V22.2H14.8002V21.2H15.4002V19.2H14.8002V18.7ZM10.7002 27.6V28.6H11.3002V29.6H11.9002V34.6H11.3002V35.6H10.7002V36.6H10.1002V37.6H9.5002V38.6H9.0002V39.6H8.4002V38.6H7.8002V37.6H7.2002V36.6H6.60019V35.6H6.1002V34.6H5.5002V29.6H6.1002V28.6H6.7002V27.6H7.3002V26.6H7.9002V25.6H8.5002V24.6H9.0002V25.6H9.6002V26.6H10.2002V27.6H10.7002Z" fill="#C8313E"/>
<path d="M8.6998 27.6H8.9998V26.6H8.3998V27.6H8.5998H8.6998ZM7.1998 48.2H6.7998C6.8998 48.4 7.0998 48.6 7.1998 48.8V48.2ZM7.7998 49.2H7.3998C7.4998 49.4 7.5998 49.5 7.7998 49.7V49.2ZM8.3998 50.2H8.1998C8.2998 50.3 8.2998 50.4 8.3998 50.5V50.2ZM14.7998 46.3H15.3998V47.3H14.7998V46.3ZM14.7998 49.2H14.1998V48.2H13.5998V49.2H12.9998V50.2H12.3998V51.2H12.9998V52.2H13.5998V53.1H14.1998V52.2H14.7998V51.2H15.2998V50.2H14.7998V49.2ZM9.4998 51.2V51.9L9.7998 52.2H10.0998V52.5L10.6998 53.1V52.2H11.2998V51.2H11.8998V50.2H11.2998V49.2H10.6998V48.2H10.0998V49.2H9.4998V50.2H8.9998V51.2H9.4998ZM14.7998 54.1H15.3998V55.1H14.7998V54.1ZM11.5998 54C12.5998 54.9 13.5998 55.8 14.6998 56.5V56.1H14.0998V55.1H13.4998V54.1H12.9998V53.1H12.3998V52.1H11.7998V53.1H11.1998V53.6L11.5998 54ZM8.5998 46.3H8.3998V48.2H8.9998V46.3H8.6998H8.5998ZM14.7998 39.4H15.3998V40.4H14.7998V39.4ZM11.2998 32.1V31.5H10.6998V32.5H11.2998V32.1ZM8.5998 36.4H8.3998V37.4H8.9998V36.4H8.6998H8.5998Z" fill="#C8313E"/>
<path d="M15.2998 44V56.9C20.0998 60.1 25.7998 62 31.9998 62C39.8998 62 46.9998 59 52.3998 54C55.3998 51.2 57.8998 47.8 59.4998 44H15.2998Z" fill="#83BF4F"/>
<path d="M59.4998 44C61.0998 40.3 61.9998 36.3 61.9998 32C61.9998 27.7 61.0998 23.7 59.4998 20C57.7998 16.2 55.3998 12.8 52.3998 10C46.9998 5 39.8998 2 31.9998 2C25.7998 2 20.0998 3.9 15.2998 7.1V44H59.4998Z" fill="#C94747"/>
</svg>
