<svg width="64" height="64" viewBox="0 0 64 64" fill="none" xmlns="http://www.w3.org/2000/svg">
<path d="M32 62C48.5685 62 62 48.5685 62 32C62 15.4315 48.5685 2 32 2C15.4315 2 2 15.4315 2 32C2 48.5685 15.4315 62 32 62Z" fill="#F42F4C"/>
<path d="M49.7004 34.3C48.4004 33.2 46.1004 33.4 44.5004 33.5C46.3004 32.6 49.1004 30.8 51.0004 32.4C49.6004 30.5 46.5004 31.1 44.6004 31.5C46.2004 30.3 48.7004 28.2 50.8004 29.4C49.1004 27.7 46.1004 28.8 44.3004 29.6C45.7004 28.2 47.8004 25.7 50.1004 26.5C48.2004 25.1 45.4004 26.6 43.7004 27.7C44.8004 26.1 46.6004 23.3 49.0004 23.8C46.9004 22.7 44.4004 24.7 42.9004 25.9C43.8004 24.1 45.0004 21.1 47.5004 21.2C45.2004 20.5 43.1004 22.8 41.8004 24.3C42.4004 22.4 43.1004 19.2 45.6004 18.9C43.3004 18.5 41.5004 21.1 40.5004 22.8C40.8004 20.8 41.0004 17.5 43.4004 16.9C41.0004 16.9 39.7004 19.8 38.9004 21.6C38.9004 19.6 38.6004 16.3 40.9004 15.3C38.6004 15.7 37.7004 18.7 37.2004 20.6C36.9004 18.6 36.1004 15.4 38.1004 14.1C35.8004 14.8 35.5004 18 35.3004 19.9C34.7004 18 33.4004 15 35.2004 13.3C33.1004 14.4 33.2004 17.5 33.3004 19.5C32.4004 17.7 30.6004 14.9 32.2004 13C30.3004 14.4 30.9004 17.5 31.3004 19.4C30.1004 17.8 28.0004 15.3 29.2004 13.2C27.5004 14.9 28.6004 17.8 29.4004 19.7C28.0004 18.3 25.5004 16.2 26.3004 13.9C24.9004 15.8 26.4004 18.6 27.5004 20.3C25.9004 19.2 23.1004 17.4 23.6004 15C22.5004 17.1 24.5004 19.6 25.8004 21.1C24.0004 20.2 21.0004 19 21.1004 16.5C20.4004 18.7 22.7004 20.9 24.2004 22.2C22.3004 21.6 19.1004 20.9 18.8004 18.4C18.4004 20.7 21.0004 22.5 22.7004 23.5C20.7004 23.2 17.4004 23 16.8004 20.6C16.8004 23 19.7004 24.3 21.5004 25.1C19.5004 25.1 16.2004 25.4 15.2004 23.1C15.6004 25.4 18.6004 26.3 20.5004 26.8C18.5004 27.1 15.3004 27.9 14.0004 25.9C14.7004 28.2 17.9004 28.5 19.8004 28.7C17.9004 29.3 14.9004 30.6 13.2004 28.8C14.3004 30.9 17.4004 30.8 19.4004 30.7C17.6004 31.6 14.8004 33.4 12.9004 31.8C14.3004 33.7 17.4004 33.1 19.3004 32.7C17.7004 33.9 15.2004 36 13.1004 34.8C14.8004 36.5 17.7004 35.4 19.6004 34.6C18.2004 36 16.1004 38.5 13.8004 37.7C15.7004 39.1 18.5004 37.6 20.2004 36.5C19.1004 38.1 17.3004 40.9 14.9004 40.4C17.0004 41.5 19.5004 39.5 21.0004 38.2C20.1004 40 18.9004 43 16.4004 42.9C18.7004 43.6 20.8004 41.3 22.1004 39.8C21.5004 41.7 20.8004 44.9 18.3004 45.2C20.6004 45.6 22.4004 42.9 23.4004 41.3C23.1004 43.3 22.9004 46.6 20.5004 47.2C22.9004 47.2 24.2004 44.3 25.0004 42.5C25.0004 44.5 25.3004 47.8 23.0004 48.8C25.3004 48.4 26.2004 45.4 26.7004 43.5C27.0004 45.5 27.8004 48.7 25.8004 50C28.1004 49.3 28.4004 46.1 28.6004 44.2C29.2004 46.1 30.5004 49.1 28.7004 50.8C30.8004 49.7 30.7004 46.6 30.6004 44.6C31.5004 46.4 33.3004 49.2 31.7004 51.1C33.6004 49.7 33.0004 46.6 32.6004 44.7C33.8004 46.3 35.9004 48.8 34.7004 50.9C36.4004 49.2 35.3004 46.3 34.5004 44.4C35.9004 45.8 38.4004 47.9 37.6004 50.2C39.0004 48.3 37.5004 45.5 36.4004 43.8C38.0004 44.9 40.8004 46.7 40.3004 49.1C41.4004 47 39.4004 44.5 38.2004 43C40.0004 43.9 43.0004 45.1 42.9004 47.6C43.6004 45.3 41.3004 43.2 39.8004 41.9C41.7004 42.5 44.9004 43.2 45.2004 45.7C45.6004 43.3 42.9004 41.6 41.3004 40.6C43.3004 40.9 46.5004 41.1 47.2004 43.5C47.2004 41.1 44.3004 39.8 42.5004 39C44.5004 39 47.8004 38.7 48.8004 41C48.4004 38.6 45.4004 37.8 43.5004 37.3C45.5004 37 48.7004 36.2 50.0004 38.2C49.3004 36 46.1004 35.5 44.2004 35.4C46.1004 34.7 49.1004 33.5 50.8004 35.3C50.5004 34.9 50.1004 34.6 49.7004 34.3ZM32.0004 44C27.5004 44 23.3004 41.4 21.3004 37.4C19.2004 33.4 19.7004 28.4 22.4004 24.7C25.1004 21.1 29.7004 19.3 34.2004 20.1C38.6004 20.9 42.2004 24.2 43.5004 28.4C45.8004 36.1 39.9004 44 32.0004 44Z" fill="#FFE62E"/>
<path d="M24.8 25C23 26.8 22 29.3 22 32C22 34 22.6 35.9 23.6 37.5C24.4 33.8 26.1 30.4 28.3 27.6C27.3 26.6 26.1 25.7 24.8 25ZM31.3 24.4C30.5 23.7 29.6 23.1 28.7 22.5C28.3 22.6 27.9 22.8 27.5 23C28.5 23.6 29.5 24.4 30.5 25.1C30.7 25 31 24.7 31.3 24.4ZM29.8 25.9C28.8 25 27.7 24.3 26.5 23.6C26.2 23.8 25.9 24.1 25.6 24.3C26.8 25 28 25.8 29 26.8C29.2 26.5 29.5 26.2 29.8 25.9ZM29.1 28.2C26.8 31.2 25.2 34.7 24.4 38.5C24.9 39 25.4 39.5 26 40C26.4 36 27.8 32.3 30 29.2C29.7 28.8 29.4 28.5 29.1 28.2ZM34 29.2C36.2 32.3 37.7 36 38 40C38.6 39.6 39.1 39.1 39.6 38.5C38.9 34.7 37.2 31.2 34.9 28.2C34.6 28.5 34.3 28.8 34 29.2ZM31.2 29.2C31.5 29.6 31.8 29.9 32 30.3C32.3 29.9 32.5 29.6 32.8 29.2C32.5 28.9 32.3 28.5 32 28.2C31.7 28.5 31.4 28.8 31.2 29.2ZM34.1 22.2C33.4 22.1 32.7 22 32 22C31.3 22 30.6 22.1 29.9 22.2C30.6 22.7 31.4 23.2 32 23.8C32.7 23.2 33.4 22.7 34.1 22.2Z" fill="#FFE62E"/>
<path d="M31.5008 31.2L30.6008 30C28.5008 33.1 27.1008 36.7 26.8008 40.6L28.6008 41.5V41.2C28.7008 37.5 29.7008 34.1 31.5008 31.2ZM32.0008 26.7L32.9008 25.8C32.6008 25.5 32.3008 25.2 32.0008 25C31.7008 25.3 31.4008 25.5 31.1008 25.8L32.0008 26.7ZM33.5008 28.4C33.8008 28.1 34.1008 27.7 34.4008 27.4C34.1008 27.1 33.9008 26.8 33.6008 26.5L32.7008 27.4C32.9008 27.8 33.2008 28.1 33.5008 28.4ZM30.5008 26.6C30.2008 26.9 30.0008 27.2 29.7008 27.5C30.0008 27.8 30.3008 28.1 30.6008 28.5C30.9008 28.2 31.1008 27.8 31.4008 27.5C31.1008 27.1 30.8008 26.8 30.5008 26.6Z" fill="#FFE62E"/>
<path d="M32.0006 32.1C30.5006 34.8 29.6006 37.9 29.6006 41.1V41.7C30.4006 41.9 31.2006 42 32.0006 42C32.8006 42 33.6006 41.9 34.4006 41.7V41.1C34.4006 37.8 33.5006 34.7 32.0006 32.1ZM32.6006 31.2C34.4006 34.1 35.4006 37.5 35.4006 41.2V41.5C36.0006 41.3 36.7006 41 37.2006 40.6C36.9006 36.7 35.6006 33.1 33.4006 30C33.1006 30.3 32.8006 30.7 32.6006 31.2ZM33.6006 25.2C34.5006 24.4 35.5006 23.7 36.6006 23.1C36.2006 22.9 35.8006 22.7 35.4006 22.6C34.5006 23.2 33.6006 23.8 32.8006 24.5C33.0006 24.7 33.3006 25 33.6006 25.2ZM40.4006 37.5C41.4006 35.9 42.0006 34 42.0006 32C42.0006 29.3 40.9006 26.8 39.2006 25C37.9006 25.7 36.7006 26.5 35.7006 27.5C37.9006 30.4 39.5006 33.8 40.4006 37.5ZM35.0006 26.8C36.0006 25.9 37.2006 25 38.4006 24.3C38.1006 24 37.8006 23.8 37.5006 23.6C36.3006 24.3 35.3006 25 34.2006 25.9C34.5006 26.2 34.8006 26.5 35.0006 26.8Z" fill="#FFE62E"/>
</svg>
