<svg width="64" height="64" viewBox="0 0 64 64" fill="none" xmlns="http://www.w3.org/2000/svg">
<mask id="mask0_267_45349" style="mask-type:luminance" maskUnits="userSpaceOnUse" x="2" y="2" width="60" height="60">
<path d="M32 62C48.5685 62 62 48.5685 62 32C62 15.4315 48.5685 2 32 2C15.4315 2 2 15.4315 2 32C2 48.5685 15.4315 62 32 62Z" fill="white"/>
</mask>
<g mask="url(#mask0_267_45349)">
<path d="M2 2H62V62H2V2Z" fill="#338AF3"/>
<path d="M48.958 32.3285H15.0439C15.0439 34.6723 17.083 36.5707 19.4268 36.5707H19.2861C19.2861 38.9145 21.1846 40.8012 23.5283 40.8012C23.5283 43.1449 25.415 45.0434 27.7588 45.0434H36.2432C38.5869 45.0434 40.4736 43.1449 40.4736 40.8012C42.8174 40.8012 44.7158 38.9027 44.7158 36.5707H44.5752C46.9189 36.5707 48.958 34.6723 48.958 32.3285Z" fill="#FFDA44"/>
<path d="M43.7402 26.7852C43.7402 29.8994 42.5031 32.886 40.301 35.0881C38.0989 37.2902 35.1123 38.5273 31.998 38.5273C28.8838 38.5273 25.8972 37.2902 23.6951 35.0881C21.493 32.886 20.2559 29.8994 20.2559 26.7852" fill="#338AF3"/>
<path d="M40.9678 26.7848L37.2998 28.5074L39.2568 32.0582L35.2725 31.2965L34.7686 35.316L32.0029 32.3512L29.2373 35.316L28.7217 31.2965L24.7373 32.0582L26.6826 28.5074L23.0264 26.7848L26.6826 25.0621L24.7373 21.5113L28.7217 22.273L29.2256 18.2535L31.9912 21.2066L34.7568 18.2535L35.2842 22.273L39.2686 21.5113L37.3232 25.0621L40.9678 26.7848Z" fill="#FFDA44"/>
</g>
</svg>
