<svg width="611" height="1377" viewBox="0 0 611 1377" fill="none" xmlns="http://www.w3.org/2000/svg">
<g opacity="0.3">
<g style="mix-blend-mode:color-dodge" opacity="0.2" filter="url(#filter0_f_855_41781)">
<ellipse cx="513.061" cy="339.763" rx="513.061" ry="339.763" transform="matrix(-0.942103 -0.335323 -0.335323 0.942103 408.57 518.082)" fill="#632ED5"/>
</g>
<path opacity="0.2" d="M266.83 1128.33L39.893 997.469L-187.044 1128.33C-206.325 1139.45 -218.205 1160.01 -218.205 1182.27V1407.97C-218.205 1430.23 -206.325 1450.79 -187.044 1461.91L39.893 1592.77L266.83 1461.91C286.111 1450.79 297.991 1430.23 297.991 1407.97V1182.27C297.991 1160.01 286.111 1139.45 266.83 1128.33Z" stroke="url(#paint0_linear_855_41781)" stroke-width="9.59537"/>
<path opacity="0.2" d="M407.43 1060.4L303.075 1000.29L198.72 1060.4C184.839 1068.39 176.284 1083.19 176.284 1099.21V1193.48C176.284 1209.5 184.839 1224.3 198.72 1232.29L303.075 1292.4L407.43 1232.29C421.312 1224.3 429.866 1209.5 429.866 1193.48V1099.21C429.866 1083.19 421.312 1068.39 407.43 1060.4Z" stroke="url(#paint1_linear_855_41781)" stroke-width="9.59537"/>
<path opacity="0.2" d="M212.024 952.924L180.787 934.968L149.551 952.924C141.856 957.348 137.112 965.546 137.112 974.422V995.916C137.112 1004.79 141.856 1012.99 149.551 1017.41L180.787 1035.37L212.024 1017.41C219.719 1012.99 224.462 1004.79 224.462 995.916V974.422C224.462 965.546 219.719 957.348 212.024 952.924Z" stroke="url(#paint2_linear_855_41781)" stroke-width="6.7626"/>
<path opacity="0.3" d="M277.076 907.303L260.805 897.95L244.534 907.303C240.667 909.526 238.284 913.645 238.284 918.105V929.56C238.284 934.02 240.667 938.14 244.534 940.362L260.805 949.716L277.076 940.362C280.942 938.14 283.326 934.02 283.326 929.56V918.105C283.326 913.645 280.942 909.526 277.076 907.303Z" stroke="url(#paint3_linear_855_41781)" stroke-width="5.1137"/>
</g>
<defs>
<filter id="filter0_f_855_41781" x="-988.056" y="0.0393066" width="1598.68" height="1332.19" filterUnits="userSpaceOnUse" color-interpolation-filters="sRGB">
<feFlood flood-opacity="0" result="BackgroundImageFix"/>
<feBlend mode="normal" in="SourceGraphic" in2="BackgroundImageFix" result="shape"/>
<feGaussianBlur stdDeviation="151.313" result="effect1_foregroundBlur_855_41781"/>
</filter>
<linearGradient id="paint0_linear_855_41781" x1="139.5" y1="991.931" x2="-87.6794" y2="1598.5" gradientUnits="userSpaceOnUse">
<stop stop-color="#00A4BA"/>
<stop offset="1" stop-color="white" stop-opacity="0"/>
</linearGradient>
<linearGradient id="paint1_linear_855_41781" x1="352.932" y1="994.749" x2="239.434" y2="1298.11" gradientUnits="userSpaceOnUse">
<stop stop-color="#00A4BA"/>
<stop offset="1" stop-color="white" stop-opacity="0"/>
</linearGradient>
<linearGradient id="paint2_linear_855_41781" x1="198.616" y1="931.068" x2="158.173" y2="1039.38" gradientUnits="userSpaceOnUse">
<stop stop-color="#00A4BA"/>
<stop offset="1" stop-color="white" stop-opacity="0"/>
</linearGradient>
<linearGradient id="paint3_linear_855_41781" x1="270.307" y1="895" x2="248.753" y2="952.726" gradientUnits="userSpaceOnUse">
<stop stop-color="#00A4BA"/>
<stop offset="1" stop-color="white" stop-opacity="0"/>
</linearGradient>
</defs>
</svg>
