<svg width="278" height="82" viewBox="0 0 278 82" fill="none" xmlns="http://www.w3.org/2000/svg">
<g clip-path="url(#clip0_855_41626)">
<path fill-rule="evenodd" clip-rule="evenodd" d="M252.421 36.3972V42.6191H259.971V62.3978H268.054V42.6191H275.604V36.3972H252.421ZM249.549 55.7528C248.327 56.2836 246.838 56.602 244.924 56.602C240.989 56.602 237.798 54.0514 237.798 49.3187C237.745 45.0651 240.511 42.0338 244.763 42.0338C246.891 42.0338 248.327 42.4053 249.284 42.8299L250.559 36.8218C248.857 36.1834 246.518 35.8119 244.392 35.8119C234.714 35.8119 229.503 42.0338 229.503 49.6356C229.503 57.7727 234.875 62.9301 243.276 62.9301C246.358 62.9301 249.071 62.3978 250.506 61.7063L249.549 55.7528ZM209.085 46.4465C209.299 44.3205 210.68 41.1815 214.083 41.1815C217.806 41.1815 218.656 44.4797 218.656 46.4465H209.085ZM225.887 51.9754C225.994 51.3916 226.154 50.1694 226.154 48.7864C226.154 42.3522 222.963 35.8119 214.562 35.8119C205.523 35.8119 201.428 43.0968 201.428 49.6902C201.428 57.8258 206.479 62.9301 215.305 62.9301C218.816 62.9301 222.059 62.3978 224.718 61.2817L223.654 55.8059C221.474 56.549 219.242 56.9205 216.476 56.9205C212.701 56.9205 209.352 55.3267 209.138 51.9754H225.887ZM179.096 46.5527H181.86C185.902 46.5527 189.145 47.9888 189.145 51.5508C189.145 55.3267 185.902 56.7628 182.232 56.7628C180.85 56.7628 179.892 56.7628 179.096 56.6551V46.5527ZM179.096 32.409C179.733 32.3029 180.743 32.1952 182.552 32.1952C186.22 32.1952 188.295 33.6328 188.295 36.3441C188.295 39.0024 186.061 40.7569 181.754 40.7569H179.096V32.409ZM171.066 62.2386C172.874 62.5055 175.852 62.7709 179.84 62.7709C186.965 62.7709 191.324 61.6002 193.931 59.5272C196.163 57.7196 197.652 55.1675 197.652 51.8708C197.652 47.2973 194.621 44.1598 190.528 43.0968V42.9906C194.569 41.4484 196.43 38.5232 196.43 35.3873C196.43 32.089 194.674 29.6446 192.175 28.3147C189.517 26.7725 186.487 26.2948 181.542 26.2948C177.448 26.2948 173.192 26.6663 171.066 27.0393V62.2386ZM128.262 36.3972V62.3978H138.099C139.907 58.3565 141.875 53.8376 143.522 50.2224C144.587 47.7765 145.225 46.075 146.235 43.256H146.447C146.18 48.7333 145.968 50.4347 145.968 54.476V62.3978H153.626V36.3972H143.736L138.685 47.5626C137.62 50.0101 136.929 52.03 135.706 55.0068L135.494 54.9537C135.706 51.4447 135.919 48.521 135.919 44.3736V36.3972H128.262ZM97.3682 26.5602V42.2445C97.3682 47.6703 96.8359 52.2954 94.6568 54.5291C93.7531 55.486 92.317 56.2305 90.5625 56.4428L91.5724 62.9832C94.4445 62.9832 96.8905 62.2386 98.6981 61.2287C104.121 58.0381 105.292 50.9124 105.292 41.7153V33.2066H113.427V62.3978H121.508V26.5602H97.3682Z" fill="#034EA2"/>
<path d="M94.5291 70.8297V71.812H93.0882V76.0632H91.8404V71.812H90.3984V70.8297H94.5291Z" fill="#034EA2"/>
<path d="M95.7422 76.0632V70.8297H97.5535C98.2407 70.8297 98.7671 70.9773 99.1319 71.2725C99.5024 71.5677 99.687 72.0106 99.687 72.601C99.687 72.9231 99.6256 73.2076 99.5023 73.4545C99.3791 73.6961 99.2133 73.8893 99.0039 74.0342C98.7947 74.1738 98.5688 74.2785 98.327 74.3484C98.092 74.4181 97.8448 74.4529 97.5861 74.4529H96.8934V76.0632L95.7422 76.0632ZM97.3363 71.7637H96.8934V73.5511H97.3363C98.0556 73.5511 98.4151 73.2505 98.4151 72.6493C98.4151 72.0589 98.0556 71.7637 97.3363 71.7637Z" fill="#034EA2"/>
<path d="M102.012 70.8297H103.67L105.579 76.0632H104.314L103.91 74.9923H101.728L101.35 76.0632H100.102L102.012 70.8297ZM102.833 71.7073L102.02 74.1711H103.638L102.833 71.7073Z" fill="#034EA2"/>
<path d="M107.57 70.8297H111.274V75.0809H111.951L111.83 77.3032H110.896L110.849 76.0632H107.483L107.428 77.3032H106.565L106.445 75.0809H106.976C107.18 74.6462 107.33 74.112 107.428 73.4786C107.525 72.8452 107.57 71.9623 107.57 70.8297ZM110.059 71.812H108.641C108.598 73.272 108.424 74.3617 108.118 75.0809H110.059V71.812Z" fill="#034EA2"/>
<path d="M118.168 70.8298V76.0634H116.992V73.1487L117.035 72.6334L114.653 75.9184L114.588 76.0633H113.445V70.8297H114.621V73.7927L114.578 74.2597H114.621L117.012 70.9747L117.076 70.8298L118.168 70.8298Z" fill="#034EA2"/>
<path d="M121.246 70.8297V75.0809H123.307V70.8297H124.548V75.0809H125.224L125.104 77.3032H124.177L124.13 76.0632H120.008V70.8297H121.246Z" fill="#034EA2"/>
<path d="M131.442 70.8298V76.0634H130.267V73.1487L130.31 72.6334L127.927 75.9184L127.863 76.0633H126.719V70.8297H127.894V73.7927L127.851 74.2597H127.894L130.286 70.9747L130.35 70.8298L131.442 70.8298Z" fill="#034EA2"/>
<path d="M137.706 71.4497C138.2 71.9489 138.447 72.6171 138.447 73.4545C138.447 74.2919 138.2 74.9628 137.706 75.4674C137.218 75.9666 136.534 76.2162 135.653 76.2162C134.773 76.2162 134.091 75.9666 133.608 75.4674C133.125 74.9628 132.883 74.2919 132.883 73.4545C132.883 72.6171 133.125 71.9489 133.608 71.4497C134.091 70.9451 134.773 70.6927 135.653 70.6927C136.534 70.6927 137.218 70.9451 137.706 71.4497ZM136.78 74.7105C137.05 74.3938 137.184 73.9752 137.184 73.4545C137.184 72.9338 137.05 72.5151 136.78 72.1984C136.511 71.8817 136.135 71.7234 135.653 71.7234C135.176 71.7234 134.805 71.8817 134.542 72.1984C134.278 72.5151 134.146 72.9338 134.146 73.4545C134.146 73.9752 134.276 74.3938 134.534 74.7105C134.792 75.0219 135.164 75.1776 135.652 75.1776C136.141 75.1776 136.517 75.0219 136.78 74.7105Z" fill="#034EA2"/>
<path d="M144.561 70.8297V76.0632H143.32V73.9134H141.114V76.0632H139.875V70.8297H141.114V72.9714H143.32V70.8297H144.561Z" fill="#034EA2"/>
<path d="M151.084 70.8297V76.0632H149.845V73.9134H147.638V76.0632H146.398V70.8297H147.638V72.9714H149.845V70.8297H151.084Z" fill="#034EA2"/>
<path d="M154.262 70.8297H155.921L157.829 76.0632H156.564L156.16 74.9923H153.978L153.6 76.0632H152.352L154.262 70.8297ZM155.083 71.7073L154.27 74.1711H155.888L155.083 71.7073Z" fill="#034EA2"/>
<path d="M162.945 70.8297V76.0632H161.794V74.1953H160.981L159.926 76.0632H158.711L159.902 74.0745C159.58 73.9618 159.32 73.782 159.121 73.535C158.929 73.288 158.833 72.9793 158.833 72.609C158.833 72.0723 159.012 71.6429 159.372 71.3209C159.737 70.9934 160.202 70.8297 160.766 70.8297H162.945ZM160.007 72.5447C160.007 72.7808 160.084 72.9687 160.239 73.1083C160.399 73.2479 160.606 73.3176 160.859 73.3176H161.793V71.7717H160.843C160.603 71.7717 160.401 71.8442 160.239 71.9892C160.084 72.1288 160.007 72.3139 160.007 72.5447Z" fill="#034EA2"/>
<path d="M167.57 76.0634V70.8298H168.81V73.1487L169.269 72.8426L170.944 70.8297H172.328L170.235 73.3177L172.514 76.0633H171.065L169.326 74.0021L168.81 74.2918V76.0632L167.57 76.0634Z" fill="#034EA2"/>
<path d="M178.412 70.8298V76.0634H177.236V73.1487L177.279 72.6334L174.895 75.9184L174.831 76.0633H173.688V70.8297H174.863V73.7927L174.82 74.2597H174.863L177.255 70.9747L177.319 70.8298L178.412 70.8298Z" fill="#034EA2"/>
<path d="M183.747 70.8297V71.812H182.306V76.0632H181.058V71.812H179.617V70.8297H183.747Z" fill="#034EA2"/>
<path d="M185.815 70.8297H187.473L189.382 76.0632H188.118L187.714 74.9923H185.532L185.154 76.0632H183.906L185.815 70.8297ZM186.637 71.7073L185.824 74.1711H187.442L186.637 71.7073Z" fill="#034EA2"/>
<path d="M195.402 70.8298V76.0633H194.228V73.1486L194.27 72.6333L191.888 75.9184L191.823 76.0633H190.68V70.8297H191.855V73.7926L191.812 74.2596H191.855L194.247 70.9746L194.311 70.8297L195.402 70.8298ZM193.132 69.7186C193.321 69.7186 193.479 69.6757 193.607 69.5897C193.741 69.5037 193.827 69.4179 193.865 69.3322L193.93 69.2114L193.985 69.2286L194.694 69.3735C194.694 69.3993 194.679 69.4368 194.651 69.4861C194.651 69.5291 194.61 69.6096 194.53 69.7277C194.467 69.8458 194.385 69.9503 194.281 70.0415C194.178 70.1274 194.025 70.208 193.822 70.283C193.618 70.3527 193.382 70.3875 193.113 70.3875C192.85 70.3875 192.617 70.3527 192.413 70.283C192.21 70.2131 192.057 70.1299 191.955 70.0333C191.852 69.9313 191.768 69.832 191.705 69.7354C191.639 69.6334 191.599 69.5476 191.584 69.4779L191.541 69.3735L192.258 69.2286L192.305 69.2114C192.305 69.2286 192.32 69.2474 192.348 69.2678C192.348 69.2878 192.373 69.3281 192.422 69.3885C192.465 69.4476 192.513 69.4986 192.568 69.5415C192.622 69.5845 192.697 69.6248 192.791 69.6624C192.889 69.6999 192.996 69.7186 193.113 69.7186H193.132Z" fill="#034EA2"/>
<path d="M201.606 71.5141L201.139 72.3031C200.457 71.9166 199.979 71.7234 199.706 71.7234C199.164 71.7234 198.759 71.8791 198.49 72.1904C198.227 72.5017 198.095 72.9285 198.095 73.4706C198.095 73.9913 198.233 74.4073 198.511 74.7186C198.789 75.0246 199.173 75.1776 199.663 75.1776C199.86 75.1776 200.054 75.1534 200.243 75.105C200.435 75.0514 200.596 74.9896 200.726 74.9197C200.86 74.8446 200.978 74.7695 201.078 74.6944C201.184 74.6194 201.262 74.5549 201.31 74.501L201.384 74.4283L201.875 75.0644C201.846 75.0965 201.822 75.1395 201.801 75.1934C201.77 75.2418 201.69 75.333 201.561 75.4672C201.438 75.5961 201.296 75.7115 201.135 75.8132C200.98 75.9152 200.766 76.0065 200.491 76.087C200.216 76.173 199.921 76.216 199.606 76.216C198.699 76.216 198.009 75.9691 197.537 75.4752C197.064 74.9814 196.828 74.3131 196.828 73.4704C196.828 72.633 197.069 71.962 197.552 71.4575C198.041 70.9475 198.731 70.6925 199.622 70.6925C199.897 70.6925 200.152 70.7221 200.387 70.7811C200.628 70.8347 200.818 70.9018 200.959 70.9823C201.102 71.0628 201.225 71.1433 201.328 71.2239C201.431 71.3044 201.501 71.3714 201.538 71.425L201.606 71.5141Z" fill="#034EA2"/>
<path d="M203.047 76.0634V70.8298H204.286V73.1487L204.746 72.8426L206.421 70.8297H207.805L205.712 73.3177L207.99 76.0633H206.542L204.802 74.0021L204.286 74.2918V76.0632L203.047 76.0634Z" fill="#034EA2"/>
<path d="M210.479 70.8297H212.137L214.046 76.0632H212.782L212.378 74.9923H210.196L209.818 76.0632H208.57L210.479 70.8297ZM211.301 71.7073L210.488 74.1711H212.106L211.301 71.7073Z" fill="#034EA2"/>
<path d="M219.165 70.8297V76.0632H218.014V74.1953H217.201L216.146 76.0632H214.93L216.122 74.0745C215.8 73.9618 215.54 73.782 215.341 73.535C215.149 73.288 215.054 72.9793 215.054 72.609C215.054 72.0723 215.233 71.6429 215.593 71.3209C215.958 70.9934 216.422 70.8297 216.986 70.8297H219.165ZM216.227 72.5447C216.227 72.7808 216.304 72.9687 216.459 73.1083C216.619 73.2479 216.826 73.3176 217.079 73.3176H218.013V71.7717H217.062C216.821 71.7717 216.621 71.8442 216.459 71.9892C216.304 72.1288 216.227 72.3139 216.227 72.5447Z" fill="#034EA2"/>
<path d="M230.486 70.8297V76.0632H229.295V72.4802H229.252L227.722 76.0632H226.522L224.992 72.4802H224.949V76.0632H223.758V70.8297H225.368L227.082 74.8958H227.125L228.84 70.8297H230.486Z" fill="#034EA2"/>
<path d="M236.105 75.0809V76.0632H232.32V70.8297H235.967V71.812H233.561V72.9553H235.693V73.8974H233.561V75.0809H236.105Z" fill="#034EA2"/>
<path d="M238.327 70.8297H242.031V75.0809H242.707L242.587 77.3032H241.653L241.606 76.0632H238.24L238.184 77.3032H237.323L237.203 75.0809H237.734C237.938 74.6462 238.089 74.112 238.185 73.4786C238.283 72.8452 238.327 71.9623 238.327 70.8297ZM240.815 71.812H239.398C239.355 73.272 239.181 74.3617 238.875 75.0809H240.815V71.812Z" fill="#034EA2"/>
<path d="M248.927 70.8298V76.0634H247.75V73.1487L247.793 72.6334L245.41 75.9184L245.346 76.0633H244.203V70.8297H245.379V73.7927L245.335 74.2597H245.379L247.769 70.9747L247.834 70.8298L248.927 70.8298Z" fill="#034EA2"/>
<path d="M252.004 70.8297V75.0809H254.066V70.8297H255.306V75.0809H255.982L255.862 77.3032H254.936L254.888 76.0632H250.766V70.8297H252.004Z" fill="#034EA2"/>
<path d="M262.201 70.8298V76.0634H261.025V73.1487L261.068 72.6334L258.684 75.9184L258.62 76.0633H257.477V70.8297H258.652V73.7927L258.609 74.2597H258.652L261.044 70.9747L261.108 70.8298L262.201 70.8298Z" fill="#034EA2"/>
<path d="M268.725 70.8297V76.0632H267.485V73.9134H265.278V76.0632H264.039V70.8297H265.278V72.9714H267.485V70.8297H268.725Z" fill="#034EA2"/>
<path d="M271.909 70.8297H273.568L275.476 76.0632H274.211L273.807 74.9923H271.626L271.248 76.0632H270L271.909 70.8297ZM272.731 71.7073L271.917 74.1711H273.536L272.731 71.7073Z" fill="#034EA2"/>
<path d="M98.1328 19.4981V7.52356H100.969V12.8292L102.019 12.1291L105.851 7.52356H109.02L104.23 13.2161L109.444 19.4981H106.127L102.148 14.7819L100.969 15.4452V19.4981H98.1328Z" fill="#034EA2"/>
<path d="M126.409 8.94216C127.539 10.0843 128.105 11.6134 128.105 13.5293C128.105 15.4452 127.539 16.9804 126.409 18.1349C125.291 19.2771 123.726 19.8482 121.712 19.8482C119.697 19.8482 118.137 19.2771 117.032 18.1349C115.927 16.9804 115.375 15.4452 115.375 13.5293C115.375 11.6134 115.927 10.0843 117.032 8.94216C118.137 7.78769 119.697 7.21045 121.712 7.21045C123.726 7.21045 125.291 7.78769 126.409 8.94216ZM124.291 16.4032C124.905 15.6786 125.212 14.7206 125.212 13.5293C125.212 12.338 124.905 11.3801 124.291 10.6554C123.677 9.93083 122.817 9.56852 121.712 9.56852C120.619 9.56852 119.772 9.93083 119.17 10.6554C118.568 11.3801 118.267 12.338 118.267 13.5293C118.267 14.7206 118.561 15.6786 119.151 16.4032C119.74 17.1155 120.594 17.4717 121.712 17.4717C122.829 17.4717 123.689 17.1155 124.291 16.4032Z" fill="#034EA2"/>
<path d="M135.992 19.4982V7.52368H140.137C141.709 7.52368 142.913 7.86142 143.749 8.53689C144.596 9.21239 145.02 10.2256 145.02 11.5766C145.02 12.3135 144.877 12.9644 144.593 13.5293C144.31 14.082 143.929 14.5242 143.452 14.8558C142.973 15.1751 142.458 15.4146 141.905 15.5742C141.364 15.7339 140.799 15.8137 140.21 15.8137H138.625V19.4981L135.992 19.4982ZM139.64 9.66068H138.626V13.7504H139.64C141.286 13.7504 142.108 13.0627 142.108 11.6871C142.108 10.3362 141.286 9.66068 139.64 9.66068Z" fill="#034EA2"/>
<path d="M163 7.52356V19.4981H160.163V9.77111H155.447V19.4981H152.609V7.52356H163Z" fill="#034EA2"/>
<path d="M181.919 8.94216C183.049 10.0843 183.614 11.6134 183.614 13.5293C183.614 15.4452 183.049 16.9804 181.919 18.1349C180.801 19.2771 179.235 19.8482 177.22 19.8482C175.206 19.8482 173.647 19.2771 172.542 18.1349C171.436 16.9804 170.883 15.4452 170.883 13.5293C170.883 11.6134 171.436 10.0843 172.542 8.94216C173.647 7.78769 175.206 7.21045 177.22 7.21045C179.235 7.21045 180.801 7.78769 181.919 8.94216ZM179.8 16.4032C180.414 15.6786 180.721 14.7206 180.721 13.5293C180.721 12.338 180.414 11.3801 179.8 10.6554C179.186 9.93083 178.326 9.56852 177.22 9.56852C176.127 9.56852 175.28 9.93083 174.679 10.6554C174.077 11.3801 173.776 12.338 173.776 13.5293C173.776 14.7206 174.07 15.6786 174.66 16.4032C175.249 17.1155 176.103 17.4717 177.22 17.4717C178.338 17.4717 179.198 17.1155 179.8 16.4032Z" fill="#034EA2"/>
<path d="M191.5 19.4982V7.52368H195.645C197.217 7.52368 198.421 7.86142 199.256 8.53689C200.104 9.21239 200.527 10.2256 200.527 11.5766C200.527 12.3135 200.385 12.9644 200.101 13.5293C199.818 14.082 199.437 14.5242 198.959 14.8558C198.481 15.1751 197.964 15.4146 197.412 15.5742C196.871 15.7339 196.306 15.8137 195.717 15.8137H194.133V19.4981L191.5 19.4982ZM195.148 9.66068H194.135V13.7504H195.148C196.794 13.7504 197.616 13.0627 197.616 11.6871C197.616 10.3362 196.794 9.66068 195.148 9.66068Z" fill="#034EA2"/>
<path d="M210.452 7.52356H214.246L218.613 19.4981H215.72L214.799 17.0479H209.807L208.94 19.4981H206.086L210.452 7.52356ZM212.33 9.53157L210.452 15.1688H214.154L212.33 9.53157Z" fill="#034EA2"/>
<path d="M228.947 7.52368V17.2507H233.662V7.52368H236.5V17.2507H238.048L237.773 22.3352H235.654L235.542 19.4982H226.109V7.52368H228.947Z" fill="#034EA2"/>
<path d="M256.898 7.52368V19.4982H254.209V12.8293L254.282 11.6503H254.238L248.786 19.1665L248.64 19.4984H246.023V7.52391H248.713V14.3033L248.623 15.3718H248.679L254.15 7.8555L254.296 7.52408L256.898 7.52368Z" fill="#034EA2"/>
<path d="M274.51 7.52368V19.4982H271.876V15.2242H270.015L267.601 19.4982H264.82L267.547 14.9479C266.81 14.69 266.214 14.2785 265.76 13.7136C265.317 13.1486 265.096 12.4424 265.096 11.595C265.096 10.3669 265.507 9.38435 266.33 8.64747C267.166 7.8983 268.228 7.52368 269.518 7.52368H274.51ZM267.786 11.4477C267.786 11.988 267.964 12.4179 268.32 12.7372C268.689 13.0565 269.162 13.2162 269.739 13.2162H271.876V9.67911H269.702C269.15 9.67911 268.689 9.84489 268.32 10.1765C267.964 10.4958 267.786 10.9195 267.786 11.4477Z" fill="#034EA2"/>
<path fill-rule="evenodd" clip-rule="evenodd" d="M0.804688 41.6271C0.804688 19.4061 18.9584 1.25232 41.1795 1.25232C63.4192 1.25232 81.5543 19.4061 81.5543 41.6271C81.5543 63.8668 63.4192 82.0019 41.1795 82.0019C18.9584 82.0019 0.804688 63.8668 0.804688 41.6271ZM7.48407 41.4592C7.48407 60.0234 22.6153 75.1733 41.1795 75.1733C59.7623 75.1733 74.8936 60.0234 74.8936 41.4592C74.8936 22.895 59.7623 7.74512 41.1795 7.74512C22.6153 7.74512 7.48407 22.895 7.48407 41.4592ZM45.1441 7.31971L45.1804 7.18665C45.1901 7.15117 45.2163 7.1055 45.2577 7.04596L45.277 7.01864L45.296 6.99225C45.3257 6.95101 45.3586 6.90546 45.3833 6.86504C45.4177 6.80871 45.462 6.72451 45.4485 6.63508C45.4321 6.52689 45.3452 6.46636 45.2463 6.43453C43.306 5.80798 41.221 5.9558 39.1482 6.4187C39.067 6.4368 39.0136 6.4958 38.9831 6.55086C38.952 6.60706 38.936 6.67344 38.9354 6.73626C38.9347 6.79746 38.9488 6.87052 38.9957 6.92827C39.0483 6.99318 39.1285 7.02136 39.2176 7.00715C41.406 6.64306 43.3375 6.46054 45.0196 7.26048L45.1441 7.31971ZM39.2239 3.30584C41.6766 3.86256 43.3292 3.7124 45.1015 3.18446C45.1777 3.16219 45.2903 3.11228 45.3038 2.99003C45.3099 2.93467 45.2916 2.88418 45.2683 2.84315C45.2446 2.80159 45.2104 2.76012 45.1693 2.71858L45.1222 2.67088L45.0574 2.6882C43.0814 3.21674 41.3874 3.05794 39.4261 2.47086C39.3124 2.43678 39.2128 2.49355 39.1491 2.55532C39.0833 2.61912 39.0324 2.70805 39.003 2.79849C38.9738 2.88806 38.9612 2.99367 38.9896 3.08954C39.0203 3.19323 39.0977 3.27744 39.2239 3.30584ZM41.4888 4.53354C41.355 4.55614 41.2203 4.57888 41.0857 4.60098L41.0186 4.92935L41.6473 4.97599L41.7163 5.50773C41.7287 5.59647 41.8395 5.59646 41.9515 5.59645C42.0091 5.59645 42.0669 5.59645 42.1119 5.60847L42.291 5.12898L43.2425 4.9704C43.3788 4.9481 43.4361 4.80249 43.4936 4.65635C43.5227 4.58233 43.5519 4.50819 43.5914 4.44985L42.4291 4.61403L42.4328 4.06737L42.0578 4.04312L41.832 4.47597C41.7179 4.49485 41.6032 4.51423 41.4888 4.53354Z" fill="#034EA2"/>
<path fill-rule="evenodd" clip-rule="evenodd" d="M10.6484 32.2755L17.033 32.7009L19.7794 29.1243L19.8186 32.742L23.8132 32.9006L19.7682 34.8857L19.8298 39.9214L17.6263 36.063L13.3351 38.0724L15.7326 34.6488L10.6484 32.2755Z" fill="#034EA2"/>
<path fill-rule="evenodd" clip-rule="evenodd" d="M45.0247 60.514C46.2283 60.2391 47.3825 59.8074 48.3816 59.1976C47.6468 58.1386 46.0996 57.432 44.3234 57.039C43.1815 56.787 41.9392 56.6672 40.7374 56.6707C39.5479 56.6725 38.4113 56.7976 37.4685 57.0284C36.1628 57.3509 35.2641 57.839 35.2464 58.4382C35.2253 59.2153 36.1522 59.8849 37.5496 60.3378C38.5329 60.6567 39.7382 60.8488 41.0299 60.8893C42.3339 60.9299 43.7101 60.8153 45.0247 60.514ZM43.5568 53.4494C45.9287 53.3014 48.3041 52.7922 50.3236 51.7895C49.3332 50.9771 47.86 50.3181 46.1701 49.8176C44.1983 49.2343 41.9339 48.8766 39.7734 48.7409C37.6218 48.607 35.5901 48.6934 34.0693 48.9982C32.6367 49.2854 31.7133 49.7119 31.7485 50.2476C31.7873 50.8873 32.7283 51.5727 34.205 52.1666C35.3574 52.63 36.8077 53.0054 38.4113 53.238C40.0201 53.4706 41.7823 53.5605 43.5568 53.4494ZM50.0451 45.1391C51.4267 44.7901 52.7166 44.3566 53.8532 43.8368C53.6417 43.6588 53.4074 43.4844 53.1518 43.317C51.9782 42.5399 50.3976 41.8773 48.5984 41.3451C46.7798 40.8059 44.741 40.4023 42.674 40.1521C36.4711 39.4032 30.0833 39.9812 28.885 42.3795C29.137 43.9972 31.6481 45.1408 35.0878 45.7452C37.2765 46.1294 39.8228 46.2774 42.4237 46.1805C45.0247 46.0836 47.668 45.7382 50.0451 45.1391ZM25.1633 33.9299C24.8672 33.9722 24.573 34.0127 24.4901 33.4224C24.4091 32.8338 24.7051 32.7933 24.9994 32.751C33.8755 31.4981 41.8105 31.6232 47.8054 32.5572C54.8841 33.662 59.3423 35.974 59.6419 38.5662C59.6419 38.5697 59.6454 38.6455 59.6454 38.649C59.5855 40.9645 58.0877 42.7954 55.7704 44.1716C56.3925 45.1109 56.5757 46.1594 56.1775 47.303L56.1669 47.3312C55.3352 49.4017 53.9307 50.9595 52.1967 52.0943C52.6831 52.8345 52.9069 53.6662 52.7871 54.5949C52.5069 56.787 51.4161 58.4276 49.8936 59.61C49.9588 59.8356 50.0028 60.0734 50.024 60.3202C50.0962 61.173 49.9958 61.959 49.7561 62.6762C49.3015 64.0278 48.3446 65.0851 47.0741 65.8375C45.8406 66.5653 44.3146 67.0058 42.6757 67.1415C40.8026 67.3001 38.7602 67.0622 36.8271 66.412C36.5451 66.3168 36.2597 66.2217 36.45 65.6578C36.6385 65.0939 36.9205 65.189 37.2042 65.2842C38.9699 65.878 40.8484 66.0948 42.5771 65.9485C44.0485 65.8269 45.4001 65.4428 46.4679 64.8102C47.4988 64.2005 48.2724 63.3599 48.6283 62.2991C48.8134 61.744 48.8892 61.1167 48.831 60.4171L48.8204 60.3272C47.7526 60.9457 46.5437 61.388 45.2908 61.6753C43.867 62.0013 42.3867 62.1264 40.9999 62.0841C39.6025 62.04 38.2809 61.825 37.1848 61.4691C35.2764 60.8523 34.0164 59.7862 34.0534 58.41C34.0869 57.1835 35.3539 56.3235 37.1848 55.8724C38.2245 55.6169 39.4598 55.4812 40.7374 55.4777C42.0079 55.4742 43.3383 55.6046 44.5789 55.8795C46.6265 56.3306 48.4239 57.1853 49.3561 58.5034C50.5474 57.5095 51.3861 56.1773 51.6082 54.4468C51.6892 53.8125 51.5254 53.2309 51.1694 52.6988C48.9314 53.8847 46.2759 54.4768 43.6326 54.6424H43.6291C41.7858 54.757 39.9391 54.6636 38.2439 54.4186C36.5451 54.1702 35.0015 53.7684 33.7627 53.2715C31.8543 52.5049 30.626 51.46 30.5538 50.3181C30.4762 49.0652 31.7838 48.2405 33.8349 47.8281C35.4614 47.5021 37.6007 47.407 39.8439 47.5479C42.0766 47.6872 44.4326 48.0625 46.5067 48.6757C48.5226 49.2731 50.2725 50.1031 51.4143 51.1762C53.0109 50.1612 54.299 48.7691 55.0497 46.9171C55.3175 46.147 55.1695 45.4192 54.7025 44.7443C53.4091 45.3769 51.9271 45.8933 50.3341 46.295C47.8689 46.9171 45.1393 47.273 42.466 47.3735C39.7893 47.4739 37.1566 47.3189 34.8834 46.9206C30.811 46.2052 27.8541 44.6633 27.6744 42.3337C27.6726 42.3037 27.7079 42.0958 27.7202 42.0658C28.9696 39.0032 36.0341 38.1485 42.8149 38.9679C44.9401 39.2252 47.0442 39.6428 48.935 40.2032C50.8434 40.7671 52.5351 41.4808 53.8091 42.3249C54.255 42.6192 54.6532 42.9293 54.9933 43.2553C57.0533 42.0817 58.3837 40.5521 58.4507 38.6578C58.1617 36.6313 54.0928 34.7423 47.6239 33.7325C41.7347 32.8144 33.923 32.6946 25.1633 33.9299Z" fill="#034EA2"/>
<path fill-rule="evenodd" clip-rule="evenodd" d="M39.2754 19.1422L42.5406 12.3452L45.0265 19.4709L43.8127 50.2477L46.9718 25.874L49.0408 30.2522L42.3197 70.033L35.0703 30.1497L37.24 25.7202L40.544 50.2901L39.2754 19.1422Z" fill="#034EA2"/>
<path fill-rule="evenodd" clip-rule="evenodd" d="M55.8647 44.1127C55.8312 44.1321 55.7995 44.1514 55.766 44.1708C56.3898 45.1118 56.5713 46.1586 56.1748 47.304L56.1642 47.3322C55.3307 49.4027 53.9263 50.9587 52.1941 52.0953C52.6787 52.8354 52.9025 53.6672 52.7844 54.5958C52.5042 56.7862 51.4134 58.4286 49.8892 59.6092C49.9544 59.8365 50.0002 60.0744 50.0213 60.3194C50.0936 61.174 49.9931 61.9599 49.7517 62.6771C49.2971 64.0287 48.3402 65.086 47.0715 65.8367C45.8379 66.5663 44.3101 67.005 42.6731 67.1425C40.7981 67.2993 38.7575 67.0614 36.8227 66.4112C36.5407 66.3178 36.257 66.2209 36.4456 65.6587C36.6359 65.0931 36.9178 65.1882 37.1998 65.2834C38.9672 65.879 40.8457 66.094 42.5744 65.9495C44.0458 65.8261 45.3974 65.442 46.4653 64.8111C47.4961 64.2014 48.268 63.3591 48.6257 62.2983C48.8107 61.7432 48.8865 61.1176 48.8283 60.418L48.8178 60.3282C47.7499 60.9467 46.541 61.3872 45.2881 61.6745C43.8625 62.0005 42.3841 62.1274 40.9955 62.0833C39.5999 62.0392 38.2782 61.8243 37.1804 61.4701C35.272 60.8533 34.0138 59.7872 34.0508 58.4092C34.0843 57.1845 35.3495 56.3245 37.1804 55.8734C37.6914 55.7483 38.2483 55.6496 38.8351 55.5844V56.7827C38.3487 56.8426 37.887 56.9254 37.4659 57.0294C36.1583 57.3519 35.2614 57.84 35.2438 58.4374C35.2226 59.2145 36.1495 59.8859 37.5452 60.3387C38.5302 60.6559 39.7355 60.8498 41.0272 60.8903C42.3295 60.9308 43.7075 60.8163 45.022 60.515C46.2238 60.2383 47.3798 59.8066 48.379 59.1986C47.7816 58.3404 46.6538 57.7131 45.304 57.2972V56.0584C47.0433 56.543 48.5323 57.3431 49.3535 58.5043C50.5429 57.5105 51.3835 56.1765 51.6055 54.446C51.6866 53.8134 51.5227 53.2302 51.1667 52.6997C48.927 53.8839 46.2732 54.4778 43.6299 54.6434H43.6264C41.7832 54.758 39.9364 54.6646 38.2412 54.4179C36.5425 54.1712 34.9971 53.7694 33.76 53.2724C31.8516 52.5041 30.6234 51.4609 30.5511 50.319C30.4736 49.0661 31.7811 48.2414 33.8323 47.8291C35.4165 47.5119 37.4905 47.4132 39.6721 47.5366H37.5663V48.6802C36.2553 48.6943 35.0517 48.8018 34.0666 48.9992C32.6322 49.2864 31.7106 49.7129 31.7441 50.2486C31.7846 50.8865 32.7256 51.5737 34.2023 52.1676C35.353 52.6293 36.805 53.0046 38.4086 53.239C40.0175 53.4716 41.7797 53.5597 43.5542 53.4504H43.5559C45.926 53.3006 48.3014 52.7931 50.3209 51.7905C49.4874 51.105 48.312 50.5305 46.9516 50.0671V48.8142C48.779 49.3992 50.3544 50.1834 51.4117 51.1772C53.0082 50.1622 54.2946 48.7701 55.047 46.9163C55.3149 46.148 55.1669 45.4202 54.6999 44.7453C53.4047 45.3779 51.9245 45.8942 50.3297 46.296C47.8662 46.9181 45.1366 47.2723 42.4634 47.3745C39.7866 47.4731 37.154 47.3198 34.8808 46.9198C31.9556 46.407 29.6048 45.466 28.4453 44.1127H30.2181C31.3282 44.8387 33.0428 45.3867 35.0852 45.7462C37.272 46.1304 39.8201 46.2784 42.4211 46.1797C45.022 46.0828 47.6653 45.7392 50.0407 45.14C51.172 44.8546 52.2381 44.5127 53.2126 44.1127H55.8647Z" fill="#034EA2"/>
</g>
<defs>
<clipPath id="clip0_855_41626">
<rect width="276.194" height="80.6116" fill="white" transform="translate(0.804688 1.25232)"/>
</clipPath>
</defs>
</svg>
