<svg width="25" height="24" viewBox="0 0 25 24" fill="none" xmlns="http://www.w3.org/2000/svg">
<path d="M12.4688 12.0295L6.45834 5.96245C5.0678 7.3661 4.20244 9.21301 4.00968 11.1885C3.81693 13.164 4.30872 15.1458 5.40126 16.7964C6.4938 18.4469 8.11949 19.6639 10.0013 20.2402C11.8832 20.8164 13.9047 20.7161 15.7216 19.9565C17.5384 19.1968 19.0381 17.8248 19.9651 16.0741C20.8921 14.3235 21.1891 12.3025 20.8054 10.3556C20.4218 8.4087 19.3812 6.65629 17.8611 5.39699C16.341 4.13768 14.4353 3.44939 12.4688 3.44939L12.4688 6.53928" stroke="#034EA2" stroke-width="1.49884" stroke-linecap="round" stroke-linejoin="round"/>
<path d="M12.4662 17.3508H12.4453" stroke="#034EA2" stroke-width="1.49884" stroke-linecap="round" stroke-linejoin="round"/>
<path d="M17.8256 11.9978H17.8047" stroke="#034EA2" stroke-width="1.49884" stroke-linecap="round" stroke-linejoin="round"/>
<path d="M7.10685 11.9978H7.08594" stroke="#034EA2" stroke-width="1.49884" stroke-linecap="round" stroke-linejoin="round"/>
</svg>
