<svg width="25" height="24" viewBox="0 0 25 24" fill="none" xmlns="http://www.w3.org/2000/svg">
<path d="M19.8984 21V5C19.8984 4.46957 19.6877 3.96086 19.3127 3.58579C18.9376 3.21071 18.4289 3 17.8984 3H7.89844C7.368 3 6.8593 3.21071 6.48422 3.58579C6.10915 3.96086 5.89844 4.46957 5.89844 5V21M19.8984 21H21.8984M19.8984 21H14.8984M5.89844 21H3.89844M5.89844 21H10.8984M14.8984 21V16C14.8984 15.7348 14.7931 15.4804 14.6055 15.2929C14.418 15.1054 14.1637 15 13.8984 15H11.8984C11.6332 15 11.3789 15.1054 11.1913 15.2929C11.0038 15.4804 10.8984 15.7348 10.8984 16V21M14.8984 21H10.8984M9.89844 7H10.8984M9.89844 11H10.8984M14.8984 7H15.8984M14.8984 11H15.8984" stroke="#034EA2" stroke-width="1.4" stroke-linecap="round" stroke-linejoin="round"/>
</svg>
