<svg width="26" height="24" viewBox="0 0 26 24" fill="none" xmlns="http://www.w3.org/2000/svg">
<path d="M12.7734 21.25C18.0892 21.25 22.3984 16.9408 22.3984 11.625C22.3984 6.30925 18.0892 2 12.7734 2C7.45769 2 3.14844 6.30925 3.14844 11.625C3.14844 16.9408 7.45769 21.25 12.7734 21.25ZM12.7734 3.375C13.4829 3.375 14.343 4.02675 15.0662 5.59356C15.3227 6.15044 15.5461 6.79187 15.7263 7.5H9.82063C10.0008 6.79187 10.2242 6.14975 10.4806 5.59356C11.2039 4.02675 12.0639 3.375 12.7734 3.375ZM9.23281 5.01744C8.89594 5.74619 8.61681 6.58356 8.40712 7.5H5.62688C6.5787 5.85461 8.0678 4.58692 9.844 3.90987C9.61223 4.26276 9.40768 4.63279 9.23213 5.01675L9.23281 5.01744ZM8.15206 8.875C8.02341 9.78599 7.95954 10.705 7.96094 11.625C7.96094 12.5779 8.02763 13.5019 8.15275 14.375H4.993C4.68124 13.4917 4.52244 12.5617 4.52344 11.625C4.52344 10.6611 4.68844 9.73506 4.993 8.875H8.15206ZM8.40644 15.75C8.61613 16.6664 8.89525 17.5038 9.23144 18.2326C9.41225 18.6244 9.61644 18.9971 9.84331 19.3394C8.0675 18.6624 6.5787 17.395 5.62688 15.75H8.40781H8.40644ZM9.82063 15.75H15.7249C15.5635 16.4043 15.3425 17.0424 15.0649 17.6564C14.3437 19.2233 13.4836 19.875 12.7734 19.875C12.0633 19.875 11.2039 19.2233 10.4806 17.6564C10.203 17.0424 9.98203 16.4043 9.82063 15.75ZM16.0033 14.375H9.54219C9.40307 13.465 9.33411 12.5456 9.33594 11.625C9.33594 10.6577 9.4095 9.733 9.54219 8.875H16.0047C16.1374 9.733 16.2109 10.6577 16.2109 11.625C16.2109 12.5923 16.1374 13.517 16.0047 14.375H16.0033ZM17.1391 15.75H19.9193C18.9673 17.3951 17.4783 18.6625 15.7022 19.3394C15.9291 18.9971 16.1332 18.6244 16.3141 18.2326C16.6502 17.5038 16.9294 16.6664 17.1391 15.75ZM20.5532 14.375H17.3934C17.5186 13.5019 17.5853 12.5779 17.5853 11.625C17.5853 10.6721 17.5186 9.74813 17.3934 8.875H20.5532C20.8652 9.75826 21.0242 10.6883 21.0234 11.625C21.0234 12.5889 20.8577 13.5149 20.5532 14.375ZM15.7029 3.90987C17.4791 4.58692 18.9682 5.85461 19.92 7.5H17.1391C16.9294 6.58356 16.6502 5.74619 16.3141 5.01744C16.1385 4.63347 15.934 4.26345 15.7022 3.91056L15.7029 3.90987Z" fill="#034EA2"/>
</svg>
