<svg width="26" height="25" viewBox="0 0 26 25" fill="none" xmlns="http://www.w3.org/2000/svg">
<path d="M12.4219 21.2681C17.7376 21.2681 22.0469 16.9588 22.0469 11.6431C22.0469 6.32732 17.7376 2.01807 12.4219 2.01807C7.10613 2.01807 2.79688 6.32732 2.79688 11.6431C2.79688 16.9588 7.10613 21.2681 12.4219 21.2681ZM12.4219 3.39307C13.1314 3.39307 13.9914 4.04482 14.7147 5.61163C14.9711 6.1685 15.1946 6.80994 15.3747 7.51807H9.46906C9.64919 6.80994 9.87262 6.16782 10.1291 5.61163C10.8523 4.04482 11.7124 3.39307 12.4219 3.39307ZM8.88125 5.0355C8.54438 5.76425 8.26525 6.60163 8.05556 7.51807H5.27531C6.22714 5.87268 7.71623 4.60498 9.49244 3.92794C9.26066 4.28082 9.05611 4.65085 8.88056 5.03482L8.88125 5.0355ZM7.8005 8.89307C7.67184 9.80406 7.60798 10.723 7.60938 11.6431C7.60938 12.5959 7.67606 13.5199 7.80119 14.3931H4.64144C4.32968 13.5098 4.17088 12.5798 4.17188 11.6431C4.17188 10.6792 4.33687 9.75313 4.64144 8.89307H7.8005ZM8.05488 15.7681C8.26456 16.6845 8.54369 17.5219 8.87987 18.2506C9.06069 18.6425 9.26488 19.0151 9.49175 19.3575C7.71594 18.6805 6.22713 17.413 5.27531 15.7681H8.05625H8.05488ZM9.46906 15.7681H15.3733C15.2119 16.4223 14.991 17.0605 14.7133 17.6745C13.9921 19.2413 13.1321 19.8931 12.4219 19.8931C11.7117 19.8931 10.8523 19.2413 10.1291 17.6745C9.85139 17.0605 9.63047 16.4223 9.46906 15.7681ZM15.6518 14.3931H9.19063C9.0515 13.483 8.98255 12.5637 8.98438 11.6431C8.98438 10.6758 9.05794 9.75107 9.19063 8.89307H15.6531C15.7858 9.75107 15.8594 10.6758 15.8594 11.6431C15.8594 12.6104 15.7858 13.5351 15.6531 14.3931H15.6518ZM16.7875 15.7681H19.5678C18.6158 17.4132 17.1267 18.6806 15.3506 19.3575C15.5775 19.0151 15.7817 18.6425 15.9625 18.2506C16.2987 17.5219 16.5778 16.6845 16.7875 15.7681ZM20.2016 14.3931H17.0419C17.167 13.5199 17.2337 12.5959 17.2337 11.6431C17.2337 10.6902 17.167 9.76619 17.0419 8.89307H20.2016C20.5136 9.77632 20.6726 10.7063 20.6719 11.6431C20.6719 12.6069 20.5062 13.533 20.2016 14.3931ZM15.3513 3.92794C17.1275 4.60498 18.6166 5.87268 19.5684 7.51807H16.7875C16.5778 6.60163 16.2987 5.76425 15.9625 5.0355C15.7869 4.65154 15.5824 4.28151 15.3506 3.92863L15.3513 3.92794Z" fill="#001855"/>
</svg>
