<svg width="257" height="71" viewBox="0 0 257 71" fill="none" xmlns="http://www.w3.org/2000/svg">
<path fill-rule="evenodd" clip-rule="evenodd" d="M233.711 29.8782V36.0529H241.204V55.6816H249.225V36.0529H256.718V29.8782H233.711ZM230.86 49.087C229.647 49.6137 228.17 49.9298 226.27 49.9298C222.365 49.9298 219.199 47.3985 219.199 42.7016C219.146 38.4803 221.891 35.472 226.111 35.472C228.222 35.472 229.647 35.8407 230.597 36.2621L231.863 30.2996C230.174 29.666 227.852 29.2973 225.742 29.2973C216.138 29.2973 210.967 35.472 210.967 43.0162C210.967 51.0915 216.297 56.2098 224.634 56.2098C227.694 56.2098 230.386 55.6816 231.81 54.9953L230.86 49.087ZM190.703 39.8513C190.915 37.7414 192.286 34.6262 195.663 34.6262C199.358 34.6262 200.202 37.8994 200.202 39.8513H190.703ZM207.378 45.3382C207.484 44.7588 207.642 43.5459 207.642 42.1734C207.642 35.788 204.476 29.2973 196.139 29.2973C187.168 29.2973 183.105 36.5269 183.105 43.0703C183.105 51.1442 188.118 56.2098 196.876 56.2098C200.36 56.2098 203.579 55.6816 206.217 54.5739L205.162 49.1397C202.998 49.8771 200.783 50.2458 198.038 50.2458C194.292 50.2458 190.968 48.6641 190.756 45.3382H207.378ZM160.942 39.9567H163.685C167.696 39.9567 170.915 41.3818 170.915 44.9169C170.915 48.6641 167.696 50.0893 164.054 50.0893C162.683 50.0893 161.732 50.0893 160.942 49.9824V39.9567ZM160.942 25.9203C161.574 25.8149 162.576 25.7081 164.371 25.7081C168.012 25.7081 170.071 27.1347 170.071 29.8255C170.071 32.4637 167.854 34.2048 163.58 34.2048H160.942V25.9203ZM152.973 55.5235C154.767 55.7884 157.723 56.0518 161.681 56.0518C168.751 56.0518 173.077 54.89 175.664 52.8327C177.88 51.0389 179.357 48.5061 179.357 45.2344C179.357 40.6956 176.349 37.5819 172.287 36.5269V36.4216C176.298 34.8911 178.144 31.9881 178.144 28.8759C178.144 25.6027 176.402 23.1768 173.922 21.857C171.284 20.3265 168.277 19.8524 163.369 19.8524C159.306 19.8524 155.083 20.2211 152.973 20.5914V55.5235ZM110.494 29.8782V55.6816H120.256C122.05 51.6709 124.004 47.1863 125.638 43.5986C126.694 41.1711 127.328 39.4826 128.33 36.685H128.541C128.276 42.1207 128.065 43.8092 128.065 47.8199V55.6816H135.665V29.8782H125.85L120.837 40.9589C119.781 43.3879 119.094 45.3924 117.882 48.3466L117.671 48.2939C117.882 44.8115 118.092 41.91 118.092 37.7941V29.8782H110.494ZM79.8342 20.1158V35.6812C79.8342 41.0658 79.3059 45.6558 77.1434 47.8725C76.2464 48.8221 74.8213 49.561 73.0801 49.7717L74.0824 56.2625C76.9327 56.2625 79.3601 55.5235 81.154 54.5213C86.5356 51.3549 87.6974 44.2833 87.6974 35.156V26.7119H95.7713V55.6816H103.791V20.1158H79.8342Z" fill="#034EA2"/>
<path d="M77.0135 64.0496V65.0244H75.5835V69.2434H74.3452V65.0244H72.9142V64.0496H77.0135Z" fill="#034EA2"/>
<path d="M78.2137 69.2434V64.0496H80.0113C80.6933 64.0496 81.2157 64.196 81.5777 64.489C81.9455 64.782 82.1287 65.2215 82.1287 65.8075C82.1287 66.1271 82.0677 66.4094 81.9454 66.6544C81.8231 66.8942 81.6586 67.0859 81.4507 67.2297C81.2431 67.3682 81.0189 67.4722 80.7789 67.5416C80.5457 67.6107 80.3004 67.6452 80.0436 67.6452H79.3563V69.2433L78.2137 69.2434ZM79.7958 64.9764H79.3563V66.7503H79.7958C80.5096 66.7503 80.8664 66.452 80.8664 65.8554C80.8664 65.2694 80.5096 64.9764 79.7958 64.9764Z" fill="#034EA2"/>
<path d="M84.4366 64.0496H86.0822L87.9766 69.2434H86.7216L86.3207 68.1806H84.1554L83.7805 69.2434H82.5411L84.4366 64.0496ZM85.2521 64.9205L84.445 67.3656H86.0509L85.2521 64.9205Z" fill="#034EA2"/>
<path d="M89.958 64.0496H93.6334V68.2685H94.3051L94.1853 70.4739H93.2584L93.2116 69.2434H89.8715L89.8163 70.4739H88.9602L88.8415 68.2685H89.3685C89.5704 67.8371 89.7199 67.307 89.8163 66.6784C89.913 66.0498 89.958 65.1735 89.958 64.0496ZM92.4273 65.0244H91.0203C90.9776 66.4733 90.8054 67.5547 90.5016 68.2685H92.4273V65.0244Z" fill="#034EA2"/>
<path d="M100.473 64.0494V69.2433H99.3069V66.3507L99.3496 65.8393L96.9854 69.0994L96.9209 69.2432H95.7867V64.0493H96.9531V66.9898L96.9104 67.4533H96.9531L99.3267 64.1932L99.3902 64.0494L100.473 64.0494Z" fill="#034EA2"/>
<path d="M103.525 64.0496V68.2685H105.571V64.0496H106.802V68.2685H107.473L107.354 70.4739H106.434L106.387 69.2434H102.296V64.0496H103.525Z" fill="#034EA2"/>
<path d="M113.651 64.0494V69.2433H112.484V66.3507L112.527 65.8393L110.162 69.0994L110.098 69.2432H108.963V64.0493H110.129V66.9898L110.087 67.4533H110.129L112.503 64.1932L112.566 64.0494L113.651 64.0494Z" fill="#034EA2"/>
<path d="M119.859 64.6647C120.349 65.1602 120.594 65.8234 120.594 66.6544C120.594 67.4854 120.349 68.1513 119.859 68.652C119.375 69.1474 118.696 69.3952 117.822 69.3952C116.948 69.3952 116.272 69.1474 115.792 68.652C115.313 68.1513 115.073 67.4854 115.073 66.6544C115.073 65.8234 115.313 65.1602 115.792 64.6647C116.272 64.164 116.948 63.9136 117.822 63.9136C118.696 63.9136 119.375 64.164 119.859 64.6647ZM118.941 67.9009C119.208 67.5866 119.342 67.1711 119.342 66.6544C119.342 66.1376 119.208 65.7221 118.941 65.4078C118.673 65.0935 118.3 64.9364 117.822 64.9364C117.348 64.9364 116.98 65.0935 116.719 65.4078C116.457 65.7221 116.326 66.1376 116.326 66.6544C116.326 67.1711 116.455 67.5866 116.711 67.9009C116.967 68.2099 117.336 68.3643 117.821 68.3643C118.306 68.3643 118.68 68.2099 118.941 67.9009Z" fill="#034EA2"/>
<path d="M126.667 64.0496V69.2434H125.436V67.1099H123.247V69.2434H122.017V64.0496H123.247V66.175H125.436V64.0496H126.667Z" fill="#034EA2"/>
<path d="M133.139 64.0496V69.2434H131.909V67.1099H129.719V69.2434H128.489V64.0496H129.719V66.175H131.909V64.0496H133.139Z" fill="#034EA2"/>
<path d="M136.295 64.0496H137.941L139.835 69.2434H138.58L138.179 68.1806H136.013L135.638 69.2434H134.399L136.295 64.0496ZM137.11 64.9205L136.303 67.3656H137.909L137.11 64.9205Z" fill="#034EA2"/>
<path d="M144.91 64.0496V69.2434H143.767V67.3896H142.96L141.913 69.2434H140.707L141.889 67.2697C141.57 67.1579 141.312 66.9795 141.114 66.7343C140.924 66.4892 140.828 66.1829 140.828 65.8154C140.828 65.2827 141.006 64.8566 141.363 64.537C141.726 64.212 142.187 64.0496 142.746 64.0496H144.91ZM141.993 65.7515C141.993 65.9859 142.07 66.1723 142.224 66.3109C142.383 66.4494 142.588 66.5186 142.839 66.5186H143.766V64.9844H142.823C142.585 64.9844 142.384 65.0564 142.224 65.2003C142.07 65.3388 141.993 65.5225 141.993 65.7515Z" fill="#034EA2"/>
<path d="M149.504 69.2433V64.0494H150.734V66.3507L151.19 66.0469L152.853 64.0493H154.226L152.148 66.5184L154.411 69.2432H152.972L151.247 67.1976L150.734 67.4851V69.2431L149.504 69.2433Z" fill="#034EA2"/>
<path d="M160.26 64.0494V69.2433H159.092V66.3507L159.135 65.8393L156.77 69.0994L156.706 69.2432H155.571V64.0493H156.737V66.9898L156.695 67.4533H156.737L159.111 64.1932L159.174 64.0494L160.26 64.0494Z" fill="#034EA2"/>
<path d="M165.556 64.0496V65.0244H164.126V69.2434H162.888V65.0244H161.458V64.0496H165.556Z" fill="#034EA2"/>
<path d="M167.61 64.0496H169.256L171.15 69.2434H169.895L169.494 68.1806H167.329L166.954 69.2434H165.716L167.61 64.0496ZM168.426 64.9205L167.619 67.3656H169.225L168.426 64.9205Z" fill="#034EA2"/>
<path d="M177.118 64.0495V69.2433H175.953V66.3507L175.995 65.8393L173.63 69.0994L173.566 69.2432H172.432V64.0493H173.598V66.9898L173.556 67.4533H173.598L175.972 64.1932L176.035 64.0494L177.118 64.0495ZM174.866 62.9467C175.053 62.9467 175.21 62.9041 175.336 62.8187C175.47 62.7334 175.556 62.6483 175.593 62.5633L175.657 62.4434L175.712 62.4604L176.415 62.6042C176.415 62.6298 176.401 62.6671 176.373 62.716C176.373 62.7586 176.333 62.8385 176.253 62.9557C176.19 63.0729 176.109 63.1767 176.006 63.2671C175.904 63.3524 175.751 63.4323 175.55 63.5068C175.348 63.576 175.114 63.6105 174.847 63.6105C174.585 63.6105 174.354 63.576 174.152 63.5068C173.95 63.4375 173.799 63.3549 173.697 63.259C173.595 63.1578 173.512 63.0592 173.449 62.9634C173.384 62.8621 173.344 62.7769 173.33 62.7078L173.287 62.6042L173.998 62.4604L174.045 62.4434C174.045 62.4604 174.059 62.4791 174.088 62.4993C174.088 62.5192 174.112 62.5591 174.161 62.6191C174.203 62.6777 174.251 62.7283 174.305 62.771C174.359 62.8136 174.433 62.8536 174.527 62.8909C174.624 62.9281 174.73 62.9467 174.847 62.9467H174.866Z" fill="#034EA2"/>
<path d="M183.28 64.7287L182.817 65.5117C182.14 65.1282 181.665 64.9364 181.394 64.9364C180.856 64.9364 180.454 65.0909 180.188 65.3999C179.926 65.7088 179.795 66.1323 179.795 66.6704C179.795 67.1871 179.933 67.5999 180.209 67.9089C180.485 68.2126 180.865 68.3644 181.351 68.3644C181.547 68.3644 181.74 68.3404 181.927 68.2923C182.118 68.2391 182.277 68.1778 182.406 68.1084C182.54 68.0339 182.657 67.9594 182.756 67.8849C182.861 67.8104 182.938 67.7464 182.986 67.6929L183.059 67.6208L183.547 68.2521C183.518 68.2839 183.494 68.3266 183.474 68.3801C183.442 68.4281 183.363 68.5187 183.235 68.6517C183.113 68.7797 182.972 68.8942 182.812 68.9952C182.659 69.0964 182.446 69.187 182.173 69.2669C181.9 69.3523 181.608 69.3949 181.295 69.3949C180.395 69.3949 179.71 69.1499 179.241 68.6598C178.772 68.1697 178.538 67.5065 178.538 66.6701C178.538 65.8391 178.778 65.1732 179.257 64.6725C179.742 64.1664 180.426 63.9133 181.311 63.9133C181.584 63.9133 181.837 63.9427 182.07 64.0013C182.309 64.0545 182.498 64.121 182.637 64.2009C182.78 64.2808 182.902 64.3607 183.004 64.4406C183.106 64.5206 183.175 64.5871 183.212 64.6403L183.28 64.7287Z" fill="#034EA2"/>
<path d="M184.711 69.2433V64.0494H185.941V66.3507L186.397 66.0469L188.059 64.0493H189.433L187.356 66.5184L189.616 69.2432H188.179L186.452 67.1976L185.941 67.4851V69.2431L184.711 69.2433Z" fill="#034EA2"/>
<path d="M192.085 64.0496H193.731L195.625 69.2434H194.37L193.969 68.1806H191.804L191.429 69.2434H190.191L192.085 64.0496ZM192.901 64.9205L192.094 67.3656H193.7L192.901 64.9205Z" fill="#034EA2"/>
<path d="M200.699 64.0496V69.2434H199.557V67.3896H198.75L197.703 69.2434H196.496L197.679 67.2697C197.359 67.1579 197.101 66.9795 196.904 66.7343C196.713 66.4892 196.619 66.1829 196.619 65.8154C196.619 65.2827 196.797 64.8566 197.154 64.537C197.516 64.212 197.977 64.0496 198.536 64.0496H200.699ZM197.783 65.7515C197.783 65.9859 197.86 66.1723 198.013 66.3109C198.172 66.4494 198.378 66.5186 198.629 66.5186H199.556V64.9844H198.612C198.373 64.9844 198.174 65.0564 198.013 65.2003C197.86 65.3388 197.783 65.5225 197.783 65.7515Z" fill="#034EA2"/>
<path d="M211.941 64.0496V69.2434H210.759V65.6876H210.716L209.198 69.2434H208.007L206.489 65.6876H206.446V69.2434H205.264V64.0496H206.862L208.563 68.0848H208.606L210.308 64.0496H211.941Z" fill="#034EA2"/>
<path d="M217.519 68.2685V69.2434H213.763V64.0496H217.383V65.0244H214.994V66.159H217.111V67.0939H214.994V68.2685H217.519Z" fill="#034EA2"/>
<path d="M219.724 64.0496H223.4V68.2685H224.071L223.952 70.4739H223.025L222.978 69.2434H219.638L219.583 70.4739H218.728L218.609 68.2685H219.136C219.338 67.8371 219.488 67.307 219.584 66.6784C219.68 66.0498 219.724 65.1735 219.724 64.0496ZM222.194 65.0244H220.787C220.744 66.4733 220.572 67.5547 220.268 68.2685H222.194V65.0244Z" fill="#034EA2"/>
<path d="M230.241 64.0494V69.2433H229.073V66.3507L229.116 65.8393L226.751 69.0994L226.687 69.2432H225.553V64.0493H226.719V66.9898L226.677 67.4533H226.719L229.092 64.1932L229.156 64.0494L230.241 64.0494Z" fill="#034EA2"/>
<path d="M233.292 64.0496V68.2685H235.338V64.0496H236.568V68.2685H237.24L237.12 70.4739H236.202L236.154 69.2434H232.063V64.0496H233.292Z" fill="#034EA2"/>
<path d="M243.417 64.0494V69.2433H242.249V66.3507L242.292 65.8393L239.927 69.0994L239.863 69.2432H238.728V64.0493H239.894V66.9898L239.852 67.4533H239.894L242.268 64.1932L242.331 64.0494L243.417 64.0494Z" fill="#034EA2"/>
<path d="M249.889 64.0496V69.2434H248.659V67.1099H246.469V69.2434H245.239V64.0496H246.469V66.175H248.659V64.0496H249.889Z" fill="#034EA2"/>
<path d="M253.046 64.0496H254.692L256.586 69.2434H255.331L254.93 68.1806H252.764L252.39 69.2434H251.151L253.046 64.0496ZM253.861 64.9205L253.054 67.3656H254.66L253.861 64.9205Z" fill="#034EA2"/>
<path d="M80.5924 13.1073V1.22363H83.4075V6.48901L84.449 5.79428L88.2525 1.22363H91.3967L86.6434 6.87296L91.8175 13.1073H88.5264L84.5771 8.42695L83.4075 9.08513V13.1073H80.5924Z" fill="#034EA2"/>
<path d="M108.655 2.63142C109.776 3.76493 110.338 5.28236 110.338 7.18374C110.338 9.08514 109.776 10.6087 108.655 11.7544C107.546 12.8879 105.992 13.4547 103.993 13.4547C101.994 13.4547 100.446 12.8879 99.3491 11.7544C98.2522 10.6087 97.7046 9.08514 97.7046 7.18374C97.7046 5.28236 98.2522 3.76493 99.3491 2.63142C100.446 1.48571 101.994 0.912842 103.993 0.912842C105.992 0.912842 107.546 1.48571 108.655 2.63142ZM106.553 10.0358C107.162 9.31672 107.467 8.36602 107.467 7.18374C107.467 6.00148 107.162 5.05082 106.553 4.3317C105.944 3.61258 105.09 3.25302 103.993 3.25302C102.908 3.25302 102.068 3.61258 101.471 4.3317C100.873 5.05082 100.575 6.00148 100.575 7.18374C100.575 8.36602 100.867 9.31672 101.452 10.0358C102.037 10.7428 102.884 11.0962 103.993 11.0962C105.102 11.0962 105.956 10.7428 106.553 10.0358Z" fill="#034EA2"/>
<path d="M118.162 13.1073V1.22363H122.276C123.836 1.22363 125.031 1.55881 125.86 2.22915C126.701 2.89953 127.121 3.90509 127.121 5.24581C127.121 5.9771 126.98 6.62306 126.698 7.18371C126.417 7.7322 126.039 8.17101 125.565 8.50011C125.09 8.81701 124.578 9.05467 124.03 9.21311C123.493 9.37151 122.933 9.45073 122.348 9.45073H120.775V13.1072L118.162 13.1073ZM121.782 3.34442H120.776V7.40311H121.782C123.415 7.40311 124.232 6.72058 124.232 5.35549C124.232 4.01477 123.415 3.34442 121.782 3.34442Z" fill="#034EA2"/>
<path d="M144.964 1.22363V13.1073H142.149V3.45413H137.469V13.1073H134.653V1.22363H144.964Z" fill="#034EA2"/>
<path d="M163.741 2.63142C164.862 3.76493 165.423 5.28236 165.423 7.18374C165.423 9.08514 164.862 10.6087 163.741 11.7544C162.632 12.8879 161.077 13.4547 159.078 13.4547C157.08 13.4547 155.532 12.8879 154.435 11.7544C153.338 10.6087 152.789 9.08514 152.789 7.18374C152.789 5.28236 153.338 3.76493 154.435 2.63142C155.532 1.48571 157.08 0.912842 159.078 0.912842C161.077 0.912842 162.632 1.48571 163.741 2.63142ZM161.638 10.0358C162.248 9.31672 162.553 8.36602 162.553 7.18374C162.553 6.00148 162.248 5.05082 161.638 4.3317C161.029 3.61258 160.175 3.25302 159.078 3.25302C157.994 3.25302 157.153 3.61258 156.556 4.3317C155.959 5.05082 155.66 6.00148 155.66 7.18374C155.66 8.36602 155.952 9.31672 156.537 10.0358C157.122 10.7428 157.969 11.0962 159.078 11.0962C160.187 11.0962 161.041 10.7428 161.638 10.0358Z" fill="#034EA2"/>
<path d="M173.247 13.1073V1.22363H177.361C178.921 1.22363 180.116 1.55881 180.945 2.22915C181.786 2.89953 182.206 3.90509 182.206 5.24581C182.206 5.9771 182.065 6.62306 181.783 7.18371C181.502 7.7322 181.125 8.17101 180.65 8.50011C180.175 8.81701 179.663 9.05467 179.114 9.21311C178.578 9.37151 178.017 9.45073 177.432 9.45073H175.86V13.1072L173.247 13.1073ZM176.868 3.34442H175.863V7.40311H176.868C178.501 7.40311 179.317 6.72058 179.317 5.35549C179.317 4.01477 178.501 3.34442 176.868 3.34442Z" fill="#034EA2"/>
<path d="M192.06 1.22363H195.826L200.16 13.1073H197.288L196.375 10.6757H191.421L190.56 13.1073H187.727L192.06 1.22363ZM193.924 3.21641L192.06 8.81087H195.734L193.924 3.21641Z" fill="#034EA2"/>
<path d="M210.416 1.22363V10.8768H215.095V1.22363H217.911V10.8768H219.448L219.175 15.9228H217.072L216.961 13.1073H207.6V1.22363H210.416Z" fill="#034EA2"/>
<path d="M238.15 1.22363V13.1073H235.482V6.48901L235.554 5.31894H235.511L230.1 12.7782L229.955 13.1075H227.358V1.22386H230.028V7.95181L229.938 9.01223H229.993L235.424 1.55294L235.568 1.22402L238.15 1.22363Z" fill="#034EA2"/>
<path d="M255.629 1.22363V13.1073H253.015V8.86574H251.168L248.773 13.1073H246.013L248.718 8.5915C247.987 8.33555 247.396 7.92724 246.945 7.36656C246.506 6.8059 246.287 6.10508 246.287 5.26406C246.287 4.04524 246.695 3.07019 247.511 2.3389C248.34 1.59541 249.395 1.22363 250.674 1.22363H255.629ZM248.956 5.11783C248.956 5.65412 249.133 6.08069 249.486 6.39759C249.852 6.71449 250.321 6.87296 250.894 6.87296H253.015V3.36271H250.858C250.309 3.36271 249.852 3.52723 249.486 3.85631C249.133 4.17321 248.956 4.59372 248.956 5.11783Z" fill="#034EA2"/>
<path fill-rule="evenodd" clip-rule="evenodd" d="M35.1935 0.00145721C54.5775 0.00145721 70.3868 15.9215 70.3868 35.4415C70.3868 54.9601 54.5775 70.8801 35.1935 70.8801C15.8095 70.8801 0.00012207 54.9601 0.00012207 35.4415C0.00012207 15.9215 15.8095 0.00145721 35.1935 0.00145721Z" fill="#D1D3D4"/>
<path fill-rule="evenodd" clip-rule="evenodd" d="M35.279 1.9101C53.747 1.9101 68.8096 16.9728 68.8096 35.4408C68.8096 53.9088 53.747 68.9714 35.279 68.9714C16.811 68.9714 1.74963 53.9088 1.74963 35.4408C1.74963 16.9728 16.811 1.9101 35.279 1.9101Z" fill="#034EA2"/>
<path fill-rule="evenodd" clip-rule="evenodd" d="M35.2791 7.29706C50.6991 7.29706 63.2751 19.8744 63.2751 35.2931C63.2751 50.7131 50.6991 63.2891 35.2791 63.2891C19.8604 63.2891 7.28308 50.7131 7.28308 35.2931C7.28308 19.8744 19.8604 7.29706 35.2791 7.29706Z" fill="#9DDCF9"/>
<path fill-rule="evenodd" clip-rule="evenodd" d="M33.7896 3.0079C35.4309 3.49857 36.8576 3.63457 38.5189 3.18924C38.6442 3.31324 38.6256 3.38124 38.5029 3.41724C37.0469 3.8519 35.6909 3.97457 33.6709 3.51724C33.3962 3.45457 33.6042 2.9519 33.7896 3.0079Z" fill="white"/>
<path d="M33.7896 3.0079C35.4309 3.49857 36.8576 3.63457 38.5189 3.18924C38.6442 3.31324 38.6256 3.38124 38.5029 3.41724C37.0469 3.8519 35.6909 3.97457 33.6709 3.51724C33.3962 3.45457 33.6042 2.9519 33.7896 3.0079Z" stroke="white" stroke-width="0.288" stroke-miterlimit="22.926"/>
<path fill-rule="evenodd" clip-rule="evenodd" d="M38.5051 6.80737C37.0784 6.12871 35.4478 6.28604 33.6304 6.58871C33.4571 6.61804 33.4838 6.31537 33.6104 6.28737C35.3238 5.90604 37.0358 5.78604 38.6238 6.29937C38.8931 6.38604 38.5571 6.62071 38.5051 6.80737Z" fill="white"/>
<path d="M38.5051 6.80737C37.0784 6.12871 35.4478 6.28604 33.6304 6.58871C33.4571 6.61804 33.4838 6.31537 33.6104 6.28737C35.3238 5.90604 37.0358 5.78604 38.6238 6.29937C38.8931 6.38604 38.5571 6.62071 38.5051 6.80737Z" stroke="white" stroke-width="0.288" stroke-miterlimit="22.926"/>
<path fill-rule="evenodd" clip-rule="evenodd" d="M35.1961 4.685C35.4028 4.65166 35.6095 4.61566 35.8148 4.58233L36.0041 4.22233L36.3148 4.24233L36.3108 4.697L37.2775 4.561C37.1801 4.705 37.1575 4.96366 36.9868 4.99033L36.1961 5.12366L36.0481 5.521C35.9388 5.493 35.7348 5.549 35.7201 5.437L35.6628 4.997L35.1388 4.95833L35.1961 4.685Z" fill="white"/>
<path fill-rule="evenodd" clip-rule="evenodd" d="M9.17542 27.3543L14.4767 27.7076L16.7581 24.7356L16.7914 27.7423L20.1074 27.8743L16.7487 29.5223L16.7994 33.7036L14.9701 30.4983L11.4061 32.1676L13.3967 29.3263L9.17542 27.3543Z" fill="white"/>
<path fill-rule="evenodd" clip-rule="evenodd" d="M38.8945 52.1002C39.9518 51.8575 40.9678 51.4788 41.8465 50.9442C41.1998 50.0135 39.8398 49.3908 38.2771 49.0455C37.2745 48.8242 36.1811 48.7188 35.1251 48.7215C34.0785 48.7242 33.0785 48.8322 32.2505 49.0362C31.1025 49.3188 30.3118 49.7495 30.2971 50.2748C30.2785 50.9588 31.0918 51.5482 32.3211 51.9455C33.1865 52.2255 34.2465 52.3962 35.3825 52.4308C36.5278 52.4668 37.7385 52.3655 38.8945 52.1002ZM37.6038 45.8895H37.6051C39.6905 45.7588 41.7785 45.3108 43.5531 44.4308C42.6838 43.7148 41.3878 43.1348 39.9025 42.6962C38.1678 42.1828 36.1771 41.8682 34.2771 41.7482C32.3851 41.6295 30.5985 41.7068 29.2611 41.9748C28.0011 42.2295 27.1905 42.6028 27.2198 43.0735C27.2558 43.6348 28.0838 44.2388 29.3811 44.7615C30.3931 45.1682 31.6691 45.4988 33.0798 45.7028C34.4931 45.9082 36.0438 45.9868 37.6038 45.8895ZM43.3091 38.5815C44.5238 38.2748 45.6585 37.8935 46.6571 37.4362C46.4705 37.2802 46.2651 37.1282 46.0411 36.9802C45.0078 36.2962 43.6171 35.7135 42.0358 35.2442C40.4371 34.7722 38.6451 34.4162 36.8278 34.1975C31.3731 33.5375 25.7558 34.0468 24.7025 36.1562C24.9238 37.5775 27.1331 38.5842 30.1585 39.1148C32.0811 39.4535 34.3211 39.5828 36.6078 39.4975C38.8945 39.4108 41.2185 39.1095 43.3091 38.5815ZM21.4291 28.7268C21.1705 28.7628 20.9105 28.7988 20.8385 28.2815C20.7665 27.7628 21.0265 27.7255 21.2851 27.6882C29.0905 26.5882 36.0678 26.6975 41.3385 27.5188C47.5625 28.4895 51.4838 30.5215 51.7465 32.8028C51.7465 32.8055 51.7505 32.8722 51.7505 32.8748C51.6971 34.9108 50.3798 36.5215 48.3425 37.7308C48.8905 38.5575 49.0505 39.4775 48.7011 40.4842L48.6918 40.5095C47.9585 42.3308 46.7251 43.6988 45.2011 44.6975C45.6278 45.3495 45.8251 46.0802 45.7211 46.8962C45.4745 48.8228 44.5145 50.2668 43.1745 51.3055C43.2318 51.5055 43.2718 51.7135 43.2905 51.9295C43.3531 52.6815 43.2665 53.3722 43.0545 54.0028C42.6545 55.1908 41.8131 56.1215 40.6971 56.7815C39.6118 57.4215 38.2705 57.8082 36.8291 57.9295C35.1811 58.0682 33.3865 57.8575 31.6851 57.2868C31.4371 57.2028 31.1878 57.1202 31.3545 56.6242C31.5198 56.1282 31.7691 56.2108 32.0171 56.2948C33.5718 56.8175 35.2211 57.0082 36.7425 56.8802C38.0358 56.7722 39.2238 56.4348 40.1638 55.8788C41.0705 55.3428 41.7491 54.6028 42.0625 53.6708C42.2265 53.1828 42.2918 52.6308 42.2411 52.0162C42.2385 51.9895 42.2358 51.9628 42.2318 51.9375C41.2918 52.4802 40.2291 52.8682 39.1278 53.1215C37.8758 53.4082 36.5745 53.5175 35.3545 53.4802C34.1251 53.4428 32.9651 53.2522 32.0011 52.9415C30.3225 52.3988 29.2158 51.4615 29.2478 50.2508C29.2771 49.1735 30.3905 48.4162 32.0011 48.0188C32.9158 47.7948 34.0011 47.6748 35.1251 47.6722C36.2411 47.6695 37.4118 47.7842 38.5038 48.0242C40.3038 48.4228 41.8825 49.1748 42.7025 50.3335C43.7505 49.4602 44.4891 48.2882 44.6838 46.7655C44.7558 46.2095 44.6105 45.6962 44.2985 45.2308C42.3291 46.2722 39.9945 46.7935 37.6705 46.9388H37.6678C36.0465 47.0402 34.4225 46.9575 32.9318 46.7402C31.4398 46.5228 30.0811 46.1708 28.9918 45.7335C27.3131 45.0588 26.2331 44.1402 26.1705 43.1362C26.1025 42.0335 27.2518 41.3095 29.0571 40.9468C30.4851 40.6602 32.3665 40.5762 34.3385 40.6988C36.3025 40.8228 38.3731 41.1522 40.1985 41.6922C41.9705 42.2175 43.5078 42.9468 44.5118 43.8908C45.9158 42.9975 47.0478 41.7735 47.7091 40.1442C47.9451 39.4682 47.8131 38.8282 47.4051 38.2362C46.2665 38.7922 44.9625 39.2442 43.5625 39.5988C41.3945 40.1455 38.9958 40.4588 36.6451 40.5468C34.2918 40.6348 31.9758 40.4988 29.9785 40.1482C26.3958 39.5188 23.7958 38.1642 23.6398 36.1162C23.6371 36.0882 23.6678 35.9055 23.6771 35.8802C24.7771 33.1868 30.9905 32.4348 36.9505 33.1562C38.8198 33.3828 40.6705 33.7482 42.3318 34.2402C44.0091 34.7388 45.4971 35.3655 46.6185 36.1068C47.0105 36.3655 47.3598 36.6388 47.6598 36.9255C49.4705 35.8935 50.6411 34.5495 50.6998 32.8828C50.4465 31.1015 46.8691 29.4402 41.1785 28.5522C36.0011 27.7455 29.1331 27.6388 21.4291 28.7268Z" fill="white"/>
<path fill-rule="evenodd" clip-rule="evenodd" d="M33.8267 15.6954L36.6893 9.73404L38.8707 15.982L37.808 42.9727L40.5773 21.598L42.3907 25.438L36.496 60.3247L30.14 25.3474L32.0427 21.462L34.9387 43.01L33.8267 15.6954Z" fill="#2A8146"/>
<path fill-rule="evenodd" clip-rule="evenodd" d="M48.4275 37.6798C48.3995 37.6972 48.3715 37.7132 48.3435 37.7305C48.8901 38.5572 49.0501 39.4785 48.7021 40.4852L48.6915 40.5092C47.9581 42.3305 46.7248 43.6998 45.2008 44.6985C45.6275 45.3492 45.8248 46.0812 45.7208 46.8958C45.4741 48.8225 44.5141 50.2665 43.1755 51.3065C43.2328 51.5052 43.2715 51.7132 43.2901 51.9305C43.3528 52.6812 43.2661 53.3732 43.0541 54.0025C42.6541 55.1918 41.8128 56.1212 40.6968 56.7812C39.6115 57.4225 38.2701 57.8092 36.8288 57.9305C35.1808 58.0678 33.3861 57.8585 31.6848 57.2865C31.4368 57.2038 31.1875 57.1198 31.3541 56.6238C31.5195 56.1278 31.7688 56.2105 32.0168 56.2945C33.5715 56.8185 35.2208 57.0078 36.7421 56.8798C38.0368 56.7718 39.2235 56.4345 40.1635 55.8785C41.0701 55.3425 41.7488 54.6025 42.0621 53.6705C42.2261 53.1825 42.2915 52.6318 42.2408 52.0158C42.2381 51.9892 42.2355 51.9638 42.2328 51.9372C41.2915 52.4812 40.2301 52.8692 39.1275 53.1212C37.8755 53.4092 36.5741 53.5185 35.3541 53.4812C34.1248 53.4425 32.9648 53.2532 32.0008 52.9412C30.3221 52.3985 29.2155 51.4625 29.2475 50.2518C29.2768 49.1732 30.3901 48.4172 32.0008 48.0198C32.4488 47.9092 32.9381 47.8238 33.4541 47.7652V48.8198C33.0261 48.8732 32.6208 48.9452 32.2501 49.0372C31.1021 49.3185 30.3115 49.7505 30.2968 50.2745C30.2781 50.9585 31.0915 51.5478 32.3208 51.9452C33.1861 52.2252 34.2461 52.3958 35.3821 52.4305C36.5275 52.4678 37.7381 52.3665 38.8941 52.0998C39.9515 51.8585 40.9675 51.4798 41.8461 50.9438C41.3221 50.1892 40.3301 49.6385 39.1421 49.2718V48.1838C40.6715 48.6092 41.9808 49.3145 42.7035 50.3332C43.7501 49.4598 44.4888 48.2878 44.6835 46.7652C44.7555 46.2092 44.6101 45.6972 44.2981 45.2305C42.3288 46.2718 39.9941 46.7932 37.6701 46.9385H37.6675C36.0461 47.0412 34.4221 46.9572 32.9315 46.7412C31.4395 46.5238 30.0808 46.1705 28.9915 45.7332C27.3141 45.0585 26.2328 44.1412 26.1701 43.1372C26.1021 42.0345 27.2515 41.3105 29.0568 40.9465C30.4488 40.6678 32.2715 40.5812 34.1901 40.6905H32.3395V41.6972C31.1861 41.7078 30.1288 41.8025 29.2608 41.9758C28.0008 42.2292 27.1901 42.6025 27.2195 43.0745C27.2555 43.6358 28.0835 44.2398 29.3808 44.7625C30.3928 45.1678 31.6688 45.4985 33.0795 45.7038C34.4928 45.9092 36.0435 45.9865 37.6035 45.8892H37.6048C39.6901 45.7598 41.7781 45.3118 43.5528 44.4305C42.8208 43.8278 41.7875 43.3212 40.5915 42.9145V41.8145C42.1968 42.3265 43.5835 43.0172 44.5115 43.8905C45.9155 42.9972 47.0475 41.7732 47.7088 40.1452C47.9448 39.4692 47.8141 38.8278 47.4048 38.2358C46.2661 38.7918 44.9621 39.2452 43.5635 39.5985C41.3955 40.1465 38.9955 40.4585 36.6448 40.5465C34.2915 40.6358 31.9755 40.4985 29.9781 40.1492C27.4035 39.6972 25.3381 38.8692 24.3195 37.6798H25.8781C26.8528 38.3185 28.3621 38.7998 30.1581 39.1145C32.0808 39.4532 34.3208 39.5838 36.6075 39.4972C38.8941 39.4118 41.2181 39.1092 43.3088 38.5825C44.3021 38.3318 45.2408 38.0305 46.0955 37.6798H48.4275Z" fill="white"/>
</svg>
