<svg width="173" height="41" viewBox="0 0 173 41" fill="none" xmlns="http://www.w3.org/2000/svg">
<path fill-rule="evenodd" clip-rule="evenodd" d="M19.9922 0.000427246C31.0079 0.000427246 39.9922 9.0476 39.9922 20.1406C39.9922 31.2329 31.0079 40.28 19.9922 40.28C8.97647 40.28 -0.0078125 31.2329 -0.0078125 20.1406C-0.0078125 9.0476 8.97647 0.000427246 19.9922 0.000427246Z" fill="#D1D3D4"/>
<path fill-rule="evenodd" clip-rule="evenodd" d="M20.0407 1.08433C30.5359 1.08433 39.0958 9.64429 39.0958 20.1395C39.0958 30.6346 30.5359 39.1946 20.0407 39.1946C9.54552 39.1946 0.986328 30.6346 0.986328 20.1395C0.986328 9.64429 9.54552 1.08433 20.0407 1.08433Z" fill="#034EA2"/>
<path fill-rule="evenodd" clip-rule="evenodd" d="M20.0426 4.14543C28.8057 4.14543 35.9525 11.293 35.9525 20.0553C35.9525 28.8183 28.8057 35.9651 20.0426 35.9651C11.2804 35.9651 4.13281 28.8183 4.13281 20.0553C4.13281 11.293 11.2804 4.14543 20.0426 4.14543Z" fill="#9DDCF9"/>
<path fill-rule="evenodd" clip-rule="evenodd" d="M19.1975 1.7083C20.1303 1.98714 20.941 2.06443 21.8852 1.81135C21.9564 1.88182 21.9458 1.92046 21.8761 1.94092C21.0486 2.18794 20.278 2.25765 19.1301 1.99775C18.974 1.96214 19.0922 1.67648 19.1975 1.7083Z" fill="white"/>
<path d="M19.1975 1.7083C20.1303 1.98714 20.941 2.06443 21.8852 1.81135C21.9564 1.88182 21.9458 1.92046 21.8761 1.94092C21.0486 2.18794 20.278 2.25765 19.1301 1.99775C18.974 1.96214 19.0922 1.67648 19.1975 1.7083Z" stroke="white" stroke-width="0.163667" stroke-miterlimit="22.926"/>
<path fill-rule="evenodd" clip-rule="evenodd" d="M21.8791 3.86743C21.0683 3.48175 20.1416 3.57116 19.1088 3.74317C19.0103 3.75984 19.0255 3.58783 19.0975 3.57192C20.0711 3.35521 21.044 3.28702 21.9465 3.57874C22.0996 3.62799 21.9086 3.76135 21.8791 3.86743Z" fill="white"/>
<path d="M21.8791 3.86743C21.0683 3.48175 20.1416 3.57116 19.1088 3.74317C19.0103 3.75984 19.0255 3.58783 19.0975 3.57192C20.0711 3.35521 21.044 3.28702 21.9465 3.57874C22.0996 3.62799 21.9086 3.76135 21.8791 3.86743Z" stroke="white" stroke-width="0.163667" stroke-miterlimit="22.926"/>
<path fill-rule="evenodd" clip-rule="evenodd" d="M19.9974 2.66138C20.1149 2.64244 20.2323 2.62198 20.349 2.60304L20.4566 2.39846L20.6332 2.40982L20.6309 2.6682L21.1802 2.59092C21.1249 2.67275 21.112 2.81975 21.015 2.8349L20.5657 2.91067L20.4816 3.13647C20.4195 3.12056 20.3035 3.15239 20.2952 3.08874L20.2626 2.83869L19.9648 2.81672L19.9974 2.66138Z" fill="white"/>
<path fill-rule="evenodd" clip-rule="evenodd" d="M5.20508 15.5448L8.21777 15.7456L9.51423 14.0567L9.53317 15.7653L11.4176 15.8403L9.50892 16.7769L9.53772 19.1531L8.49813 17.3315L6.47274 18.2802L7.60402 16.6655L5.20508 15.5448Z" fill="white"/>
<path fill-rule="evenodd" clip-rule="evenodd" d="M22.1039 29.6074C22.7048 29.4695 23.2821 29.2543 23.7815 28.9505C23.414 28.4216 22.6411 28.0678 21.7531 27.8715C21.1833 27.7457 20.5619 27.6859 19.9618 27.6874C19.367 27.6889 18.7987 27.7503 18.3282 27.8662C17.6758 28.0268 17.2265 28.2716 17.2181 28.5701C17.2075 28.9588 17.6697 29.2937 18.3683 29.5195C18.8601 29.6787 19.4625 29.7757 20.1081 29.7954C20.7589 29.8158 21.4469 29.7582 22.1039 29.6074ZM21.3704 26.078H21.3712C22.5562 26.0037 23.7428 25.7491 24.7514 25.249C24.2573 24.8421 23.5208 24.5125 22.6767 24.2632C21.6909 23.9715 20.5597 23.7927 19.4799 23.7245C18.4047 23.6571 17.3894 23.701 16.6294 23.8533C15.9133 23.998 15.4526 24.2102 15.4693 24.4777C15.4898 24.7967 15.9603 25.1399 16.6976 25.437C17.2727 25.6681 17.9978 25.856 18.7995 25.9719C19.6027 26.0886 20.4839 26.1333 21.3704 26.078ZM24.6127 21.9249C25.303 21.7507 25.9478 21.5339 26.5153 21.274C26.4092 21.1854 26.2926 21.099 26.1653 21.0149C25.578 20.6262 24.7877 20.2951 23.8891 20.0284C22.9806 19.7601 21.9622 19.5578 20.9294 19.4335C17.8296 19.0585 14.6373 19.3479 14.0387 20.5466C14.1645 21.3544 15.42 21.9264 17.1393 22.228C18.2319 22.4205 19.5049 22.494 20.8044 22.4455C22.1039 22.3962 23.4246 22.225 24.6127 21.9249ZM12.1785 16.3246C12.0315 16.3451 11.8838 16.3655 11.8429 16.0715C11.8019 15.7768 11.9497 15.7556 12.0967 15.7344C16.5324 15.1092 20.4975 15.1714 23.4928 15.6381C27.0298 16.1897 29.2583 17.3445 29.4075 18.641C29.4075 18.6425 29.4098 18.6804 29.4098 18.6819C29.3795 19.8389 28.6309 20.7542 27.4731 21.4415C27.7845 21.9113 27.8754 22.4341 27.6769 23.0062L27.6716 23.0206C27.2549 24.0556 26.554 24.8331 25.6879 25.4006C25.9304 25.7711 26.0425 26.1863 25.9834 26.6501C25.8432 27.745 25.2977 28.5656 24.5362 29.1558C24.5687 29.2695 24.5915 29.3877 24.6021 29.5105C24.6377 29.9378 24.5885 30.3303 24.468 30.6887C24.2407 31.3638 23.7625 31.8927 23.1283 32.2678C22.5115 32.6315 21.7493 32.8512 20.9302 32.9202C19.9936 32.999 18.9738 32.8793 18.0069 32.555C17.866 32.5072 17.7243 32.4603 17.819 32.1784C17.9129 31.8965 18.0546 31.9435 18.1956 31.9912C19.0791 32.2883 20.0164 32.3966 20.8809 32.3239C21.6159 32.2625 22.291 32.0708 22.8252 31.7548C23.3405 31.4502 23.7262 31.0297 23.9042 30.5C23.9974 30.2227 24.0346 29.909 24.0058 29.5597C24.0042 29.5446 24.0027 29.5294 24.0005 29.515C23.4663 29.8234 22.8624 30.0439 22.2365 30.1879C21.525 30.3508 20.7855 30.4129 20.0921 30.3917C19.3935 30.3705 18.7343 30.2621 18.1865 30.0856C17.2325 29.7772 16.6036 29.2445 16.6218 28.5565C16.6385 27.9442 17.2712 27.5139 18.1865 27.2881C18.7063 27.1608 19.3231 27.0926 19.9618 27.0911C20.596 27.0895 21.2613 27.1547 21.8819 27.2911C22.9048 27.5177 23.8019 27.945 24.2679 28.6035C24.8635 28.1072 25.2833 27.4411 25.3939 26.5758C25.4348 26.2598 25.3522 25.9681 25.1749 25.7037C24.0558 26.2955 22.729 26.5917 21.4083 26.6743H21.4068C20.4854 26.7319 19.5625 26.6849 18.7154 26.5614C17.8675 26.4379 17.0954 26.2379 16.4763 25.9893C15.5223 25.6059 14.9086 25.0839 14.873 24.5133C14.8343 23.8867 15.4875 23.4752 16.5134 23.2691C17.325 23.1062 18.3941 23.0585 19.5148 23.1282C20.6309 23.1987 21.8076 23.3858 22.8449 23.6927C23.8519 23.9912 24.7256 24.4057 25.2962 24.9422C26.094 24.4345 26.7373 23.7389 27.1132 22.813C27.2473 22.4288 27.1723 22.0651 26.9404 21.7287C26.2933 22.0446 25.5523 22.3015 24.7567 22.5031C23.5246 22.8137 22.1615 22.9918 20.8256 23.0418C19.4882 23.0918 18.1721 23.0145 17.037 22.8152C15.001 22.4576 13.5235 21.6878 13.4348 20.5239C13.4333 20.508 13.4507 20.4042 13.456 20.3898C14.0812 18.8592 17.6121 18.4318 20.9991 18.8418C22.0615 18.9706 23.1132 19.1782 24.0573 19.4578C25.0105 19.7412 25.8561 20.0973 26.4934 20.5186C26.7161 20.6656 26.9146 20.8209 27.0851 20.9838C28.1141 20.3974 28.7794 19.6336 28.8127 18.6864C28.6688 17.6741 26.6358 16.73 23.4019 16.2254C20.4596 15.7669 16.5566 15.7063 12.1785 16.3246Z" fill="white"/>
<path fill-rule="evenodd" clip-rule="evenodd" d="M19.2242 8.91887L20.851 5.53111L22.0906 9.08178L21.4867 24.4203L23.0605 12.2733L24.091 14.4555L20.7411 34.2812L17.1291 14.404L18.2103 12.196L19.8561 24.4415L19.2242 8.91887Z" fill="#228C4C"/>
<path fill-rule="evenodd" clip-rule="evenodd" d="M27.5187 21.412C27.5028 21.4219 27.4869 21.4309 27.4709 21.4408C27.7816 21.9106 27.8725 22.4342 27.6748 23.0062L27.6687 23.0199C27.252 24.0549 26.5511 24.8331 25.685 25.4006C25.9275 25.7704 26.0396 26.1864 25.9805 26.6494C25.8403 27.7443 25.2948 28.5649 24.534 29.1559C24.5666 29.2688 24.5886 29.387 24.5992 29.5105C24.6348 29.9371 24.5856 30.3304 24.4651 30.688C24.2378 31.3639 23.7596 31.892 23.1254 32.2671C22.5086 32.6316 21.7464 32.8513 20.9273 32.9202C19.9907 32.9983 18.9709 32.8793 18.004 32.5543C17.8631 32.5073 17.7214 32.4595 17.8161 32.1777C17.91 31.8958 18.0517 31.9428 18.1927 31.9905C19.0762 32.2883 20.0135 32.3959 20.878 32.3232C21.6138 32.2618 22.2881 32.0701 22.8223 31.7541C23.3376 31.4495 23.7233 31.029 23.9013 30.4993C23.9945 30.222 24.0317 29.9091 24.0029 29.559C24.0014 29.5438 23.9998 29.5294 23.9983 29.5143C23.4634 29.8234 22.8602 30.0439 22.2336 30.1871C21.5221 30.3508 20.7826 30.4129 20.0892 30.3917C19.3906 30.3698 18.7314 30.2622 18.1836 30.0849C17.2296 29.7765 16.6007 29.2445 16.6189 28.5565C16.6356 27.9435 17.2683 27.5139 18.1836 27.2881C18.4382 27.2252 18.7163 27.1767 19.0095 27.1434V27.7427C18.7663 27.7731 18.5359 27.814 18.3253 27.8663C17.6729 28.0261 17.2236 28.2716 17.2152 28.5694C17.2046 28.9581 17.6668 29.293 18.3654 29.5188C18.8572 29.678 19.4596 29.7749 20.1052 29.7946C20.756 29.8159 21.444 29.7583 22.101 29.6067C22.7019 29.4696 23.2792 29.2544 23.7786 28.9498C23.4808 28.5209 22.9171 28.208 22.2419 27.9996V27.3813C23.111 27.623 23.8551 28.0239 24.2658 28.6028C24.8606 28.1065 25.2804 27.4404 25.391 26.5751C25.4319 26.2591 25.3493 25.9682 25.172 25.703C24.0529 26.2947 22.7261 26.591 21.4054 26.6736H21.4039C20.4825 26.7319 19.5596 26.6842 18.7125 26.5615C17.8646 26.438 17.0925 26.2372 16.4734 25.9886C15.5202 25.6052 14.9057 25.0839 14.8701 24.5133C14.8314 23.8867 15.4846 23.4753 16.5105 23.2684C17.3016 23.11 18.3374 23.0608 19.4278 23.1229H18.376V23.695C17.7206 23.7011 17.1197 23.7549 16.6265 23.8534C15.9104 23.9973 15.4497 24.2095 15.4664 24.4777C15.4869 24.7967 15.9574 25.14 16.6947 25.437C17.2698 25.6674 17.9949 25.8553 18.7966 25.972C19.5998 26.0886 20.481 26.1326 21.3675 26.0773H21.3683C22.5533 26.0038 23.7399 25.7492 24.7485 25.2483C24.3325 24.9058 23.7452 24.6179 23.0656 24.3868V23.7617C23.9779 24.0527 24.7659 24.4452 25.2933 24.9415C26.0911 24.4338 26.7344 23.7382 27.1103 22.813C27.2444 22.4289 27.1701 22.0644 26.9375 21.728C26.2904 22.0439 25.5494 22.3016 24.7545 22.5024C23.5225 22.8138 22.1586 22.9911 20.8227 23.0411C19.4853 23.0919 18.1692 23.0138 17.0341 22.8153C15.571 22.5584 14.3973 22.0879 13.8184 21.412H14.7041C15.258 21.7749 16.1158 22.0485 17.1364 22.2273C18.229 22.4198 19.502 22.494 20.8015 22.4448C22.101 22.3963 23.4217 22.2243 24.6098 21.925C25.1743 21.7825 25.7077 21.6113 26.1934 21.412H27.5187Z" fill="white"/>
<path fill-rule="evenodd" clip-rule="evenodd" d="M157.59 14.6612V18.797H162.609V31.9442H167.981V18.797H173V14.6612H157.59ZM155.681 27.5272C154.868 27.88 153.878 28.0916 152.606 28.0916C149.991 28.0916 147.87 26.3962 147.87 23.2503C147.835 20.4228 149.673 18.4079 152.499 18.4079C153.914 18.4079 154.868 18.6548 155.504 18.9371L156.352 14.9434C155.221 14.519 153.666 14.2721 152.253 14.2721C145.82 14.2721 142.356 18.4079 142.356 23.4609C142.356 28.8698 145.926 32.298 151.511 32.298C153.56 32.298 155.363 31.9442 156.317 31.4845L155.681 27.5272ZM128.783 21.3411C128.926 19.9279 129.844 17.8414 132.106 17.8414C134.58 17.8414 135.146 20.0338 135.146 21.3411H128.783ZM139.952 25.0163C140.024 24.6282 140.129 23.8157 140.129 22.8964C140.129 18.6195 138.009 14.2721 132.424 14.2721C126.416 14.2721 123.694 19.1145 123.694 23.4972C123.694 28.9051 127.052 32.298 132.918 32.298C135.252 32.298 137.408 31.9442 139.175 31.2023L138.468 27.5624C137.019 28.0563 135.535 28.3033 133.696 28.3033C131.188 28.3033 128.961 27.2439 128.819 25.0163H139.952ZM108.849 21.4117H110.687C113.373 21.4117 115.529 22.3662 115.529 24.734C115.529 27.2439 113.373 28.1985 110.934 28.1985C110.016 28.1985 109.379 28.1985 108.849 28.1269V21.4117ZM108.849 12.0102C109.273 11.9396 109.944 11.868 111.147 11.868C113.585 11.868 114.964 12.8236 114.964 14.6259C114.964 16.3929 113.479 17.5591 110.616 17.5591H108.849V12.0102ZM103.512 31.8383C104.714 32.0157 106.693 32.1921 109.344 32.1921C114.08 32.1921 116.978 31.414 118.711 30.036C120.194 28.8345 121.184 27.1381 121.184 24.9467C121.184 21.9066 119.169 19.8211 116.449 19.1145V19.0439C119.135 18.0188 120.372 16.0744 120.372 13.9898C120.372 11.7975 119.205 10.1726 117.543 9.28858C115.776 8.26345 113.762 7.94594 110.475 7.94594C107.754 7.94594 104.925 8.19289 103.512 8.44086V31.8383ZM75.0596 14.6612V31.9442H81.5985C82.8 29.2579 84.1084 26.2541 85.203 23.851C85.9107 22.2251 86.335 21.0942 87.0063 19.2203H87.1475C86.9701 22.8612 86.8289 23.9921 86.8289 26.6784V31.9442H91.9193V14.6612H85.3452L81.9876 22.083C81.28 23.7099 80.8203 25.0525 80.0079 27.0312L79.8667 26.9959C80.0079 24.6635 80.149 22.72 80.149 19.9632V14.6612H75.0596ZM54.5239 8.12234V18.548C54.5239 22.1546 54.1701 25.2289 52.7216 26.7137C52.1208 27.3497 51.1662 27.8447 50 27.9858L50.6713 32.3333C52.5805 32.3333 54.2063 31.8383 55.4079 31.167C59.0124 29.0462 59.7906 24.3097 59.7906 18.1962V12.5404H65.1985V31.9442H70.5701V8.12234H54.5239Z" fill="#034EA2"/>
</svg>
