<svg width="24" height="25" viewBox="0 0 24 25" fill="none" xmlns="http://www.w3.org/2000/svg">
<path fill-rule="evenodd" clip-rule="evenodd" d="M3.75 12.0181C3.75 7.46172 7.44365 3.76807 12 3.76807C16.5563 3.76807 20.2499 7.46159 20.25 12.0178V12.0181V13.2956V13.5014V13.5386V13.5462V13.5478V13.548V13.5481V13.5481V13.5482V13.5483V13.5483V13.5483V13.5483H20.2445C20.2445 14.489 19.4695 15.2678 18.4933 15.2678C17.5172 15.2678 16.7422 14.489 16.7422 13.5483H16.75V13.5483V13.5483V13.5483V13.5482V13.5481V13.5481V13.548V13.5478V13.5462V13.5386V13.5014V13.2956V12.0181V12.0178C16.7499 9.39458 14.6233 7.26807 12 7.26807C9.37665 7.26807 7.25 9.39471 7.25 12.0181C7.25 14.6414 9.37665 16.7681 12 16.7681C13.457 16.7681 14.7609 16.112 15.6322 15.0792C16.1835 16.0873 17.262 16.7678 18.4933 16.7678C20.2799 16.7678 21.7445 15.3354 21.7445 13.5483H21.75V13.5483V13.5483V13.5482V13.5481V13.5481V13.548V13.5478V13.5462V13.5386V13.5014V13.2956V12.0181V12.0178C21.7499 6.63316 17.3847 2.26807 12 2.26807C6.61522 2.26807 2.25 6.63329 2.25 12.0181C2.25 17.4028 6.61522 21.7681 12 21.7681C12 21.7681 12 21.7681 12 21.7681H12.0002H12.0004H12.0007H12.001H12.0015H12.002H12.0026H12.0033H12.0041H12.005H12.0059H12.0069H12.008H12.0092H12.0105H12.0118H12.0132H12.0147H12.0163H12.0179H12.0197H12.0215H12.0233H12.0253H12.0273H12.0294H12.0316H12.0339H12.0362H12.0386H12.0411H12.0909H12.0947H12.0985H12.1023H12.1062H12.1102H12.1143H12.1185H12.1227H12.1269H12.1313H12.1357H12.1402H12.1447H12.1494H12.154H12.1588H12.589H13.9874H17C17.4142 21.7681 17.75 21.4323 17.75 21.0181C17.75 20.6039 17.4142 20.2681 17 20.2681H13.9874H12.589H12.1588H12.154H12.1494H12.1447H12.1402H12.1357H12.1313H12.1269H12.1227H12.1185H12.1143H12.1102H12.1062H12.1023H12.0985H12.0947H12.0909H12.0411H12.0386H12.0362H12.0339H12.0316H12.0294H12.0273H12.0253H12.0233H12.0215H12.0197H12.0179H12.0163H12.0147H12.0132H12.0118H12.0105H12.0092H12.008H12.0069H12.0059H12.005H12.0041H12.0033H12.0026H12.002H12.0015H12.001H12.0007H12.0004H12.0002H12C12 20.2681 12 20.2681 12 20.2681C7.44365 20.2681 3.75 16.5744 3.75 12.0181ZM15.25 12.0178V12.0181C15.25 13.813 13.7949 15.2681 12 15.2681C10.2051 15.2681 8.75 13.813 8.75 12.0181C8.75 10.2231 10.2051 8.76807 12 8.76807C13.7948 8.76807 15.2499 10.223 15.25 12.0178Z" fill="#001855"/>
</svg>
