<svg width="25" height="24" viewBox="0 0 25 24" fill="none" xmlns="http://www.w3.org/2000/svg">
<path fill-rule="evenodd" clip-rule="evenodd" d="M4.10156 12C4.10156 7.44365 7.79521 3.75 12.3516 3.75C16.9078 3.75 20.6014 7.44352 20.6016 11.9998V12V13.2776V13.4833V13.5206V13.5281V13.5298V13.5299V13.53V13.5301V13.5301V13.5302V13.5302V13.5302V13.5303H20.5961C20.5961 14.4709 19.8211 15.2498 18.8449 15.2498C17.8687 15.2498 17.0938 14.4709 17.0938 13.5303H17.1016V13.5303V13.5302V13.5302V13.5301V13.5301V13.53V13.5299V13.5298V13.5281V13.5206V13.4833V13.2776V12V11.9998C17.1014 9.37652 14.9748 7.25 12.3516 7.25C9.72821 7.25 7.60156 9.37665 7.60156 12C7.60156 14.6234 9.72821 16.75 12.3516 16.75C13.8086 16.75 15.1124 16.094 15.9838 15.0612C16.5351 16.0693 17.6135 16.7498 18.8449 16.7498C20.6314 16.7498 22.0961 15.3173 22.0961 13.5303H22.1016V13.5302V13.5302V13.5301V13.5301V13.53V13.5299V13.5298V13.5281V13.5206V13.4833V13.2776V12V11.9998C22.1014 6.61509 17.7363 2.25 12.3516 2.25C6.96679 2.25 2.60156 6.61522 2.60156 12C2.60156 17.3848 6.96679 21.75 12.3516 21.75C12.3516 21.75 12.3516 21.75 12.3516 21.75H12.3517H12.3519H12.3522H12.3526H12.3531H12.3536H12.3542H12.3549H12.3557H12.3565H12.3575H12.3585H12.3596H12.3608H12.362H12.3634H12.3648H12.3663H12.3678H12.3695H12.3712H12.373H12.3749H12.3769H12.3789H12.381H12.3832H12.3855H12.3878H12.3902H12.3927H12.4425H12.4462H12.45H12.4539H12.4578H12.4618H12.4659H12.47H12.4742H12.4785H12.4829H12.4873H12.4917H12.4963H12.5009H12.5056H12.5103H12.9406H14.339H17.3516C17.7658 21.75 18.1016 21.4142 18.1016 21C18.1016 20.5858 17.7658 20.25 17.3516 20.25H14.339H12.9406H12.5103H12.5056H12.5009H12.4963H12.4917H12.4873H12.4829H12.4785H12.4742H12.47H12.4659H12.4618H12.4578H12.4539H12.45H12.4462H12.4425H12.3927H12.3902H12.3878H12.3855H12.3832H12.381H12.3789H12.3769H12.3749H12.373H12.3712H12.3695H12.3678H12.3663H12.3648H12.3634H12.362H12.3608H12.3596H12.3585H12.3575H12.3565H12.3557H12.3549H12.3542H12.3536H12.3531H12.3526H12.3522H12.3519H12.3517H12.3516C12.3516 20.25 12.3516 20.25 12.3516 20.25C7.79521 20.25 4.10156 16.5563 4.10156 12ZM15.6016 11.9998V12C15.6016 13.7949 14.1465 15.25 12.3516 15.25C10.5566 15.25 9.10156 13.7949 9.10156 12C9.10156 10.2051 10.5566 8.75 12.3516 8.75C14.1464 8.75 15.6014 10.2049 15.6016 11.9998Z" fill="#034EA2"/>
</svg>
