<svg width="71" height="70" viewBox="0 0 71 70" fill="none" xmlns="http://www.w3.org/2000/svg">
<path fill-rule="evenodd" clip-rule="evenodd" d="M35.8535 64.0804C19.7606 64.0804 6.64372 50.9473 6.64372 34.8544C6.64372 18.7616 19.7606 5.62846 35.8535 5.62846C51.9626 5.62846 65.0795 18.7616 65.0795 34.8544C65.0795 50.9473 51.9626 64.0804 35.8535 64.0804ZM35.8535 0C16.5906 0 0.853516 15.7371 0.853516 35C0.853516 54.2791 16.5906 70 35.8535 70C55.1326 70 70.8535 54.2791 70.8535 35C70.8535 15.7371 55.1326 0 35.8535 0Z" fill="#034EA2"/>
<path fill-rule="evenodd" clip-rule="evenodd" d="M34.307 1.15211C36.0198 1.66482 37.5078 1.80553 39.2432 1.34134C39.3726 1.47235 39.3548 1.5419 39.227 1.5791C37.7067 2.03196 36.2915 2.16135 34.1825 1.68261C33.8946 1.61791 34.1129 1.09388 34.307 1.15211Z" fill="white"/>
<path fill-rule="evenodd" clip-rule="evenodd" d="M39.229 5.11816C37.7394 4.40975 36.0363 4.57473 34.1407 4.89011C33.958 4.91923 33.9871 4.60546 34.1181 4.57634C35.9069 4.17685 37.6941 4.05231 39.3519 4.58767C39.6333 4.67824 39.2824 4.92246 39.229 5.11816Z" fill="white"/>
<path fill-rule="evenodd" clip-rule="evenodd" d="M35.7745 2.90274C35.9913 2.86716 36.2064 2.82996 36.4215 2.79438L36.6172 2.41915L36.9423 2.44017L36.939 2.91406L37.9467 2.77173C37.8448 2.92215 37.8221 3.19387 37.6442 3.22298L36.8194 3.36046L36.6641 3.77612C36.5493 3.74539 36.3374 3.80524 36.3212 3.68878L36.2614 3.22783L35.7163 3.1874L35.7745 2.90274Z" fill="white"/>
<path fill-rule="evenodd" clip-rule="evenodd" d="M8.61279 26.5649L14.1475 26.9336L16.5282 23.8331L16.5622 26.9692L20.025 27.1067L16.5185 28.8276L16.5719 33.1929L14.6618 29.8481L10.9418 31.5901L13.0201 28.6222L8.61279 26.5649Z" fill="#034EA2"/>
<path fill-rule="evenodd" clip-rule="evenodd" d="M39.6346 52.3972C40.7393 52.1449 41.7987 51.7486 42.7157 51.189C42.0413 50.217 40.6212 49.5684 38.9909 49.2077C37.9429 48.9764 36.8026 48.8665 35.6996 48.8697C34.6078 48.8713 33.5646 48.9861 32.6993 49.198C31.5009 49.494 30.676 49.942 30.6598 50.4919C30.6404 51.2052 31.4912 51.8198 32.7737 52.2354C33.6762 52.5282 34.7825 52.7045 35.9681 52.7417C37.1649 52.7789 38.4281 52.6738 39.6346 52.3972ZM38.2874 45.9131C40.4644 45.7773 42.6446 45.3098 44.4981 44.3896C43.5891 43.6439 42.237 43.039 40.6859 42.5797C38.8761 42.0444 36.7978 41.716 34.8149 41.5915C32.84 41.4686 30.9752 41.5478 29.5794 41.8276C28.2645 42.0913 27.417 42.4827 27.4493 42.9744C27.4849 43.5615 28.3486 44.1906 29.704 44.7357C30.7617 45.161 32.0928 45.5055 33.5646 45.719C35.0413 45.9325 36.6587 46.015 38.2874 45.9131ZM44.2425 38.2856C45.5106 37.9653 46.6945 37.5675 47.7377 37.0903C47.5436 36.927 47.3285 36.7669 47.094 36.6132C46.0168 35.9 44.566 35.2918 42.9147 34.8034C41.2455 34.3085 39.3742 33.9381 37.4771 33.7084C31.7839 33.021 25.9209 33.5515 24.8211 35.7528C25.0524 37.2375 27.3571 38.2872 30.5143 38.842C32.523 39.1945 34.8601 39.3304 37.2474 39.2415C39.6346 39.1525 42.0607 38.8355 44.2425 38.2856ZM21.4052 27.9975C21.1335 28.0363 20.8634 28.0735 20.7874 27.5317C20.713 26.9915 20.9847 26.9543 21.2548 26.9154C29.4015 25.7655 36.6845 25.8803 42.1869 26.7375C48.6839 27.7516 52.7758 29.8736 53.0508 32.2528C53.0508 32.256 53.054 32.3256 53.054 32.3288C52.999 34.454 51.6242 36.1345 49.4974 37.3976C50.0683 38.2597 50.2365 39.222 49.871 40.2717L49.8613 40.2976C49.0979 42.198 47.8089 43.6278 46.2174 44.6694C46.6638 45.3487 46.8692 46.1121 46.7592 46.9644C46.502 48.9764 45.5009 50.4822 44.1034 51.5675C44.1633 51.7745 44.2037 51.9928 44.2231 52.2193C44.2894 53.0021 44.1973 53.7234 43.9773 54.3817C43.56 55.6222 42.6818 56.5927 41.5156 57.2833C40.3835 57.9512 38.9828 58.3556 37.4787 58.4801C35.7594 58.6257 33.8849 58.4073 32.1106 57.8105C31.8518 57.7232 31.5898 57.6359 31.7645 57.1183C31.9376 56.6007 32.1963 56.6881 32.4567 56.7754C34.0773 57.3205 35.8015 57.5194 37.3881 57.3852C38.7386 57.2736 39.9791 56.921 40.9593 56.3403C41.9054 55.7807 42.6155 55.0092 42.9422 54.0356C43.112 53.5261 43.1815 52.9503 43.1282 52.3082L43.1185 52.2257C42.1383 52.7934 41.0288 53.1994 39.8789 53.463C38.572 53.7622 37.2134 53.8771 35.9406 53.8383C34.658 53.7978 33.4449 53.6005 32.4389 53.2738C30.6873 52.7077 29.5309 51.7292 29.5649 50.466C29.5956 49.3403 30.7585 48.5511 32.4389 48.137C33.3932 47.9025 34.527 47.778 35.6996 47.7747C36.8657 47.7715 38.0868 47.8912 39.2254 48.1435C41.1048 48.5575 42.7546 49.342 43.6101 50.5518C44.7035 49.6396 45.4734 48.4168 45.6772 46.8286C45.7516 46.2463 45.6011 45.7126 45.2744 45.2241C43.2204 46.3126 40.783 46.8561 38.3569 47.0081H38.3537C36.6619 47.1132 34.9669 47.0275 33.411 46.8027C31.8518 46.5746 30.435 46.2059 29.298 45.7498C27.5464 45.0462 26.4191 44.0871 26.3528 43.039C26.2816 41.8891 27.4817 41.1322 29.3643 40.7537C30.8571 40.4545 32.8206 40.3671 34.8796 40.4965C36.9288 40.6243 39.0912 40.9688 40.9949 41.5317C42.8451 42.0799 44.4512 42.8417 45.4992 43.8267C46.9646 42.8951 48.1469 41.6174 48.8359 39.9175C49.0817 39.2107 48.9459 38.5427 48.5173 37.9233C47.3301 38.5039 45.9699 38.9778 44.5078 39.3466C42.2451 39.9175 39.7398 40.2442 37.2862 40.3364C34.8294 40.4286 32.4131 40.2863 30.3266 39.9207C26.5889 39.2641 23.8749 37.8489 23.71 35.7107C23.7083 35.6832 23.7407 35.4924 23.752 35.4649C24.8987 32.6539 31.3828 31.8695 37.6065 32.6215C39.557 32.8577 41.4882 33.241 43.2236 33.7553C44.9752 34.2729 46.5279 34.9279 47.6973 35.7026C48.1064 35.9727 48.472 36.2574 48.7841 36.5566C50.6748 35.4794 51.896 34.0756 51.9574 32.3369C51.6922 30.4769 47.9577 28.7431 42.0203 27.8163C36.615 26.9737 29.4452 26.8637 21.4052 27.9975Z" fill="#034EA2"/>
<path fill-rule="evenodd" clip-rule="evenodd" d="M34.345 14.3952L37.3339 8.17317L39.6095 14.696L38.4984 42.8691L41.3902 20.5574L43.2842 24.5653L37.1317 60.9805L30.4956 24.4715L32.4817 20.4167L35.5062 42.9079L34.345 14.3952Z" fill="#034EA2"/>
<path fill-rule="evenodd" clip-rule="evenodd" d="M49.5868 37.3434C49.556 37.3612 49.5269 37.379 49.4962 37.3968C50.0687 38.2605 50.2353 39.2212 49.8714 40.2725L49.8617 40.2984C49.0967 42.1988 47.8077 43.6269 46.2178 44.6701C46.6626 45.3494 46.868 46.1128 46.7596 46.9652C46.5024 48.9756 45.5013 50.483 44.1022 51.5666C44.1621 51.7753 44.2041 51.9936 44.2236 52.2184C44.2899 53.0029 44.1977 53.7242 43.9761 54.3825C43.5588 55.623 42.6806 56.5934 41.5161 57.2824C40.3839 57.952 38.9816 58.3548 37.4791 58.4809C35.7582 58.6249 33.8853 58.4065 32.1094 57.8097C31.8506 57.724 31.5902 57.635 31.7633 57.1191C31.938 56.5999 32.1968 56.6872 32.4555 56.7746C34.0778 57.3213 35.8019 57.5186 37.3885 57.3859C38.739 57.2727 39.9796 56.9201 40.9597 56.3411C41.9059 55.7815 42.6143 55.0084 42.9426 54.0347C43.1124 53.5253 43.182 52.9511 43.1286 52.309L43.1189 52.2265C42.1388 52.7942 41.0292 53.1986 39.8793 53.4622C38.5708 53.7614 37.2138 53.8779 35.9394 53.8374C34.6584 53.797 33.4454 53.5997 32.4377 53.2746C30.6861 52.7085 29.5313 51.73 29.5653 50.4652C29.596 49.3411 30.7573 48.5518 32.4377 48.1378C32.9068 48.023 33.4179 47.9324 33.9565 47.8725V48.9724C33.5101 49.0274 33.0863 49.1034 32.6998 49.1988C31.4997 49.4948 30.6764 49.9428 30.6602 50.4911C30.6408 51.2043 31.4916 51.8206 32.7725 52.2362C33.6766 52.5274 34.7829 52.7053 35.9685 52.7425C37.1637 52.7797 38.4285 52.6745 39.6351 52.398C40.7381 52.144 41.7991 51.7478 42.7162 51.1898C42.1679 50.4021 41.1327 49.8263 39.8938 49.4446V48.3076C41.4902 48.7524 42.8569 49.4867 43.6106 50.5525C44.7023 49.6403 45.4738 48.416 45.6776 46.8277C45.752 46.2471 45.6016 45.7117 45.2748 45.2249C43.2192 46.3118 40.7834 46.8568 38.3573 47.0089H38.3541C36.6623 47.114 34.9673 47.0283 33.4114 46.8018C31.8522 46.5754 30.4338 46.2067 29.2984 45.7506C27.5468 45.0454 26.4195 44.0879 26.3532 43.0398C26.282 41.8899 27.4821 41.1329 29.3647 40.7545C30.8187 40.4634 32.7224 40.3728 34.7247 40.486H32.7919V41.5357C31.5886 41.5486 30.484 41.6473 29.5798 41.8284C28.2633 42.092 27.4174 42.4835 27.4481 42.9751C27.4853 43.5606 28.349 44.1914 29.7044 44.7365C30.7605 45.1602 32.0932 45.5047 33.565 45.7198C35.0417 45.9333 36.6591 46.0142 38.2878 45.9139H38.2894C40.4648 45.7764 42.645 45.3106 44.4985 44.3903C43.7335 43.7612 42.6547 43.2339 41.4061 42.8085V41.6586C43.0833 42.1956 44.5292 42.9153 45.4997 43.8275C46.965 42.8959 48.1457 41.6182 48.8363 39.9167C49.0821 39.2115 48.9463 38.5435 48.5177 37.9241C47.3289 38.5047 45.9703 38.9786 44.5066 39.3474C42.2455 39.9183 39.7402 40.2434 37.2866 40.3372C34.8298 40.4278 32.4135 40.2871 30.3271 39.9199C27.6422 39.4493 25.4846 38.5856 24.4204 37.3434H26.0475C27.0664 38.0098 28.6401 38.5128 30.5147 38.8427C32.5218 39.1953 34.8606 39.3312 37.2478 39.2406C39.6351 39.1517 42.0611 38.8363 44.2413 38.2864C45.2797 38.0244 46.2582 37.7106 47.1526 37.3434H49.5868Z" fill="#034EA2"/>
</svg>
