<svg width="164" height="153" viewBox="0 0 164 153" fill="none" xmlns="http://www.w3.org/2000/svg">
<path fill-rule="evenodd" clip-rule="evenodd" d="M82 -7.62939e-06C101.384 -7.62939e-06 117.193 15.92 117.193 35.44C117.193 54.9587 101.384 70.8787 82 70.8787C62.616 70.8787 46.8066 54.9587 46.8066 35.44C46.8066 15.92 62.616 -7.62939e-06 82 -7.62939e-06Z" fill="#D1D3D4"/>
<path fill-rule="evenodd" clip-rule="evenodd" d="M82.0855 1.90864C100.553 1.90864 115.616 16.9713 115.616 35.4393C115.616 53.9073 100.553 68.97 82.0855 68.97C63.6175 68.97 48.5562 53.9073 48.5562 35.4393C48.5562 16.9713 63.6175 1.90864 82.0855 1.90864Z" fill="#034EA2"/>
<path fill-rule="evenodd" clip-rule="evenodd" d="M82.0858 7.2956C97.5058 7.2956 110.082 19.8729 110.082 35.2916C110.082 50.7116 97.5058 63.2876 82.0858 63.2876C66.6672 63.2876 54.0898 50.7116 54.0898 35.2916C54.0898 19.8729 66.6672 7.2956 82.0858 7.2956Z" fill="#9DDCF9"/>
<path fill-rule="evenodd" clip-rule="evenodd" d="M80.5961 3.00644C82.2374 3.49711 83.6641 3.63311 85.3254 3.18777C85.4507 3.31177 85.4321 3.37977 85.3094 3.41577C83.8534 3.85044 82.4974 3.97311 80.4774 3.51577C80.2028 3.45311 80.4108 2.95044 80.5961 3.00644Z" fill="white"/>
<path d="M80.5961 3.00644C82.2374 3.49711 83.6641 3.63311 85.3254 3.18777C85.4507 3.31177 85.4321 3.37977 85.3094 3.41577C83.8534 3.85044 82.4974 3.97311 80.4774 3.51577C80.2028 3.45311 80.4108 2.95044 80.5961 3.00644Z" stroke="white" stroke-width="0.288" stroke-miterlimit="22.926"/>
<path fill-rule="evenodd" clip-rule="evenodd" d="M85.3116 6.80591C83.885 6.12724 82.2543 6.28457 80.437 6.58724C80.2636 6.61657 80.2903 6.31391 80.417 6.28591C82.1303 5.90457 83.8423 5.78457 85.4303 6.29791C85.6996 6.38457 85.3636 6.61924 85.3116 6.80591Z" fill="white"/>
<path d="M85.3116 6.80591C83.885 6.12724 82.2543 6.28457 80.437 6.58724C80.2636 6.61657 80.2903 6.31391 80.417 6.28591C82.1303 5.90457 83.8423 5.78457 85.4303 6.29791C85.6996 6.38457 85.3636 6.61924 85.3116 6.80591Z" stroke="white" stroke-width="0.288" stroke-miterlimit="22.926"/>
<path fill-rule="evenodd" clip-rule="evenodd" d="M82.0026 4.68353C82.2093 4.6502 82.416 4.6142 82.6213 4.58086L82.8106 4.22086L83.1213 4.24086L83.1173 4.69553L84.084 4.55953C83.9866 4.70353 83.964 4.9622 83.7933 4.98886L83.0026 5.1222L82.8546 5.51953C82.7453 5.49153 82.5413 5.54753 82.5266 5.43553L82.4693 4.99553L81.9453 4.95686L82.0026 4.68353Z" fill="white"/>
<path fill-rule="evenodd" clip-rule="evenodd" d="M55.9819 27.3528L61.2833 27.7061L63.5646 24.7341L63.5979 27.7408L66.9139 27.8728L63.5553 29.5208L63.6059 33.7021L61.7766 30.4968L58.2126 32.1661L60.2033 29.3248L55.9819 27.3528Z" fill="white"/>
<path fill-rule="evenodd" clip-rule="evenodd" d="M85.701 52.0987C86.7583 51.856 87.7743 51.4774 88.653 50.9427C88.0063 50.012 86.6463 49.3894 85.0837 49.044C84.081 48.8227 82.9877 48.7174 81.9317 48.72C80.885 48.7227 79.885 48.8307 79.057 49.0347C77.909 49.3174 77.1183 49.748 77.1037 50.2734C77.085 50.9574 77.8983 51.5467 79.1277 51.944C79.993 52.224 81.053 52.3947 82.189 52.4294C83.3343 52.4654 84.545 52.364 85.701 52.0987ZM84.4103 45.888H84.4117C86.497 45.7574 88.585 45.3094 90.3597 44.4294C89.4903 43.7134 88.1943 43.1334 86.709 42.6947C84.9743 42.1814 82.9837 41.8667 81.0837 41.7467C79.1917 41.628 77.405 41.7054 76.0677 41.9734C74.8077 42.228 73.997 42.6014 74.0263 43.072C74.0623 43.6334 74.8903 44.2374 76.1877 44.76C77.1997 45.1667 78.4757 45.4974 79.8863 45.7014C81.2997 45.9067 82.8503 45.9854 84.4103 45.888ZM90.1157 38.58C91.3303 38.2734 92.465 37.892 93.4637 37.4347C93.277 37.2787 93.0717 37.1267 92.8477 36.9787C91.8143 36.2947 90.4237 35.712 88.8423 35.2427C87.2437 34.7707 85.4517 34.4147 83.6343 34.196C78.1797 33.536 72.5623 34.0454 71.509 36.1547C71.7303 37.576 73.9397 38.5827 76.965 39.1134C78.8877 39.452 81.1277 39.5814 83.4143 39.496C85.701 39.4094 88.025 39.108 90.1157 38.58ZM68.2357 28.7254C67.977 28.7614 67.717 28.7974 67.645 28.28C67.573 27.7614 67.833 27.724 68.0917 27.6867C75.897 26.5867 82.8743 26.696 88.145 27.5174C94.369 28.488 98.2903 30.52 98.553 32.8014C98.553 32.804 98.557 32.8707 98.557 32.8734C98.5037 34.9094 97.1863 36.52 95.149 37.7294C95.697 38.556 95.857 39.476 95.5077 40.4827L95.4983 40.508C94.765 42.3294 93.5317 43.6974 92.0077 44.696C92.4343 45.348 92.6317 46.0787 92.5277 46.8947C92.281 48.8214 91.321 50.2654 89.981 51.304C90.0383 51.504 90.0783 51.712 90.097 51.928C90.1597 52.68 90.073 53.3707 89.861 54.0014C89.461 55.1894 88.6197 56.12 87.5037 56.78C86.4183 57.42 85.077 57.8067 83.6357 57.928C81.9877 58.0667 80.193 57.856 78.4917 57.2854C78.2437 57.2014 77.9943 57.1187 78.161 56.6227C78.3263 56.1267 78.5757 56.2094 78.8237 56.2934C80.3783 56.816 82.0277 57.0067 83.549 56.8787C84.8423 56.7707 86.0303 56.4334 86.9703 55.8774C87.877 55.3414 88.5557 54.6014 88.869 53.6694C89.033 53.1814 89.0983 52.6294 89.0477 52.0147C89.045 51.988 89.0423 51.9614 89.0383 51.936C88.0983 52.4787 87.0357 52.8667 85.9343 53.12C84.6823 53.4067 83.381 53.516 82.161 53.4787C80.9317 53.4414 79.7717 53.2507 78.8077 52.94C77.129 52.3974 76.0223 51.46 76.0543 50.2494C76.0837 49.172 77.197 48.4147 78.8077 48.0174C79.7223 47.7934 80.8077 47.6734 81.9317 47.6707C83.0477 47.668 84.2183 47.7827 85.3103 48.0227C87.1103 48.4214 88.689 49.1734 89.509 50.332C90.557 49.4587 91.2957 48.2867 91.4903 46.764C91.5623 46.208 91.417 45.6947 91.105 45.2294C89.1357 46.2707 86.801 46.792 84.477 46.9374H84.4743C82.853 47.0387 81.229 46.956 79.7383 46.7387C78.2463 46.5214 76.8877 46.1694 75.7983 45.732C74.1197 45.0574 73.0397 44.1387 72.977 43.1347C72.909 42.032 74.0583 41.308 75.8637 40.9454C77.2917 40.6587 79.173 40.5747 81.145 40.6974C83.109 40.8214 85.1797 41.1507 87.005 41.6907C88.777 42.216 90.3143 42.9454 91.3183 43.8894C92.7223 42.996 93.8543 41.772 94.5157 40.1427C94.7517 39.4667 94.6197 38.8267 94.2117 38.2347C93.073 38.7907 91.769 39.2427 90.369 39.5974C88.201 40.144 85.8023 40.4574 83.4517 40.5454C81.0983 40.6334 78.7823 40.4974 76.785 40.1467C73.2023 39.5174 70.6023 38.1627 70.4463 36.1147C70.4437 36.0867 70.4743 35.904 70.4837 35.8787C71.5837 33.1854 77.797 32.4334 83.757 33.1547C85.6263 33.3814 87.477 33.7467 89.1383 34.2387C90.8157 34.7374 92.3037 35.364 93.425 36.1054C93.817 36.364 94.1663 36.6374 94.4663 36.924C96.277 35.892 97.4477 34.548 97.5063 32.8814C97.253 31.1 93.6757 29.4387 87.985 28.5507C82.8077 27.744 75.9397 27.6374 68.2357 28.7254Z" fill="white"/>
<path fill-rule="evenodd" clip-rule="evenodd" d="M80.633 15.6939L83.4956 9.73257L85.677 15.9806L84.6143 42.9712L87.3836 21.5966L89.197 25.4366L83.3023 60.3232L76.9463 25.3459L78.849 21.4606L81.745 43.0086L80.633 15.6939Z" fill="#2A8146"/>
<path fill-rule="evenodd" clip-rule="evenodd" d="M95.234 37.6784C95.206 37.6957 95.178 37.7117 95.15 37.729C95.6966 38.5557 95.8566 39.477 95.5086 40.4837L95.498 40.5077C94.7646 42.329 93.5313 43.6984 92.0073 44.697C92.434 45.3477 92.6313 46.0797 92.5273 46.8944C92.2806 48.821 91.3206 50.265 89.982 51.305C90.0393 51.5037 90.078 51.7117 90.0966 51.929C90.1593 52.6797 90.0726 53.3717 89.8606 54.001C89.4606 55.1904 88.6193 56.1197 87.5033 56.7797C86.418 57.421 85.0766 57.8077 83.6353 57.929C81.9873 58.0664 80.1926 57.857 78.4913 57.285C78.2433 57.2024 77.994 57.1184 78.1606 56.6224C78.326 56.1264 78.5753 56.209 78.8233 56.293C80.378 56.817 82.0273 57.0064 83.5486 56.8784C84.8433 56.7704 86.03 56.433 86.97 55.877C87.8766 55.341 88.5553 54.601 88.8686 53.669C89.0326 53.181 89.098 52.6304 89.0473 52.0144C89.0446 51.9877 89.042 51.9624 89.0393 51.9357C88.098 52.4797 87.0366 52.8677 85.934 53.1197C84.682 53.4077 83.3806 53.517 82.1606 53.4797C80.9313 53.441 79.7713 53.2517 78.8073 52.9397C77.1286 52.397 76.022 51.461 76.054 50.2504C76.0833 49.1717 77.1966 48.4157 78.8073 48.0184C79.2553 47.9077 79.7446 47.8224 80.2606 47.7637V48.8184C79.8326 48.8717 79.4273 48.9437 79.0566 49.0357C77.9086 49.317 77.118 49.749 77.1033 50.273C77.0846 50.957 77.898 51.5464 79.1273 51.9437C79.9926 52.2237 81.0526 52.3944 82.1886 52.429C83.334 52.4664 84.5446 52.365 85.7006 52.0984C86.758 51.857 87.774 51.4784 88.6526 50.9424C88.1286 50.1877 87.1366 49.637 85.9486 49.2704V48.1824C87.478 48.6077 88.7873 49.313 89.51 50.3317C90.5566 49.4584 91.2953 48.2864 91.49 46.7637C91.562 46.2077 91.4166 45.6957 91.1046 45.229C89.1353 46.2704 86.8006 46.7917 84.4766 46.937H84.474C82.8526 47.0397 81.2286 46.9557 79.738 46.7397C78.246 46.5224 76.8873 46.169 75.798 45.7317C74.1206 45.057 73.0393 44.1397 72.9766 43.1357C72.9086 42.033 74.058 41.309 75.8633 40.945C77.2553 40.6664 79.078 40.5797 80.9966 40.689H79.146V41.6957C77.9926 41.7064 76.9353 41.801 76.0673 41.9744C74.8073 42.2277 73.9966 42.601 74.026 43.073C74.062 43.6344 74.89 44.2384 76.1873 44.761C77.1993 45.1664 78.4753 45.497 79.886 45.7024C81.2993 45.9077 82.85 45.985 84.41 45.8877H84.4113C86.4966 45.7584 88.5846 45.3104 90.3593 44.429C89.6273 43.8264 88.594 43.3197 87.398 42.913V41.813C89.0033 42.325 90.39 43.0157 91.318 43.889C92.722 42.9957 93.854 41.7717 94.5153 40.1437C94.7513 39.4677 94.6206 38.8264 94.2113 38.2344C93.0726 38.7904 91.7686 39.2437 90.37 39.597C88.202 40.145 85.802 40.457 83.4513 40.545C81.098 40.6344 78.782 40.497 76.7846 40.1477C74.21 39.6957 72.1446 38.8677 71.126 37.6784H72.6846C73.6593 38.317 75.1686 38.7984 76.9646 39.113C78.8873 39.4517 81.1273 39.5824 83.414 39.4957C85.7006 39.4104 88.0246 39.1077 90.1153 38.581C91.1086 38.3304 92.0473 38.029 92.902 37.6784H95.234Z" fill="white"/>
<path fill-rule="evenodd" clip-rule="evenodd" d="M143.039 116.541V122.012H149.678V139.403H156.784V122.012H163.423V116.541H143.039ZM140.514 133.56C139.439 134.027 138.13 134.307 136.447 134.307C132.987 134.307 130.182 132.064 130.182 127.903C130.135 124.163 132.567 121.497 136.306 121.497C138.176 121.497 139.439 121.824 140.28 122.197L141.402 116.915C139.906 116.353 137.848 116.027 135.979 116.027C127.47 116.027 122.888 121.497 122.888 128.181C122.888 135.336 127.611 139.871 134.998 139.871C137.708 139.871 140.094 139.403 141.355 138.795L140.514 133.56ZM104.935 125.377C105.123 123.508 106.338 120.748 109.33 120.748C112.603 120.748 113.351 123.648 113.351 125.377H104.935ZM119.708 130.239C119.803 129.725 119.943 128.651 119.943 127.435C119.943 121.777 117.138 116.027 109.751 116.027C101.803 116.027 98.2031 122.432 98.2031 128.229C98.2031 135.383 102.644 139.871 110.404 139.871C113.491 139.871 116.343 139.403 118.68 138.421L117.746 133.607C115.828 134.26 113.866 134.587 111.434 134.587C108.115 134.587 105.17 133.185 104.982 130.239H119.708ZM78.5671 125.471H80.9978C84.5511 125.471 87.4031 126.733 87.4031 129.865C87.4031 133.185 84.5511 134.448 81.3245 134.448C80.1098 134.448 79.2671 134.448 78.5671 134.353V125.471ZM78.5671 113.035C79.1271 112.941 80.0151 112.847 81.6058 112.847C84.8311 112.847 86.6551 114.111 86.6551 116.495C86.6551 118.832 84.6911 120.375 80.9045 120.375H78.5671V113.035ZM71.5071 139.263C73.0965 139.497 75.7151 139.731 79.2218 139.731C85.4858 139.731 89.3191 138.701 91.6111 136.879C93.5738 135.289 94.8831 133.045 94.8831 130.147C94.8831 126.125 92.2178 123.367 88.6191 122.432V122.339C92.1725 120.983 93.8085 118.411 93.8085 115.653C93.8085 112.753 92.2645 110.604 90.0671 109.435C87.7298 108.079 85.0658 107.659 80.7178 107.659C77.1178 107.659 73.3765 107.985 71.5071 108.313V139.263ZM33.8711 116.541V139.403H42.5205C44.1098 135.849 45.8405 131.876 47.2885 128.697C48.2245 126.547 48.7858 125.051 49.6738 122.572H49.8605C49.6258 127.388 49.4391 128.884 49.4391 132.437V139.403H56.1725V116.541H47.4765L43.0351 126.359C42.0991 128.511 41.4911 130.287 40.4165 132.904L40.2298 132.857C40.4165 129.772 40.6031 127.201 40.6031 123.555V116.541H33.8711ZM6.70714 107.892V121.683C6.70714 126.453 6.23914 130.52 4.32314 132.484C3.52847 133.325 2.26581 133.98 0.723145 134.167L1.61114 139.917C4.13648 139.917 6.28714 139.263 7.87647 138.375C12.6445 135.569 13.6738 129.304 13.6738 121.217V113.736H20.8271V139.403H27.9325V107.892H6.70714Z" fill="#034EA2"/>
<path d="M4.20855 146.817V147.681H2.94163V151.419H1.8445V147.681H0.57666V146.817H4.20855Z" fill="#034EA2"/>
<path d="M5.27197 151.419V146.817H6.86462C7.46884 146.817 7.93165 146.947 8.25241 147.206C8.57821 147.466 8.74054 147.855 8.74054 148.374C8.74054 148.658 8.68648 148.908 8.57814 149.125C8.46979 149.337 8.32403 149.507 8.13984 149.634C7.9559 149.757 7.75733 149.849 7.54467 149.911C7.33806 149.972 7.12075 150.003 6.89322 150.003H6.28421V151.418L5.27197 151.419ZM6.67361 147.638H6.28421V149.21H6.67361C7.30605 149.21 7.62218 148.945 7.62218 148.417C7.62218 147.898 7.30605 147.638 6.67361 147.638Z" fill="#034EA2"/>
<path d="M10.7853 146.817H12.2433L13.9217 151.419H12.8098L12.4546 150.477H10.5362L10.204 151.419H9.10596L10.7853 146.817ZM11.5078 147.589L10.7927 149.755H12.2156L11.5078 147.589Z" fill="#034EA2"/>
<path d="M15.6772 146.817H18.9335V150.555H19.5287L19.4225 152.509H18.6013L18.5598 151.419H15.6006L15.5517 152.509H14.7932L14.688 150.555H15.1549C15.3338 150.173 15.4663 149.703 15.5517 149.146C15.6373 148.589 15.6772 147.813 15.6772 146.817ZM17.865 147.681H16.6184C16.5806 148.964 16.4279 149.922 16.1588 150.555H17.865V147.681Z" fill="#034EA2"/>
<path d="M24.9926 146.817V151.418H23.9592V148.856L23.997 148.403L21.9024 151.291L21.8452 151.418H20.8403V146.817H21.8738V149.422L21.836 149.832H21.8738L23.9767 146.944L24.033 146.817L24.9926 146.817Z" fill="#034EA2"/>
<path d="M27.6987 146.817V150.555H29.5109V146.817H30.6016V150.555H31.1959L31.0907 152.509H30.2759L30.2344 151.419H26.6099V146.817H27.6987Z" fill="#034EA2"/>
<path d="M36.6693 146.817V151.418H35.6359V148.856L35.6737 148.403L33.5782 151.291L33.5219 151.418H32.5161V146.817H33.5496V149.422L33.5117 149.832H33.5496L35.6525 146.944L35.7088 146.817L36.6693 146.817Z" fill="#034EA2"/>
<path d="M42.1691 147.362C42.6035 147.801 42.8206 148.388 42.8206 149.125C42.8206 149.861 42.6035 150.451 42.1691 150.894C41.7398 151.333 41.1383 151.553 40.3642 151.553C39.5902 151.553 38.9907 151.333 38.5658 150.894C38.141 150.451 37.9282 149.861 37.9282 149.125C37.9282 148.388 38.141 147.801 38.5658 147.362C38.9907 146.918 39.5902 146.696 40.3642 146.696C41.1383 146.696 41.7398 146.918 42.1691 147.362ZM41.3553 150.229C41.5921 149.951 41.7105 149.582 41.7105 149.125C41.7105 148.667 41.5921 148.299 41.3553 148.02C41.1184 147.742 40.7881 147.602 40.3642 147.602C39.9442 147.602 39.6184 147.742 39.3871 148.02C39.1553 148.299 39.0392 148.667 39.0392 149.125C39.0392 149.582 39.1529 149.951 39.3797 150.229C39.6065 150.503 39.934 150.64 40.3633 150.64C40.7927 150.64 41.124 150.503 41.3553 150.229Z" fill="#034EA2"/>
<path d="M48.2006 146.817V151.419H47.1099V149.528H45.1703V151.419H44.0806V146.817H45.1703V148.7H47.1099V146.817H48.2006Z" fill="#034EA2"/>
<path d="M53.935 146.817V151.419H52.8452V149.528H50.9047V151.419H49.8149V146.817H50.9047V148.7H52.8452V146.817H53.935Z" fill="#034EA2"/>
<path d="M56.7306 146.817H58.1895L59.867 151.419H58.7551L58.3999 150.477H56.4815L56.1493 151.419H55.0513L56.7306 146.817ZM57.4532 147.589L56.738 149.755H58.1609L57.4532 147.589Z" fill="#034EA2"/>
<path d="M64.3644 146.817V151.419H63.3521V149.776H62.637L61.7096 151.419H60.6411L61.6884 149.67C61.4052 149.571 61.1765 149.413 61.0019 149.196C60.8331 148.978 60.7482 148.707 60.7482 148.381C60.7482 147.909 60.9062 147.532 61.2224 147.249C61.5434 146.961 61.9522 146.817 62.4478 146.817H64.3644ZM61.7807 148.325C61.7807 148.532 61.8486 148.698 61.9846 148.82C62.1257 148.943 62.3077 149.004 62.53 149.004H63.3512V147.645H62.5161C62.3045 147.645 62.127 147.709 61.9846 147.836C61.8486 147.959 61.7807 148.122 61.7807 148.325Z" fill="#034EA2"/>
<path d="M68.4341 151.418V146.817H69.5238V148.856L69.928 148.587L71.4007 146.817H72.6178L70.7769 149.004L72.7811 151.418H71.5068L69.9778 149.606L69.5238 149.861V151.418L68.4341 151.418Z" fill="#034EA2"/>
<path d="M77.9632 146.817V151.418H76.9289V148.856L76.9667 148.403L74.8712 151.291L74.8149 151.418H73.8091V146.817H74.8425V149.422L74.8047 149.832H74.8425L76.9455 146.944L77.0017 146.817L77.9632 146.817Z" fill="#034EA2"/>
<path d="M82.6549 146.817V147.681H81.388V151.419H80.2908V147.681H79.0239V146.817H82.6549Z" fill="#034EA2"/>
<path d="M84.4758 146.817H85.9337L87.6122 151.419H86.5003L86.1451 150.477H84.2267L83.8945 151.419H82.7974L84.4758 146.817ZM85.1983 147.589L84.4832 149.755H85.9061L85.1983 147.589Z" fill="#034EA2"/>
<path d="M92.8989 146.817V151.418H91.8664V148.856L91.9033 148.403L89.8087 151.291L89.7514 151.418H88.7466V146.817H89.78V149.422L89.7422 149.833H89.78L91.883 146.944L91.9392 146.817L92.8989 146.817ZM90.903 145.84C91.0693 145.84 91.208 145.802 91.3201 145.726C91.4385 145.651 91.5143 145.575 91.5471 145.5L91.6043 145.394L91.6532 145.409L92.276 145.536C92.276 145.559 92.2634 145.592 92.2382 145.635C92.2382 145.673 92.2027 145.744 92.1321 145.848C92.0767 145.952 92.0041 146.043 91.9134 146.124C91.8227 146.199 91.6876 146.27 91.5093 146.336C91.3304 146.397 91.1228 146.428 90.8864 146.428C90.6546 146.428 90.4496 146.397 90.2709 146.336C90.092 146.275 89.9579 146.201 89.8677 146.116C89.777 146.027 89.7035 145.939 89.6481 145.855C89.5901 145.765 89.5546 145.689 89.542 145.628L89.5041 145.536L90.1344 145.409L90.1759 145.394C90.1759 145.409 90.1885 145.425 90.2137 145.443C90.2137 145.461 90.2355 145.496 90.2783 145.55C90.3161 145.601 90.3587 145.646 90.4066 145.684C90.4545 145.722 90.52 145.757 90.6031 145.79C90.6888 145.823 90.7831 145.84 90.8864 145.84H90.903Z" fill="#034EA2"/>
<path d="M98.358 147.419L97.9473 148.112C97.3479 147.773 96.9275 147.603 96.6869 147.603C96.2102 147.603 95.8544 147.74 95.6184 148.013C95.3865 148.287 95.2705 148.662 95.2705 149.139C95.2705 149.597 95.3924 149.963 95.6368 150.236C95.8812 150.505 96.2184 150.64 96.649 150.64C96.8229 150.64 96.9933 150.619 97.1593 150.576C97.3281 150.529 97.4696 150.475 97.5838 150.413C97.7022 150.347 97.8056 150.281 97.8938 150.215C97.987 150.149 98.0549 150.092 98.0977 150.045L98.1623 149.981L98.5942 150.54C98.569 150.569 98.5472 150.606 98.5296 150.654C98.5019 150.696 98.4317 150.777 98.3183 150.894C98.2099 151.008 98.0848 151.109 97.9436 151.199C97.8076 151.288 97.6187 151.369 97.3771 151.439C97.1352 151.515 96.8764 151.553 96.5992 151.553C95.8015 151.553 95.1948 151.336 94.7796 150.902C94.3643 150.467 94.1567 149.88 94.1567 149.139C94.1567 148.402 94.3689 147.813 94.7934 147.369C95.223 146.921 95.8297 146.696 96.6131 146.696C96.855 146.696 97.0791 146.722 97.2857 146.774C97.4974 146.821 97.6652 146.88 97.7886 146.951C97.9146 147.022 98.0227 147.093 98.1134 147.163C98.2041 147.234 98.2652 147.293 98.298 147.34L98.358 147.419Z" fill="#034EA2"/>
<path d="M99.6255 151.418V146.817H100.715V148.856L101.119 148.587L102.592 146.817H103.809L101.969 149.004L103.972 151.418H102.698L101.168 149.606L100.715 149.861V151.418L99.6255 151.418Z" fill="#034EA2"/>
<path d="M106.159 146.817H107.617L109.296 151.419H108.184L107.829 150.477H105.91L105.578 151.419H104.481L106.159 146.817ZM106.882 147.589L106.167 149.755H107.59L106.882 147.589Z" fill="#034EA2"/>
<path d="M113.791 146.817V151.419H112.779V149.776H112.064L111.136 151.419H110.067L111.115 149.67C110.832 149.571 110.603 149.413 110.429 149.196C110.26 148.978 110.176 148.707 110.176 148.381C110.176 147.909 110.334 147.532 110.65 147.249C110.971 146.961 111.379 146.817 111.875 146.817H113.791ZM111.207 148.325C111.207 148.532 111.275 148.698 111.411 148.82C111.552 148.943 111.734 149.004 111.957 149.004H112.778V147.645H111.942C111.73 147.645 111.554 147.709 111.411 147.836C111.275 147.959 111.207 148.122 111.207 148.325Z" fill="#034EA2"/>
<path d="M123.752 146.817V151.419H122.705V148.268H122.667L121.322 151.419H120.267L118.922 148.268H118.884V151.419H117.836V146.817H119.252L120.76 150.392H120.797L122.305 146.817H123.752Z" fill="#034EA2"/>
<path d="M128.695 150.555V151.419H125.368V146.817H128.574V147.681H126.458V148.686H128.333V149.514H126.458V150.555H128.695Z" fill="#034EA2"/>
<path d="M130.649 146.817H133.905V150.555H134.5L134.394 152.509H133.573L133.532 151.419H130.572L130.523 152.509H129.766L129.661 150.555H130.128C130.306 150.173 130.439 149.703 130.524 149.146C130.61 148.589 130.649 147.813 130.649 146.817ZM132.837 147.681H131.59C131.552 148.964 131.4 149.922 131.131 150.555H132.837V147.681Z" fill="#034EA2"/>
<path d="M139.966 146.817V151.418H138.932V148.856L138.97 148.403L136.874 151.291L136.818 151.418H135.813V146.817H136.846V149.422L136.809 149.832H136.846L138.948 146.944L139.006 146.817L139.966 146.817Z" fill="#034EA2"/>
<path d="M142.667 146.817V150.555H144.481V146.817H145.57V150.555H146.166L146.059 152.509H145.246L145.203 151.419H141.579V146.817H142.667Z" fill="#034EA2"/>
<path d="M151.639 146.817V151.418H150.605V148.856L150.642 148.403L148.547 151.291L148.491 151.418H147.485V146.817H148.518V149.422L148.48 149.832H148.518L150.621 146.944L150.678 146.817L151.639 146.817Z" fill="#034EA2"/>
<path d="M157.374 146.817V151.419H156.285V149.528H154.344V151.419H153.254V146.817H154.344V148.7H156.285V146.817H157.374Z" fill="#034EA2"/>
<path d="M160.171 146.817H161.63L163.308 151.419H162.196L161.84 150.477H159.922L159.59 151.419H158.493L160.171 146.817ZM160.894 147.589L160.179 149.755H161.601L160.894 147.589Z" fill="#034EA2"/>
<path d="M7.37939 101.683V91.1541H9.87355V95.8191L10.7963 95.2036L14.1661 91.1541H16.9519L12.7405 96.1593L17.3246 101.683H14.4088L10.9098 97.5361L9.87355 98.1192V101.683H7.37939Z" fill="#034EA2"/>
<path d="M32.2412 92.4013C33.2347 93.4056 33.7323 94.75 33.7323 96.4346C33.7323 98.1192 33.2347 99.469 32.2412 100.484C31.2585 101.488 29.8819 101.991 28.111 101.991C26.3399 101.991 24.9684 101.488 23.9966 100.484C23.0247 99.469 22.5396 98.1192 22.5396 96.4346C22.5396 94.75 23.0247 93.4056 23.9966 92.4013C24.9684 91.3862 26.3399 90.8787 28.111 90.8787C29.8819 90.8787 31.2585 91.3862 32.2412 92.4013ZM30.3791 98.9615C30.9191 98.3244 31.1893 97.4821 31.1893 96.4346C31.1893 95.3871 30.9191 94.5448 30.3791 93.9077C29.8391 93.2706 29.0829 92.952 28.111 92.952C27.15 92.952 26.4053 93.2706 25.8762 93.9077C25.347 94.5448 25.0826 95.3871 25.0826 96.4346C25.0826 97.4821 25.3413 98.3244 25.8596 98.9615C26.3779 99.5878 27.1284 99.901 28.111 99.901C29.0937 99.901 29.85 99.5878 30.3791 98.9615Z" fill="#034EA2"/>
<path d="M40.6646 101.683V91.1541H44.3094C45.6914 91.1541 46.75 91.451 47.4845 92.0449C48.2296 92.6389 48.6019 93.5298 48.6019 94.7176C48.6019 95.3655 48.4767 95.9379 48.2273 96.4346C47.9778 96.9205 47.6434 97.3093 47.2234 97.6009C46.8023 97.8817 46.3493 98.0922 45.8632 98.2326C45.388 98.3729 44.8913 98.4431 44.373 98.4431H42.9797V101.683L40.6646 101.683ZM43.872 93.033H42.9806V96.629H43.872C45.3188 96.629 46.0423 96.0243 46.0423 94.8148C46.0423 93.627 45.3188 93.033 43.872 93.033Z" fill="#034EA2"/>
<path d="M64.4119 91.1541V101.683H61.9177V93.1302H57.771V101.683H55.2759V91.1541H64.4119Z" fill="#034EA2"/>
<path d="M81.0477 92.4013C82.0412 93.4056 82.538 94.75 82.538 96.4346C82.538 98.1192 82.0412 99.469 81.0477 100.484C80.0651 101.488 78.6877 101.991 76.9166 101.991C75.1458 101.991 73.7749 101.488 72.8031 100.484C71.831 99.469 71.3442 98.1192 71.3442 96.4346C71.3442 94.75 71.831 93.4056 72.8031 92.4013C73.7749 91.3862 75.1458 90.8787 76.9166 90.8787C78.6877 90.8787 80.0651 91.3862 81.0477 92.4013ZM79.1847 98.9615C79.7247 98.3244 79.9949 97.4821 79.9949 96.4346C79.9949 95.3871 79.7247 94.5448 79.1847 93.9077C78.6448 93.2706 77.8885 92.952 76.9166 92.952C75.9556 92.952 75.2109 93.2706 74.6818 93.9077C74.1526 94.5448 73.8882 95.3871 73.8882 96.4346C73.8882 97.4821 74.1469 98.3244 74.6652 98.9615C75.1835 99.5878 75.934 99.901 76.9166 99.901C77.8993 99.901 78.6556 99.5878 79.1847 98.9615Z" fill="#034EA2"/>
<path d="M89.4692 101.683V91.1541H93.114C94.4963 91.1541 95.5549 91.451 96.2892 92.0449C97.0343 92.6389 97.4066 93.5298 97.4066 94.7176C97.4066 95.3655 97.2814 95.9379 97.032 96.4346C96.7825 96.9205 96.4483 97.3093 96.028 97.6009C95.607 97.8817 95.1531 98.0922 94.667 98.2326C94.1921 98.3729 93.6951 98.4431 93.1768 98.4431H91.7844V101.683L89.4692 101.683ZM92.6767 93.033H91.7862V96.629H92.6767C94.1237 96.629 94.8469 96.0243 94.8469 94.8148C94.8469 93.627 94.1237 93.033 92.6767 93.033Z" fill="#034EA2"/>
<path d="M106.138 91.1541H109.475L113.314 101.683H110.77L109.961 99.5284H105.571L104.809 101.683H102.299L106.138 91.1541ZM107.79 92.9196L106.138 97.8762H109.393L107.79 92.9196Z" fill="#034EA2"/>
<path d="M122.402 91.1541V99.7066H126.548V91.1541H129.043V99.7066H130.404L130.162 104.177H128.299L128.2 101.683H119.907V91.1541H122.402Z" fill="#034EA2"/>
<path d="M146.972 91.1541V101.683H144.608V95.8191L144.672 94.7824H144.634L139.839 101.391L139.711 101.683H137.411V91.1543H139.776V97.1151L139.696 98.0546H139.745L144.556 91.4458L144.685 91.1544L146.972 91.1541Z" fill="#034EA2"/>
<path d="M162.458 91.1541V101.683H160.142V97.9248H158.506L156.383 101.683H153.938L156.335 97.6819C155.687 97.4551 155.163 97.0933 154.764 96.5966C154.375 96.0999 154.181 95.4789 154.181 94.7338C154.181 93.6539 154.542 92.7901 155.266 92.1422C156 91.4834 156.934 91.1541 158.068 91.1541H162.458ZM156.546 94.6042C156.546 95.0794 156.702 95.4573 157.015 95.7381C157.339 96.0189 157.755 96.1593 158.263 96.1593H160.142V93.0492H158.231C157.745 93.0492 157.339 93.195 157.015 93.4866C156.702 93.7673 156.546 94.1399 156.546 94.6042Z" fill="#034EA2"/>
</svg>
