<svg width="37" height="38" viewBox="0 0 37 38" fill="none" xmlns="http://www.w3.org/2000/svg">
<path d="M3.8803 10.5093H10.4932C9.83624 12.9599 9.46047 15.7407 9.46047 18.6942H10.3446C10.3446 15.7235 10.7241 12.934 11.3823 10.5093H18.0567V18.6942H18.9409V10.5093H25.6152C26.2734 12.934 26.6529 15.7235 26.6529 18.6942H27.5383C27.5383 15.7407 27.1625 12.9599 26.5067 10.5093H33.1185C34.4717 12.934 35.2503 15.7235 35.2503 18.6942H36.1357C36.1357 8.93398 28.2248 0.993164 18.5012 0.993164C8.77768 0.993164 0.864258 8.93398 0.864258 18.6942H1.74844C1.74844 15.7235 2.52701 12.934 3.8803 10.5093ZM11.6439 9.62181C13.0205 5.2138 15.3661 2.22583 18.0567 1.92629V9.62181H11.6439ZM18.9409 9.62181V1.92629C21.6315 2.22583 23.9758 5.2138 25.3536 9.62181H18.9409ZM32.5794 9.62181H26.2452C25.2173 6.2702 23.6442 3.63969 21.7616 2.20611C26.2918 3.10841 30.1601 5.85232 32.5794 9.62181ZM15.2359 2.20611C13.3545 3.63969 11.7802 6.2702 10.7536 9.62181H4.41818C6.83739 5.85232 10.7057 3.10841 15.2359 2.20611ZM26.6529 22.3922V23.0578L22.1829 21.9484H18.807C18.1046 21.9484 17.4267 22.2048 16.8999 22.6696L16.3178 23.1811H10.3446V22.3922C10.3446 22.1469 10.1469 21.9484 9.90256 21.9484H1.30635V22.8372H9.46047V33.0424H1.30635V33.9312H9.90256C10.1469 33.9312 10.3446 33.7327 10.3446 33.4874V32.6985H11.5162L14.154 36.4483C14.4831 36.8168 14.9399 37.0067 15.4004 37.0067C15.7345 37.0067 16.0697 36.9068 16.3608 36.701L17.1504 36.1438C17.1971 36.1611 17.2339 36.1956 17.283 36.2091C17.4267 36.2461 17.5716 36.2658 17.7153 36.2658C18.0051 36.2658 18.2912 36.1894 18.5479 36.039L19.5696 35.4473C19.7563 35.5164 19.9491 35.5644 20.1492 35.5644C20.4317 35.5644 20.719 35.4917 20.9818 35.3401L22.0048 34.7472C22.1915 34.8162 22.3843 34.8643 22.5844 34.8643C22.8669 34.8643 23.1555 34.7916 23.4183 34.6399C24.1084 34.2393 24.3737 33.4196 24.1465 32.6973H26.6541V33.4862C26.6541 33.7315 26.8518 33.9299 27.0962 33.9299H35.6924V33.0424H27.5383V22.836H35.6912V21.9484H27.095C26.8506 21.9484 26.6529 22.1469 26.6529 22.3922ZM22.9749 33.872C22.6004 34.0889 22.1165 33.9595 21.9004 33.5836L20.0584 30.3811L19.2921 30.8236L21.2201 34.1765L20.5398 34.5697C20.164 34.7903 19.6826 34.6584 19.4652 34.2825L18.2372 32.1475L17.9302 31.6138L17.1651 32.0563L17.4721 32.5888L18.7002 34.7238L18.7026 34.7262L18.7874 34.8729L18.1058 35.2674C17.9265 35.3734 17.7153 35.4005 17.5127 35.3463C17.31 35.292 17.1418 35.1626 17.0362 34.9826L15.8057 32.844L15.0394 33.2865L16.2674 35.4215L16.2699 35.4252L16.373 35.6039L15.8524 35.9725C15.5269 36.203 15.0812 36.1512 14.8454 35.8936L12.1069 31.9959C12.0234 31.8776 11.8895 31.8073 11.7458 31.8073H10.3446V24.0686H15.3059L12.9898 26.1025C12.8179 26.2517 12.7147 26.4686 12.7074 26.6954C12.6988 26.9235 12.786 27.1466 12.9481 27.3081C13.9944 28.3583 15.6546 28.4495 16.809 27.5226L18.0407 26.5327H20.0706L23.2623 32.7922C23.4772 33.1706 23.3483 33.655 22.9749 33.872ZM23.7511 31.8098L20.7338 25.888C20.6576 25.7401 20.5054 25.6464 20.3408 25.6464H17.8848C17.7841 25.6464 17.687 25.681 17.6084 25.7438L16.2552 26.831C15.4533 27.4745 14.3014 27.4128 13.5707 26.7719L17.482 23.3364C17.8479 23.0135 18.3182 22.8372 18.807 22.8372L22.076 22.8236L26.6529 23.9725V31.8098H23.7511Z" fill="#034EA2" stroke="#034EA2"/>
</svg>
