<svg width="39" height="44" viewBox="0 0 39 44" fill="none" xmlns="http://www.w3.org/2000/svg">
<path fill-rule="evenodd" clip-rule="evenodd" d="M19.9694 39.5644C19.948 35.1989 19.9694 30.8441 19.9694 26.4787C19.9587 23.4721 19.4665 21.9206 20.9431 20.8293C22.1628 19.9305 23.8855 19.1173 25.79 19.2992C27.3093 19.449 29.6846 20.947 30.0805 21.6531C30.6155 22.6161 30.7225 25.933 30.8723 27.2491C31.3003 31.1758 31.8995 35.1561 32.2419 39.0829C29.8559 38.366 28.8073 37.4886 25.8007 37.6598C23.2221 37.8096 21.8739 38.6549 19.9694 39.5644ZM21.7027 29.5067C22.9867 29.9882 23.4361 28.7577 25.2657 28.533C27.2879 28.2762 28.2402 29.3569 29.4814 28.8647C29.5028 26.2433 24.4204 27.0458 22.8476 27.7841C21.8846 28.2549 21.3389 28.426 21.7027 29.5067ZM21.6706 25.5585C23.0937 25.9651 23.7677 24.4779 26.0682 24.5314C26.6139 24.542 31.1933 25.8367 29.2567 23.8787C28.0583 22.6696 21.0607 22.8301 21.6706 25.5585ZM21.7348 33.4763C22.9225 33.9257 23.4574 32.7166 25.2657 32.4919C27.2558 32.2458 28.2295 33.3158 29.4706 32.8343C29.5135 31.6145 29.2887 31.6573 28.1332 31.3257C25.8756 30.6836 20.8361 31.2935 21.7348 33.4763ZM9.00225 24.9914C10.4574 25.3445 11.4311 24.1461 13.785 24.6704C14.0525 24.7239 18.1825 26.8853 16.7916 24.6384C16.0854 23.4935 12.9718 22.7231 10.4788 23.3865C9.14133 23.7396 9.04507 23.6647 9.00225 24.9914ZM9.01293 28.9503C10.4681 29.2927 11.506 28.0836 13.7957 28.6293C13.7957 28.6293 18.2147 30.8763 16.7916 28.6186C16.2887 27.8268 14.0739 27.0993 12.7685 27.0458C11.9018 27.0137 11.3027 27.1207 10.4574 27.3454C9.14133 27.6877 9.01293 27.6236 9.01293 28.9503ZM9.03434 32.9092C10.5216 33.2515 11.4953 32.0318 13.8064 32.5989C13.8492 32.6096 18.0755 34.7602 16.813 32.5882C15.8607 30.9618 8.97016 29.8384 9.03434 32.9092ZM19.7768 5.68927C19.3702 3.46375 20.4615 2.81107 22.1735 2.25469C21.8739 4.25552 22.0665 6.09589 19.7768 5.68927ZM18.8138 7.10166C20.8574 7.36914 22.5373 7.15515 23.1151 5.18638C23.3933 4.26622 23.4147 3.20696 23.7357 2.34029C24.0566 1.45222 24.9875 0.564148 23.8961 0.221758C23.6822 0.14686 16.278 1.23822 18.8138 7.10166ZM23.2542 14.3988C22.7834 12.1518 24.7735 12.3017 26.6995 12.0449C26.1752 13.7461 25.362 14.8482 23.2542 14.3988ZM21.8418 15.319C27.3414 18.0153 28.9143 11.0284 28.7752 9.92633C27.5768 9.68025 27.6624 10.1296 26.5817 10.5041C25.7793 10.7823 24.7628 10.8251 23.9176 11.0391C21.799 11.5741 21.4352 12.8152 21.8418 15.319ZM13.8706 9.02755C15.3793 9.64816 16.7274 10.3757 16.1603 12.5798C14.994 12.6547 14.6302 12.6547 14.2878 11.6918C14.0953 11.1568 13.892 9.62675 13.8706 9.02755ZM11.6772 7.03743C11.4632 8.32141 11.827 7.97902 12.2656 9.16669C12.6187 10.1296 12.6294 11.1033 12.8862 12.0234C13.4533 14.0029 16.3208 14.891 17.348 13.5107C19.9266 10.0547 13.2286 6.14939 11.6772 7.03743ZM10.9496 39.1042C12.0088 38.9545 13.357 39.0187 14.6624 39.2755C16.2352 39.575 17.7331 40.1528 18.5891 40.9767C18.8245 41.2014 19.0278 41.4475 19.4879 41.501C19.948 41.4475 20.1406 41.2014 20.376 40.9767C21.2319 40.1528 22.7406 39.575 24.3027 39.2755C25.6081 39.0187 26.9562 38.9545 28.0155 39.1042C29.2567 39.2434 30.4336 39.65 31.5892 40.2063C31.5892 40.2492 31.5892 40.2919 31.5892 40.3347C28.7966 40.3561 26.004 40.3776 23.2007 40.3989C22.6657 40.3989 22.3554 40.6022 22.1521 40.9339C21.7562 41.9397 20.6755 42.1002 19.5307 42.1965V42.2072L19.4879 42.1965L19.4344 42.2072V42.1965C18.2895 42.1002 17.2089 41.9397 16.813 40.9339C16.6204 40.6022 16.2994 40.3989 15.7644 40.3989C12.9718 40.3776 10.1685 40.3561 7.37592 40.3347C7.37592 40.2919 7.37592 40.2492 7.37592 40.2063C8.53145 39.65 9.71912 39.2434 10.9496 39.1042ZM6.25243 39.1042C6.17752 38.2269 7.81458 22.4877 8.43519 21.589C10.0508 19.2243 14.0739 18.3149 17.5406 20.9256C18.4821 21.6317 18.5036 21.7387 18.4928 23.2688L18.4821 39.4253C16.9949 39.3396 12.7685 35.6804 6.25243 39.1042ZM31.7283 21.728H34.0073L36.7678 40.3989L33.8682 40.2598L31.7283 21.728ZM2.40058 40.3776C3.02116 34.9849 4.14462 29.1215 4.87219 23.6112C5.13968 21.6639 4.92569 21.7066 6.71255 21.7174L4.5405 40.3776H2.40058ZM20.8788 13.8531C21.0822 12.8366 20.9003 11.8416 20.6649 10.8893C20.3545 9.58393 20.3974 8.99546 19.1562 8.96338C18.1718 10.2794 20.2369 11.7239 19.1883 14.3025C18.2574 16.5815 18.0434 16.5708 18.2467 19.4918C13.0681 16.7099 11.9553 17.5017 8.02857 19.8663C6.89445 20.5511 5.58907 20.1124 3.99482 20.3799C3.34214 22.477 2.00469 32.8878 1.48041 36.4615C1.34131 37.403 1.20222 38.3125 1.06312 39.2327C0.624436 41.9504 0.966825 41.2977 1.21292 41.5331C1.92979 42.1644 12.6936 41.8327 14.641 41.8327C15.4969 41.9611 17.3159 45.064 21.7562 43.1701C23.3504 42.4961 22.7834 42.0146 23.6715 41.8327C25.8007 41.8327 37.0139 42.175 37.9341 41.608C38.3835 41.1372 38.0304 41.7899 38.2443 41.0302C38.4262 40.3561 37.7736 36.9644 37.6666 36.2047C37.1423 32.7915 35.7727 22.1988 35.1843 20.3371C29.1497 19.7058 33.5686 21.6104 28.9036 18.8606C25.3834 16.7848 22.548 18.1865 19.8089 19.7272C19.2204 15.9182 20.376 16.3889 20.8788 13.8531Z" fill="#034EA2" stroke="#034EA2" stroke-width="0.45"/>
</svg>
