<svg width="38" height="39" viewBox="0 0 38 39" fill="none" xmlns="http://www.w3.org/2000/svg">
<path fill-rule="evenodd" clip-rule="evenodd" d="M16.732 18.4394C18.1553 22.32 23.7927 25.9338 29.1411 26.7677C28.663 27.9463 24.6489 33.8062 23.8928 34.5623C18.5 39.8884 8.49264 34.4066 11.3614 26.4563C11.8951 24.9886 13.0182 23.5987 13.8744 22.3422C14.3525 21.6529 14.7862 21.0301 15.2198 20.3741C15.5311 19.9182 15.609 19.7515 15.8758 19.3845L16.732 18.4394ZM23.7816 13.091C25.1493 13.7137 24.9047 11.8345 27.2842 11.4899C27.6845 11.4343 28.5852 11.4565 29.2857 11.7011C30.2086 12.0347 30.9758 11.6789 30.62 10.9673C29.7749 9.24379 24.3932 9.76637 23.5815 12.1904C23.4814 12.4795 23.6037 12.8019 23.7816 13.091ZM14.4748 29.1583C14.9863 29.1027 15.0641 29.2917 15.2087 29.5586C16.1205 31.6713 12.7847 31.5378 13.6853 29.4919C13.8522 29.314 13.9077 29.2028 14.4748 29.1583ZM13.6631 27.824C10.5164 29.0583 12.3955 33.3725 15.3199 32.3495C18.0441 31.3933 16.8321 26.5787 13.6631 27.824ZM20.1679 31.3821C20.8128 31.2932 20.7683 31.4156 20.9796 31.6046C21.7357 33.9618 18.8336 33.5838 19.6119 31.7825C19.7342 31.6046 19.7231 31.4267 20.1679 31.3821ZM19.4563 30.0256C16.3873 31.2932 18.2331 35.563 21.1019 34.5401C24.0707 33.4837 22.6363 28.7135 19.4563 30.0256ZM19.8343 26.9011C19.6453 27.0901 19.2227 27.6239 18.6112 27.079C16.9322 25.6224 20.6349 24.3882 19.8343 26.9011ZM18.0219 24.2214C15.1531 25.8448 17.3436 29.9812 20.3236 28.5134C22.9365 27.2347 21.0129 22.5202 18.0219 24.2214ZM8.49264 11.9569C7.21391 11.1674 7.33623 9.88869 5.94634 10.5559C5.03456 12.4239 8.54828 11.7011 6.80255 16.2711C5.94634 15.5706 5.84627 14.5699 4.64539 15.326C3.6669 17.2163 6.98044 15.9598 6.06866 22.2533C5.51269 21.5639 5.10128 21.3749 4.48972 20.4742C1.13171 15.6151 2.61057 11.3009 6.45783 7.18673C7.73654 5.81906 8.71506 4.06222 10.3274 3.20605C12.0174 5.19639 13.6631 10.9228 13.2183 14.2475C12.7402 17.7834 9.81583 21.4972 7.72543 22.4868C7.314 19.3067 7.83663 18.6506 9.90481 17.8056C11.0278 17.3386 11.3948 17.7611 11.0612 16.5824C10.6165 15.604 9.66017 16.2933 8.34809 16.7159C9.2154 12.3238 12.3066 14.3586 12.3955 12.2904C11.8951 11.312 11.228 12.0681 9.8937 12.1014C10.3051 10.6226 11.1168 7.85391 10.1272 7.2757C9.67128 7.17561 9.24875 7.2757 9.09308 7.94283L8.49264 11.9569ZM10.7943 0.959961C9.04862 1.20458 3.28884 8.37648 2.1102 10.8561C-0.536183 16.4602 2.88855 21.7974 5.7462 24.2103C7.48079 25.6669 9.1376 23.3652 11.1279 21.5194C18.5778 14.6144 12.3733 2.23867 10.7943 0.959961ZM30.2308 25.3778C25.1382 24.9664 20.4458 21.764 18.5778 18.8175C17.7661 17.5276 17.4881 16.8827 18.411 15.5484C20.2124 12.9687 22.136 9.4328 24.3709 8.24305C29.4079 5.54108 34.5228 8.79902 35.5124 13.1911C36.6355 18.1836 31.9432 22.1977 30.2308 25.3778ZM36.869 17.4053C39.571 7.93171 27.6956 1.97181 21.5467 8.46546C19.8343 10.2668 10.3162 24.4104 9.73803 26.4786C7.09165 35.9966 18.878 41.9899 25.0492 35.4518C26.1722 34.2621 32.6659 24.3771 34.1559 22.1754C35.1344 20.7522 36.3019 19.3845 36.869 17.4053Z" fill="#034EA2" stroke="#034EA2" stroke-width="0.45"/>
</svg>
