<svg width="48" height="32" viewBox="0 0 48 32" fill="none" xmlns="http://www.w3.org/2000/svg">
<path d="M20.503 0.775879C19.6735 0.775879 19.0125 1.44987 19.0125 2.27292C19.0125 2.5176 19.0764 2.98627 19.1724 3.39853C19.2215 3.60896 19.2857 3.8374 19.3689 4.03327C19.4076 4.12441 19.4586 4.226 19.5241 4.32196V4.71973H19.3172C18.3699 4.71973 17.6095 5.4918 17.6095 6.43493C17.6095 7.37807 18.3699 8.1492 19.3172 8.1492H19.5241V12.1401L14.9558 15.4313C14.0263 16.1011 13.541 17.1141 13.2839 18.1546C13.0269 19.1941 12.9792 20.3332 12.9792 21.348C12.9792 21.8289 13.0163 23.7573 13.0864 25.6708C13.1215 26.6285 13.1653 27.5891 13.2171 28.3668C13.243 28.7552 13.2708 29.104 13.3017 29.3862C13.3306 29.6493 13.3671 29.9078 13.4212 30.0839C13.5107 30.3754 13.75 30.5042 13.8124 30.5372C13.912 30.5898 14.0181 30.6245 14.1067 30.6491C14.2892 30.6997 14.5212 30.7402 14.7772 30.7741C15.2961 30.8429 16.0089 30.898 16.8394 30.9415C18.5053 31.0288 20.7 31.0723 22.8868 31.076C25.0741 31.0796 27.2643 31.0429 28.923 30.9707C29.7503 30.9347 30.4568 30.8899 30.9673 30.8343C31.2194 30.8069 31.443 30.7748 31.6161 30.7356C31.6995 30.7167 31.7993 30.6896 31.8926 30.6491C31.9388 30.629 32.0079 30.5958 32.0779 30.5419C32.1416 30.4927 32.2633 30.3828 32.3233 30.1949C32.381 30.0139 32.4202 29.7493 32.4512 29.4811C32.4843 29.1944 32.5148 28.8414 32.5424 28.4486C32.5977 27.6622 32.6443 26.6928 32.6816 25.7263C32.7561 23.7945 32.7951 21.8488 32.7963 21.3499V21.348C32.7963 20.3335 32.7492 19.1934 32.4926 18.1536C32.2356 17.113 31.7509 16.0992 30.8197 15.4304L26.2034 12.1156V8.1492H26.4122C27.3595 8.1492 28.1208 7.37807 28.1208 6.43494C28.1208 5.4918 27.3595 4.71973 26.4122 4.71973H26.2034V4.32572C26.2692 4.23006 26.3197 4.12793 26.3586 4.03703C26.4426 3.84102 26.5075 3.61296 26.557 3.40229C26.654 2.98969 26.7188 2.52001 26.7188 2.27387C26.7188 1.45201 26.059 0.775882 25.2283 0.775882L20.503 0.775879ZM7.51478 1.33539C7.01734 1.33539 6.62615 1.73858 6.62615 2.22497V4.51755H6.56973C5.41898 4.51755 4.49342 5.45541 4.49342 6.60326V6.65216C4.49342 7.8 5.41898 8.73692 6.56973 8.73692H6.62615V12.0714C6.55848 12.0948 6.4907 12.1171 6.42303 12.141C5.22053 12.6422 4.12785 13.3763 3.20795 14.3019C2.28801 15.2276 1.55877 16.3269 1.06111 17.5358C0.563475 18.7447 0.306999 20.0396 0.306946 21.348V21.3499C0.311823 23.4189 0.957079 25.4349 2.15287 27.119C3.34871 28.8031 5.03583 30.0721 6.9816 30.7478C7.05108 30.7719 7.12432 30.7845 7.19788 30.7845H12.0069C11.9764 30.7079 11.9454 30.6336 11.9185 30.5456C11.7758 30.0803 11.7214 29.7649 11.6966 29.467H7.31073C5.66803 28.873 4.24251 27.7891 3.22582 26.3573C2.18808 24.8958 1.62785 23.1442 1.62345 21.3471C1.6236 20.2109 1.8468 19.0866 2.27888 18.037C2.71102 16.9872 3.3437 16.0331 4.14172 15.2301C4.93977 14.427 5.88687 13.7902 6.92894 13.3559C7.97102 12.9216 9.08781 12.6986 10.2155 12.6986C11.7226 12.6987 13.1885 13.0994 14.4753 13.8393L15.6338 13.0052C15.0419 12.6163 14.4109 12.2936 13.7531 12.0404V8.73692H13.8114C14.9622 8.73692 15.8877 7.8 15.8877 6.65216V6.60326C15.8877 5.45541 14.9622 4.51755 13.8114 4.51755H13.7531V2.22497C13.7531 1.73882 13.3621 1.33539 12.8645 1.33539H7.51478ZM20.503 2.09238H25.2283C25.32 2.09238 25.4023 2.16754 25.4023 2.27386C25.4023 2.3788 25.3604 2.73944 25.2753 3.10138C25.2338 3.27798 25.1895 3.42299 25.1484 3.51889C25.1443 3.52853 25.1404 3.5362 25.1371 3.54334C24.9815 3.6662 24.886 3.85576 24.886 4.06054V4.71973H20.8406V4.05866C20.8406 3.85509 20.7465 3.66722 20.5923 3.54428C20.5889 3.537 20.5852 3.52783 20.581 3.51795C20.5402 3.42172 20.4962 3.27707 20.455 3.10044C20.3707 2.73854 20.329 2.37774 20.329 2.27292C20.329 2.16779 20.4101 2.09238 20.503 2.09238ZM7.94265 2.65189H12.4366V4.51755H7.94265V2.65189ZM6.86876 5.6093H13.566C14.1367 5.6093 14.5966 6.06823 14.5966 6.63899C14.5966 7.20975 14.1367 7.66962 13.566 7.66962H6.86876C6.298 7.66962 5.83907 7.20975 5.83907 6.63899C5.83907 6.06823 6.298 5.6093 6.86876 5.6093ZM19.3172 6.03622H26.4122C26.6244 6.03622 26.8043 6.2112 26.8043 6.43493C26.8043 6.65867 26.6244 6.8327 26.4122 6.8327H19.3172C19.105 6.8327 18.926 6.65867 18.926 6.43493C18.926 6.2112 19.105 6.03622 19.3172 6.03622ZM20.8406 8.1492H24.886V12.4005C24.8695 12.6218 24.9625 12.8456 25.1559 12.9845L30.0514 16.5005C30.6308 16.9166 30.9969 17.5916 31.2137 18.4696C31.4306 19.3483 31.4789 20.3562 31.4789 21.3471C31.4777 21.8253 31.4392 23.754 31.3651 25.6765C31.328 26.6376 31.2826 27.5903 31.2287 28.3565C31.2018 28.7401 31.1731 29.0717 31.1431 29.3307C31.1365 29.3887 31.1297 29.4401 31.1234 29.4868C31.0408 29.4991 30.9413 29.5117 30.8244 29.5244C30.3566 29.5754 29.684 29.6195 28.8656 29.6551C27.2329 29.7262 25.0635 29.7622 22.8887 29.7586C20.7134 29.7548 18.5441 29.7116 16.909 29.626C16.0889 29.583 15.4168 29.5307 14.9502 29.4689C14.8226 29.452 14.7172 29.435 14.6323 29.4191C14.6256 29.3678 14.618 29.3089 14.6107 29.2423C14.5827 28.9866 14.5561 28.6592 14.5308 28.2794C14.4802 27.5208 14.4378 26.5754 14.4029 25.6229C14.3329 23.7159 14.2957 21.8055 14.2957 21.348C14.2957 20.3572 14.3455 19.3492 14.5628 18.4705C14.7797 17.5927 15.1457 16.917 15.725 16.4996L20.3554 13.1632H21.7621C22.1258 13.1632 22.4204 12.8686 22.4204 12.5049C22.4204 12.1413 22.1258 11.8467 21.7621 11.8467H20.8406V8.1492ZM7.94265 8.73692H12.4366V11.637C11.7137 11.4694 10.9693 11.3812 10.2155 11.3812C9.46301 11.3588 8.71177 11.4754 7.96051 11.6661L7.94265 8.73692ZM23.7153 11.8467C23.3516 11.8467 23.057 12.1413 23.057 12.5049C23.057 12.8686 23.3516 13.1632 23.7153 13.1632H23.7435C24.1071 13.1632 24.4017 12.8686 24.4017 12.5049C24.4017 12.1413 24.1071 11.8467 23.7435 11.8467H23.7153ZM42.2723 15.5912C38.6425 15.8182 35.8835 16.3019 33.7808 16.9914C33.8748 17.2552 33.9561 17.5181 34.0197 17.7756C34.0597 17.9376 34.0954 18.0994 34.1269 18.2599C35.7443 17.7277 37.8441 17.3032 40.6013 17.0468C40.1752 17.5593 39.7926 18.0999 39.4211 18.6445C39.2958 18.8283 39.1718 19.0124 39.0478 19.1965C38.4606 20.0681 37.8718 20.9422 37.1285 21.8041C36.3905 22.6597 35.4914 23.5054 34.3018 24.281C34.2865 24.7853 34.2754 25.249 34.2548 25.7893C34.2542 25.8058 34.2535 25.8217 34.2529 25.8382C35.9094 24.8823 37.1189 23.789 38.0952 22.657C38.8979 21.7263 39.5409 20.7718 40.1292 19.898C40.2497 19.7191 40.3679 19.5436 40.4847 19.3723C41.1836 18.3475 41.8394 17.4657 42.6889 16.761C42.9108 16.5768 42.997 16.2724 42.9023 16.0068C42.8076 15.7411 42.5536 15.5735 42.2723 15.5912ZM6.12023 17.2876C5.92524 17.2876 5.74035 17.374 5.61526 17.5236C4.70585 18.611 4.20634 19.9855 4.20379 21.4054V21.4082C4.20708 22.5161 4.51321 23.6018 5.08866 24.5471C5.66411 25.4925 6.48679 26.2611 7.46777 26.7682C7.56127 26.8165 7.66438 26.8416 7.76962 26.8416H11.564C11.5481 26.4754 11.5331 26.1061 11.5198 25.7301C11.5171 25.6565 11.5158 25.5984 11.5132 25.5251H7.93606C7.23048 25.1302 6.63658 24.5579 6.21333 23.8625C5.76331 23.1233 5.52317 22.2731 5.52029 21.4054C5.52245 20.3938 5.84655 19.4128 6.43996 18.6041H11.595C11.6398 18.3307 11.6926 18.0548 11.7614 17.7766C11.8013 17.6155 11.8475 17.452 11.8987 17.2876L6.12023 17.2876ZM17.7863 17.2876C17.4227 17.2876 17.1281 17.5822 17.1281 17.9458V27.1961C17.1281 27.5597 17.4227 27.8543 17.7863 27.8543H28.0061C28.3698 27.8543 28.6644 27.5597 28.6644 27.1961V17.9458C28.6644 17.5822 28.3698 17.2876 28.0061 17.2876H23.1952C22.8316 17.2876 22.537 17.5822 22.537 17.9458C22.537 18.3094 22.8316 18.605 23.1952 18.605H27.3479V26.5378H18.4446V18.605H19.4103C19.7739 18.605 20.0686 18.3094 20.0686 17.9458C20.0686 17.5822 19.7739 17.2876 19.4103 17.2876H17.7863ZM35.544 19.4316C35.4596 19.427 35.3721 19.4389 35.2864 19.4701C34.947 19.5936 34.6304 19.7218 34.3244 19.8529C34.3569 20.3419 34.3696 20.8139 34.3704 21.2596C34.7723 21.0724 35.2046 20.8911 35.6832 20.717C36.0262 20.5922 36.216 20.2122 36.1063 19.8679C36.0241 19.6096 35.7972 19.4452 35.544 19.4316ZM39.9524 22.5141C39.7178 22.8148 39.4683 23.1218 39.2001 23.4337C39.1656 23.4739 39.1272 23.514 39.092 23.5541C39.102 23.5583 39.1121 23.5621 39.1221 23.5663C40.1041 24.0048 41.0514 24.529 41.9573 25.1235C42.9183 25.7628 43.8041 26.4953 44.6928 27.2628C44.0084 27.3139 43.3427 27.426 42.7114 27.5318C42.5595 27.5572 42.4087 27.5822 42.261 27.6061L42.2544 27.607C42.137 27.6274 42.0199 27.6478 41.9037 27.6682C41.0332 27.8206 40.1937 27.9683 39.3374 28.0415L39.329 28.0424C37.7622 28.1984 36.1472 28.1265 34.5237 27.9334H34.5181C34.3964 27.9198 34.2749 27.9015 34.1532 27.8863C34.1401 28.1144 34.1274 28.3534 34.1128 28.5615C34.0944 28.8237 34.0883 29.0068 34.0799 29.2075C34.1871 29.2207 34.2942 29.236 34.4015 29.248C36.0807 29.4476 37.7902 29.5261 39.4738 29.3589C40.3876 29.2805 41.2838 29.1238 42.1472 28.9725C42.2622 28.9523 42.3766 28.9321 42.4904 28.9123C42.6503 28.8865 42.8077 28.8602 42.9634 28.8342C43.833 28.6892 44.6451 28.5539 45.4827 28.5578C45.8043 28.5804 46.1344 28.5928 46.4681 28.5822C46.7343 28.5738 46.9645 28.3986 47.0483 28.1412C47.1322 27.8838 47.0525 27.5968 46.8471 27.419C46.6412 27.2408 46.4347 27.0602 46.2265 26.8783C45.1004 25.8945 43.9331 24.8752 42.6437 24.0177L42.64 24.0148C41.7818 23.4515 40.8829 22.9501 39.9524 22.5141ZM37.9165 24.7549C37.5047 25.1342 37.0575 25.5077 36.5671 25.8702C37.4276 25.9611 38.2952 26.1664 39.1418 26.4607C39.2333 26.4975 39.3251 26.5346 39.4173 26.5717C39.5801 26.6372 39.7436 26.703 39.9063 26.7682C40.2406 26.902 40.6118 26.7349 40.7357 26.3949C40.8596 26.0549 40.6891 25.6711 40.3549 25.5373C40.193 25.4725 40.0322 25.4077 39.8706 25.3426C39.7734 25.3035 39.6763 25.2645 39.5781 25.2251C39.5689 25.2213 39.5594 25.2171 39.5499 25.2138C39.0178 25.0281 38.471 24.8744 37.9165 24.7549Z" fill="#034EA2" stroke="#034EA2" stroke-width="0.45"/>
</svg>
