<svg width="39" height="40" viewBox="0 0 39 40" fill="none" xmlns="http://www.w3.org/2000/svg">
<path fill-rule="evenodd" clip-rule="evenodd" d="M25.0106 17.768L24.6488 16.3825C23.4494 16.5686 23.6148 16.548 23.408 17.8508C23.2839 18.6469 23.1805 19.2466 22.9944 20.0014C22.6429 21.4179 22.2913 22.5966 21.764 23.9201C19.8202 28.7693 16.3047 32.1504 11.6623 34.3734C9.7185 35.3143 6.44087 36.7205 4.21787 37.2478C4.97266 34.4458 9.63578 33.4428 11.5072 32.1607C12.355 31.5817 14.2679 28.759 15.488 27.663C16.8424 26.4636 16.2531 26.7014 16.8114 24.8713C17.2147 23.5479 17.8144 23.3618 17.773 21.7901C17.6282 16.1861 17.6075 17.83 11.3935 17.83C9.01541 17.83 6.20306 17.675 5.10707 15.7931C11.6417 16.1034 17.2457 14.8006 21.4125 15.1004C27.6576 15.5657 30.4802 16.0413 36.4254 15.8035C36.0119 16.7341 36.5185 16.155 35.65 16.7547C33.334 18.3678 27.5541 17.737 25.0106 17.768ZM11.9105 27.3321C13.0685 26.5257 14.5678 24.3543 14.6401 22.4002C10.1321 20.0014 8.21924 26.019 11.9105 27.3321ZM22.2603 9.96162C21.1644 12.2467 17.7936 11.0059 18.6932 8.55545C19.5203 6.26009 23.3873 7.61457 22.2603 9.96162ZM19.2929 6.24973C15.6637 7.5939 17.4008 13.9424 21.6606 12.2673C25.3622 10.8095 23.5941 4.66777 19.2929 6.24973ZM25.7241 39.4088C26.5616 38.5919 29.1464 32.047 29.9529 30.3099C31.6693 26.5877 29.4773 27.539 30.7077 25.44L32.5895 20.6011C31.3694 20.7562 31.3901 20.4666 30.9559 21.573C30.5113 22.6897 30.2424 24.1372 29.1257 25.316C27.7506 24.9851 26.1583 24.0235 24.566 24.0545L24.2972 24.861C24.5247 25.1712 24.2972 24.9643 24.6798 25.2125L26.179 25.7502C30.6353 27.115 29.8702 27.1977 26.82 34.1149L25.569 36.9686C25.2174 37.5787 25.3415 37.3719 24.9693 37.7027C22.4878 34.2803 26.21 32.3365 26.1377 29.3794C25.6207 28.9658 24.6694 28.759 23.7802 28.6143C22.3947 28.3868 22.4878 28.3868 21.9398 29.5965L23.8216 29.9687C23.7699 30.0101 23.6975 30.0721 23.6561 30.1031C23.6252 30.1238 23.5424 30.1962 23.5011 30.2273L21.278 31.1371C20.1304 31.53 19.8305 31.9746 19.1895 32.9155C21.2367 32.6881 22.2397 32.2331 23.9147 31.6334C23.5527 33.2361 22.4568 34.301 22.7877 36.3276C23.0565 38.013 24.3283 39.1916 25.7241 39.4088ZM8.63284 30.465L9.67711 29.6585C2.12929 26.536 -2.33738 11.7297 7.87806 4.38861C10.07 2.80665 14.6297 0.893828 18.1969 1.89677C13.875 2.48612 10.8455 6.69435 11.4866 11.4712C11.6623 12.7843 11.5589 12.774 12.6859 12.774C13.4614 11.8124 11.4039 8.45207 14.5781 5.18476C15.8292 3.89231 19.5307 2.30001 22.3017 2.94106C25.1037 3.59246 28.6502 7.29405 30.108 10.2615C31.4935 13.0739 30.4079 12.9808 32.4241 13.0222C30.3562 3.02378 17.0492 -4.04849 6.92682 3.43737C0.568023 8.14185 -1.61362 17.737 3.23562 25.316C4.35228 27.0737 6.72005 29.8137 8.63284 30.465ZM24.473 19.1122C28.6502 18.833 33.8406 20.0014 36.8184 17.4061C37.2009 17.065 38.2038 16.0206 38.2969 15.2452C38.5244 13.4357 36.2497 15.0281 29.5704 14.418C17.2043 13.2703 19.7995 14.0458 9.86328 14.5524C8.27094 14.6351 4.30059 14.1078 3.33901 14.5007C2.63593 16.6203 5.78948 18.4401 7.90909 18.8537C10.6284 19.381 13.4717 18.9467 16.2324 19.0088C16.3772 20.2288 16.6563 21.8108 16.2944 22.8241C14.5987 27.6217 14.7331 26.4326 11.3728 30.4961C10.525 31.5197 7.27836 32.657 5.90321 33.4945C4.65213 34.2597 1.66401 36.4723 3.17358 38.8401C4.41432 38.9849 9.5427 36.7308 10.8869 36.1622C17.5972 33.3291 23.4183 27.5182 24.473 19.1122Z" fill="#034EA2" stroke="#034EA2" stroke-width="0.45"/>
</svg>
