<svg width="29" height="38" viewBox="0 0 29 38" fill="none" xmlns="http://www.w3.org/2000/svg">
<path d="M4.23629 2.16892C2.91179 2.55578 1.92538 3.64593 1.71984 5.04383C1.40096 7.21642 3.10197 9.04749 5.22175 9.04846C12.2301 9.05038 19.1349 9.05071 25.9364 9.04942C27.1735 9.04942 28.2589 10.0421 28.4529 11.2384C28.483 11.4224 28.4974 11.7041 28.4961 12.0835C28.4731 19.5692 28.4743 27.0077 28.4999 34.3988C28.5012 34.8812 28.4798 35.2237 28.4356 35.4263C28.2665 36.1971 27.6442 36.8628 26.8739 37.0721C26.6869 37.1229 26.3779 37.1483 25.947 37.1483C19.2825 37.1483 12.6184 37.1483 5.95459 37.1483C5.05815 37.1483 4.42167 37.1014 4.04516 37.0075C2.34127 36.584 1.01196 35.1832 0.62681 33.4669C0.541007 33.0836 0.499066 32.4736 0.500987 31.6368C0.515715 23.4243 0.515395 14.989 0.500027 6.33079C0.498746 5.47282 0.543248 4.85474 0.633534 4.47657C1.157 2.28661 3.05971 0.853016 5.2909 0.853016C12.6245 0.852372 19.9606 0.852051 27.2993 0.852051C27.9909 0.852051 28.134 1.82933 27.4828 2.00395C27.3996 2.02581 27.3025 2.03707 27.1918 2.03771C20.1662 2.04993 12.9325 2.04865 5.49068 2.03385C4.96754 2.03257 4.54941 2.07759 4.23629 2.16892ZM4.40054 10.1647C3.36994 9.98714 2.43443 9.47776 1.73905 8.70404C1.70127 8.6616 1.68238 8.66899 1.68238 8.72623C1.68046 16.3406 1.68078 24.2453 1.68334 32.4404C1.68334 34.0313 2.7341 35.3935 4.25166 35.8421C4.53468 35.9257 4.99603 35.9675 5.63571 35.9675C12.4615 35.9682 19.2873 35.9682 26.1132 35.9675C26.4032 35.9675 26.6168 35.9321 26.7538 35.8614C27.0842 35.6897 27.3138 35.3317 27.3138 34.9507C27.3144 26.4218 27.3144 18.6598 27.3138 11.6648C27.3138 10.9036 26.6683 10.2293 25.9095 10.2293C18.9697 10.2299 12.1977 10.2296 5.59345 10.2283C5.04534 10.2283 4.6477 10.2071 4.40054 10.1647Z" fill="#034EA2" stroke="#034EA2" stroke-width="0.456038"/>
<path d="M25.5715 4.95557H5.17093C4.85001 4.95557 4.58984 5.21688 4.58984 5.53923V5.54695C4.58984 5.8693 4.85001 6.13062 5.17093 6.13062H25.5715C25.8925 6.13062 26.1526 5.8693 26.1526 5.54695V5.53923C26.1526 5.21688 25.8925 4.95557 25.5715 4.95557Z" fill="#034EA2" stroke="#034EA2" stroke-width="0.456038"/>
<path fill-rule="evenodd" clip-rule="evenodd" d="M12.2329 22.3241C11.2386 21.7274 11.3337 20.7609 10.253 21.2652C9.54402 22.6771 12.2761 22.1308 10.9187 25.585C10.253 25.0555 10.1752 24.2991 9.24141 24.8706C8.48057 26.2993 11.057 25.3496 10.3481 30.1065C9.91579 29.5854 9.59589 29.4426 9.12037 28.7618C6.50932 25.0891 7.65922 21.8282 10.6507 18.7186C11.645 17.6849 12.4058 16.357 13.6595 15.7099C14.9736 17.2143 16.2532 21.5425 15.9074 24.0554C15.5356 26.728 13.2617 29.535 11.6363 30.283C11.3164 27.8794 11.7228 27.3835 13.3309 26.7448C14.2041 26.3918 14.4895 26.7111 14.2301 25.8203C13.8843 25.0807 13.1407 25.6018 12.1205 25.9211C12.7949 22.6014 15.1984 24.1394 15.2676 22.5762C14.8785 21.8366 14.3598 22.4081 13.3223 22.4333C13.6421 21.3156 14.2733 19.2229 13.5038 18.7859C13.1493 18.7102 12.8208 18.7859 12.6997 19.2901L12.2329 22.3241ZM14.0226 14.0122C12.6652 14.1971 8.18661 19.6179 7.27015 21.4921C5.21244 25.7279 7.87536 29.7619 10.0974 31.5857C11.4461 32.6866 12.7344 30.9469 14.2819 29.5518C20.0747 24.3327 15.2503 14.9787 14.0226 14.0122Z" fill="#034EA2" stroke="#034EA2" stroke-width="0.4"/>
<mask id="mask0_1224_44665" style="mask-type:alpha" maskUnits="userSpaceOnUse" x="12" y="10" width="14" height="25">
<path d="M12.5657 34.1609C23.2311 26.4778 18.4706 14.3958 13.4182 10.9009H25.3723V34.1609H12.5657Z" fill="white"/>
</mask>
<g mask="url(#mask0_1224_44665)">
<path fill-rule="evenodd" clip-rule="evenodd" d="M17.7703 22.6263C17.2075 21.6124 17.7732 20.8229 16.5851 20.7192C15.2652 21.5875 17.9044 22.4805 15.0018 24.7932C14.6899 24.0018 15.0007 23.3078 13.9063 23.3359C12.5331 24.1928 15.2392 24.6585 12.2468 28.4236C12.133 27.7562 11.9273 27.4725 11.8559 26.6452C11.431 22.1591 14.0573 19.91 18.2028 18.7127C19.5807 18.3146 20.9036 17.5451 22.3128 17.6115C22.6987 19.5714 21.6428 23.9595 20.0868 25.9629C18.4286 28.0915 15.0558 29.3855 13.2742 29.2206C14.199 26.979 14.7988 26.7528 16.5109 27.0037C17.4436 27.1346 17.531 27.5538 17.7518 26.6526C17.8221 25.8393 16.9176 25.9187 15.8744 25.6852C18.1183 23.1474 19.4308 25.6811 20.2724 24.362C20.3052 23.5269 19.5702 23.7625 18.6591 23.2656C19.495 22.4575 21.0879 20.9608 20.64 20.1976C20.3709 19.9548 20.0485 19.856 19.6916 20.2322L17.7703 22.6263ZM23.4761 16.3228C22.2082 15.8042 15.6192 18.2595 13.8884 19.4243C9.98852 22.0638 10.2776 26.8889 11.2901 29.5793C11.9076 31.2071 13.8932 30.3446 15.931 29.9102C23.5572 28.2867 24.0561 17.7737 23.4761 16.3228Z" fill="#034EA2" stroke="#034EA2" stroke-width="0.4"/>
</g>
</svg>
