<svg width="35" height="34" viewBox="0 0 35 34" fill="none" xmlns="http://www.w3.org/2000/svg">
<path d="M3.07245 24.9002L4.04822 24.6566L4.04814 24.6563L3.07245 24.9002ZM2.38796 13.7267L3.18067 14.3456L3.18101 14.3452L2.38796 13.7267ZM32.612 13.7267L31.8193 14.3456L31.8196 14.346L32.612 13.7267ZM31.9276 24.9002L32.9032 25.1443L32.9032 25.1442L31.9276 24.9002ZM29.0335 31.8338L29.6521 32.6268L29.6527 32.6263L29.0335 31.8338ZM5.96647 31.8338L5.34727 32.6263L5.34788 32.6268L5.96647 31.8338ZM29.5407 7.94752L30.511 7.68306L30.511 7.68298L29.5407 7.94752ZM28.3136 4.60308L29.1215 4.0041L29.1204 4.00271L28.3136 4.60308ZM26.3665 3.11883L26.0003 4.05552L26.0013 4.05592L26.3665 3.11883ZM5.45931 7.94752L4.48901 7.68298L4.48899 7.68306L5.45931 7.94752ZM6.68643 4.60308L5.87958 4.00271L5.87855 4.0041L6.68643 4.60308ZM8.63351 3.11883L8.99866 4.05592L8.99967 4.05552L8.63351 3.11883ZM13.9534 1.04053V0.034813V1.04053ZM21.0466 1.04053V0.034813V1.04053ZM11.4125 18.7735C11.4125 18.2181 10.9622 17.7678 10.4068 17.7678C9.85137 17.7678 9.40109 18.2181 9.40109 18.7735H11.4125ZM9.40109 25.8667C9.40109 26.4221 9.85137 26.8724 10.4068 26.8724C10.9622 26.8724 11.4125 26.4221 11.4125 25.8667H9.40109ZM25.5989 18.7735C25.5989 18.2181 25.1486 17.7678 24.5932 17.7678C24.0378 17.7678 23.5875 18.2181 23.5875 18.7735H25.5989ZM23.5875 25.8667C23.5875 26.4221 24.0378 26.8724 24.5932 26.8724C25.1486 26.8724 25.5989 26.4221 25.5989 25.8667H23.5875ZM18.5057 18.7735C18.5057 18.2181 18.0554 17.7678 17.5 17.7678C16.9446 17.7678 16.4943 18.2181 16.4943 18.7735H18.5057ZM16.4943 25.8667C16.4943 26.4221 16.9446 26.8724 17.5 26.8724C18.0554 26.8724 18.5057 26.4221 18.5057 25.8667H16.4943ZM4.04814 24.6563C3.27969 21.5825 2.73261 19.3843 2.56105 17.6969C2.39217 16.0358 2.61182 15.0742 3.18067 14.3456L1.59524 13.1078C0.566355 14.4256 0.367509 16.0077 0.559936 17.9004C0.749681 19.7666 1.34372 22.132 2.09676 25.1442L4.04814 24.6563ZM3.18101 14.3452C3.74881 13.6171 4.62849 13.1706 6.28181 12.9315C7.96108 12.6885 10.227 12.686 13.3948 12.686V10.6746C10.2904 10.6746 7.85096 10.6721 5.99382 10.9408C4.11075 11.2132 2.62307 11.7899 1.59491 13.1082L3.18101 14.3452ZM13.3948 12.686H21.6052V10.6746H13.3948V12.686ZM21.6052 12.686C24.7739 12.686 27.0394 12.6885 28.7182 12.9315C30.3707 13.1706 31.2505 13.617 31.8193 14.3456L33.4048 13.1078C32.3759 11.79 30.8892 11.2132 29.0062 10.9408C27.1495 10.6721 24.7104 10.6746 21.6052 10.6746V12.686ZM31.8196 14.346C32.3881 15.0734 32.6079 16.0351 32.4389 17.6969C32.2674 19.3848 31.7203 21.5835 30.9519 24.6563L32.9032 25.1442C33.6563 22.1328 34.2503 19.7671 34.4401 17.9003C34.6325 16.0075 34.4338 14.4246 33.4045 13.1074L31.8196 14.346ZM30.9519 24.6562C30.4618 26.6157 30.1146 27.9984 29.7189 29.0379C29.3328 30.052 28.9381 30.6321 28.4143 31.0413L29.6527 32.6263C30.5724 31.9077 31.1407 30.9566 31.5987 29.7536C32.047 28.5761 32.4251 27.0559 32.9032 25.1443L30.9519 24.6562ZM28.4149 31.0409C27.8913 31.4494 27.2326 31.6917 26.1549 31.8205C25.0505 31.9525 23.6246 31.9542 21.6052 31.9542V33.9656C23.5757 33.9656 25.1423 33.9673 26.3936 33.8177C27.6718 33.665 28.7323 33.3443 29.6521 32.6268L28.4149 31.0409ZM21.6052 31.9542H13.3948V33.9656H21.6052V31.9542ZM13.3948 31.9542C11.3754 31.9542 9.94954 31.9525 8.84505 31.8205C7.76739 31.6917 7.10875 31.4494 6.58507 31.0409L5.34788 32.6268C6.26766 33.3443 7.32824 33.665 8.60639 33.8177C9.85773 33.9673 11.4243 33.9656 13.3948 33.9656V31.9542ZM6.58567 31.0413C6.06174 30.632 5.66664 30.0517 5.28042 29.0378C4.88454 27.9985 4.53734 26.6158 4.04822 24.6566L2.09669 25.1439C2.57401 27.0558 2.95209 28.576 3.40074 29.7538C3.85905 30.9569 4.42774 31.9079 5.34727 32.6263L6.58567 31.0413ZM31.7701 12.3025L30.511 7.68306L28.5704 8.21199L29.8294 12.8314L31.7701 12.3025ZM30.511 7.68298C30.0477 5.98374 29.7598 4.86508 29.1215 4.0041L27.5057 5.20207C27.8639 5.68524 28.0619 6.34698 28.5704 8.21206L30.511 7.68298ZM29.1204 4.00271C28.5109 3.18352 27.683 2.55247 26.7316 2.18175L26.0013 4.05592C26.6009 4.28954 27.1226 4.68722 27.5067 5.20346L29.1204 4.00271ZM26.7327 2.18214C25.7329 1.79133 24.578 1.80811 22.8199 1.80811V3.81954C24.7502 3.81954 25.4396 3.83632 26.0003 4.05552L26.7327 2.18214ZM5.17059 12.8314L6.42963 8.21199L4.48899 7.68306L3.22995 12.3025L5.17059 12.8314ZM6.42961 8.21206C6.9381 6.34698 7.13608 5.68524 7.49432 5.20207L5.87855 4.0041C5.24019 4.86508 4.95229 5.98374 4.48901 7.68298L6.42961 8.21206ZM7.49328 5.20346C7.87741 4.68722 8.3991 4.28954 8.99866 4.05592L8.26837 2.18175C7.31696 2.55247 6.48913 3.18352 5.87958 4.00271L7.49328 5.20346ZM8.99967 4.05552C9.56042 3.83632 10.2498 3.81954 12.1801 3.81954V1.80811C10.422 1.80811 9.26711 1.79133 8.26735 2.18214L8.99967 4.05552ZM13.1858 2.81383C13.1858 2.61025 13.2667 2.41501 13.4106 2.27106L11.9883 0.848767C11.4672 1.36993 11.1744 2.07679 11.1744 2.81383H13.1858ZM13.4106 2.27106C13.5546 2.12711 13.7498 2.04624 13.9534 2.04624V0.034813C13.2164 0.034813 12.5095 0.327601 11.9883 0.848767L13.4106 2.27106ZM13.9534 2.04624H21.0466V0.034813H13.9534V2.04624ZM21.0466 2.04624C21.2502 2.04624 21.4454 2.12711 21.5894 2.27106L23.0117 0.848767C22.4905 0.327601 21.7836 0.034813 21.0466 0.034813V2.04624ZM21.5894 2.27106C21.7333 2.41501 21.8142 2.61025 21.8142 2.81383H23.8256C23.8256 2.07678 23.5328 1.36993 23.0117 0.848767L21.5894 2.27106ZM21.8142 2.81383C21.8142 3.0174 21.7333 3.21264 21.5894 3.35659L23.0117 4.77888C23.5328 4.25772 23.8256 3.55087 23.8256 2.81383H21.8142ZM21.5894 3.35659C21.4454 3.50054 21.2502 3.58141 21.0466 3.58141V5.59284C21.7836 5.59284 22.4905 5.30005 23.0117 4.77888L21.5894 3.35659ZM21.0466 3.58141H13.9534V5.59284H21.0466V3.58141ZM13.9534 3.58141C13.7498 3.58141 13.5546 3.50054 13.4106 3.35659L11.9883 4.77888C12.5095 5.30005 13.2164 5.59284 13.9534 5.59284V3.58141ZM13.4106 3.35659C13.2667 3.21264 13.1858 3.0174 13.1858 2.81383H11.1744C11.1744 3.55086 11.4672 4.25772 11.9883 4.77888L13.4106 3.35659ZM9.40109 18.7735V25.8667H11.4125V18.7735H9.40109ZM23.5875 18.7735V25.8667H25.5989V18.7735H23.5875ZM16.4943 18.7735V25.8667H18.5057V18.7735H16.4943Z" fill="#034EA2"/>
</svg>
