<svg width="39" height="48" viewBox="0 0 39 48" fill="none" xmlns="http://www.w3.org/2000/svg">
<path d="M11.8133 3.8229C20.5149 -0.380523 30.9766 3.26571 35.1801 11.967C36.9417 15.6134 37.3247 19.5689 36.5348 23.2433C36.9524 23.3443 37.3525 23.4995 37.7248 23.7016C38.6274 19.7078 38.2348 15.392 36.3153 11.4187C31.8089 2.09044 20.5935 -1.81849 11.265 2.68778C3.22698 6.57064 -0.78733 15.4345 1.13879 23.7804C1.50631 23.5651 1.9033 23.3965 2.3193 23.2819C0.640587 15.5605 4.38487 7.41135 11.8133 3.8229Z" fill="#034EA2"/>
<path fill-rule="evenodd" clip-rule="evenodd" d="M19.5122 14.9299C18.6593 14.9299 17.9689 15.6205 17.9689 16.4712C17.9689 17.3219 18.6593 18.0126 19.5122 18.0126C20.365 18.0126 21.0554 17.3219 21.0554 16.4712C21.0554 15.6205 20.365 14.9299 19.5122 14.9299ZM16.5931 16.4712C16.5931 14.8596 17.9006 13.5541 19.5122 13.5541C21.1237 13.5541 22.4312 14.8596 22.4312 16.4712C22.4312 18.0828 21.1237 19.3883 19.5122 19.3883C17.9006 19.3883 16.5931 18.0828 16.5931 16.4712Z" fill="#034EA2"/>
<path fill-rule="evenodd" clip-rule="evenodd" d="M8.95263 12.646C9.21119 12.5236 9.51845 12.574 9.72436 12.7726L16.8756 19.6687L16.8816 19.6745C17.3939 20.1808 17.7989 20.3952 18.159 20.4988C18.5415 20.6087 18.9234 20.6118 19.4754 20.6118C20.0274 20.6118 20.4093 20.6087 20.7917 20.4987C21.1519 20.3951 21.5568 20.1807 22.0692 19.6745L22.0752 19.6687L29.2264 12.7726C29.4323 12.574 29.7396 12.5236 29.9982 12.646C30.6369 12.9482 31.0297 13.6756 31.1433 14.4001C31.2637 15.1679 31.1036 16.0737 30.4848 16.8794C30.4794 16.8865 30.4739 16.8934 30.4682 16.9003L24.4072 24.1876C24.2927 24.3529 24.208 24.4822 24.1347 24.6516C24.0593 24.8261 23.9861 25.0682 23.94 25.4454L22.3495 41.9227C22.313 42.3008 21.9769 42.5778 21.5987 42.5413C21.2206 42.5048 20.9436 42.1686 20.9801 41.7905L22.5714 25.3049C22.572 25.2994 22.5725 25.294 22.5732 25.2886C22.6322 24.7984 22.735 24.4224 22.8718 24.1059C23.0077 23.7914 23.1673 23.5608 23.2944 23.378C23.3056 23.3618 23.3176 23.3461 23.3303 23.3309L29.4013 16.0315C29.7693 15.5467 29.8495 15.0305 29.7841 14.6132C29.7613 14.4676 29.7237 14.3457 29.6805 14.246L23.0331 20.6561C22.3913 21.2896 21.7932 21.6422 21.172 21.8209C20.5911 21.988 20.03 21.9878 19.5251 21.9876C19.5085 21.9876 19.4919 21.9876 19.4754 21.9876C19.4588 21.9876 19.4422 21.9876 19.4255 21.9876C18.9207 21.9878 18.3596 21.988 17.7788 21.8209C17.1576 21.6423 16.5595 21.2896 15.9177 20.6561L9.27028 14.246C9.22706 14.3457 9.18953 14.4676 9.16668 14.6132C9.10125 15.0305 9.18145 15.5467 9.54954 16.0315L15.6205 23.3309C15.6332 23.3461 15.6451 23.3618 15.6564 23.378C15.7835 23.5608 15.9431 23.7914 16.079 24.1059C16.2158 24.4224 16.3186 24.7984 16.3776 25.2886C16.3783 25.294 16.3788 25.2994 16.3794 25.3049L17.9707 41.7905C18.0072 42.1686 17.7302 42.5048 17.352 42.5413C16.9739 42.5778 16.6377 42.3008 16.6012 41.9227L15.0108 25.4454C14.9647 25.0682 14.8915 24.8261 14.8161 24.6516C14.7428 24.4822 14.6582 24.3529 14.5436 24.1876L8.48263 16.9003C8.47694 16.8934 8.4714 16.8865 8.46596 16.8794C7.84715 16.0737 7.6871 15.1679 7.80747 14.4001C7.92106 13.6756 8.31386 12.9482 8.95263 12.646Z" fill="#034EA2"/>
<path fill-rule="evenodd" clip-rule="evenodd" d="M12.455 44.0807C12.456 42.642 13.6165 41.4816 15.0563 41.4816H17.1757C17.5556 41.4816 17.8636 41.7896 17.8636 42.1695C17.8636 42.5494 17.5556 42.8574 17.1757 42.8574H15.0563C14.3761 42.8574 13.8313 43.4022 13.8308 44.0817L13.8292 46.5383C13.8289 46.918 13.521 47.2257 13.1413 47.2257H1.44286C1.06295 47.2257 0.754959 46.9177 0.754959 46.5379C0.754959 46.1579 1.06295 45.8499 1.44286 45.8499H12.4538L12.455 44.0807ZM20.9943 42.1695C20.9943 41.7896 21.3023 41.4816 21.6823 41.4816H23.783C25.2211 41.4816 26.3871 42.6407 26.3842 44.0826L26.3806 45.8499H37.4982C37.8781 45.8499 38.1861 46.1579 38.1861 46.5379C38.1861 46.9177 37.8781 47.2257 37.4982 47.2257H25.6913C25.5086 47.2257 25.3335 47.1531 25.2044 47.0238C25.0754 46.8945 25.0031 46.7191 25.0035 46.5365L25.0084 44.0798C25.0097 43.4035 24.4648 42.8574 23.783 42.8574H21.6823C21.3023 42.8574 20.9943 42.5494 20.9943 42.1695Z" fill="#034EA2"/>
<path fill-rule="evenodd" clip-rule="evenodd" d="M3.59467 27.2492C2.62607 27.2492 1.86625 28.0245 1.91393 28.889L2.28702 35.6552C2.30793 36.0346 2.01737 36.3591 1.63803 36.38C1.25869 36.4009 0.934215 36.1103 0.9133 35.731L0.540204 28.9647C0.443566 27.2122 1.93995 25.8734 3.59467 25.8734H10.5191C12.1738 25.8734 13.6702 27.2122 13.5735 28.9647L13.2005 35.731C13.1795 36.1103 12.8551 36.4009 12.4757 36.38C12.0964 36.3591 11.8058 36.0346 11.8267 35.6552L12.1998 28.889C12.2475 28.0245 11.4877 27.2492 10.5191 27.2492H3.59467ZM3.67977 29.3755C4.05849 29.3454 4.3899 29.628 4.41997 30.0067L5.54684 44.1945C5.57688 44.5732 5.29426 44.9046 4.91554 44.9347C4.53681 44.9647 4.20541 44.6821 4.17533 44.3034L3.04848 30.1156C3.01841 29.7369 3.30104 29.4055 3.67977 29.3755ZM10.4529 29.3755C10.8316 29.4055 11.1142 29.7369 11.0842 30.1156L9.95731 44.3034C9.92727 44.6821 9.59585 44.9647 9.21712 44.9347C8.8384 44.9046 8.55574 44.5732 8.58583 44.1945L9.71268 30.0067C9.74277 29.628 10.0742 29.3454 10.4529 29.3755Z" fill="#034EA2"/>
<path fill-rule="evenodd" clip-rule="evenodd" d="M6.84431 20.5285C5.99149 20.5285 5.30109 21.2192 5.30109 22.0699C5.30109 22.9206 5.99149 23.6112 6.84431 23.6112C7.69718 23.6112 8.38756 22.9206 8.38756 22.0699C8.38756 21.2192 7.69718 20.5285 6.84431 20.5285ZM3.92528 22.0699C3.92528 20.4583 5.23272 19.1528 6.84431 19.1528C8.45593 19.1528 9.76338 20.4583 9.76338 22.0699C9.76338 23.6815 8.45593 24.987 6.84431 24.987C5.23272 24.987 3.92528 23.6815 3.92528 22.0699Z" fill="#034EA2"/>
<path fill-rule="evenodd" clip-rule="evenodd" d="M35.4078 27.2493C36.3764 27.2493 37.1362 28.0245 37.0885 28.8891L36.7154 35.6553C36.6945 36.0347 36.9851 36.3592 37.3644 36.3801C37.7438 36.401 38.0682 36.1104 38.0891 35.7311L38.4622 28.9648C38.5589 27.2123 37.0625 25.8735 35.4078 25.8735H28.4834C26.8287 25.8735 25.3323 27.2123 25.4289 28.9648L25.802 35.7311C25.8229 36.1104 26.1474 36.401 26.5268 36.3801C26.9061 36.3592 27.1966 36.0347 27.1757 35.6553L26.8026 28.8891C26.755 28.0246 27.5148 27.2493 28.4834 27.2493H35.4078ZM35.3227 29.3755C34.944 29.3455 34.6125 29.6281 34.5825 30.0068L33.4557 44.1946C33.4256 44.5733 33.7082 44.9047 34.0869 44.9347C34.4656 44.9648 34.797 44.6822 34.8271 44.3035L35.954 30.1157C35.9841 29.737 35.7014 29.4056 35.3227 29.3755ZM28.5496 29.3755C28.1709 29.4056 27.8882 29.737 27.9183 30.1157L29.0451 44.3035C29.0752 44.6822 29.4066 44.9648 29.7853 44.9347C30.164 44.9047 30.4467 44.5733 30.4166 44.1946L29.2898 30.0068C29.2597 29.6281 28.9283 29.3455 28.5496 29.3755Z" fill="#034EA2"/>
<path fill-rule="evenodd" clip-rule="evenodd" d="M32.1592 20.5286C33.012 20.5286 33.7024 21.2193 33.7024 22.07C33.7024 22.9206 33.012 23.6113 32.1592 23.6113C31.3064 23.6113 30.616 22.9206 30.616 22.07C30.616 21.2193 31.3064 20.5286 32.1592 20.5286ZM35.0782 22.07C35.0782 20.4583 33.7708 19.1528 32.1592 19.1528C30.5476 19.1528 29.2402 20.4583 29.2402 22.07C29.2402 23.6815 30.5476 24.987 32.1592 24.987C33.7708 24.987 35.0782 23.6815 35.0782 22.07Z" fill="#034EA2"/>
<path fill-rule="evenodd" clip-rule="evenodd" d="M19.7724 23.2974C20.1205 23.2974 20.4027 23.5796 20.4027 23.9278V28.2249H20.4676C20.8157 28.2249 21.0979 28.5071 21.0979 28.8552C21.0979 29.2033 20.8157 29.4855 20.4676 29.4855H19.01C18.6618 29.4855 18.3796 29.2033 18.3796 28.8552C18.3796 28.5071 18.6618 28.2249 19.01 28.2249H19.142V25.9218C18.8881 26.1407 18.5042 26.1227 18.272 25.8762C18.0333 25.6229 18.0452 25.2239 18.2986 24.9853L19.142 24.1906V23.9278C19.142 23.5796 19.4242 23.2974 19.7724 23.2974Z" fill="#034EA2"/>
<path d="M11.8133 3.8229C20.5149 -0.380523 30.9766 3.26571 35.1801 11.967C36.9417 15.6134 37.3247 19.5689 36.5348 23.2433C36.9524 23.3443 37.3525 23.4995 37.7248 23.7016C38.6274 19.7078 38.2348 15.392 36.3153 11.4187C31.8089 2.09044 20.5935 -1.81849 11.265 2.68778C3.22698 6.57064 -0.78733 15.4345 1.13879 23.7804C1.50631 23.5651 1.9033 23.3965 2.3193 23.2819C0.640587 15.5605 4.38487 7.41135 11.8133 3.8229Z" stroke="#034EA2" stroke-width="0.45"/>
<path fill-rule="evenodd" clip-rule="evenodd" d="M19.5122 14.9299C18.6593 14.9299 17.9689 15.6205 17.9689 16.4712C17.9689 17.3219 18.6593 18.0126 19.5122 18.0126C20.365 18.0126 21.0554 17.3219 21.0554 16.4712C21.0554 15.6205 20.365 14.9299 19.5122 14.9299ZM16.5931 16.4712C16.5931 14.8596 17.9006 13.5541 19.5122 13.5541C21.1237 13.5541 22.4312 14.8596 22.4312 16.4712C22.4312 18.0828 21.1237 19.3883 19.5122 19.3883C17.9006 19.3883 16.5931 18.0828 16.5931 16.4712Z" stroke="#034EA2" stroke-width="0.45"/>
<path fill-rule="evenodd" clip-rule="evenodd" d="M8.95263 12.646C9.21119 12.5236 9.51845 12.574 9.72436 12.7726L16.8756 19.6687L16.8816 19.6745C17.3939 20.1808 17.7989 20.3952 18.159 20.4988C18.5415 20.6087 18.9234 20.6118 19.4754 20.6118C20.0274 20.6118 20.4093 20.6087 20.7917 20.4987C21.1519 20.3951 21.5568 20.1807 22.0692 19.6745L22.0752 19.6687L29.2264 12.7726C29.4323 12.574 29.7396 12.5236 29.9982 12.646C30.6369 12.9482 31.0297 13.6756 31.1433 14.4001C31.2637 15.1679 31.1036 16.0737 30.4848 16.8794C30.4794 16.8865 30.4739 16.8934 30.4682 16.9003L24.4072 24.1876C24.2927 24.3529 24.208 24.4822 24.1347 24.6516C24.0593 24.8261 23.9861 25.0682 23.94 25.4454L22.3495 41.9227C22.313 42.3008 21.9769 42.5778 21.5987 42.5413C21.2206 42.5048 20.9436 42.1686 20.9801 41.7905L22.5714 25.3049C22.572 25.2994 22.5725 25.294 22.5732 25.2886C22.6322 24.7984 22.735 24.4224 22.8718 24.1059C23.0077 23.7914 23.1673 23.5608 23.2944 23.378C23.3056 23.3618 23.3176 23.3461 23.3303 23.3309L29.4013 16.0315C29.7693 15.5467 29.8495 15.0305 29.7841 14.6132C29.7613 14.4676 29.7237 14.3457 29.6805 14.246L23.0331 20.6561C22.3913 21.2896 21.7932 21.6422 21.172 21.8209C20.5911 21.988 20.03 21.9878 19.5251 21.9876C19.5085 21.9876 19.4919 21.9876 19.4754 21.9876C19.4588 21.9876 19.4422 21.9876 19.4255 21.9876C18.9207 21.9878 18.3596 21.988 17.7788 21.8209C17.1576 21.6423 16.5595 21.2896 15.9177 20.6561L9.27028 14.246C9.22706 14.3457 9.18953 14.4676 9.16668 14.6132C9.10125 15.0305 9.18145 15.5467 9.54954 16.0315L15.6205 23.3309C15.6332 23.3461 15.6451 23.3618 15.6564 23.378C15.7835 23.5608 15.9431 23.7914 16.079 24.1059C16.2158 24.4224 16.3186 24.7984 16.3776 25.2886C16.3783 25.294 16.3788 25.2994 16.3794 25.3049L17.9707 41.7905C18.0072 42.1686 17.7302 42.5048 17.352 42.5413C16.9739 42.5778 16.6377 42.3008 16.6012 41.9227L15.0108 25.4454C14.9647 25.0682 14.8915 24.8261 14.8161 24.6516C14.7428 24.4822 14.6582 24.3529 14.5436 24.1876L8.48263 16.9003C8.47694 16.8934 8.4714 16.8865 8.46596 16.8794C7.84715 16.0737 7.6871 15.1679 7.80747 14.4001C7.92106 13.6756 8.31386 12.9482 8.95263 12.646Z" stroke="#034EA2" stroke-width="0.45"/>
<path fill-rule="evenodd" clip-rule="evenodd" d="M12.455 44.0807C12.456 42.642 13.6165 41.4816 15.0563 41.4816H17.1757C17.5556 41.4816 17.8636 41.7896 17.8636 42.1695C17.8636 42.5494 17.5556 42.8574 17.1757 42.8574H15.0563C14.3761 42.8574 13.8313 43.4022 13.8308 44.0817L13.8292 46.5383C13.8289 46.918 13.521 47.2257 13.1413 47.2257H1.44286C1.06295 47.2257 0.754959 46.9177 0.754959 46.5379C0.754959 46.1579 1.06295 45.8499 1.44286 45.8499H12.4538L12.455 44.0807ZM20.9943 42.1695C20.9943 41.7896 21.3023 41.4816 21.6823 41.4816H23.783C25.2211 41.4816 26.3871 42.6407 26.3842 44.0826L26.3806 45.8499H37.4982C37.8781 45.8499 38.1861 46.1579 38.1861 46.5379C38.1861 46.9177 37.8781 47.2257 37.4982 47.2257H25.6913C25.5086 47.2257 25.3335 47.1531 25.2044 47.0238C25.0754 46.8945 25.0031 46.7191 25.0035 46.5365L25.0084 44.0798C25.0097 43.4035 24.4648 42.8574 23.783 42.8574H21.6823C21.3023 42.8574 20.9943 42.5494 20.9943 42.1695Z" stroke="#034EA2" stroke-width="0.45"/>
<path fill-rule="evenodd" clip-rule="evenodd" d="M3.59467 27.2492C2.62607 27.2492 1.86625 28.0245 1.91393 28.889L2.28702 35.6552C2.30793 36.0346 2.01737 36.3591 1.63803 36.38C1.25869 36.4009 0.934215 36.1103 0.9133 35.731L0.540204 28.9647C0.443566 27.2122 1.93995 25.8734 3.59467 25.8734H10.5191C12.1738 25.8734 13.6702 27.2122 13.5735 28.9647L13.2005 35.731C13.1795 36.1103 12.8551 36.4009 12.4757 36.38C12.0964 36.3591 11.8058 36.0346 11.8267 35.6552L12.1998 28.889C12.2475 28.0245 11.4877 27.2492 10.5191 27.2492H3.59467ZM3.67977 29.3755C4.05849 29.3454 4.3899 29.628 4.41997 30.0067L5.54684 44.1945C5.57688 44.5732 5.29426 44.9046 4.91554 44.9347C4.53681 44.9647 4.20541 44.6821 4.17533 44.3034L3.04848 30.1156C3.01841 29.7369 3.30104 29.4055 3.67977 29.3755ZM10.4529 29.3755C10.8316 29.4055 11.1142 29.7369 11.0842 30.1156L9.95731 44.3034C9.92727 44.6821 9.59585 44.9647 9.21712 44.9347C8.8384 44.9046 8.55574 44.5732 8.58583 44.1945L9.71268 30.0067C9.74277 29.628 10.0742 29.3454 10.4529 29.3755Z" stroke="#034EA2" stroke-width="0.45"/>
<path fill-rule="evenodd" clip-rule="evenodd" d="M6.84431 20.5285C5.99149 20.5285 5.30109 21.2192 5.30109 22.0699C5.30109 22.9206 5.99149 23.6112 6.84431 23.6112C7.69718 23.6112 8.38756 22.9206 8.38756 22.0699C8.38756 21.2192 7.69718 20.5285 6.84431 20.5285ZM3.92528 22.0699C3.92528 20.4583 5.23272 19.1528 6.84431 19.1528C8.45593 19.1528 9.76338 20.4583 9.76338 22.0699C9.76338 23.6815 8.45593 24.987 6.84431 24.987C5.23272 24.987 3.92528 23.6815 3.92528 22.0699Z" stroke="#034EA2" stroke-width="0.45"/>
<path fill-rule="evenodd" clip-rule="evenodd" d="M35.4078 27.2493C36.3764 27.2493 37.1362 28.0245 37.0885 28.8891L36.7154 35.6553C36.6945 36.0347 36.9851 36.3592 37.3644 36.3801C37.7438 36.401 38.0682 36.1104 38.0891 35.7311L38.4622 28.9648C38.5589 27.2123 37.0625 25.8735 35.4078 25.8735H28.4834C26.8287 25.8735 25.3323 27.2123 25.4289 28.9648L25.802 35.7311C25.8229 36.1104 26.1474 36.401 26.5268 36.3801C26.9061 36.3592 27.1966 36.0347 27.1757 35.6553L26.8026 28.8891C26.755 28.0246 27.5148 27.2493 28.4834 27.2493H35.4078ZM35.3227 29.3755C34.944 29.3455 34.6125 29.6281 34.5825 30.0068L33.4557 44.1946C33.4256 44.5733 33.7082 44.9047 34.0869 44.9347C34.4656 44.9648 34.797 44.6822 34.8271 44.3035L35.954 30.1157C35.9841 29.737 35.7014 29.4056 35.3227 29.3755ZM28.5496 29.3755C28.1709 29.4056 27.8882 29.737 27.9183 30.1157L29.0451 44.3035C29.0752 44.6822 29.4066 44.9648 29.7853 44.9347C30.164 44.9047 30.4467 44.5733 30.4166 44.1946L29.2898 30.0068C29.2597 29.6281 28.9283 29.3455 28.5496 29.3755Z" stroke="#034EA2" stroke-width="0.45"/>
<path fill-rule="evenodd" clip-rule="evenodd" d="M32.1592 20.5286C33.012 20.5286 33.7024 21.2193 33.7024 22.07C33.7024 22.9206 33.012 23.6113 32.1592 23.6113C31.3064 23.6113 30.616 22.9206 30.616 22.07C30.616 21.2193 31.3064 20.5286 32.1592 20.5286ZM35.0782 22.07C35.0782 20.4583 33.7708 19.1528 32.1592 19.1528C30.5476 19.1528 29.2402 20.4583 29.2402 22.07C29.2402 23.6815 30.5476 24.987 32.1592 24.987C33.7708 24.987 35.0782 23.6815 35.0782 22.07Z" stroke="#034EA2" stroke-width="0.45"/>
<path fill-rule="evenodd" clip-rule="evenodd" d="M19.7724 23.2974C20.1205 23.2974 20.4027 23.5796 20.4027 23.9278V28.2249H20.4676C20.8157 28.2249 21.0979 28.5071 21.0979 28.8552C21.0979 29.2033 20.8157 29.4855 20.4676 29.4855H19.01C18.6618 29.4855 18.3796 29.2033 18.3796 28.8552C18.3796 28.5071 18.6618 28.2249 19.01 28.2249H19.142V25.9218C18.8881 26.1407 18.5042 26.1227 18.272 25.8762C18.0333 25.6229 18.0452 25.2239 18.2986 24.9853L19.142 24.1906V23.9278C19.142 23.5796 19.4242 23.2974 19.7724 23.2974Z" stroke="#034EA2" stroke-width="0.45"/>
</svg>
