<svg width="35" height="36" viewBox="0 0 35 36" fill="none" xmlns="http://www.w3.org/2000/svg">
<path d="M10.8494 8.14763C15.2857 8.11335 19.7222 8.11984 24.1585 8.14737M10.8494 8.14763C10.8569 6.75065 10.8806 5.24728 10.9557 4.68845C11.0749 2.96311 11.8833 1.76009 14.0439 1.58196C14.8408 1.47486 15.9094 1.47217 17.5 1.47217C19.0906 1.47217 20.1591 1.47481 20.9561 1.58196C22.6991 1.72241 23.8954 2.55106 24.0522 4.68819C24.1274 5.24702 24.1511 6.75039 24.1585 8.14737M10.8494 8.14763L9.66542 8.17031C6.32871 8.27927 4.32534 8.66879 2.93309 10.061C1 11.9941 1 15.1055 1 21.3279C1 27.5504 1 30.6619 2.93309 32.5948C4.86617 34.5279 7.97744 34.5279 14.2 34.5279H20.8C27.0225 34.5279 30.1339 34.5279 32.0668 32.5948C34 30.6619 34 27.5504 34 21.3279C34 15.1055 34 11.9941 32.0668 10.061C30.6745 8.66879 28.6713 8.27927 25.3345 8.17031L24.1585 8.14737" stroke="#034EA2" stroke-width="2"/>
<path d="M17.5048 14.1421C17.1793 14.1421 16.9296 14.3918 16.9296 14.7173V14.7341C16.9297 14.8816 16.8805 15.025 16.7898 15.1414C16.6991 15.2577 16.5722 15.3405 16.4291 15.3766C14.865 15.7706 13.6289 16.941 13.6289 18.5669C13.6289 19.562 14.0788 20.3587 14.7992 20.9496C15.5196 21.5405 16.5152 21.8918 17.5048 21.8918C19.1502 21.8918 20.2293 22.9445 20.2293 24.0674C20.2293 25.1902 19.1499 26.2419 17.5048 26.2419C15.8596 26.2419 14.7793 25.1909 14.7793 24.0674C14.7793 23.7419 14.5296 23.4922 14.2041 23.4922C13.8787 23.4922 13.6289 23.7419 13.6289 24.0674C13.6289 25.6932 14.865 26.8636 16.4291 27.2577C16.5722 27.2937 16.6991 27.3765 16.7898 27.4929C16.8805 27.6093 16.9297 27.7526 16.9296 27.9002V27.917C16.9296 28.2424 17.1794 28.4922 17.5048 28.4922C17.8302 28.4922 18.0789 28.243 18.0789 27.917V27.9002C18.0789 27.7526 18.1281 27.6093 18.2188 27.4929C18.3095 27.3765 18.4364 27.2937 18.5795 27.2577C20.1435 26.8636 21.3797 25.6932 21.3797 24.0674C21.3797 23.0723 20.9305 22.2747 20.2104 21.6836C19.4902 21.0925 18.4943 20.7414 17.5048 20.7414C15.8597 20.7414 14.7793 19.6905 14.7793 18.5669C14.7793 17.4433 15.8597 16.3923 17.5048 16.3923C19.1499 16.3923 20.2293 17.444 20.2293 18.5669C20.2293 18.8923 20.4791 19.1421 20.8045 19.1421C21.1298 19.1421 21.3797 18.8922 21.3797 18.5669C21.3797 16.941 20.1435 15.7706 18.5795 15.3766C18.4364 15.3405 18.3095 15.2577 18.2188 15.1414C18.1281 15.025 18.0789 14.8816 18.0789 14.7341V14.7173C18.0789 14.3911 17.8302 14.1421 17.5048 14.1421Z" fill="#034EA2" stroke="#034EA2" stroke-width="0.8"/>
</svg>
