<svg width="26" height="26" viewBox="0 0 26 26" fill="none" xmlns="http://www.w3.org/2000/svg">
<path d="M9.425 11.5917L16.575 7.90833M9.425 14.4083L16.575 18.0917M3.25 13C3.25 13.862 3.59241 14.6886 4.2019 15.2981C4.8114 15.9076 5.63805 16.25 6.5 16.25C7.36195 16.25 8.1886 15.9076 8.7981 15.2981C9.40759 14.6886 9.75 13.862 9.75 13C9.75 12.138 9.40759 11.3114 8.7981 10.7019C8.1886 10.0924 7.36195 9.75 6.5 9.75C5.63805 9.75 4.8114 10.0924 4.2019 10.7019C3.59241 11.3114 3.25 12.138 3.25 13ZM16.25 6.5C16.25 7.36195 16.5924 8.1886 17.2019 8.7981C17.8114 9.40759 18.638 9.75 19.5 9.75C20.362 9.75 21.1886 9.40759 21.7981 8.7981C22.4076 8.1886 22.75 7.36195 22.75 6.5C22.75 5.63805 22.4076 4.8114 21.7981 4.2019C21.1886 3.59241 20.362 3.25 19.5 3.25C18.638 3.25 17.8114 3.59241 17.2019 4.2019C16.5924 4.8114 16.25 5.63805 16.25 6.5ZM16.25 19.5C16.25 20.362 16.5924 21.1886 17.2019 21.7981C17.8114 22.4076 18.638 22.75 19.5 22.75C20.362 22.75 21.1886 22.4076 21.7981 21.7981C22.4076 21.1886 22.75 20.362 22.75 19.5C22.75 18.638 22.4076 17.8114 21.7981 17.2019C21.1886 16.5924 20.362 16.25 19.5 16.25C18.638 16.25 17.8114 16.5924 17.2019 17.2019C16.5924 17.8114 16.25 18.638 16.25 19.5Z" stroke="#001855" stroke-width="2" stroke-linecap="round" stroke-linejoin="round"/>
</svg>
