<svg width="26" height="26" viewBox="0 0 26 26" fill="none" xmlns="http://www.w3.org/2000/svg">
<path d="M21.1249 13.6196L12.9999 21.6666L4.87492 13.6196C4.339 13.0981 3.91687 12.4713 3.6351 11.7786C3.35333 11.086 3.21803 10.3425 3.23772 9.59496C3.25741 8.84744 3.43166 8.11209 3.74951 7.43523C4.06735 6.75836 4.5219 6.15464 5.08453 5.66208C5.64716 5.16951 6.30568 4.79878 7.01863 4.57322C7.73158 4.34766 8.48351 4.27216 9.22707 4.35148C9.97063 4.4308 10.6897 4.66322 11.339 5.0341C11.9884 5.40497 12.5539 5.90628 12.9999 6.50645C13.4479 5.91064 14.0141 5.41371 14.6629 5.04677C15.3118 4.67983 16.0295 4.45077 16.7709 4.37393C17.5124 4.29709 18.2618 4.37412 18.9721 4.60021C19.6824 4.82629 20.3384 5.19656 20.8991 5.68784C21.4598 6.17912 21.913 6.78084 22.2304 7.45533C22.5478 8.12982 22.7226 8.86257 22.7438 9.60771C22.765 10.3529 22.6321 11.0944 22.3536 11.7858C22.075 12.4772 21.6567 13.1038 21.1249 13.6261" stroke="#001855" stroke-width="2" stroke-linecap="round" stroke-linejoin="round"/>
</svg>
