<svg width="24" height="25" viewBox="0 0 24 25" fill="none" xmlns="http://www.w3.org/2000/svg">
<path d="M19 21.0181V5.01807C19 4.48763 18.7893 3.97893 18.4142 3.60385C18.0391 3.22878 17.5304 3.01807 17 3.01807H7C6.46957 3.01807 5.96086 3.22878 5.58579 3.60385C5.21071 3.97893 5 4.48763 5 5.01807V21.0181M19 21.0181H21M19 21.0181H14M5 21.0181H3M5 21.0181H10M14 21.0181V16.0181C14 15.7528 13.8946 15.4985 13.7071 15.311C13.5196 15.1234 13.2652 15.0181 13 15.0181H11C10.7348 15.0181 10.4804 15.1234 10.2929 15.311C10.1054 15.4985 10 15.7528 10 16.0181V21.0181M14 21.0181H10M9 7.01807H10M9 11.0181H10M14 7.01807H15M14 11.0181H15" stroke="#001855" stroke-width="1.5" stroke-linecap="round" stroke-linejoin="round"/>
</svg>
