<svg width="364" height="364" viewBox="0 0 364 364" fill="none" xmlns="http://www.w3.org/2000/svg">
<g filter="url(#filter0_b_438_78800)">
<g opacity="0.8">
<path fill-rule="evenodd" clip-rule="evenodd" d="M77.7812 181.826C77.7812 124.361 124.728 77.4136 182.194 77.4136C239.708 77.4136 286.607 124.361 286.607 181.826C286.607 239.34 239.708 286.239 182.194 286.239C124.728 286.239 77.7812 239.34 77.7812 181.826ZM95.0547 181.392C95.0547 229.401 134.185 268.58 182.194 268.58C230.251 268.58 269.381 229.401 269.381 181.392C269.381 133.383 230.251 94.2045 182.194 94.2045C134.185 94.2045 95.0547 133.383 95.0547 181.392ZM192.447 93.1044L192.541 92.7603C192.566 92.6685 192.633 92.5504 192.74 92.3964L192.79 92.3258L192.84 92.2575C192.916 92.1509 193.001 92.0331 193.065 91.9285C193.154 91.7829 193.269 91.5651 193.234 91.3338C193.192 91.0541 192.967 90.8975 192.711 90.8152C187.693 89.1949 182.301 89.5772 176.941 90.7743C176.731 90.8211 176.593 90.9737 176.514 91.1161C176.434 91.2614 176.392 91.4331 176.39 91.5955C176.389 91.7538 176.425 91.9427 176.546 92.0921C176.683 92.2599 176.89 92.3328 177.12 92.2961C182.78 91.3545 187.775 90.8825 192.125 92.9512L192.447 93.1044ZM177.137 82.7241C183.479 84.1639 187.753 83.7756 192.337 82.4103C192.534 82.3527 192.825 82.2236 192.86 81.9074C192.876 81.7643 192.828 81.6337 192.768 81.5276C192.707 81.4201 192.618 81.3129 192.512 81.2055L192.39 81.0821L192.223 81.1269C187.113 82.4937 182.732 82.0831 177.66 80.5648C177.366 80.4767 177.108 80.6235 176.943 80.7833C176.773 80.9482 176.641 81.1782 176.565 81.4121C176.49 81.6437 176.457 81.9169 176.531 82.1648C176.61 82.4329 176.81 82.6507 177.137 82.7241ZM182.994 85.8991C182.648 85.9575 182.3 86.0164 181.951 86.0735L181.778 86.9227L183.404 87.0433L183.582 88.4184C183.614 88.6479 183.901 88.6479 184.19 88.6479C184.339 88.6479 184.489 88.6479 184.605 88.679L185.068 87.439L187.529 87.0288C187.881 86.9712 188.03 86.5946 188.178 86.2167C188.254 86.0253 188.329 85.8335 188.431 85.6827L185.425 86.1073L185.435 84.6935L184.465 84.6308L183.881 85.7502C183.586 85.799 183.29 85.8492 182.994 85.8991Z" fill="url(#paint0_linear_438_78800)" fill-opacity="0.89"/>
<path fill-rule="evenodd" clip-rule="evenodd" d="M103.251 157.642L119.762 158.742L126.864 149.492L126.965 158.848L137.296 159.258L126.835 164.392L126.994 177.414L121.296 167.436L110.199 172.633L116.399 163.779L103.251 157.642Z" fill="url(#paint1_linear_438_78800)" fill-opacity="0.89"/>
<path fill-rule="evenodd" clip-rule="evenodd" d="M192.151 230.669C195.263 229.958 198.248 228.841 200.832 227.264C198.932 224.526 194.93 222.698 190.337 221.682C187.384 221.03 184.171 220.72 181.063 220.73C177.987 220.734 175.048 221.058 172.61 221.655C169.233 222.489 166.909 223.751 166.863 225.3C166.808 227.31 169.205 229.042 172.819 230.213C175.362 231.038 178.479 231.534 181.82 231.639C185.192 231.744 188.751 231.448 192.151 230.669ZM188.355 212.399C194.488 212.016 200.631 210.699 205.854 208.106C203.293 206.005 199.483 204.301 195.113 203.007C190.013 201.498 184.157 200.573 178.57 200.222C173.006 199.876 167.752 200.099 163.819 200.888C160.114 201.631 157.726 202.733 157.817 204.119C157.917 205.773 160.351 207.546 164.17 209.082C167.15 210.28 170.901 211.251 175.048 211.852C179.208 212.454 183.765 212.686 188.355 212.399ZM205.134 190.908C208.707 190.005 212.042 188.884 214.982 187.54C214.435 187.08 213.829 186.629 213.168 186.196C210.133 184.186 206.045 182.472 201.392 181.096C196.689 179.702 191.417 178.658 186.071 178.011C170.03 176.074 153.511 177.569 150.412 183.771C151.064 187.955 157.557 190.912 166.453 192.475C172.113 193.469 178.698 193.852 185.424 193.601C192.151 193.35 198.986 192.457 205.134 190.908ZM140.787 161.92C140.022 162.029 139.261 162.134 139.046 160.607C138.837 159.085 139.602 158.981 140.363 158.871C163.318 155.631 183.838 155.955 199.342 158.37C217.648 161.227 229.177 167.206 229.952 173.91C229.952 173.919 229.961 174.115 229.961 174.124C229.806 180.112 225.933 184.847 219.94 188.406C221.549 190.835 222.023 193.546 220.993 196.504L220.965 196.577C218.814 201.931 215.182 205.96 210.698 208.895C211.956 210.809 212.535 212.96 212.225 215.361C211.5 221.03 208.679 225.273 204.742 228.331C204.911 228.914 205.024 229.529 205.079 230.167C205.266 232.373 205.006 234.405 204.386 236.26C203.211 239.756 200.736 242.49 197.451 244.436C194.261 246.318 190.314 247.457 186.076 247.808C181.232 248.218 175.95 247.603 170.951 245.921C170.222 245.675 169.483 245.429 169.976 243.971C170.463 242.513 171.192 242.759 171.926 243.005C176.492 244.54 181.35 245.101 185.821 244.723C189.626 244.408 193.121 243.415 195.883 241.779C198.549 240.202 200.549 238.028 201.47 235.285C201.948 233.85 202.144 232.227 201.994 230.418L201.967 230.186C199.205 231.785 196.079 232.929 192.839 233.672C189.157 234.515 185.329 234.838 181.742 234.729C178.128 234.615 174.71 234.059 171.876 233.139C166.941 231.544 163.682 228.787 163.778 225.227C163.865 222.056 167.141 219.832 171.876 218.665C174.565 218.004 177.759 217.653 181.063 217.644C184.349 217.635 187.789 217.972 190.998 218.683C196.293 219.85 200.941 222.06 203.352 225.469C206.433 222.899 208.602 219.454 209.176 214.978C209.386 213.338 208.962 211.834 208.041 210.458C202.254 213.525 195.386 215.056 188.55 215.484H188.541C183.775 215.781 178.999 215.539 174.615 214.906C170.222 214.263 166.23 213.224 163.026 211.939C158.091 209.956 154.914 207.254 154.728 204.301C154.527 201.061 157.908 198.928 163.213 197.862C167.419 197.019 172.951 196.773 178.753 197.137C184.527 197.497 190.619 198.468 195.983 200.054C201.196 201.599 205.722 203.745 208.675 206.52C212.803 203.896 216.135 200.295 218.076 195.506C218.769 193.514 218.386 191.632 217.178 189.887C213.833 191.523 210.001 192.858 205.881 193.897C199.506 195.506 192.447 196.426 185.534 196.686C178.611 196.946 171.803 196.545 165.924 195.515C155.393 193.665 147.746 189.677 147.281 183.653C147.277 183.575 147.368 183.038 147.4 182.96C150.631 175.04 168.9 172.83 186.436 174.949C191.932 175.614 197.373 176.694 202.263 178.143C207.198 179.601 211.573 181.447 214.868 183.63C216.021 184.391 217.051 185.193 217.93 186.036C223.258 183.001 226.698 179.046 226.871 174.147C226.124 168.906 215.602 164.021 198.872 161.409C183.642 159.035 163.441 158.725 140.787 161.92Z" fill="url(#paint2_linear_438_78800)" fill-opacity="0.89"/>
<path fill-rule="evenodd" clip-rule="evenodd" d="M177.272 123.677L185.716 106.1L192.145 124.527L189.006 204.119L197.176 141.086L202.526 152.409L185.145 255.285L166.397 152.144L172.008 140.689L180.553 204.229L177.272 123.677Z" fill="url(#paint3_linear_438_78800)" fill-opacity="0.89"/>
<path fill-rule="evenodd" clip-rule="evenodd" d="M220.199 188.253C220.112 188.303 220.03 188.353 219.944 188.403C221.557 190.836 222.026 193.543 221.001 196.506L220.974 196.578C218.818 201.933 215.186 205.957 210.706 208.896C211.96 210.81 212.538 212.961 212.233 215.363C211.508 221.027 208.688 225.275 204.746 228.328C204.914 228.916 205.033 229.531 205.087 230.164C205.274 232.375 205.015 234.407 204.39 236.262C203.215 239.757 200.74 242.491 197.459 244.433C194.269 246.319 190.318 247.454 186.084 247.81C181.236 248.215 175.958 247.6 170.955 245.918C170.225 245.677 169.492 245.426 169.979 243.973C170.472 242.51 171.201 242.756 171.93 243.002C176.501 244.542 181.359 245.098 185.829 244.724C189.634 244.405 193.13 243.412 195.891 241.781C198.557 240.204 200.553 238.025 201.478 235.282C201.957 233.847 202.153 232.229 202.002 230.42L201.975 230.187C199.213 231.787 196.087 232.926 192.847 233.669C189.16 234.512 185.337 234.84 181.746 234.726C178.137 234.612 174.719 234.056 171.88 233.14C166.944 231.545 163.691 228.788 163.786 225.225C163.873 222.057 167.145 219.833 171.88 218.667C173.201 218.343 174.641 218.088 176.159 217.919V221.018C174.901 221.173 173.707 221.387 172.618 221.656C169.237 222.49 166.917 223.753 166.871 225.297C166.817 227.307 169.214 229.043 172.823 230.215C175.37 231.035 178.488 231.536 181.828 231.641C185.196 231.746 188.759 231.45 192.159 230.67C195.267 229.955 198.256 228.838 200.84 227.266C199.295 225.047 196.379 223.424 192.888 222.349V219.145C197.386 220.399 201.237 222.467 203.36 225.471C206.436 222.9 208.61 219.451 209.184 214.976C209.394 213.34 208.97 211.831 208.05 210.459C202.258 213.522 195.394 215.058 188.559 215.486H188.55C183.783 215.782 179.007 215.541 174.623 214.903C170.23 214.265 166.233 213.226 163.034 211.94C158.099 209.954 154.923 207.256 154.736 204.303C154.535 201.063 157.917 198.93 163.221 197.864C167.318 197.043 172.682 196.788 178.323 197.107H172.878V200.065C169.487 200.101 166.375 200.379 163.827 200.889C160.118 201.632 157.734 202.735 157.821 204.12C157.926 205.77 160.359 207.547 164.178 209.083C167.154 210.277 170.909 211.248 175.056 211.854C179.217 212.455 183.774 212.683 188.363 212.401H188.367C194.497 212.013 200.64 210.701 205.862 208.108C203.707 206.335 200.667 204.85 197.149 203.651V200.411C201.875 201.924 205.949 203.952 208.683 206.522C212.812 203.897 216.139 200.297 218.084 195.503C218.777 193.516 218.394 191.634 217.187 189.889C213.837 191.525 210.009 192.86 205.885 193.899C199.514 195.508 192.455 196.423 185.542 196.688C178.62 196.943 171.811 196.547 165.933 195.512C158.368 194.186 152.289 191.752 149.29 188.253H153.875C156.746 190.13 161.18 191.547 166.461 192.477C172.117 193.47 178.706 193.853 185.433 193.598C192.159 193.347 198.995 192.459 205.138 190.909C208.063 190.171 210.82 189.287 213.34 188.253H220.199Z" fill="url(#paint4_linear_438_78800)" fill-opacity="0.89"/>
</g>
<g opacity="0.7">
<g style="mix-blend-mode:hard-light">
<path d="M152.699 187.452C165.087 196.032 197.603 195.387 215.086 187.516C203.462 196.288 169.22 200.464 152.699 187.452Z" fill="url(#paint5_linear_438_78800)"/>
</g>
<g style="mix-blend-mode:hard-light">
<path d="M161.605 207.881C170.692 214.275 194.542 213.794 207.366 207.929C198.84 214.465 173.724 217.577 161.605 207.881Z" fill="url(#paint6_linear_438_78800)"/>
</g>
<g style="mix-blend-mode:hard-light">
<path d="M167.297 227.243C174.382 233.461 192.979 232.994 202.978 227.29C196.33 233.647 176.746 236.673 167.297 227.243Z" fill="url(#paint7_linear_438_78800)"/>
</g>
<g style="mix-blend-mode:hard-light">
<path d="M171.199 242.654C179.078 246.944 192.939 245.038 197.832 240.852C195.34 245.517 180.713 249.971 171.199 242.654Z" fill="url(#paint8_linear_438_78800)"/>
</g>
</g>
<circle opacity="0.8" cx="182.014" cy="181.75" r="116.92" stroke="url(#paint9_linear_438_78800)" stroke-width="0.86019"/>
<circle opacity="0.5" cx="182" cy="181.752" r="131.824" stroke="url(#paint10_linear_438_78800)" stroke-width="0.86019"/>
<circle opacity="0.3" cx="182.011" cy="181.75" r="146.791" stroke="url(#paint11_linear_438_78800)" stroke-width="0.86019"/>
<circle opacity="0.15" cx="181.999" cy="181.751" r="163.049" stroke="url(#paint12_linear_438_78800)" stroke-width="0.86019"/>
<circle opacity="0.1" cx="182.004" cy="181.75" r="181.07" stroke="url(#paint13_linear_438_78800)" stroke-width="0.86019"/>
</g>
<defs>
<filter id="filter0_b_438_78800" x="-9.71855" y="-9.97246" width="383.445" height="383.445" filterUnits="userSpaceOnUse" color-interpolation-filters="sRGB">
<feFlood flood-opacity="0" result="BackgroundImageFix"/>
<feGaussianBlur in="BackgroundImageFix" stdDeviation="5.11123"/>
<feComposite in2="SourceAlpha" operator="in" result="effect1_backgroundBlur_438_78800"/>
<feBlend mode="normal" in="SourceGraphic" in2="effect1_backgroundBlur_438_78800" result="shape"/>
</filter>
<linearGradient id="paint0_linear_438_78800" x1="190.17" y1="97.8817" x2="189.31" y2="294.435" gradientUnits="userSpaceOnUse">
<stop stop-color="#006FEC"/>
<stop offset="0.775" stop-color="#00178D"/>
<stop offset="1" stop-color="#745DFF"/>
</linearGradient>
<linearGradient id="paint1_linear_438_78800" x1="190.17" y1="97.8817" x2="189.31" y2="294.435" gradientUnits="userSpaceOnUse">
<stop stop-color="#006FEC"/>
<stop offset="0.775" stop-color="#00178D"/>
<stop offset="1" stop-color="#745DFF"/>
</linearGradient>
<linearGradient id="paint2_linear_438_78800" x1="190.17" y1="97.8817" x2="189.31" y2="294.435" gradientUnits="userSpaceOnUse">
<stop stop-color="#006FEC"/>
<stop offset="0.775" stop-color="#00178D"/>
<stop offset="1" stop-color="#745DFF"/>
</linearGradient>
<linearGradient id="paint3_linear_438_78800" x1="190.17" y1="97.8817" x2="189.31" y2="294.435" gradientUnits="userSpaceOnUse">
<stop stop-color="#006FEC"/>
<stop offset="0.775" stop-color="#00178D"/>
<stop offset="1" stop-color="#745DFF"/>
</linearGradient>
<linearGradient id="paint4_linear_438_78800" x1="190.17" y1="97.8817" x2="189.31" y2="294.435" gradientUnits="userSpaceOnUse">
<stop stop-color="#006FEC"/>
<stop offset="0.775" stop-color="#00178D"/>
<stop offset="1" stop-color="#745DFF"/>
</linearGradient>
<linearGradient id="paint5_linear_438_78800" x1="152.491" y1="192.921" x2="216.021" y2="192.921" gradientUnits="userSpaceOnUse">
<stop stop-color="#C58CFF" stop-opacity="0"/>
<stop offset="0.506982" stop-color="#D8B2FF"/>
<stop offset="1" stop-color="#C58CFF" stop-opacity="0"/>
</linearGradient>
<linearGradient id="paint6_linear_438_78800" x1="161.453" y1="211.956" x2="208.052" y2="211.956" gradientUnits="userSpaceOnUse">
<stop stop-color="#C58CFF" stop-opacity="0"/>
<stop offset="0.506982" stop-color="#D8B2FF"/>
<stop offset="1" stop-color="#C58CFF" stop-opacity="0"/>
</linearGradient>
<linearGradient id="paint7_linear_438_78800" x1="167.178" y1="231.206" x2="203.513" y2="231.206" gradientUnits="userSpaceOnUse">
<stop stop-color="#C58CFF" stop-opacity="0"/>
<stop offset="0.506982" stop-color="#D8B2FF"/>
<stop offset="1" stop-color="#C58CFF" stop-opacity="0"/>
</linearGradient>
<linearGradient id="paint8_linear_438_78800" x1="171.11" y1="244.606" x2="198.231" y2="244.606" gradientUnits="userSpaceOnUse">
<stop stop-color="#C58CFF" stop-opacity="0"/>
<stop offset="0.506982" stop-color="#D8B2FF"/>
<stop offset="1" stop-color="#C58CFF" stop-opacity="0"/>
</linearGradient>
<linearGradient id="paint9_linear_438_78800" x1="190.979" y1="87.4046" x2="190.012" y2="308.312" gradientUnits="userSpaceOnUse">
<stop stop-color="#006FEC"/>
<stop offset="0.775" stop-color="#00178D"/>
<stop offset="1" stop-color="#745DFF"/>
</linearGradient>
<linearGradient id="paint10_linear_438_78800" x1="192.104" y1="75.4235" x2="191.014" y2="324.387" gradientUnits="userSpaceOnUse">
<stop stop-color="#006FEC"/>
<stop offset="0.775" stop-color="#00178D"/>
<stop offset="1" stop-color="#745DFF"/>
</linearGradient>
<linearGradient id="paint11_linear_438_78800" x1="193.257" y1="63.3888" x2="192.044" y2="340.528" gradientUnits="userSpaceOnUse">
<stop stop-color="#006FEC"/>
<stop offset="0.775" stop-color="#00178D"/>
<stop offset="1" stop-color="#745DFF"/>
</linearGradient>
<linearGradient id="paint12_linear_438_78800" x1="194.487" y1="50.3195" x2="193.141" y2="358.063" gradientUnits="userSpaceOnUse">
<stop stop-color="#006FEC"/>
<stop offset="0.775" stop-color="#00178D"/>
<stop offset="1" stop-color="#745DFF"/>
</linearGradient>
<linearGradient id="paint13_linear_438_78800" x1="195.869" y1="35.8297" x2="194.374" y2="377.497" gradientUnits="userSpaceOnUse">
<stop stop-color="#006FEC"/>
<stop offset="0.775" stop-color="#00178D"/>
<stop offset="1" stop-color="#745DFF"/>
</linearGradient>
</defs>
</svg>
