<svg width="24" height="25" viewBox="0 0 24 25" fill="none" xmlns="http://www.w3.org/2000/svg">
<path d="M13.9997 2.01807C13.9997 2.01807 16.1997 2.21807 18.9997 5.01807C21.7997 7.81807 21.9997 10.0181 21.9997 10.0181M14.2067 5.55407C14.2067 5.55407 15.1967 5.83607 16.6817 7.32107C18.1667 8.80607 18.4497 9.79607 18.4497 9.79607M10.0377 5.33407L10.6867 6.49707C11.2717 7.54707 11.0367 8.92307 10.1147 9.84607C10.1147 9.84607 8.99466 10.9651 11.0247 12.9941C13.0517 15.0211 14.1717 13.9041 14.1717 13.9041C15.0947 12.9811 16.4717 12.7461 17.5207 13.3311L18.6837 13.9811C20.2687 14.8651 20.4557 17.0871 19.0627 18.4811C18.2257 19.3171 17.1997 19.9691 16.0667 20.0111C14.1587 20.0841 10.9177 19.6011 7.66666 16.3511C4.41666 13.1001 3.93366 9.85907 4.00666 7.95107C4.04966 6.81807 4.70066 5.79207 5.53666 4.95507C6.93066 3.56207 9.15266 3.74907 10.0367 5.33507L10.0377 5.33407Z" stroke="#001855" stroke-width="1.5" stroke-linecap="round" stroke-linejoin="round"/>
</svg>
