<svg width="32" height="32" viewBox="0 0 32 32" fill="none" xmlns="http://www.w3.org/2000/svg">
<path d="M10.6693 4C11.3359 4 14.0026 10 14.0026 10.6667C14.0026 12 12.0026 13.3333 11.3359 14.6667C10.6693 16 12.0026 17.3333 13.3359 18.6667C13.8617 19.1924 16.0026 21.3333 17.3359 20.6667C18.6693 20 20.0026 18 21.3359 18C22.0026 18 28.0026 20.6667 28.0026 21.3333C28.0026 24 26.0026 26 24.0026 26.6667C22.0026 27.3333 20.6693 27.3333 18.0026 26.6667C15.3359 26 13.3359 25.3333 10.0026 22C6.66927 18.6667 6.0026 16.6667 5.33594 14C4.66927 11.3333 4.66927 10 5.33594 8C6.0026 6 8.0026 4 10.6693 4Z" stroke="#001855" stroke-width="2" stroke-linecap="round" stroke-linejoin="round"/>
<path d="M18.668 9.39203C19.549 9.79643 20.3441 10.3562 21.0178 11.0363C21.6741 11.6987 22.2154 12.4751 22.6093 13.3333" stroke="#001855" stroke-width="2" stroke-linecap="round" stroke-linejoin="round"/>
<path d="M27.6679 12C27.1871 10.1324 26.2134 8.46269 24.8935 7.13802C23.5644 5.80415 21.8846 4.82011 20.0039 4.33606" stroke="#001855" stroke-width="2" stroke-linecap="round" stroke-linejoin="round"/>
</svg>
