<svg width="97" height="97" viewBox="0 0 97 97" fill="none" xmlns="http://www.w3.org/2000/svg">
<path opacity="0.7" fill-rule="evenodd" clip-rule="evenodd" d="M53.323 0.324718C42.1382 -0.514472 31.0224 2.67622 21.9855 9.3198C12.9486 15.9634 6.5873 25.6213 4.05189 36.5471C1.59934 47.1158 2.88335 58.1961 7.66529 67.91L0.10183 93.6009C-0.15466 94.4721 0.0815011 95.4139 0.718725 96.061C1.35595 96.7082 2.29399 96.9588 3.16907 96.7158L2.50006 94.3069C3.16907 96.7158 3.16914 96.7157 3.16927 96.7157L3.16986 96.7155L3.1722 96.7149L3.18147 96.7123L3.2181 96.7021L3.36187 96.6622L3.91589 96.5082C4.3978 96.3741 5.09696 96.1796 5.96623 95.9374C7.70474 95.453 10.1239 94.7781 12.8463 94.0159C18.0734 92.5525 24.4252 90.7654 29.2253 89.3871C38.9503 94.1281 50.0266 95.3715 60.5797 92.8854C71.497 90.3134 81.1337 83.9199 87.7471 74.8609C94.3604 65.8019 97.5139 54.6756 96.6373 43.4938C95.7606 32.312 90.9117 21.813 82.9674 13.8953C75.0231 5.97758 64.5078 1.16391 53.323 0.324718ZM28.1086 84.5057C28.8237 84.0879 29.7308 84.0342 30.5209 84.4429C39.4223 89.0484 49.6779 90.3168 59.4332 88.0186C69.1884 85.7204 77.7993 80.0075 83.7087 71.9128C89.6181 63.8181 92.4359 53.8761 91.6526 43.8846C90.8693 33.893 86.5365 24.5116 79.4378 17.4367C72.3391 10.3619 62.9431 6.06057 52.9489 5.3107C42.9547 4.56084 33.022 7.4119 24.9471 13.3483C16.8722 19.2847 11.188 27.9146 8.92247 37.6773C6.65695 47.4401 7.95964 57.6913 12.595 66.5771C12.9924 67.339 12.9586 68.2117 12.5813 68.916L6.17109 90.6896C7.6874 90.2667 9.51208 89.7571 11.4983 89.201C16.8211 87.7108 23.2973 85.8886 28.1086 84.5057Z" fill="url(#paint0_linear_343_38744)"/>
<path opacity="0.7" d="M48.511 64.4532C49.7689 64.4532 50.9752 64.9528 51.8646 65.8423C52.754 66.7317 53.2537 67.938 53.2537 69.1958C53.2537 70.4536 52.754 71.6599 51.8646 72.5493C50.9752 73.4387 49.7689 73.9384 48.511 73.9384C47.2532 73.9384 46.0469 73.4387 45.1575 72.5493C44.2681 71.6599 43.7684 70.4536 43.7684 69.1958C43.7684 67.938 44.2681 66.7317 45.1575 65.8423C46.0469 64.9528 47.2532 64.4532 48.511 64.4532ZM48.511 22.9554C51.9701 22.9554 55.2874 24.3295 57.7333 26.7754C60.1792 29.2213 61.5533 32.5386 61.5533 35.9976C61.5533 40.7876 60.1448 43.4624 56.5688 47.1854L55.7673 47.9964C52.8174 50.9463 52.068 52.1983 52.068 54.968C52.068 55.9113 51.6933 56.8161 51.0262 57.4831C50.3591 58.1502 49.4544 58.5249 48.511 58.5249C47.5677 58.5249 46.6629 58.1502 45.9959 57.4831C45.3288 56.8161 44.954 55.9113 44.954 54.968C44.954 50.178 46.3626 47.5031 49.9386 43.7802L50.7401 42.9692C53.69 40.0193 54.4393 38.7673 54.4393 35.9976C54.4344 34.4813 53.8487 33.0245 52.8025 31.9268C51.7564 30.8291 50.3294 30.1741 48.815 30.0963C47.3007 30.0185 45.8141 30.524 44.661 31.5088C43.508 32.4935 42.7761 33.8827 42.6159 35.3905L42.5827 35.9976C42.5827 36.9409 42.208 37.8457 41.5409 38.5127C40.8738 39.1798 39.9691 39.5545 39.0257 39.5545C38.0824 39.5545 37.1776 39.1798 36.5106 38.5127C35.8435 37.8457 35.4688 36.9409 35.4688 35.9976C35.4688 32.5386 36.8428 29.2213 39.2887 26.7754C41.7346 24.3295 45.052 22.9554 48.511 22.9554Z" fill="url(#paint1_linear_343_38744)" stroke="white" stroke-width="2" stroke-linecap="round" stroke-linejoin="round"/>
<defs>
<linearGradient id="paint0_linear_343_38744" x1="72.7796" y1="51.0705" x2="77.7358" y2="102.52" gradientUnits="userSpaceOnUse">
<stop stop-color="#2C944D"/>
<stop offset="1" stop-color="#0F8291"/>
</linearGradient>
<linearGradient id="paint1_linear_343_38744" x1="56.4886" y1="48.4894" x2="61.6724" y2="76.4209" gradientUnits="userSpaceOnUse">
<stop stop-color="#2C944D"/>
<stop offset="1" stop-color="#0F8291"/>
</linearGradient>
</defs>
</svg>
