<svg width="452" height="237" viewBox="0 0 452 237" fill="none" xmlns="http://www.w3.org/2000/svg">
<g filter="url(#filter0_d_136_165319)">
<path d="M73.4734 2.31959e-05C35.1698 2.31959e-05 4 31.169 4 69.4689C4 107.801 35.1698 138.97 73.4734 138.97C74.6418 138.97 75.8092 138.934 76.9739 138.875C76.8317 137.075 76.775 135.306 76.775 133.504C76.775 131.625 76.8558 129.769 76.9992 127.917C75.8284 127.989 74.6521 128.032 73.4734 128.032C41.1841 128.032 14.9366 101.762 14.9366 69.4689C14.9366 37.1812 41.1841 10.9381 73.4734 10.9381C103.621 10.9381 128.503 33.8162 131.67 63.1181C132.544 69.5422 131.906 75.4384 130.821 81.1789C126.838 100.824 112.961 116.929 94.6503 124.055C94.5583 124.593 94.44 125.123 94.3637 125.666L94.3622 125.682L94.3592 125.7C93.9728 128.248 93.7921 130.827 93.7921 133.504C93.7921 134.33 93.8282 135.129 93.8723 135.926C120.474 127.733 140.327 103.967 142.725 75.3224C142.89 73.382 142.972 71.4411 142.972 69.4689C142.972 67.7193 142.917 66.0287 142.78 64.3057C140.128 28.4075 110.054 2.31959e-05 73.4734 2.31959e-05Z" fill="#0083C7"/>
<path d="M225.677 0C190.102 0 160.705 26.8516 156.664 61.3336C156.672 61.3344 156.679 61.3343 156.686 61.3351C160.339 61.7132 163.926 62.3619 167.443 63.2873C170.534 33.9024 195.472 10.9381 225.677 10.9381C256.872 10.9381 282.436 35.4318 284.131 66.1925C284.213 67.2847 284.241 68.3768 284.241 69.4689C284.241 72.2894 284.05 75.0196 283.639 77.7289C280.661 98.9417 266.212 116.535 246.798 124.067C246.714 124.601 246.618 125.128 246.542 125.666L246.539 125.682L246.536 125.7C246.15 128.247 245.969 130.827 245.969 133.504C245.969 134.33 246.005 135.129 246.049 135.926C272.676 127.734 292.532 103.968 294.931 75.3224C295.094 73.382 295.177 71.4411 295.177 69.4689C295.177 67.7193 295.122 66.0287 294.986 64.3057C292.333 28.4075 262.258 0 225.677 0Z" fill="#000100"/>
<path d="M156.789 78.5229C160.441 106.606 180.921 129.473 207.767 136.622C211.293 137.576 214.902 138.232 218.593 138.614C220.918 138.858 223.296 138.97 225.675 138.97C226.836 138.97 227.997 138.935 229.15 138.877C229.008 137.076 228.951 135.307 228.951 133.504C228.951 131.625 229.03 129.769 229.174 127.916C228.015 127.989 226.849 128.032 225.675 128.032C223.241 128.032 220.863 127.899 218.512 127.571C214.629 127.131 210.829 126.256 207.22 125.053C187.606 118.526 172.568 101.879 168.348 81.3525C167.825 81.1704 167.309 80.9808 166.78 80.8047H166.779C163.57 79.7348 160.207 78.9548 156.789 78.5229Z" fill="#000100"/>
<path d="M377.88 0C342.306 0 312.908 26.8515 308.867 61.3336C308.875 61.3344 308.883 61.3343 308.891 61.3351C312.543 61.7131 316.129 62.3622 319.646 63.2873C322.737 33.9023 347.675 10.9381 377.88 10.9381C410.168 10.9381 436.417 37.1812 436.417 69.4689C436.417 101.762 410.168 128.032 377.88 128.032C375.447 128.032 373.068 127.899 370.717 127.571C366.808 127.131 363.035 126.256 359.426 125.053C339.817 118.528 324.79 101.881 320.567 81.36C320.039 81.1764 319.519 80.9818 318.987 80.8048H318.986H318.984C315.77 79.733 312.432 78.956 308.995 78.5246C312.647 106.608 333.127 129.473 359.972 136.622C363.471 137.576 367.108 138.232 370.799 138.614C373.123 138.858 375.502 138.97 377.88 138.97C416.185 138.97 447.355 107.801 447.355 69.4689C447.355 31.169 416.186 0 377.88 0Z" fill="#E8354F"/>
<path d="M149.282 64.0029C148.12 64.0029 146.96 64.0383 145.806 64.0965C145.949 65.9014 146.007 67.6666 146.007 69.469C146.007 71.3496 145.925 73.2057 145.781 75.0583C146.941 74.9854 148.107 74.941 149.282 74.941C151.715 74.941 154.094 75.0784 156.445 75.4071C160.327 75.8419 164.127 76.717 167.736 77.9205C187.344 84.4455 202.381 101.092 206.606 121.607C207.131 121.793 207.643 121.991 208.176 122.169H208.178C211.385 123.238 214.748 124.017 218.167 124.453C214.515 96.3934 194.034 73.501 167.19 66.3574C163.664 65.3978 160.054 64.7395 156.363 64.3577C154.039 64.1139 151.66 64.0029 149.282 64.0029Z" fill="#F7B22E"/>
<path d="M128.972 67.0284C54.5884 89.2982 69.6812 203 149.288 203C184.862 203 214.258 176.123 218.3 141.64C218.292 141.639 218.285 141.639 218.277 141.638C214.624 141.26 211.039 140.612 207.522 139.692C204.431 169.079 179.493 192.068 149.288 192.068C84.3944 192.068 69.3395 101.217 128.116 78.9002C128.779 75.0008 129.179 71.0997 128.972 67.0284Z" fill="#F7B22E"/>
<path d="M301.491 64.0029C300.326 64.0029 299.169 64.0396 298.016 64.0979C298.158 65.9011 298.216 67.6665 298.216 69.469C298.216 71.3496 298.135 73.2048 297.992 75.0568C299.151 74.984 300.317 74.941 301.491 74.941C303.925 74.941 306.303 75.0784 308.654 75.4071C312.564 75.8419 316.336 76.717 319.946 77.9205C339.556 84.4461 354.594 101.095 358.817 121.613C359.341 121.797 359.852 121.992 360.384 122.169H360.386H360.387C363.6 123.24 366.938 124.017 370.377 124.453C366.721 96.3934 346.217 73.501 319.399 66.3574C315.872 65.3978 312.263 64.7395 308.573 64.3577C306.248 64.1139 303.87 64.0029 301.491 64.0029Z" fill="#04A54F"/>
<path d="M281.118 67.0521C254.515 75.2398 234.636 99.0062 232.237 127.651C232.073 129.591 231.992 131.532 231.992 133.504C231.992 135.254 232.046 136.95 232.182 138.668C234.835 174.566 264.91 203 301.491 203C337.038 203 366.46 176.123 370.502 141.64C370.496 141.639 370.488 141.639 370.482 141.638C366.832 141.26 363.225 140.613 359.725 139.692C356.634 169.078 331.696 192.068 301.491 192.068C270.296 192.068 244.732 167.541 243.037 136.785C242.955 135.688 242.927 134.596 242.927 133.504C242.927 130.689 243.119 127.954 243.53 125.244C246.509 104.029 260.961 86.4392 280.379 78.9046C280.46 78.3706 280.551 77.8469 280.627 77.3072L280.629 77.2909L280.632 77.2745C281.018 74.7263 281.199 72.1522 281.199 69.4688C281.199 68.6436 281.162 67.8463 281.118 67.0521Z" fill="#04A54F" stroke="white" stroke-width="0.0517096"/>
</g>
<defs>
<filter id="filter0_d_136_165319" x="0" y="0" width="451.352" height="236.026" filterUnits="userSpaceOnUse" color-interpolation-filters="sRGB">
<feFlood flood-opacity="0" result="BackgroundImageFix"/>
<feColorMatrix in="SourceAlpha" type="matrix" values="0 0 0 0 0 0 0 0 0 0 0 0 0 0 0 0 0 0 127 0" result="hardAlpha"/>
<feOffset dy="29"/>
<feGaussianBlur stdDeviation="2"/>
<feComposite in2="hardAlpha" operator="out"/>
<feColorMatrix type="matrix" values="0 0 0 0 0 0 0 0 0 0 0 0 0 0 0 0 0 0 0.06 0"/>
<feBlend mode="color-burn" in2="BackgroundImageFix" result="effect1_dropShadow_136_165319"/>
<feBlend mode="normal" in="SourceGraphic" in2="effect1_dropShadow_136_165319" result="shape"/>
</filter>
</defs>
</svg>
