<svg width="2601" height="642" viewBox="0 0 2601 642" fill="none" xmlns="http://www.w3.org/2000/svg">
<path d="M0.5 321C0.5 143.993 143.993 0.5 321 0.5H2601V1.5H321C144.545 1.5 1.5 144.545 1.5 321H0.5ZM2601 641.5H321C143.993 641.5 0.5 498.007 0.5 321H1.5C1.5 497.455 144.545 640.5 321 640.5H2601V641.5ZM321 641.5C143.993 641.5 0.5 498.007 0.5 321C0.5 143.993 143.993 0.5 321 0.5V1.5C144.545 1.5 1.5 144.545 1.5 321C1.5 497.455 144.545 640.5 321 640.5V641.5ZM2601 1V641V1Z" fill="url(#paint0_linear_7_2)"/>
<defs>
<linearGradient id="paint0_linear_7_2" x1="1525.74" y1="38.4509" x2="1554.61" y2="619.083" gradientUnits="userSpaceOnUse">
<stop stop-color="#0054F8"/>
<stop offset="1" stop-color="#A6C851"/>
</linearGradient>
</defs>
</svg>
