<svg width="1561" height="642" viewBox="0 0 1561 642" fill="none" xmlns="http://www.w3.org/2000/svg">
<path d="M0.5 321C0.5 143.993 143.993 0.5 321 0.5H1561V1.5H321C144.545 1.5 1.5 144.545 1.5 321H0.5ZM1561 641.5H321C143.993 641.5 0.5 498.007 0.5 321H1.5C1.5 497.455 144.545 640.5 321 640.5H1561V641.5ZM321 641.5C143.993 641.5 0.5 498.007 0.5 321C0.5 143.993 143.993 0.5 321 0.5V1.5C144.545 1.5 1.5 144.545 1.5 321C1.5 497.455 144.545 640.5 321 640.5V641.5ZM1561 1V641V1Z" fill="url(#paint0_linear_136_163314)"/>
<defs>
<linearGradient id="paint0_linear_136_163314" x1="915.843" y1="38.4509" x2="963.746" y2="616.548" gradientUnits="userSpaceOnUse">
<stop stop-color="#0054F8"/>
<stop offset="1" stop-color="#A6C851"/>
</linearGradient>
</defs>
</svg>
