<svg width="25" height="24" viewBox="0 0 25 24" fill="none" xmlns="http://www.w3.org/2000/svg">
<path d="M14.3512 2C14.3512 2 16.5512 2.2 19.3512 5C22.1512 7.8 22.3512 10 22.3512 10M14.5582 5.536C14.5582 5.536 15.5482 5.818 17.0332 7.303C18.5182 8.788 18.8012 9.778 18.8012 9.778M10.3892 5.316L11.0382 6.479C11.6232 7.529 11.3882 8.905 10.4662 9.828C10.4662 9.828 9.34622 10.947 11.3762 12.976C13.4032 15.003 14.5232 13.886 14.5232 13.886C15.4462 12.963 16.8232 12.728 17.8722 13.313L19.0352 13.963C20.6202 14.847 20.8072 17.069 19.4142 18.463C18.5772 19.299 17.5512 19.951 16.4182 19.993C14.5102 20.066 11.2692 19.583 8.01822 16.333C4.76822 13.082 4.28522 9.841 4.35822 7.933C4.40122 6.8 5.05222 5.774 5.88822 4.937C7.28222 3.544 9.50422 3.731 10.3882 5.317L10.3892 5.316Z" stroke="#034EA2" stroke-width="1.5" stroke-linecap="round" stroke-linejoin="round"/>
</svg>
