<svg width="40" height="40" viewBox="0 0 40 40" fill="none" xmlns="http://www.w3.org/2000/svg">
<path d="M28.775 10.8814C28.5342 10.6861 28.1663 10.6446 28.0003 10.6479C27.2483 10.6609 26.0927 11.0629 20.5394 13.3725C18.5927 14.1814 14.706 15.8562 8.87595 18.3961C7.92869 18.7729 7.43389 19.1407 7.38832 19.5012C7.3102 20.1091 8.07192 20.3484 9.10707 20.6755L9.54978 20.8163C10.0511 20.9791 10.637 21.1557 11.1904 21.2949C11.7633 21.4381 12.2972 21.5422 12.6585 21.5496C13.1077 21.561 13.5927 21.4373 14.1136 21.1768C14.3447 21.0613 14.5823 20.9189 14.8297 20.7496C20.2757 17.0745 23.0849 15.2141 23.264 15.1742C23.3877 15.1458 23.5602 15.1108 23.6774 15.2141C23.7946 15.3175 23.7848 15.5144 23.7718 15.5681C23.6709 15.9897 18.5537 20.6446 18.2607 20.9514C17.1344 22.1176 15.8551 22.8346 17.831 24.1342C19.5368 25.2613 20.5329 25.9791 22.2939 27.1347C22.5283 27.2877 22.7497 27.4464 22.9677 27.601C23.7946 28.1918 24.54 28.7232 25.4612 28.6378C25.9951 28.5898 26.5452 28.0877 26.8252 26.5878C27.4892 23.0462 28.7946 15.3728 29.0941 12.2096C29.1201 11.9329 29.0875 11.5781 29.0615 11.4226C29.0355 11.2127 28.9345 11.0198 28.775 10.8814Z" fill="#034EA2"/>
</svg>
