<svg width="108" height="108" viewBox="0 0 108 108" fill="none" xmlns="http://www.w3.org/2000/svg">
<path opacity="0.7" d="M54.0135 94.5C48.4155 94.5 43.1505 93.438 38.2185 91.314C33.2895 89.187 29.001 86.301 25.353 82.656C21.705 79.011 18.8175 74.727 16.6905 69.804C14.5635 64.881 13.5 59.6175 13.5 54.0135C13.5 48.4095 14.5635 43.1445 16.6905 38.2185C18.8145 33.2895 21.696 29.001 25.335 25.353C28.974 21.705 33.2595 18.8175 38.1915 16.6905C43.1235 14.5635 48.3885 13.5 53.9865 13.5C59.5845 13.5 64.8495 14.5635 69.7815 16.6905C74.7105 18.8145 78.999 21.6975 82.647 25.3395C86.295 28.9815 89.1825 33.267 91.3095 38.196C93.4365 43.125 94.5 48.3885 94.5 53.9865C94.5 59.5845 93.438 64.8495 91.314 69.7815C89.19 74.7135 86.304 79.002 82.656 82.647C79.008 86.292 74.724 89.1795 69.804 91.3095C64.884 93.4395 59.6205 94.503 54.0135 94.5ZM54 90C64.05 90 72.5625 86.5125 79.5375 79.5375C86.5125 72.5625 90 64.05 90 54C90 43.95 86.5125 35.4375 79.5375 28.4625C72.5625 21.4875 64.05 18 54 18C43.95 18 35.4375 21.4875 28.4625 28.4625C21.4875 35.4375 18 43.95 18 54C18 64.05 21.4875 72.5625 28.4625 79.5375C35.4375 86.5125 43.95 90 54 90ZM54 72C54 73.2426 55.0074 74.25 56.25 74.25C57.4926 74.25 58.5 73.2426 58.5 72V40.5C58.5 36.7721 55.4779 33.75 51.75 33.75H47.25C46.0074 33.75 45 34.7574 45 36C45 37.2426 46.0074 38.25 47.25 38.25H51.5383C52.8978 38.25 54 39.3522 54 40.7117V72Z" fill="url(#paint0_linear_398_34244)"/>
<defs>
<linearGradient id="paint0_linear_398_34244" x1="78.7725" y1="54.0675" x2="83.0925" y2="99.5625" gradientUnits="userSpaceOnUse">
<stop stop-color="#2C944D"/>
<stop offset="1" stop-color="#0F8291"/>
</linearGradient>
</defs>
</svg>
