<svg width="108" height="108" viewBox="0 0 108 108" fill="none" xmlns="http://www.w3.org/2000/svg">
<path opacity="0.7" d="M54.0135 94.5C48.4155 94.5 43.1505 93.438 38.2185 91.314C33.2895 89.187 29.001 86.301 25.353 82.656C21.705 79.011 18.8175 74.727 16.6905 69.804C14.5635 64.881 13.5 59.6175 13.5 54.0135C13.5 48.4095 14.5635 43.1445 16.6905 38.2185C18.8145 33.2895 21.696 29.001 25.335 25.353C28.974 21.705 33.2595 18.8175 38.1915 16.6905C43.1235 14.5635 48.3885 13.5 53.9865 13.5C59.5845 13.5 64.8495 14.5635 69.7815 16.6905C74.7105 18.8145 78.999 21.6975 82.647 25.3395C86.295 28.9815 89.1825 33.267 91.3095 38.196C93.4365 43.125 94.5 48.3885 94.5 53.9865C94.5 59.5845 93.438 64.8495 91.314 69.7815C89.19 74.7135 86.304 79.002 82.656 82.647C79.008 86.292 74.724 89.1795 69.804 91.3095C64.884 93.4395 59.6205 94.503 54.0135 94.5ZM54 90C64.05 90 72.5625 86.5125 79.5375 79.5375C86.5125 72.5625 90 64.05 90 54C90 43.95 86.5125 35.4375 79.5375 28.4625C72.5625 21.4875 64.05 18 54 18C43.95 18 35.4375 21.4875 28.4625 28.4625C21.4875 35.4375 18 43.95 18 54C18 64.05 21.4875 72.5625 28.4625 79.5375C35.4375 86.5125 43.95 90 54 90Z" fill="url(#paint0_linear_398_34264)"/>
<path opacity="0.7" d="M43.2007 36.1579C43.2007 34.9261 44.1993 33.9276 45.431 33.9276H54.3537C60.512 33.9276 65.5048 38.919 65.5066 45.0773L65.5078 49.022C65.5048 51.0739 64.8164 52.7882 63.4426 54.165C62.0687 55.5418 60.3559 56.2302 58.3041 56.2302H50.4089C49.609 56.2302 48.9518 56.4875 48.4374 57.0019C47.9229 57.5164 47.6657 58.1735 47.6657 58.9735V66.8641C47.6657 67.667 47.9229 68.3257 48.4374 68.8401C48.9518 69.3546 49.609 69.6118 50.4089 69.6118H63.2775C64.5093 69.6118 65.5078 70.6103 65.5078 71.8421C65.5078 73.0738 64.5093 74.0723 63.2776 74.0723H50.4089C48.3541 74.0753 46.6398 73.3884 45.266 72.0116C43.8921 70.6348 43.2052 68.9204 43.2052 66.8686V58.9779C43.2022 56.9201 43.8891 55.2043 45.266 53.8305C46.6428 52.4566 48.3571 51.7697 50.4089 51.7697H58.3041C59.104 51.7697 59.7612 51.5125 60.2756 50.998C60.7871 50.4836 61.0428 49.8249 61.0428 49.022V45.062C61.0428 41.3761 58.0548 38.3881 54.369 38.3881H45.431C44.1992 38.3881 43.2007 37.3896 43.2007 36.1579Z" fill="url(#paint1_linear_398_34264)"/>
<defs>
<linearGradient id="paint0_linear_398_34264" x1="78.7725" y1="54.0675" x2="83.0925" y2="99.5625" gradientUnits="userSpaceOnUse">
<stop stop-color="#2C944D"/>
<stop offset="1" stop-color="#0F8291"/>
</linearGradient>
<linearGradient id="paint1_linear_398_34264" x1="-0.466141" y1="-5.64561" x2="-17.4161" y2="-184.15" gradientUnits="userSpaceOnUse">
<stop stop-color="#2C944D"/>
<stop offset="1" stop-color="#0F8291"/>
</linearGradient>
</defs>
</svg>
