<svg width="95" height="95" viewBox="0 0 95 95" fill="none" xmlns="http://www.w3.org/2000/svg">
<g opacity="0.7">
<path fill-rule="evenodd" clip-rule="evenodd" d="M54.2061 62.5441L53.3005 63.7126L54.3358 64.1359C56.145 64.8757 58.375 65.3177 61.106 65.318L53.3005 63.7126L61.1084 65.318C67.3814 65.3174 70.9732 62.9775 72.8835 60.1946L72.8851 60.1922C73.868 58.7495 74.4801 57.0868 74.6672 55.3512L74.6681 55.3423L74.6689 55.3335C74.6815 55.1884 74.6907 55.0632 74.6955 54.9616L74.7 54.832V54.4567C74.7 53.0244 74.131 51.6508 73.1182 50.638C72.1054 49.6252 70.7318 49.0562 69.2994 49.0562H53.9196L55.136 50.4623C55.7953 51.2245 56.2544 52.139 56.4717 53.1232L56.6189 53.7899H69.2982C69.6661 53.7899 69.9651 54.0889 69.9651 54.4567V54.734C69.963 54.7816 69.9597 54.8292 69.9551 54.8766C69.8477 55.824 69.5116 56.731 68.976 57.5198C68.0762 58.8311 66.0556 60.5843 61.1072 60.5843C59.1826 60.5843 57.7067 60.3183 56.5739 59.924L55.8505 59.6722L55.525 60.3657C55.197 61.0648 54.7681 61.803 54.2087 62.5408L54.2061 62.5441Z" fill="url(#paint0_linear_363_32443)"/>
<path fill-rule="evenodd" clip-rule="evenodd" d="M19 54.4567V56.0554L19.0055 56.1906L19.0059 56.1981C19.0118 56.3157 19.0238 56.4604 19.0407 56.6269L19.0416 56.635C19.0803 56.9853 19.1533 57.461 19.2952 58.0236L19.2957 58.0254C19.6719 59.5033 20.3407 60.8908 21.2624 62.1058C23.5895 65.1732 27.9296 67.7449 35.6253 67.7449C43.3207 67.7449 47.6624 65.1733 49.9872 62.1054C50.9094 60.8902 51.5785 59.5025 51.9549 58.0242L51.9552 58.0229C52.0973 57.4611 52.1702 56.9852 52.209 56.6335L52.2093 56.631C52.2293 56.4445 52.2429 56.2574 52.25 56.07L52.2506 56.054V54.4567C52.2506 53.7475 52.1109 53.0453 51.8395 52.39C51.5681 51.7348 51.1703 51.1395 50.6688 50.638C50.1673 50.1365 49.5719 49.7387 48.9167 49.4673C48.2615 49.1959 47.5592 49.0562 46.85 49.0562H24.4006C22.9682 49.0562 21.5946 49.6252 20.5818 50.638C19.569 51.6508 19 53.0244 19 54.4567ZM23.8829 56.8603C23.8069 56.5645 23.7571 56.2625 23.7339 55.9579L23.7337 55.9506V54.4567C23.7337 54.0889 24.0327 53.7899 24.4006 53.7899H46.85C47.2179 53.7899 47.5169 54.0889 47.5169 54.4567V55.9506L47.5166 55.9578C47.4934 56.262 47.4436 56.5636 47.3676 56.8591L47.3673 56.8602C47.1467 57.7243 46.755 58.5354 46.2156 59.2455L46.215 59.2463C44.9752 60.8826 42.186 63.0112 35.6253 63.0112C29.0646 63.0112 26.2753 60.8826 25.0356 59.2463L25.0349 59.2454C24.4956 58.5356 24.1038 57.724 23.8829 56.8603Z" fill="url(#paint1_linear_363_32443)"/>
<path fill-rule="evenodd" clip-rule="evenodd" d="M35.6253 26C32.8252 26 30.1397 27.1123 28.1597 29.0923C26.1798 31.0723 25.0674 33.7577 25.0674 36.5579C25.0674 39.358 26.1798 42.0434 28.1597 44.0234C30.1397 46.0034 32.8252 47.1157 35.6253 47.1157C38.4254 47.1157 41.1108 46.0034 43.0908 44.0234C45.0708 42.0434 46.1831 39.358 46.1831 36.5579C46.1831 33.7577 45.0708 31.0723 43.0908 29.0923C41.1108 27.1123 38.4254 26 35.6253 26ZM29.8011 36.5579C29.8011 35.0132 30.4147 33.5318 31.507 32.4396C32.5992 31.3473 34.0806 30.7337 35.6253 30.7337C37.1699 30.7337 38.6513 31.3473 39.7436 32.4396C40.8358 33.5318 41.4494 35.0132 41.4494 36.5579C41.4494 38.1025 40.8358 39.5839 39.7436 40.6762C38.6513 41.7684 37.1699 42.382 35.6253 42.382C34.0806 42.382 32.5992 41.7684 31.507 40.6762C30.4147 39.5839 29.8011 38.1025 29.8011 36.5579Z" fill="url(#paint2_linear_363_32443)"/>
<path fill-rule="evenodd" clip-rule="evenodd" d="M61.1084 30.8539C58.952 30.8539 56.8839 31.7106 55.359 33.2354C53.8342 34.7603 52.9775 36.8284 52.9775 38.9848C52.9775 41.1413 53.8342 43.2094 55.359 44.7342C56.8839 46.2591 58.952 47.1157 61.1084 47.1157C63.2649 47.1157 65.333 46.2591 66.8578 44.7342C68.3827 43.2094 69.2393 41.1413 69.2393 38.9848C69.2393 36.8284 68.3827 34.7603 66.8578 33.2354C65.333 31.7106 63.2649 30.8539 61.1084 30.8539ZM57.7112 38.9848C57.7112 38.0838 58.0691 37.2198 58.7062 36.5827C59.3433 35.9456 60.2074 35.5876 61.1084 35.5876C62.0094 35.5876 62.8735 35.9456 63.5106 36.5827C64.1477 37.2198 64.5056 38.0838 64.5056 38.9848C64.5056 39.8858 64.1477 40.7499 63.5106 41.387C62.8735 42.0241 62.0094 42.382 61.1084 42.382C60.2074 42.382 59.3433 42.0241 58.7062 41.387C58.0691 40.7499 57.7112 39.8858 57.7112 38.9848Z" fill="url(#paint3_linear_363_32443)"/>
<ellipse cx="47.074" cy="47.8445" rx="44.4725" ry="44.472" stroke="url(#paint4_linear_363_32443)" stroke-width="5" stroke-linecap="round" stroke-linejoin="round"/>
</g>
<defs>
<linearGradient id="paint0_linear_363_32443" x1="63.8849" y1="46.9073" x2="65.5601" y2="70.4462" gradientUnits="userSpaceOnUse">
<stop stop-color="#2C944D"/>
<stop offset="1" stop-color="#0F8291"/>
</linearGradient>
<linearGradient id="paint1_linear_363_32443" x1="63.8849" y1="46.9073" x2="65.5601" y2="70.4462" gradientUnits="userSpaceOnUse">
<stop stop-color="#2C944D"/>
<stop offset="1" stop-color="#0F8291"/>
</linearGradient>
<linearGradient id="paint2_linear_363_32443" x1="63.8849" y1="46.9073" x2="65.5601" y2="70.4462" gradientUnits="userSpaceOnUse">
<stop stop-color="#2C944D"/>
<stop offset="1" stop-color="#0F8291"/>
</linearGradient>
<linearGradient id="paint3_linear_363_32443" x1="63.8849" y1="46.9073" x2="65.5601" y2="70.4462" gradientUnits="userSpaceOnUse">
<stop stop-color="#2C944D"/>
<stop offset="1" stop-color="#0F8291"/>
</linearGradient>
<linearGradient id="paint4_linear_363_32443" x1="74.2763" y1="47.9186" x2="79.0199" y2="97.8755" gradientUnits="userSpaceOnUse">
<stop stop-color="#2C944D"/>
<stop offset="1" stop-color="#0F8291"/>
</linearGradient>
</defs>
</svg>
