<svg width="40" height="40" viewBox="0 0 40 40" fill="none" xmlns="http://www.w3.org/2000/svg">
<path d="M12.8157 13.9679C12.7894 13.5144 12.4208 13.1478 11.9664 13.1478H9.8509C9.38386 13.1478 9.00647 13.5324 9.03182 13.9988C9.46996 22.0599 13.7164 26.863 20.9766 26.863C21.2216 26.863 21.4202 26.6644 21.4202 26.4194V22.883C21.4202 22.39 21.8487 22 22.3268 22.1205C24.4372 22.6527 26.0645 24.2512 26.8936 26.292C27.0298 26.6274 27.3464 26.863 27.7084 26.863H29.911C30.4599 26.863 30.859 26.3406 30.6633 25.8278C30.2482 24.74 29.6602 23.7233 28.9181 22.8189C28.5103 22.3199 28.0596 21.8602 27.5731 21.4452C27.2829 21.1975 26.9795 20.9651 26.6644 20.7492C26.1231 20.3782 26.0872 19.5267 26.593 19.1086C26.9805 18.7883 27.3439 18.4406 27.6804 18.0683C27.9666 17.7499 28.2385 17.4155 28.4817 17.0631C29.1154 16.1631 29.6031 15.1713 29.9257 14.1244C30.0808 13.621 29.6848 13.1371 29.158 13.1371H27.268C26.8943 13.1371 26.5701 13.3875 26.4416 13.7385C26.0174 14.8964 25.3293 15.9796 24.511 16.827C23.8416 17.5222 23.0869 18.058 22.319 18.3464C21.8552 18.5206 21.4202 18.1334 21.4202 17.638V13.9812C21.4202 13.5209 21.0471 13.1478 20.5869 13.1478H18.7049C18.2447 13.1478 17.8716 13.5209 17.8716 13.9811V21.5763C17.8716 22.1185 17.3589 22.5124 16.8784 22.2613C15.0209 21.2903 13.0951 18.7933 12.8157 13.9679Z" fill="#034EA2"/>
</svg>
