<svg width="40" height="40" viewBox="0 0 40 40" fill="none" xmlns="http://www.w3.org/2000/svg">
<path fill-rule="evenodd" clip-rule="evenodd" d="M21.2623 11.9754L20.0022 11.9607C19.1386 11.9617 18.2711 11.9813 17.4075 12.0186L16.3987 12.0677L15.4291 12.1246L14.5263 12.1854L13.7019 12.2502C12.8069 12.3189 11.9629 12.7016 11.3192 13.3307C10.6793 13.9597 10.2789 14.7949 10.1926 15.6899L10.1494 16.1167L10.0748 17.0314C10.0042 17.9794 9.95312 19.0117 9.95312 20C9.95705 20.9902 10.0002 21.9804 10.0748 22.9686L10.1494 23.8832L10.1926 24.3101C10.2515 24.9126 10.4517 25.4887 10.7735 25.9921C10.9266 26.2365 11.1111 26.4642 11.3192 26.6693C11.9629 27.2983 12.8069 27.6811 13.7019 27.7498L14.5302 27.8135L15.433 27.8754L16.3987 27.9323L17.4075 27.9814C18.2711 28.0186 19.1386 28.0383 20.0022 28.0393C20.8658 28.0383 21.7333 28.0186 22.5969 27.9814L23.6058 27.9323L24.5714 27.8754L25.4782 27.8135L26.3025 27.7498C27.1975 27.6811 28.0415 27.2993 28.6853 26.6703C29.3251 26.0402 29.7255 25.2051 29.8119 24.3101L29.8551 23.8832L29.9296 22.9686C30.0003 22.0206 30.0513 20.9882 30.0513 20C30.0513 19.0117 30.0003 17.9794 29.9296 17.0314L29.8551 16.1167L29.8119 15.6899C29.7255 14.7949 29.3251 13.9597 28.6853 13.3307C28.0415 12.7016 27.1975 12.3189 26.3025 12.2502L25.4743 12.1854L24.5714 12.1246L23.6058 12.0677L22.5969 12.0186L21.2623 11.9754ZM18.2554 24.1207L24.2103 20.684L24.3241 20.6045C24.3987 20.5397 24.4654 20.4622 24.5204 20.3739C24.595 20.2434 24.6382 20.0971 24.6382 19.948C24.6382 19.8685 24.6264 19.7909 24.6068 19.7154L24.5204 19.5211C24.4458 19.3925 24.3398 19.2846 24.2103 19.2119L18.2554 15.7762C18.1298 15.7006 17.9846 15.6624 17.8354 15.6624C17.7412 15.6624 17.647 15.6761 17.5645 15.7056L17.4114 15.7762L17.2426 15.8989C17.1877 15.9548 17.1367 16.0176 17.1013 16.0873C17.0228 16.2168 16.9836 16.364 16.9836 16.5122V23.3837C16.9836 24.0383 17.6901 24.4465 18.2554 24.1207Z" fill="#034EA2"/>
</svg>
